<svg xmlns="http://www.w3.org/2000/svg" width="39.269" height="39.437" viewBox="0 0 39.269 39.437">
  <defs>
    <style>
      .cls-1 {
        isolation: isolate;
      }

      .cls-2 {
        fill: #e6bd83;
      }

      .cls-3 {
        fill: #f15c6b;
      }

      .cls-4 {
        fill: #f9c862;
      }

      .cls-5 {
        fill: #62c6bf;
      }

      .cls-6 {
        fill: #6d90ca;
      }

      .cls-7 {
        fill: #6d6d6c;
        opacity: 0.15;
        mix-blend-mode: multiply;
      }
    </style>
  </defs>
  <title>Donut</title>
  <g class="cls-1">
    <g id="Layer_2" data-name="Layer 2">
      <g id="Layer_1-2" data-name="Layer 1">
        <g>
          <g id="Flat">
            <g id="Donut">
              <g id="Group">
                <path id="Combined-Shape" class="cls-2" d="M19.634,39.269A19.634,19.634,0,1,1,39.269,19.634,19.634,19.634,0,0,1,19.634,39.269Zm.209-13.786a5.64,5.64,0,1,0-5.64-5.64A5.64,5.64,0,0,0,19.843,25.483Z"/>
                <path id="Combined-Shape-2" data-name="Combined-Shape" class="cls-3" d="M21.688,33.974a7.474,7.474,0,0,0-3.937,0l-2.576.834a2.509,2.509,0,0,1-2.91-1.205l-1.232-2.411a7.474,7.474,0,0,0-2.784-2.784L5.837,27.175a2.509,2.509,0,0,1-1.205-2.91l.834-2.576a7.474,7.474,0,0,0,0-3.937l-.834-2.576a2.509,2.509,0,0,1,1.205-2.91l2.411-1.232a7.474,7.474,0,0,0,2.784-2.784l1.232-2.411a2.509,2.509,0,0,1,2.91-1.205l2.576.834a7.474,7.474,0,0,0,3.937,0l2.576-.834a2.509,2.509,0,0,1,2.91,1.205l1.232,2.411a7.474,7.474,0,0,0,2.784,2.784L33.6,12.265a2.509,2.509,0,0,1,1.205,2.91l-.834,2.576a7.474,7.474,0,0,0,0,3.937l.834,2.576a2.509,2.509,0,0,1-1.205,2.91l-2.411,1.232a7.474,7.474,0,0,0-2.784,2.784L27.175,33.6a2.509,2.509,0,0,1-2.91,1.205Zm-1.8-8.5A5.587,5.587,0,1,0,14.3,19.884,5.587,5.587,0,0,0,19.884,25.471Z"/>
                <g id="Group-6">
                  <rect id="Rectangle-15" class="cls-4" x="14.621" y="8.773" width="0.836" height="3.342" transform="translate(-2.581 5.465) rotate(-19)"/>
                  <rect id="Rectangle-15-Copy-4" class="cls-5" x="9.165" y="13.837" width="3.342" height="0.836" transform="translate(-4.861 5.64) rotate(-24)"/>
                  <rect id="Rectangle-15-Copy-3" class="cls-6" x="18.702" y="9.295" width="3.342" height="0.836" transform="translate(-1.661 14.602) rotate(-38)"/>
                  <rect id="Rectangle-15-Copy-7" class="cls-4" x="9.456" y="24.069" width="3.342" height="0.836" transform="translate(-12.033 10.81) rotate(-35)"/>
                  <rect id="Rectangle-15-Copy-6" class="cls-5" x="12.603" y="27.989" width="3.342" height="0.836" transform="translate(-17.412 31) rotate(-68)"/>
                  <rect id="Rectangle-15-Copy-5" class="cls-6" x="9.057" y="18.131" width="0.836" height="3.342" transform="translate(-5.091 3.379) rotate(-16)"/>
                  <rect id="Rectangle-15-Copy-7-2" data-name="Rectangle-15-Copy-7" class="cls-4" x="24.9" y="26.355" width="0.836" height="3.342" transform="translate(-11.995 22.179) rotate(-39)"/>
                  <rect id="Rectangle-15-Copy-6-2" data-name="Rectangle-15-Copy-6" class="cls-5" x="28.62" y="23.359" width="0.836" height="3.342" transform="translate(-3.74 44.911) rotate(-72)"/>
                  <rect id="Rectangle-15-Copy-5-2" data-name="Rectangle-15-Copy-5" class="cls-6" x="17.835" y="29.582" width="3.342" height="0.836" transform="translate(-9.084 8.481) rotate(-20)"/>
                  <rect id="Rectangle-15-Copy-7-3" data-name="Rectangle-15-Copy-7" class="cls-4" x="26.84" y="14.448" width="3.342" height="0.836" transform="translate(0.243 30.19) rotate(-56)"/>
                  <rect id="Rectangle-15-Copy-6-3" data-name="Rectangle-15-Copy-6" class="cls-5" x="25.117" y="9.576" width="0.836" height="3.342" transform="translate(9.225 33.885) rotate(-78)"/>
                  <rect id="Rectangle-15-Copy-5-3" data-name="Rectangle-15-Copy-5" class="cls-6" x="29.801" y="18.019" width="0.836" height="3.342" transform="translate(-5.587 24.031) rotate(-40)"/>
                </g>
              </g>
            </g>
          </g>
          <path class="cls-7" d="M19.634.168v14.31c.083,0,.166-.013.25-.013a5.588,5.588,0,0,1,5.154,7.743,5.659,5.659,0,0,1-3,3,5.568,5.568,0,0,1-2.156.432c-.084,0-.167-.009-.25-.013v13.81a19.634,19.634,0,1,0,0-39.269Z"/>
        </g>
      </g>
    </g>
  </g>
</svg>
