<svg xmlns="http://www.w3.org/2000/svg" width="27.552" height="51.591" viewBox="0 0 27.552 51.591">
  <defs>
    <style>
      .cls-1 {
        isolation: isolate;
      }

      .cls-2 {
        fill: #be8859;
      }

      .cls-3 {
        fill: #a16e43;
      }

      .cls-4 {
        fill: #f3f3f3;
      }

      .cls-5 {
        fill: #83d5f7;
      }

      .cls-6 {
        fill: #7acbec;
      }

      .cls-7 {
        fill: #6d6d6c;
        opacity: 0.15;
        mix-blend-mode: multiply;
      }
    </style>
  </defs>
  <title>Popsicle</title>
  <g class="cls-1">
    <g id="Layer_2" data-name="Layer 2">
      <g id="Layer_1-2" data-name="Layer 1">
        <g>
          <g id="Flat">
            <g id="Popsicle">
              <g id="Group">
                <path id="Combined-Shape" class="cls-2" d="M17.373,47.779V39.285H9.929v8.494a3.722,3.722,0,0,0,7.444,0Z"/>
                <path id="Rectangle-13" class="cls-3" d="M12.04,40.567a.661.661,0,1,1,1.322,0v3.094a.661.661,0,1,1-1.322,0Z"/>
                <path id="Oval-27" class="cls-3" d="M12.7,46.321c.365,0,.661-.942.661-2.1s-.3-2.1-.661-2.1-.661.942-.661,2.1S12.336,46.321,12.7,46.321Z"/>
                <path id="Combined-Shape-2" data-name="Combined-Shape" class="cls-4" d="M12.233,40.929H24.6a2.622,2.622,0,0,0,2.62-2.622V13.643A13.654,13.654,0,0,0,13.556,0q-.669,0-1.322.063a13.653,13.653,0,0,1,12.342,13.58V38.307a2.622,2.622,0,0,1-2.62,2.622Z"/>
                <path id="Mask" class="cls-5" d="M27.3,13.642v24.64a2.62,2.62,0,0,1-2.618,2.62H2.618A2.618,2.618,0,0,1,0,38.282V13.642a13.651,13.651,0,0,1,27.3,0Z"/>
                <path id="Rectangle-14" class="cls-6" d="M6.424,15.619a2.24,2.24,0,1,1,4.479,0V28.635a2.24,2.24,0,1,1-4.479,0Z"/>
                <path id="Rectangle-14-Copy" class="cls-6" d="M16.086,15.931a2.24,2.24,0,1,1,4.479,0V28.948a2.24,2.24,0,1,1-4.479,0Z"/>
              </g>
            </g>
          </g>
          <path class="cls-7" d="M27.552,13.737A13.639,13.639,0,0,0,15.277.177C14.824.128,14.365.1,13.9.1v51.49a3.719,3.719,0,0,0,3.722-3.716V41h4.853a2.575,2.575,0,0,1-.272.027h2.645a2.726,2.726,0,0,0,2.7-2.647Z"/>
        </g>
      </g>
    </g>
  </g>
</svg>
