<svg xmlns="http://www.w3.org/2000/svg" width="36.084" height="72.25" viewBox="0 0 36.084 72.25">
  <defs>
    <style>
      .cls-1 {
        isolation: isolate;
      }

      .cls-2 {
        fill: #f15c6b;
      }

      .cls-3 {
        fill: #edf1f9;
      }

      .cls-4 {
        fill: #ef4359;
      }

      .cls-5 {
        fill: #cad5e3;
      }

      .cls-6 {
        fill: #999897;
        opacity: 0.25;
        mix-blend-mode: multiply;
      }
    </style>
  </defs>
  <title>Soda</title>
  <g class="cls-1">
    <g id="Layer_2" data-name="Layer 2">
      <g id="Layer_1-2" data-name="Layer 1">
        <g>
          <g id="Flat">
            <g id="Pepsi">
              <g id="Group">
                <g id="Combined-Shape">
                  <path class="cls-2" d="M17.225,7.44a1.037,1.037,0,0,0-.128.5V41.586a1.043,1.043,0,0,0,2.086,0V8.34l6.56-6.56A1.043,1.043,0,0,0,24.268.3L17.435,7.138A1.038,1.038,0,0,0,17.225,7.44Z"/>
                </g>
                <path id="Rectangle-50" class="cls-3" d="M13.121,18.368a.657.657,0,0,1,.657-.656h8.527a.657.657,0,0,1,.657.656v1.314H13.121Z"/>
                <path id="Rectangle-47" class="cls-3" d="M2.523,28H33.561L29.791,70.687s-.179,1.563-11.749,1.563S6.293,70.687,6.293,70.687Z"/>
                <path id="Combined-Shape-2" data-name="Combined-Shape" class="cls-4" d="M32.8,41.188,33.561,28H2.523L4.951,55.5s17.225,8.63,26.372-2.158Z"/>
                <path id="Rectangle-48-Copy" class="cls-5" d="M3.28,20.308a1.282,1.282,0,0,1,1.283-1.283H31.521A1.284,1.284,0,0,1,32.8,20.308v2H3.28Z"/>
                <rect id="Rectangle-48" class="cls-3" y="22.102" width="36.084" height="6.155" rx="1.282" ry="1.282"/>
              </g>
            </g>
          </g>
          <path class="cls-6" d="M34.8,22.1h-2V20.308a1.284,1.284,0,0,0-1.283-1.283H22.963v-.657a.657.657,0,0,0-.657-.656H19.183V8.34l6.56-6.56A1.043,1.043,0,0,0,24.268.305L18.042,6.531V72.25c11.571,0,11.749-1.563,11.749-1.563l1.532-17.35,1.48-12.15.742-12.93H34.8a1.282,1.282,0,0,0,1.282-1.282v-3.59A1.282,1.282,0,0,0,34.8,22.1Z"/>
        </g>
      </g>
    </g>
  </g>
</svg>
