  0
SECTION
  2
BLOCKS
  0
ENDSEC
  0
SECTION
  2
ENTITIES
  0
LINE
  8
0
 10
320.333
 20
290
 11
320.366
 21
290.332
  0
LINE
  8
0
 10
320.366
 20
290.332
 11
320.463
 21
290.651
  0
LINE
  8
0
 10
320.463
 20
290.651
 11
320.62
 21
290.944
  0
LINE
  8
0
 10
320.62
 20
290.944
 11
320.831
 21
291.202
  0
LINE
  8
0
 10
320.831
 20
291.202
 11
321.089
 21
291.413
  0
LINE
  8
0
 10
321.089
 20
291.413
 11
321.383
 21
291.571
  0
LINE
  8
0
 10
321.383
 20
291.571
 11
321.702
 21
291.667
  0
LINE
  8
0
 10
321.702
 20
291.667
 11
322.033
 21
291.7
  0
LINE
  8
0
 10
322.033
 20
291.7
 11
322.365
 21
291.667
  0
LINE
  8
0
 10
322.365
 20
291.667
 11
322.684
 21
291.571
  0
LINE
  8
0
 10
322.684
 20
291.571
 11
322.978
 21
291.413
  0
LINE
  8
0
 10
322.978
 20
291.413
 11
323.235
 21
291.202
  0
LINE
  8
0
 10
323.235
 20
291.202
 11
323.447
 21
290.944
  0
LINE
  8
0
 10
323.447
 20
290.944
 11
323.604
 21
290.651
  0
LINE
  8
0
 10
323.604
 20
290.651
 11
323.701
 21
290.332
  0
LINE
  8
0
 10
323.701
 20
290.332
 11
323.733
 21
290
  0
LINE
  8
0
 10
323.733
 20
290
 11
401
 21
290
  0
LINE
  8
0
 10
401
 20
290
 11
401
 21
320
  0
LINE
  8
0
 10
401
 20
320
 11
389
 21
320
  0
LINE
  8
0
 10
389
 20
320
 11
388.668
 21
320.033
  0
LINE
  8
0
 10
388.668
 20
320.033
 11
388.349
 21
320.129
  0
LINE
  8
0
 10
388.349
 20
320.129
 11
388.056
 21
320.286
  0
LINE
  8
0
 10
388.056
 20
320.286
 11
387.798
 21
320.498
  0
LINE
  8
0
 10
387.798
 20
320.498
 11
387.587
 21
320.756
  0
LINE
  8
0
 10
387.587
 20
320.756
 11
387.429
 21
321.049
  0
LINE
  8
0
 10
387.429
 20
321.049
 11
387.333
 21
321.368
  0
LINE
  8
0
 10
387.333
 20
321.368
 11
387.3
 21
321.7
  0
LINE
  8
0
 10
387.3
 20
321.7
 11
387.333
 21
322.032
  0
LINE
  8
0
 10
387.333
 20
322.032
 11
387.429
 21
322.351
  0
LINE
  8
0
 10
387.429
 20
322.351
 11
387.587
 21
322.644
  0
LINE
  8
0
 10
387.587
 20
322.644
 11
387.798
 21
322.902
  0
LINE
  8
0
 10
387.798
 20
322.902
 11
388.056
 21
323.113
  0
LINE
  8
0
 10
388.056
 20
323.113
 11
388.349
 21
323.271
  0
LINE
  8
0
 10
388.349
 20
323.271
 11
388.668
 21
323.367
  0
LINE
  8
0
 10
388.668
 20
323.367
 11
389
 21
323.4
  0
LINE
  8
0
 10
389
 20
323.4
 11
389
 21
348.582
  0
LINE
  8
0
 10
389
 20
348.582
 11
388.668
 21
348.615
  0
LINE
  8
0
 10
388.668
 20
348.615
 11
388.349
 21
348.712
  0
LINE
  8
0
 10
388.349
 20
348.712
 11
388.056
 21
348.869
  0
LINE
  8
0
 10
388.056
 20
348.869
 11
387.798
 21
349.08
  0
LINE
  8
0
 10
387.798
 20
349.08
 11
387.587
 21
349.338
  0
LINE
  8
0
 10
387.587
 20
349.338
 11
387.429
 21
349.632
  0
LINE
  8
0
 10
387.429
 20
349.632
 11
387.333
 21
349.95
  0
LINE
  8
0
 10
387.333
 20
349.95
 11
387.3
 21
350.282
  0
LINE
  8
0
 10
387.3
 20
350.282
 11
387.333
 21
350.614
  0
LINE
  8
0
 10
387.333
 20
350.614
 11
387.429
 21
350.933
  0
LINE
  8
0
 10
387.429
 20
350.933
 11
387.587
 21
351.227
  0
LINE
  8
0
 10
387.587
 20
351.227
 11
387.798
 21
351.484
  0
LINE
  8
0
 10
387.798
 20
351.484
 11
388.056
 21
351.696
  0
LINE
  8
0
 10
388.056
 20
351.696
 11
388.349
 21
351.853
  0
LINE
  8
0
 10
388.349
 20
351.853
 11
388.668
 21
351.949
  0
LINE
  8
0
 10
388.668
 20
351.949
 11
389
 21
351.982
  0
LINE
  8
0
 10
389
 20
351.982
 11
401
 21
351.982
  0
LINE
  8
0
 10
401
 20
351.982
 11
401
 21
384.37
  0
LINE
  8
0
 10
401
 20
384.37
 11
400.884
 21
384.493
  0
LINE
  8
0
 10
400.884
 20
384.493
 11
400.708
 21
384.776
  0
LINE
  8
0
 10
400.708
 20
384.776
 11
400.591
 21
385.088
  0
LINE
  8
0
 10
400.591
 20
385.088
 11
400.575
 21
385.184
  0
LINE
  8
0
 10
400.575
 20
385.184
 11
400.566
 21
385.181
  0
LINE
  8
0
 10
400.566
 20
385.181
 11
397.485
 21
396.679
  0
LINE
  8
0
 10
397.485
 20
396.679
 11
321.227
 21
376.246
  0
LINE
  8
0
 10
321.227
 20
376.246
 11
324.308
 21
364.748
  0
LINE
  8
0
 10
324.308
 20
364.748
 11
324.299
 21
364.746
  0
LINE
  8
0
 10
324.299
 20
364.746
 11
324.333
 21
364.655
  0
LINE
  8
0
 10
324.333
 20
364.655
 11
324.388
 21
364.326
  0
LINE
  8
0
 10
324.388
 20
364.326
 11
324.377
 21
363.993
  0
LINE
  8
0
 10
324.377
 20
363.993
 11
324.301
 21
363.668
  0
LINE
  8
0
 10
324.301
 20
363.668
 11
324.163
 21
363.365
  0
LINE
  8
0
 10
324.163
 20
363.365
 11
323.969
 21
363.094
  0
LINE
  8
0
 10
323.969
 20
363.094
 11
323.726
 21
362.866
  0
LINE
  8
0
 10
323.726
 20
362.866
 11
323.443
 21
362.69
  0
LINE
  8
0
 10
323.443
 20
362.69
 11
323.131
 21
362.573
  0
LINE
  8
0
 10
323.131
 20
362.573
 11
322.802
 21
362.518
  0
LINE
  8
0
 10
322.802
 20
362.518
 11
322.469
 21
362.529
  0
LINE
  8
0
 10
322.469
 20
362.529
 11
322.145
 21
362.605
  0
LINE
  8
0
 10
322.145
 20
362.605
 11
321.841
 21
362.743
  0
LINE
  8
0
 10
321.841
 20
362.743
 11
321.57
 21
362.937
  0
LINE
  8
0
 10
321.57
 20
362.937
 11
321.343
 21
363.18
  0
LINE
  8
0
 10
321.343
 20
363.18
 11
321.167
 21
363.463
  0
LINE
  8
0
 10
321.167
 20
363.463
 11
321.049
 21
363.775
  0
LINE
  8
0
 10
321.049
 20
363.775
 11
321.033
 21
363.871
  0
LINE
  8
0
 10
321.033
 20
363.871
 11
262.917
 21
348.298
  0
LINE
  8
0
 10
262.917
 20
348.298
 11
262.951
 21
348.207
  0
LINE
  8
0
 10
262.951
 20
348.207
 11
263.005
 21
347.879
  0
LINE
  8
0
 10
263.005
 20
347.879
 11
262.994
 21
347.545
  0
LINE
  8
0
 10
262.994
 20
347.545
 11
262.919
 21
347.221
  0
LINE
  8
0
 10
262.919
 20
347.221
 11
262.781
 21
346.917
  0
LINE
  8
0
 10
262.781
 20
346.917
 11
262.587
 21
346.646
  0
LINE
  8
0
 10
262.587
 20
346.646
 11
262.344
 21
346.419
  0
LINE
  8
0
 10
262.344
 20
346.419
 11
262.061
 21
346.243
  0
LINE
  8
0
 10
262.061
 20
346.243
 11
261.749
 21
346.125
  0
LINE
  8
0
 10
261.749
 20
346.125
 11
261.42
 21
346.071
  0
LINE
  8
0
 10
261.42
 20
346.071
 11
261.087
 21
346.082
  0
LINE
  8
0
 10
261.087
 20
346.082
 11
260.762
 21
346.158
  0
LINE
  8
0
 10
260.762
 20
346.158
 11
260.459
 21
346.295
  0
LINE
  8
0
 10
260.459
 20
346.295
 11
260.188
 21
346.489
  0
LINE
  8
0
 10
260.188
 20
346.489
 11
259.96
 21
346.732
  0
LINE
  8
0
 10
259.96
 20
346.732
 11
259.784
 21
347.015
  0
LINE
  8
0
 10
259.784
 20
347.015
 11
259.667
 21
347.327
  0
LINE
  8
0
 10
259.667
 20
347.327
 11
259.651
 21
347.423
  0
LINE
  8
0
 10
259.651
 20
347.423
 11
259.642
 21
347.421
  0
LINE
  8
0
 10
259.642
 20
347.421
 11
256.561
 21
358.918
  0
LINE
  8
0
 10
256.561
 20
358.918
 11
191.894
 21
341.591
  0
LINE
  8
0
 10
191.894
 20
341.591
 11
195
 21
330
  0
LINE
  8
0
 10
195
 20
330
 11
195.054
 21
329.671
  0
LINE
  8
0
 10
195.054
 20
329.671
 11
195.043
 21
329.338
  0
LINE
  8
0
 10
195.043
 20
329.338
 11
195
 21
329.152
  0
LINE
  8
0
 10
195
 20
329.152
 11
195
 21
320
  0
LINE
  8
0
 10
195
 20
320
 11
207
 21
320
  0
LINE
  8
0
 10
207
 20
320
 11
207.332
 21
319.967
  0
LINE
  8
0
 10
207.332
 20
319.967
 11
207.651
 21
319.871
  0
LINE
  8
0
 10
207.651
 20
319.871
 11
207.944
 21
319.713
  0
LINE
  8
0
 10
207.944
 20
319.713
 11
208.202
 21
319.502
  0
LINE
  8
0
 10
208.202
 20
319.502
 11
208.413
 21
319.244
  0
LINE
  8
0
 10
208.413
 20
319.244
 11
208.571
 21
318.951
  0
LINE
  8
0
 10
208.571
 20
318.951
 11
208.667
 21
318.632
  0
LINE
  8
0
 10
208.667
 20
318.632
 11
208.7
 21
318.3
  0
LINE
  8
0
 10
208.7
 20
318.3
 11
208.667
 21
317.968
  0
LINE
  8
0
 10
208.667
 20
317.968
 11
208.571
 21
317.649
  0
LINE
  8
0
 10
208.571
 20
317.649
 11
208.413
 21
317.356
  0
LINE
  8
0
 10
208.413
 20
317.356
 11
208.202
 21
317.098
  0
LINE
  8
0
 10
208.202
 20
317.098
 11
207.944
 21
316.886
  0
LINE
  8
0
 10
207.944
 20
316.886
 11
207.651
 21
316.729
  0
LINE
  8
0
 10
207.651
 20
316.729
 11
207.332
 21
316.633
  0
LINE
  8
0
 10
207.332
 20
316.633
 11
207
 21
316.6
  0
LINE
  8
0
 10
207
 20
316.6
 11
207
 21
303.4
  0
LINE
  8
0
 10
207
 20
303.4
 11
207.332
 21
303.367
  0
LINE
  8
0
 10
207.332
 20
303.367
 11
207.651
 21
303.271
  0
LINE
  8
0
 10
207.651
 20
303.271
 11
207.944
 21
303.113
  0
LINE
  8
0
 10
207.944
 20
303.113
 11
208.202
 21
302.902
  0
LINE
  8
0
 10
208.202
 20
302.902
 11
208.413
 21
302.644
  0
LINE
  8
0
 10
208.413
 20
302.644
 11
208.571
 21
302.351
  0
LINE
  8
0
 10
208.571
 20
302.351
 11
208.667
 21
302.032
  0
LINE
  8
0
 10
208.667
 20
302.032
 11
208.7
 21
301.7
  0
LINE
  8
0
 10
208.7
 20
301.7
 11
208.667
 21
301.368
  0
LINE
  8
0
 10
208.667
 20
301.368
 11
208.571
 21
301.049
  0
LINE
  8
0
 10
208.571
 20
301.049
 11
208.413
 21
300.756
  0
LINE
  8
0
 10
208.413
 20
300.756
 11
208.202
 21
300.498
  0
LINE
  8
0
 10
208.202
 20
300.498
 11
207.944
 21
300.286
  0
LINE
  8
0
 10
207.944
 20
300.286
 11
207.651
 21
300.129
  0
LINE
  8
0
 10
207.651
 20
300.129
 11
207.332
 21
300.033
  0
LINE
  8
0
 10
207.332
 20
300.033
 11
207
 21
300
  0
LINE
  8
0
 10
207
 20
300
 11
195
 21
300
  0
LINE
  8
0
 10
195
 20
300
 11
195
 21
290
  0
LINE
  8
0
 10
195
 20
290
 11
260.267
 21
290
  0
LINE
  8
0
 10
260.267
 20
290
 11
260.299
 21
290.332
  0
LINE
  8
0
 10
260.299
 20
290.332
 11
260.396
 21
290.651
  0
LINE
  8
0
 10
260.396
 20
290.651
 11
260.553
 21
290.944
  0
LINE
  8
0
 10
260.553
 20
290.944
 11
260.765
 21
291.202
  0
LINE
  8
0
 10
260.765
 20
291.202
 11
261.022
 21
291.413
  0
LINE
  8
0
 10
261.022
 20
291.413
 11
261.316
 21
291.571
  0
LINE
  8
0
 10
261.316
 20
291.571
 11
261.635
 21
291.667
  0
LINE
  8
0
 10
261.635
 20
291.667
 11
261.967
 21
291.7
  0
LINE
  8
0
 10
261.967
 20
291.7
 11
262.298
 21
291.667
  0
LINE
  8
0
 10
262.298
 20
291.667
 11
262.617
 21
291.571
  0
LINE
  8
0
 10
262.617
 20
291.571
 11
262.911
 21
291.413
  0
LINE
  8
0
 10
262.911
 20
291.413
 11
263.169
 21
291.202
  0
LINE
  8
0
 10
263.169
 20
291.202
 11
263.38
 21
290.944
  0
LINE
  8
0
 10
263.38
 20
290.944
 11
263.537
 21
290.651
  0
LINE
  8
0
 10
263.537
 20
290.651
 11
263.634
 21
290.332
  0
LINE
  8
0
 10
263.634
 20
290.332
 11
263.667
 21
290
  0
LINE
  8
0
 10
263.667
 20
290
 11
263.667
 21
278
  0
LINE
  8
0
 10
263.667
 20
278
 11
320.333
 21
278
  0
LINE
  8
0
 10
320.333
 20
278
 11
320.333
 21
290
  0
LINE
  8
0
 10
291.668
 20
282.333
 11
291.349
 21
282.429
  0
LINE
  8
0
 10
291.349
 20
282.429
 11
291.056
 21
282.587
  0
LINE
  8
0
 10
291.056
 20
282.587
 11
290.798
 21
282.798
  0
LINE
  8
0
 10
290.798
 20
282.798
 11
290.586
 21
283.056
  0
LINE
  8
0
 10
290.586
 20
283.056
 11
290.429
 21
283.349
  0
LINE
  8
0
 10
290.429
 20
283.349
 11
290.333
 21
283.668
  0
LINE
  8
0
 10
290.333
 20
283.668
 11
290.3
 21
284
  0
LINE
  8
0
 10
290.3
 20
284
 11
290.333
 21
284.332
  0
LINE
  8
0
 10
290.333
 20
284.332
 11
290.429
 21
284.651
  0
LINE
  8
0
 10
290.429
 20
284.651
 11
290.586
 21
284.944
  0
LINE
  8
0
 10
290.586
 20
284.944
 11
290.798
 21
285.202
  0
LINE
  8
0
 10
290.798
 20
285.202
 11
291.056
 21
285.414
  0
LINE
  8
0
 10
291.056
 20
285.414
 11
291.349
 21
285.571
  0
LINE
  8
0
 10
291.349
 20
285.571
 11
291.668
 21
285.667
  0
LINE
  8
0
 10
291.668
 20
285.667
 11
292
 21
285.7
  0
LINE
  8
0
 10
292
 20
285.7
 11
292.332
 21
285.667
  0
LINE
  8
0
 10
292.332
 20
285.667
 11
292.651
 21
285.571
  0
LINE
  8
0
 10
292.651
 20
285.571
 11
292.944
 21
285.414
  0
LINE
  8
0
 10
292.944
 20
285.414
 11
293.202
 21
285.202
  0
LINE
  8
0
 10
293.202
 20
285.202
 11
293.413
 21
284.944
  0
LINE
  8
0
 10
293.413
 20
284.944
 11
293.571
 21
284.651
  0
LINE
  8
0
 10
293.571
 20
284.651
 11
293.667
 21
284.332
  0
LINE
  8
0
 10
293.667
 20
284.332
 11
293.7
 21
284
  0
LINE
  8
0
 10
293.7
 20
284
 11
293.667
 21
283.668
  0
LINE
  8
0
 10
293.667
 20
283.668
 11
293.571
 21
283.349
  0
LINE
  8
0
 10
293.571
 20
283.349
 11
293.413
 21
283.056
  0
LINE
  8
0
 10
293.413
 20
283.056
 11
293.202
 21
282.798
  0
LINE
  8
0
 10
293.202
 20
282.798
 11
292.944
 21
282.587
  0
LINE
  8
0
 10
292.944
 20
282.587
 11
292.651
 21
282.429
  0
LINE
  8
0
 10
292.651
 20
282.429
 11
292.332
 21
282.333
  0
LINE
  8
0
 10
292.332
 20
282.333
 11
292
 21
282.3
  0
LINE
  8
0
 10
292
 20
282.3
 11
291.668
 21
282.333
  0
LINE
  8
0
 10
105.333
 20
290
 11
105.366
 21
290.332
  0
LINE
  8
0
 10
105.366
 20
290.332
 11
105.463
 21
290.651
  0
LINE
  8
0
 10
105.463
 20
290.651
 11
105.62
 21
290.944
  0
LINE
  8
0
 10
105.62
 20
290.944
 11
105.831
 21
291.202
  0
LINE
  8
0
 10
105.831
 20
291.202
 11
106.089
 21
291.413
  0
LINE
  8
0
 10
106.089
 20
291.413
 11
106.383
 21
291.571
  0
LINE
  8
0
 10
106.383
 20
291.571
 11
106.702
 21
291.667
  0
LINE
  8
0
 10
106.702
 20
291.667
 11
107.033
 21
291.7
  0
LINE
  8
0
 10
107.033
 20
291.7
 11
107.365
 21
291.667
  0
LINE
  8
0
 10
107.365
 20
291.667
 11
107.684
 21
291.571
  0
LINE
  8
0
 10
107.684
 20
291.571
 11
107.978
 21
291.413
  0
LINE
  8
0
 10
107.978
 20
291.413
 11
108.235
 21
291.202
  0
LINE
  8
0
 10
108.235
 20
291.202
 11
108.447
 21
290.944
  0
LINE
  8
0
 10
108.447
 20
290.944
 11
108.604
 21
290.651
  0
LINE
  8
0
 10
108.604
 20
290.651
 11
108.701
 21
290.332
  0
LINE
  8
0
 10
108.701
 20
290.332
 11
108.733
 21
290
  0
LINE
  8
0
 10
108.733
 20
290
 11
186
 21
290
  0
LINE
  8
0
 10
186
 20
290
 11
186
 21
320
  0
LINE
  8
0
 10
186
 20
320
 11
174
 21
320
  0
LINE
  8
0
 10
174
 20
320
 11
173.668
 21
320.033
  0
LINE
  8
0
 10
173.668
 20
320.033
 11
173.349
 21
320.129
  0
LINE
  8
0
 10
173.349
 20
320.129
 11
173.056
 21
320.286
  0
LINE
  8
0
 10
173.056
 20
320.286
 11
172.798
 21
320.498
  0
LINE
  8
0
 10
172.798
 20
320.498
 11
172.587
 21
320.756
  0
LINE
  8
0
 10
172.587
 20
320.756
 11
172.429
 21
321.049
  0
LINE
  8
0
 10
172.429
 20
321.049
 11
172.333
 21
321.368
  0
LINE
  8
0
 10
172.333
 20
321.368
 11
172.3
 21
321.7
  0
LINE
  8
0
 10
172.3
 20
321.7
 11
172.333
 21
322.032
  0
LINE
  8
0
 10
172.333
 20
322.032
 11
172.429
 21
322.351
  0
LINE
  8
0
 10
172.429
 20
322.351
 11
172.587
 21
322.644
  0
LINE
  8
0
 10
172.587
 20
322.644
 11
172.798
 21
322.902
  0
LINE
  8
0
 10
172.798
 20
322.902
 11
173.056
 21
323.113
  0
LINE
  8
0
 10
173.056
 20
323.113
 11
173.349
 21
323.271
  0
LINE
  8
0
 10
173.349
 20
323.271
 11
173.668
 21
323.367
  0
LINE
  8
0
 10
173.668
 20
323.367
 11
174
 21
323.4
  0
LINE
  8
0
 10
174
 20
323.4
 11
174
 21
348.582
  0
LINE
  8
0
 10
174
 20
348.582
 11
173.668
 21
348.615
  0
LINE
  8
0
 10
173.668
 20
348.615
 11
173.349
 21
348.712
  0
LINE
  8
0
 10
173.349
 20
348.712
 11
173.056
 21
348.869
  0
LINE
  8
0
 10
173.056
 20
348.869
 11
172.798
 21
349.08
  0
LINE
  8
0
 10
172.798
 20
349.08
 11
172.587
 21
349.338
  0
LINE
  8
0
 10
172.587
 20
349.338
 11
172.429
 21
349.632
  0
LINE
  8
0
 10
172.429
 20
349.632
 11
172.333
 21
349.95
  0
LINE
  8
0
 10
172.333
 20
349.95
 11
172.3
 21
350.282
  0
LINE
  8
0
 10
172.3
 20
350.282
 11
172.333
 21
350.614
  0
LINE
  8
0
 10
172.333
 20
350.614
 11
172.429
 21
350.933
  0
LINE
  8
0
 10
172.429
 20
350.933
 11
172.587
 21
351.227
  0
LINE
  8
0
 10
172.587
 20
351.227
 11
172.798
 21
351.484
  0
LINE
  8
0
 10
172.798
 20
351.484
 11
173.056
 21
351.696
  0
LINE
  8
0
 10
173.056
 20
351.696
 11
173.349
 21
351.853
  0
LINE
  8
0
 10
173.349
 20
351.853
 11
173.668
 21
351.949
  0
LINE
  8
0
 10
173.668
 20
351.949
 11
174
 21
351.982
  0
LINE
  8
0
 10
174
 20
351.982
 11
186
 21
351.982
  0
LINE
  8
0
 10
186
 20
351.982
 11
186
 21
384.37
  0
LINE
  8
0
 10
186
 20
384.37
 11
185.884
 21
384.493
  0
LINE
  8
0
 10
185.884
 20
384.493
 11
185.708
 21
384.776
  0
LINE
  8
0
 10
185.708
 20
384.776
 11
185.591
 21
385.088
  0
LINE
  8
0
 10
185.591
 20
385.088
 11
185.575
 21
385.184
  0
LINE
  8
0
 10
185.575
 20
385.184
 11
185.566
 21
385.181
  0
LINE
  8
0
 10
185.566
 20
385.181
 11
182.485
 21
396.679
  0
LINE
  8
0
 10
182.485
 20
396.679
 11
106.227
 21
376.246
  0
LINE
  8
0
 10
106.227
 20
376.246
 11
109.308
 21
364.748
  0
LINE
  8
0
 10
109.308
 20
364.748
 11
109.299
 21
364.746
  0
LINE
  8
0
 10
109.299
 20
364.746
 11
109.333
 21
364.655
  0
LINE
  8
0
 10
109.333
 20
364.655
 11
109.388
 21
364.326
  0
LINE
  8
0
 10
109.388
 20
364.326
 11
109.377
 21
363.993
  0
LINE
  8
0
 10
109.377
 20
363.993
 11
109.301
 21
363.668
  0
LINE
  8
0
 10
109.301
 20
363.668
 11
109.163
 21
363.365
  0
LINE
  8
0
 10
109.163
 20
363.365
 11
108.969
 21
363.094
  0
LINE
  8
0
 10
108.969
 20
363.094
 11
108.726
 21
362.866
  0
LINE
  8
0
 10
108.726
 20
362.866
 11
108.443
 21
362.69
  0
LINE
  8
0
 10
108.443
 20
362.69
 11
108.131
 21
362.573
  0
LINE
  8
0
 10
108.131
 20
362.573
 11
107.802
 21
362.518
  0
LINE
  8
0
 10
107.802
 20
362.518
 11
107.469
 21
362.529
  0
LINE
  8
0
 10
107.469
 20
362.529
 11
107.145
 21
362.605
  0
LINE
  8
0
 10
107.145
 20
362.605
 11
106.841
 21
362.743
  0
LINE
  8
0
 10
106.841
 20
362.743
 11
106.57
 21
362.937
  0
LINE
  8
0
 10
106.57
 20
362.937
 11
106.343
 21
363.18
  0
LINE
  8
0
 10
106.343
 20
363.18
 11
106.167
 21
363.463
  0
LINE
  8
0
 10
106.167
 20
363.463
 11
106.049
 21
363.775
  0
LINE
  8
0
 10
106.049
 20
363.775
 11
106.033
 21
363.871
  0
LINE
  8
0
 10
106.033
 20
363.871
 11
47.9166
 21
348.298
  0
LINE
  8
0
 10
47.9166
 20
348.298
 11
47.9508
 21
348.207
  0
LINE
  8
0
 10
47.9508
 20
348.207
 11
48.0051
 21
347.879
  0
LINE
  8
0
 10
48.0051
 20
347.879
 11
47.9942
 21
347.545
  0
LINE
  8
0
 10
47.9942
 20
347.545
 11
47.9185
 21
347.221
  0
LINE
  8
0
 10
47.9185
 20
347.221
 11
47.781
 21
346.917
  0
LINE
  8
0
 10
47.781
 20
346.917
 11
47.5869
 21
346.646
  0
LINE
  8
0
 10
47.5869
 20
346.646
 11
47.3436
 21
346.419
  0
LINE
  8
0
 10
47.3436
 20
346.419
 11
47.0606
 21
346.243
  0
LINE
  8
0
 10
47.0606
 20
346.243
 11
46.7487
 21
346.125
  0
LINE
  8
0
 10
46.7487
 20
346.125
 11
46.4199
 21
346.071
  0
LINE
  8
0
 10
46.4199
 20
346.071
 11
46.0868
 21
346.082
  0
LINE
  8
0
 10
46.0868
 20
346.082
 11
45.7623
 21
346.158
  0
LINE
  8
0
 10
45.7623
 20
346.158
 11
45.4587
 21
346.295
  0
LINE
  8
0
 10
45.4587
 20
346.295
 11
45.1878
 21
346.489
  0
LINE
  8
0
 10
45.1878
 20
346.489
 11
44.96
 21
346.732
  0
LINE
  8
0
 10
44.96
 20
346.732
 11
44.784
 21
347.015
  0
LINE
  8
0
 10
44.784
 20
347.015
 11
44.6666
 21
347.327
  0
LINE
  8
0
 10
44.6666
 20
347.327
 11
44.6508
 21
347.423
  0
LINE
  8
0
 10
44.6508
 20
347.423
 11
44.6416
 21
347.421
  0
LINE
  8
0
 10
44.6416
 20
347.421
 11
41.5608
 21
358.918
  0
LINE
  8
0
 10
41.5608
 20
358.918
 11
-23.1058
 21
341.591
  0
LINE
  8
0
 10
-23.1058
 20
341.591
 11
-20
 21
330
  0
LINE
  8
0
 10
-20
 20
330
 11
-19.9457
 21
329.671
  0
LINE
  8
0
 10
-19.9457
 20
329.671
 11
-19.9566
 21
329.338
  0
LINE
  8
0
 10
-19.9566
 20
329.338
 11
-20
 21
329.152
  0
LINE
  8
0
 10
-20
 20
329.152
 11
-20
 21
320
  0
LINE
  8
0
 10
-20
 20
320
 11
-8
 21
320
  0
LINE
  8
0
 10
-8
 20
320
 11
-7.66835
 21
319.967
  0
LINE
  8
0
 10
-7.66835
 20
319.967
 11
-7.34944
 21
319.871
  0
LINE
  8
0
 10
-7.34944
 20
319.871
 11
-7.05554
 21
319.713
  0
LINE
  8
0
 10
-7.05554
 20
319.713
 11
-6.79793
 21
319.502
  0
LINE
  8
0
 10
-6.79793
 20
319.502
 11
-6.5865
 21
319.244
  0
LINE
  8
0
 10
-6.5865
 20
319.244
 11
-6.42941
 21
318.951
  0
LINE
  8
0
 10
-6.42941
 20
318.951
 11
-6.33267
 21
318.632
  0
LINE
  8
0
 10
-6.33267
 20
318.632
 11
-6.3
 21
318.3
  0
LINE
  8
0
 10
-6.3
 20
318.3
 11
-6.33267
 21
317.968
  0
LINE
  8
0
 10
-6.33267
 20
317.968
 11
-6.42941
 21
317.649
  0
LINE
  8
0
 10
-6.42941
 20
317.649
 11
-6.5865
 21
317.356
  0
LINE
  8
0
 10
-6.5865
 20
317.356
 11
-6.79793
 21
317.098
  0
LINE
  8
0
 10
-6.79793
 20
317.098
 11
-7.05554
 21
316.886
  0
LINE
  8
0
 10
-7.05554
 20
316.886
 11
-7.34944
 21
316.729
  0
LINE
  8
0
 10
-7.34944
 20
316.729
 11
-7.66835
 21
316.633
  0
LINE
  8
0
 10
-7.66835
 20
316.633
 11
-8
 21
316.6
  0
LINE
  8
0
 10
-8
 20
316.6
 11
-8
 21
303.4
  0
LINE
  8
0
 10
-8
 20
303.4
 11
-7.66835
 21
303.367
  0
LINE
  8
0
 10
-7.66835
 20
303.367
 11
-7.34944
 21
303.271
  0
LINE
  8
0
 10
-7.34944
 20
303.271
 11
-7.05554
 21
303.113
  0
LINE
  8
0
 10
-7.05554
 20
303.113
 11
-6.79793
 21
302.902
  0
LINE
  8
0
 10
-6.79793
 20
302.902
 11
-6.5865
 21
302.644
  0
LINE
  8
0
 10
-6.5865
 20
302.644
 11
-6.42941
 21
302.351
  0
LINE
  8
0
 10
-6.42941
 20
302.351
 11
-6.33267
 21
302.032
  0
LINE
  8
0
 10
-6.33267
 20
302.032
 11
-6.3
 21
301.7
  0
LINE
  8
0
 10
-6.3
 20
301.7
 11
-6.33267
 21
301.368
  0
LINE
  8
0
 10
-6.33267
 20
301.368
 11
-6.42941
 21
301.049
  0
LINE
  8
0
 10
-6.42941
 20
301.049
 11
-6.5865
 21
300.756
  0
LINE
  8
0
 10
-6.5865
 20
300.756
 11
-6.79793
 21
300.498
  0
LINE
  8
0
 10
-6.79793
 20
300.498
 11
-7.05554
 21
300.286
  0
LINE
  8
0
 10
-7.05554
 20
300.286
 11
-7.34944
 21
300.129
  0
LINE
  8
0
 10
-7.34944
 20
300.129
 11
-7.66835
 21
300.033
  0
LINE
  8
0
 10
-7.66835
 20
300.033
 11
-8
 21
300
  0
LINE
  8
0
 10
-8
 20
300
 11
-20
 21
300
  0
LINE
  8
0
 10
-20
 20
300
 11
-20
 21
290
  0
LINE
  8
0
 10
-20
 20
290
 11
45.2667
 21
290
  0
LINE
  8
0
 10
45.2667
 20
290
 11
45.2993
 21
290.332
  0
LINE
  8
0
 10
45.2993
 20
290.332
 11
45.3961
 21
290.651
  0
LINE
  8
0
 10
45.3961
 20
290.651
 11
45.5532
 21
290.944
  0
LINE
  8
0
 10
45.5532
 20
290.944
 11
45.7646
 21
291.202
  0
LINE
  8
0
 10
45.7646
 20
291.202
 11
46.0222
 21
291.413
  0
LINE
  8
0
 10
46.0222
 20
291.413
 11
46.3161
 21
291.571
  0
LINE
  8
0
 10
46.3161
 20
291.571
 11
46.635
 21
291.667
  0
LINE
  8
0
 10
46.635
 20
291.667
 11
46.9667
 21
291.7
  0
LINE
  8
0
 10
46.9667
 20
291.7
 11
47.2983
 21
291.667
  0
LINE
  8
0
 10
47.2983
 20
291.667
 11
47.6172
 21
291.571
  0
LINE
  8
0
 10
47.6172
 20
291.571
 11
47.9111
 21
291.413
  0
LINE
  8
0
 10
47.9111
 20
291.413
 11
48.1687
 21
291.202
  0
LINE
  8
0
 10
48.1687
 20
291.202
 11
48.3802
 21
290.944
  0
LINE
  8
0
 10
48.3802
 20
290.944
 11
48.5372
 21
290.651
  0
LINE
  8
0
 10
48.5372
 20
290.651
 11
48.634
 21
290.332
  0
LINE
  8
0
 10
48.634
 20
290.332
 11
48.6667
 21
290
  0
LINE
  8
0
 10
48.6667
 20
290
 11
48.6667
 21
278
  0
LINE
  8
0
 10
48.6667
 20
278
 11
105.333
 21
278
  0
LINE
  8
0
 10
105.333
 20
278
 11
105.333
 21
290
  0
LINE
  8
0
 10
76.6683
 20
282.333
 11
76.3494
 21
282.429
  0
LINE
  8
0
 10
76.3494
 20
282.429
 11
76.0555
 21
282.587
  0
LINE
  8
0
 10
76.0555
 20
282.587
 11
75.7979
 21
282.798
  0
LINE
  8
0
 10
75.7979
 20
282.798
 11
75.5865
 21
283.056
  0
LINE
  8
0
 10
75.5865
 20
283.056
 11
75.4294
 21
283.349
  0
LINE
  8
0
 10
75.4294
 20
283.349
 11
75.3327
 21
283.668
  0
LINE
  8
0
 10
75.3327
 20
283.668
 11
75.3
 21
284
  0
LINE
  8
0
 10
75.3
 20
284
 11
75.3327
 21
284.332
  0
LINE
  8
0
 10
75.3327
 20
284.332
 11
75.4294
 21
284.651
  0
LINE
  8
0
 10
75.4294
 20
284.651
 11
75.5865
 21
284.944
  0
LINE
  8
0
 10
75.5865
 20
284.944
 11
75.7979
 21
285.202
  0
LINE
  8
0
 10
75.7979
 20
285.202
 11
76.0555
 21
285.414
  0
LINE
  8
0
 10
76.0555
 20
285.414
 11
76.3494
 21
285.571
  0
LINE
  8
0
 10
76.3494
 20
285.571
 11
76.6683
 21
285.667
  0
LINE
  8
0
 10
76.6683
 20
285.667
 11
77
 21
285.7
  0
LINE
  8
0
 10
77
 20
285.7
 11
77.3316
 21
285.667
  0
LINE
  8
0
 10
77.3316
 20
285.667
 11
77.6506
 21
285.571
  0
LINE
  8
0
 10
77.6506
 20
285.571
 11
77.9445
 21
285.414
  0
LINE
  8
0
 10
77.9445
 20
285.414
 11
78.2021
 21
285.202
  0
LINE
  8
0
 10
78.2021
 20
285.202
 11
78.4135
 21
284.944
  0
LINE
  8
0
 10
78.4135
 20
284.944
 11
78.5706
 21
284.651
  0
LINE
  8
0
 10
78.5706
 20
284.651
 11
78.6673
 21
284.332
  0
LINE
  8
0
 10
78.6673
 20
284.332
 11
78.7
 21
284
  0
LINE
  8
0
 10
78.7
 20
284
 11
78.6673
 21
283.668
  0
LINE
  8
0
 10
78.6673
 20
283.668
 11
78.5706
 21
283.349
  0
LINE
  8
0
 10
78.5706
 20
283.349
 11
78.4135
 21
283.056
  0
LINE
  8
0
 10
78.4135
 20
283.056
 11
78.2021
 21
282.798
  0
LINE
  8
0
 10
78.2021
 20
282.798
 11
77.9445
 21
282.587
  0
LINE
  8
0
 10
77.9445
 20
282.587
 11
77.6506
 21
282.429
  0
LINE
  8
0
 10
77.6506
 20
282.429
 11
77.3316
 21
282.333
  0
LINE
  8
0
 10
77.3316
 20
282.333
 11
77
 21
282.3
  0
LINE
  8
0
 10
77
 20
282.3
 11
76.6683
 21
282.333
  0
LINE
  8
0
 10
0
 20
-194.286
 11
-12
 21
-194.286
  0
LINE
  8
0
 10
-12
 20
-194.286
 11
-12.3316
 21
-194.253
  0
LINE
  8
0
 10
-12.3316
 20
-194.253
 11
-12.6506
 21
-194.156
  0
LINE
  8
0
 10
-12.6506
 20
-194.156
 11
-12.9445
 21
-193.999
  0
LINE
  8
0
 10
-12.9445
 20
-193.999
 11
-13.2021
 21
-193.788
  0
LINE
  8
0
 10
-13.2021
 20
-193.788
 11
-13.4135
 21
-193.53
  0
LINE
  8
0
 10
-13.4135
 20
-193.53
 11
-13.5706
 21
-193.236
  0
LINE
  8
0
 10
-13.5706
 20
-193.236
 11
-13.6673
 21
-192.917
  0
LINE
  8
0
 10
-13.6673
 20
-192.917
 11
-13.7
 21
-192.586
  0
LINE
  8
0
 10
-13.7
 20
-192.586
 11
-13.6673
 21
-192.254
  0
LINE
  8
0
 10
-13.6673
 20
-192.254
 11
-13.5706
 21
-191.935
  0
LINE
  8
0
 10
-13.5706
 20
-191.935
 11
-13.4135
 21
-191.641
  0
LINE
  8
0
 10
-13.4135
 20
-191.641
 11
-13.2021
 21
-191.384
  0
LINE
  8
0
 10
-13.2021
 20
-191.384
 11
-12.9445
 21
-191.172
  0
LINE
  8
0
 10
-12.9445
 20
-191.172
 11
-12.6506
 21
-191.015
  0
LINE
  8
0
 10
-12.6506
 20
-191.015
 11
-12.3316
 21
-190.918
  0
LINE
  8
0
 10
-12.3316
 20
-190.918
 11
-12
 21
-190.886
  0
LINE
  8
0
 10
-12
 20
-190.886
 11
-12
 21
-119.971
  0
LINE
  8
0
 10
-12
 20
-119.971
 11
-12.3316
 21
-119.939
  0
LINE
  8
0
 10
-12.3316
 20
-119.939
 11
-12.6506
 21
-119.842
  0
LINE
  8
0
 10
-12.6506
 20
-119.842
 11
-12.9445
 21
-119.685
  0
LINE
  8
0
 10
-12.9445
 20
-119.685
 11
-13.2021
 21
-119.474
  0
LINE
  8
0
 10
-13.2021
 20
-119.474
 11
-13.4135
 21
-119.216
  0
LINE
  8
0
 10
-13.4135
 20
-119.216
 11
-13.5706
 21
-118.922
  0
LINE
  8
0
 10
-13.5706
 20
-118.922
 11
-13.6673
 21
-118.603
  0
LINE
  8
0
 10
-13.6673
 20
-118.603
 11
-13.7
 21
-118.271
  0
LINE
  8
0
 10
-13.7
 20
-118.271
 11
-13.6673
 21
-117.94
  0
LINE
  8
0
 10
-13.6673
 20
-117.94
 11
-13.5706
 21
-117.621
  0
LINE
  8
0
 10
-13.5706
 20
-117.621
 11
-13.4135
 21
-117.327
  0
LINE
  8
0
 10
-13.4135
 20
-117.327
 11
-13.2021
 21
-117.069
  0
LINE
  8
0
 10
-13.2021
 20
-117.069
 11
-12.9445
 21
-116.858
  0
LINE
  8
0
 10
-12.9445
 20
-116.858
 11
-12.6506
 21
-116.701
  0
LINE
  8
0
 10
-12.6506
 20
-116.701
 11
-12.3316
 21
-116.604
  0
LINE
  8
0
 10
-12.3316
 20
-116.604
 11
-12
 21
-116.571
  0
LINE
  8
0
 10
-12
 20
-116.571
 11
0
 21
-116.571
  0
LINE
  8
0
 10
0
 20
-116.571
 11
0
 21
-38.8571
  0
LINE
  8
0
 10
0
 20
-38.8571
 11
-12
 21
-38.8571
  0
LINE
  8
0
 10
-12
 20
-38.8571
 11
-12.3316
 21
-38.8245
  0
LINE
  8
0
 10
-12.3316
 20
-38.8245
 11
-12.6506
 21
-38.7278
  0
LINE
  8
0
 10
-12.6506
 20
-38.7278
 11
-12.9445
 21
-38.5706
  0
LINE
  8
0
 10
-12.9445
 20
-38.5706
 11
-13.2021
 21
-38.3592
  0
LINE
  8
0
 10
-13.2021
 20
-38.3592
 11
-13.4135
 21
-38.1016
  0
LINE
  8
0
 10
-13.4135
 20
-38.1016
 11
-13.5706
 21
-37.8077
  0
LINE
  8
0
 10
-13.5706
 20
-37.8077
 11
-13.6673
 21
-37.4888
  0
LINE
  8
0
 10
-13.6673
 20
-37.4888
 11
-13.7
 21
-37.1572
  0
LINE
  8
0
 10
-13.7
 20
-37.1572
 11
-13.6673
 21
-36.8255
  0
LINE
  8
0
 10
-13.6673
 20
-36.8255
 11
-13.5706
 21
-36.5066
  0
LINE
  8
0
 10
-13.5706
 20
-36.5066
 11
-13.4135
 21
-36.2127
  0
LINE
  8
0
 10
-13.4135
 20
-36.2127
 11
-13.2021
 21
-35.9551
  0
LINE
  8
0
 10
-13.2021
 20
-35.9551
 11
-12.9445
 21
-35.7437
  0
LINE
  8
0
 10
-12.9445
 20
-35.7437
 11
-12.6506
 21
-35.5865
  0
LINE
  8
0
 10
-12.6506
 20
-35.5865
 11
-12.3316
 21
-35.4898
  0
LINE
  8
0
 10
-12.3316
 20
-35.4898
 11
-12
 21
-35.4572
  0
LINE
  8
0
 10
-12
 20
-35.4572
 11
-12
 21
35.4571
  0
LINE
  8
0
 10
-12
 20
35.4571
 11
-12.3316
 21
35.4898
  0
LINE
  8
0
 10
-12.3316
 20
35.4898
 11
-12.6505
 21
35.5865
  0
LINE
  8
0
 10
-12.6505
 20
35.5865
 11
-12.9444
 21
35.7436
  0
LINE
  8
0
 10
-12.9444
 20
35.7436
 11
-13.2021
 21
35.955
  0
LINE
  8
0
 10
-13.2021
 20
35.955
 11
-13.4135
 21
36.2127
  0
LINE
  8
0
 10
-13.4135
 20
36.2127
 11
-13.5706
 21
36.5066
  0
LINE
  8
0
 10
-13.5706
 20
36.5066
 11
-13.6673
 21
36.8255
  0
LINE
  8
0
 10
-13.6673
 20
36.8255
 11
-13.7
 21
37.1571
  0
LINE
  8
0
 10
-13.7
 20
37.1571
 11
-13.6673
 21
37.4888
  0
LINE
  8
0
 10
-13.6673
 20
37.4888
 11
-13.5706
 21
37.8077
  0
LINE
  8
0
 10
-13.5706
 20
37.8077
 11
-13.4135
 21
38.1016
  0
LINE
  8
0
 10
-13.4135
 20
38.1016
 11
-13.2021
 21
38.3592
  0
LINE
  8
0
 10
-13.2021
 20
38.3592
 11
-12.9444
 21
38.5706
  0
LINE
  8
0
 10
-12.9444
 20
38.5706
 11
-12.6505
 21
38.7277
  0
LINE
  8
0
 10
-12.6505
 20
38.7277
 11
-12.3316
 21
38.8245
  0
LINE
  8
0
 10
-12.3316
 20
38.8245
 11
-12
 21
38.8571
  0
LINE
  8
0
 10
-12
 20
38.8571
 11
0
 21
38.8571
  0
LINE
  8
0
 10
0
 20
38.8571
 11
0
 21
116.571
  0
LINE
  8
0
 10
0
 20
116.571
 11
-12
 21
116.571
  0
LINE
  8
0
 10
-12
 20
116.571
 11
-12.3316
 21
116.604
  0
LINE
  8
0
 10
-12.3316
 20
116.604
 11
-12.6505
 21
116.701
  0
LINE
  8
0
 10
-12.6505
 20
116.701
 11
-12.9444
 21
116.858
  0
LINE
  8
0
 10
-12.9444
 20
116.858
 11
-13.2021
 21
117.069
  0
LINE
  8
0
 10
-13.2021
 20
117.069
 11
-13.4135
 21
117.327
  0
LINE
  8
0
 10
-13.4135
 20
117.327
 11
-13.5706
 21
117.621
  0
LINE
  8
0
 10
-13.5706
 20
117.621
 11
-13.6673
 21
117.94
  0
LINE
  8
0
 10
-13.6673
 20
117.94
 11
-13.7
 21
118.271
  0
LINE
  8
0
 10
-13.7
 20
118.271
 11
-13.6673
 21
118.603
  0
LINE
  8
0
 10
-13.6673
 20
118.603
 11
-13.5706
 21
118.922
  0
LINE
  8
0
 10
-13.5706
 20
118.922
 11
-13.4135
 21
119.216
  0
LINE
  8
0
 10
-13.4135
 20
119.216
 11
-13.2021
 21
119.473
  0
LINE
  8
0
 10
-13.2021
 20
119.473
 11
-12.9444
 21
119.685
  0
LINE
  8
0
 10
-12.9444
 20
119.685
 11
-12.6505
 21
119.842
  0
LINE
  8
0
 10
-12.6505
 20
119.842
 11
-12.3316
 21
119.939
  0
LINE
  8
0
 10
-12.3316
 20
119.939
 11
-12
 21
119.971
  0
LINE
  8
0
 10
-12
 20
119.971
 11
-12
 21
190.886
  0
LINE
  8
0
 10
-12
 20
190.886
 11
-12.3316
 21
190.918
  0
LINE
  8
0
 10
-12.3316
 20
190.918
 11
-12.6505
 21
191.015
  0
LINE
  8
0
 10
-12.6505
 20
191.015
 11
-12.9444
 21
191.172
  0
LINE
  8
0
 10
-12.9444
 20
191.172
 11
-13.2021
 21
191.384
  0
LINE
  8
0
 10
-13.2021
 20
191.384
 11
-13.4135
 21
191.641
  0
LINE
  8
0
 10
-13.4135
 20
191.641
 11
-13.5706
 21
191.935
  0
LINE
  8
0
 10
-13.5706
 20
191.935
 11
-13.6673
 21
192.254
  0
LINE
  8
0
 10
-13.6673
 20
192.254
 11
-13.7
 21
192.586
  0
LINE
  8
0
 10
-13.7
 20
192.586
 11
-13.6673
 21
192.917
  0
LINE
  8
0
 10
-13.6673
 20
192.917
 11
-13.5706
 21
193.236
  0
LINE
  8
0
 10
-13.5706
 20
193.236
 11
-13.4135
 21
193.53
  0
LINE
  8
0
 10
-13.4135
 20
193.53
 11
-13.2021
 21
193.788
  0
LINE
  8
0
 10
-13.2021
 20
193.788
 11
-12.9444
 21
193.999
  0
LINE
  8
0
 10
-12.9444
 20
193.999
 11
-12.6505
 21
194.156
  0
LINE
  8
0
 10
-12.6505
 20
194.156
 11
-12.3316
 21
194.253
  0
LINE
  8
0
 10
-12.3316
 20
194.253
 11
-12
 21
194.286
  0
LINE
  8
0
 10
-12
 20
194.286
 11
0
 21
194.286
  0
LINE
  8
0
 10
0
 20
194.286
 11
0
 21
272
  0
LINE
  8
0
 10
0
 20
272
 11
-12
 21
272
  0
LINE
  8
0
 10
-12
 20
272
 11
-12
 21
260
  0
LINE
  8
0
 10
-12
 20
260
 11
-63.5478
 21
260
  0
LINE
  8
0
 10
-63.5478
 20
260
 11
-63.5805
 21
259.668
  0
LINE
  8
0
 10
-63.5805
 20
259.668
 11
-63.6772
 21
259.349
  0
LINE
  8
0
 10
-63.6772
 20
259.349
 11
-63.8343
 21
259.056
  0
LINE
  8
0
 10
-63.8343
 20
259.056
 11
-64.0458
 21
258.798
  0
LINE
  8
0
 10
-64.0458
 20
258.798
 11
-64.3034
 21
258.587
  0
LINE
  8
0
 10
-64.3034
 20
258.587
 11
-64.5973
 21
258.429
  0
LINE
  8
0
 10
-64.5973
 20
258.429
 11
-64.9162
 21
258.333
  0
LINE
  8
0
 10
-64.9162
 20
258.333
 11
-65.2478
 21
258.3
  0
LINE
  8
0
 10
-65.2478
 20
258.3
 11
-65.5795
 21
258.333
  0
LINE
  8
0
 10
-65.5795
 20
258.333
 11
-65.8984
 21
258.429
  0
LINE
  8
0
 10
-65.8984
 20
258.429
 11
-66.1923
 21
258.587
  0
LINE
  8
0
 10
-66.1923
 20
258.587
 11
-66.4499
 21
258.798
  0
LINE
  8
0
 10
-66.4499
 20
258.798
 11
-66.6613
 21
259.056
  0
LINE
  8
0
 10
-66.6613
 20
259.056
 11
-66.8184
 21
259.349
  0
LINE
  8
0
 10
-66.8184
 20
259.349
 11
-66.9152
 21
259.668
  0
LINE
  8
0
 10
-66.9152
 20
259.668
 11
-66.9478
 21
260
  0
LINE
  8
0
 10
-66.9478
 20
260
 11
-66.9478
 21
272
  0
LINE
  8
0
 10
-66.9478
 20
272
 11
-133.896
 21
272
  0
LINE
  8
0
 10
-133.896
 20
272
 11
-133.896
 21
260
  0
LINE
  8
0
 10
-133.896
 20
260
 11
-133.928
 21
259.668
  0
LINE
  8
0
 10
-133.928
 20
259.668
 11
-134.025
 21
259.349
  0
LINE
  8
0
 10
-134.025
 20
259.349
 11
-134.182
 21
259.056
  0
LINE
  8
0
 10
-134.182
 20
259.056
 11
-134.394
 21
258.798
  0
LINE
  8
0
 10
-134.394
 20
258.798
 11
-134.651
 21
258.586
  0
LINE
  8
0
 10
-134.651
 20
258.586
 11
-134.945
 21
258.429
  0
LINE
  8
0
 10
-134.945
 20
258.429
 11
-135.264
 21
258.333
  0
LINE
  8
0
 10
-135.264
 20
258.333
 11
-135.596
 21
258.3
  0
LINE
  8
0
 10
-135.596
 20
258.3
 11
-135.927
 21
258.333
  0
LINE
  8
0
 10
-135.927
 20
258.333
 11
-136.246
 21
258.429
  0
LINE
  8
0
 10
-136.246
 20
258.429
 11
-136.54
 21
258.586
  0
LINE
  8
0
 10
-136.54
 20
258.586
 11
-136.798
 21
258.798
  0
LINE
  8
0
 10
-136.798
 20
258.798
 11
-137.009
 21
259.056
  0
LINE
  8
0
 10
-137.009
 20
259.056
 11
-137.166
 21
259.349
  0
LINE
  8
0
 10
-137.166
 20
259.349
 11
-137.263
 21
259.668
  0
LINE
  8
0
 10
-137.263
 20
259.668
 11
-137.296
 21
260
  0
LINE
  8
0
 10
-137.296
 20
260
 11
-200.844
 21
260
  0
LINE
  8
0
 10
-200.844
 20
260
 11
-200.844
 21
272
  0
LINE
  8
0
 10
-200.844
 20
272
 11
-212.844
 21
272
  0
LINE
  8
0
 10
-212.844
 20
272
 11
-212.844
 21
194.286
  0
LINE
  8
0
 10
-212.844
 20
194.286
 11
-200.844
 21
194.286
  0
LINE
  8
0
 10
-200.844
 20
194.286
 11
-200.512
 21
194.253
  0
LINE
  8
0
 10
-200.512
 20
194.253
 11
-200.193
 21
194.156
  0
LINE
  8
0
 10
-200.193
 20
194.156
 11
-199.899
 21
193.999
  0
LINE
  8
0
 10
-199.899
 20
193.999
 11
-199.641
 21
193.788
  0
LINE
  8
0
 10
-199.641
 20
193.788
 11
-199.43
 21
193.53
  0
LINE
  8
0
 10
-199.43
 20
193.53
 11
-199.273
 21
193.236
  0
LINE
  8
0
 10
-199.273
 20
193.236
 11
-199.176
 21
192.917
  0
LINE
  8
0
 10
-199.176
 20
192.917
 11
-199.144
 21
192.586
  0
LINE
  8
0
 10
-199.144
 20
192.586
 11
-199.176
 21
192.254
  0
LINE
  8
0
 10
-199.176
 20
192.254
 11
-199.273
 21
191.935
  0
LINE
  8
0
 10
-199.273
 20
191.935
 11
-199.43
 21
191.641
  0
LINE
  8
0
 10
-199.43
 20
191.641
 11
-199.641
 21
191.384
  0
LINE
  8
0
 10
-199.641
 20
191.384
 11
-199.899
 21
191.172
  0
LINE
  8
0
 10
-199.899
 20
191.172
 11
-200.193
 21
191.015
  0
LINE
  8
0
 10
-200.193
 20
191.015
 11
-200.512
 21
190.918
  0
LINE
  8
0
 10
-200.512
 20
190.918
 11
-200.844
 21
190.886
  0
LINE
  8
0
 10
-200.844
 20
190.886
 11
-200.844
 21
119.971
  0
LINE
  8
0
 10
-200.844
 20
119.971
 11
-200.512
 21
119.939
  0
LINE
  8
0
 10
-200.512
 20
119.939
 11
-200.193
 21
119.842
  0
LINE
  8
0
 10
-200.193
 20
119.842
 11
-199.899
 21
119.685
  0
LINE
  8
0
 10
-199.899
 20
119.685
 11
-199.641
 21
119.473
  0
LINE
  8
0
 10
-199.641
 20
119.473
 11
-199.43
 21
119.216
  0
LINE
  8
0
 10
-199.43
 20
119.216
 11
-199.273
 21
118.922
  0
LINE
  8
0
 10
-199.273
 20
118.922
 11
-199.176
 21
118.603
  0
LINE
  8
0
 10
-199.176
 20
118.603
 11
-199.144
 21
118.271
  0
LINE
  8
0
 10
-199.144
 20
118.271
 11
-199.176
 21
117.94
  0
LINE
  8
0
 10
-199.176
 20
117.94
 11
-199.273
 21
117.621
  0
LINE
  8
0
 10
-199.273
 20
117.621
 11
-199.43
 21
117.327
  0
LINE
  8
0
 10
-199.43
 20
117.327
 11
-199.641
 21
117.069
  0
LINE
  8
0
 10
-199.641
 20
117.069
 11
-199.899
 21
116.858
  0
LINE
  8
0
 10
-199.899
 20
116.858
 11
-200.193
 21
116.701
  0
LINE
  8
0
 10
-200.193
 20
116.701
 11
-200.512
 21
116.604
  0
LINE
  8
0
 10
-200.512
 20
116.604
 11
-200.844
 21
116.571
  0
LINE
  8
0
 10
-200.844
 20
116.571
 11
-212.844
 21
116.571
  0
LINE
  8
0
 10
-212.844
 20
116.571
 11
-212.844
 21
38.8571
  0
LINE
  8
0
 10
-212.844
 20
38.8571
 11
-200.844
 21
38.8571
  0
LINE
  8
0
 10
-200.844
 20
38.8571
 11
-200.512
 21
38.8245
  0
LINE
  8
0
 10
-200.512
 20
38.8245
 11
-200.193
 21
38.7277
  0
LINE
  8
0
 10
-200.193
 20
38.7277
 11
-199.899
 21
38.5706
  0
LINE
  8
0
 10
-199.899
 20
38.5706
 11
-199.641
 21
38.3592
  0
LINE
  8
0
 10
-199.641
 20
38.3592
 11
-199.43
 21
38.1016
  0
LINE
  8
0
 10
-199.43
 20
38.1016
 11
-199.273
 21
37.8077
  0
LINE
  8
0
 10
-199.273
 20
37.8077
 11
-199.176
 21
37.4888
  0
LINE
  8
0
 10
-199.176
 20
37.4888
 11
-199.144
 21
37.1571
  0
LINE
  8
0
 10
-199.144
 20
37.1571
 11
-199.176
 21
36.8255
  0
LINE
  8
0
 10
-199.176
 20
36.8255
 11
-199.273
 21
36.5066
  0
LINE
  8
0
 10
-199.273
 20
36.5066
 11
-199.43
 21
36.2127
  0
LINE
  8
0
 10
-199.43
 20
36.2127
 11
-199.641
 21
35.955
  0
LINE
  8
0
 10
-199.641
 20
35.955
 11
-199.899
 21
35.7436
  0
LINE
  8
0
 10
-199.899
 20
35.7436
 11
-200.193
 21
35.5865
  0
LINE
  8
0
 10
-200.193
 20
35.5865
 11
-200.512
 21
35.4898
  0
LINE
  8
0
 10
-200.512
 20
35.4898
 11
-200.844
 21
35.4571
  0
LINE
  8
0
 10
-200.844
 20
35.4571
 11
-200.844
 21
-35.4571
  0
LINE
  8
0
 10
-200.844
 20
-35.4571
 11
-200.512
 21
-35.4898
  0
LINE
  8
0
 10
-200.512
 20
-35.4898
 11
-200.193
 21
-35.5865
  0
LINE
  8
0
 10
-200.193
 20
-35.5865
 11
-199.899
 21
-35.7436
  0
LINE
  8
0
 10
-199.899
 20
-35.7436
 11
-199.641
 21
-35.955
  0
LINE
  8
0
 10
-199.641
 20
-35.955
 11
-199.43
 21
-36.2127
  0
LINE
  8
0
 10
-199.43
 20
-36.2127
 11
-199.273
 21
-36.5066
  0
LINE
  8
0
 10
-199.273
 20
-36.5066
 11
-199.176
 21
-36.8255
  0
LINE
  8
0
 10
-199.176
 20
-36.8255
 11
-199.144
 21
-37.1571
  0
LINE
  8
0
 10
-199.144
 20
-37.1571
 11
-199.176
 21
-37.4888
  0
LINE
  8
0
 10
-199.176
 20
-37.4888
 11
-199.273
 21
-37.8077
  0
LINE
  8
0
 10
-199.273
 20
-37.8077
 11
-199.43
 21
-38.1016
  0
LINE
  8
0
 10
-199.43
 20
-38.1016
 11
-199.641
 21
-38.3592
  0
LINE
  8
0
 10
-199.641
 20
-38.3592
 11
-199.899
 21
-38.5706
  0
LINE
  8
0
 10
-199.899
 20
-38.5706
 11
-200.193
 21
-38.7277
  0
LINE
  8
0
 10
-200.193
 20
-38.7277
 11
-200.512
 21
-38.8245
  0
LINE
  8
0
 10
-200.512
 20
-38.8245
 11
-200.844
 21
-38.8571
  0
LINE
  8
0
 10
-200.844
 20
-38.8571
 11
-212.844
 21
-38.8571
  0
LINE
  8
0
 10
-212.844
 20
-38.8571
 11
-212.844
 21
-116.571
  0
LINE
  8
0
 10
-212.844
 20
-116.571
 11
-200.844
 21
-116.571
  0
LINE
  8
0
 10
-200.844
 20
-116.571
 11
-200.512
 21
-116.604
  0
LINE
  8
0
 10
-200.512
 20
-116.604
 11
-200.193
 21
-116.701
  0
LINE
  8
0
 10
-200.193
 20
-116.701
 11
-199.899
 21
-116.858
  0
LINE
  8
0
 10
-199.899
 20
-116.858
 11
-199.641
 21
-117.069
  0
LINE
  8
0
 10
-199.641
 20
-117.069
 11
-199.43
 21
-117.327
  0
LINE
  8
0
 10
-199.43
 20
-117.327
 11
-199.273
 21
-117.621
  0
LINE
  8
0
 10
-199.273
 20
-117.621
 11
-199.176
 21
-117.94
  0
LINE
  8
0
 10
-199.176
 20
-117.94
 11
-199.144
 21
-118.271
  0
LINE
  8
0
 10
-199.144
 20
-118.271
 11
-199.176
 21
-118.603
  0
LINE
  8
0
 10
-199.176
 20
-118.603
 11
-199.273
 21
-118.922
  0
LINE
  8
0
 10
-199.273
 20
-118.922
 11
-199.43
 21
-119.216
  0
LINE
  8
0
 10
-199.43
 20
-119.216
 11
-199.641
 21
-119.473
  0
LINE
  8
0
 10
-199.641
 20
-119.473
 11
-199.899
 21
-119.685
  0
LINE
  8
0
 10
-199.899
 20
-119.685
 11
-200.193
 21
-119.842
  0
LINE
  8
0
 10
-200.193
 20
-119.842
 11
-200.512
 21
-119.939
  0
LINE
  8
0
 10
-200.512
 20
-119.939
 11
-200.844
 21
-119.971
  0
LINE
  8
0
 10
-200.844
 20
-119.971
 11
-200.844
 21
-190.886
  0
LINE
  8
0
 10
-200.844
 20
-190.886
 11
-200.512
 21
-190.918
  0
LINE
  8
0
 10
-200.512
 20
-190.918
 11
-200.193
 21
-191.015
  0
LINE
  8
0
 10
-200.193
 20
-191.015
 11
-199.899
 21
-191.172
  0
LINE
  8
0
 10
-199.899
 20
-191.172
 11
-199.641
 21
-191.384
  0
LINE
  8
0
 10
-199.641
 20
-191.384
 11
-199.43
 21
-191.641
  0
LINE
  8
0
 10
-199.43
 20
-191.641
 11
-199.273
 21
-191.935
  0
LINE
  8
0
 10
-199.273
 20
-191.935
 11
-199.176
 21
-192.254
  0
LINE
  8
0
 10
-199.176
 20
-192.254
 11
-199.144
 21
-192.586
  0
LINE
  8
0
 10
-199.144
 20
-192.586
 11
-199.176
 21
-192.917
  0
LINE
  8
0
 10
-199.176
 20
-192.917
 11
-199.273
 21
-193.236
  0
LINE
  8
0
 10
-199.273
 20
-193.236
 11
-199.43
 21
-193.53
  0
LINE
  8
0
 10
-199.43
 20
-193.53
 11
-199.641
 21
-193.788
  0
LINE
  8
0
 10
-199.641
 20
-193.788
 11
-199.899
 21
-193.999
  0
LINE
  8
0
 10
-199.899
 20
-193.999
 11
-200.193
 21
-194.156
  0
LINE
  8
0
 10
-200.193
 20
-194.156
 11
-200.512
 21
-194.253
  0
LINE
  8
0
 10
-200.512
 20
-194.253
 11
-200.844
 21
-194.286
  0
LINE
  8
0
 10
-200.844
 20
-194.286
 11
-212.844
 21
-194.286
  0
LINE
  8
0
 10
-212.844
 20
-194.286
 11
-212.844
 21
-272
  0
LINE
  8
0
 10
-212.844
 20
-272
 11
-200.844
 21
-272
  0
LINE
  8
0
 10
-200.844
 20
-272
 11
-200.844
 21
-260
  0
LINE
  8
0
 10
-200.844
 20
-260
 11
-137.296
 21
-260
  0
LINE
  8
0
 10
-137.296
 20
-260
 11
-137.263
 21
-259.668
  0
LINE
  8
0
 10
-137.263
 20
-259.668
 11
-137.166
 21
-259.349
  0
LINE
  8
0
 10
-137.166
 20
-259.349
 11
-137.009
 21
-259.056
  0
LINE
  8
0
 10
-137.009
 20
-259.056
 11
-136.798
 21
-258.798
  0
LINE
  8
0
 10
-136.798
 20
-258.798
 11
-136.54
 21
-258.586
  0
LINE
  8
0
 10
-136.54
 20
-258.586
 11
-136.246
 21
-258.429
  0
LINE
  8
0
 10
-136.246
 20
-258.429
 11
-135.927
 21
-258.333
  0
LINE
  8
0
 10
-135.927
 20
-258.333
 11
-135.596
 21
-258.3
  0
LINE
  8
0
 10
-135.596
 20
-258.3
 11
-135.264
 21
-258.333
  0
LINE
  8
0
 10
-135.264
 20
-258.333
 11
-134.945
 21
-258.429
  0
LINE
  8
0
 10
-134.945
 20
-258.429
 11
-134.651
 21
-258.586
  0
LINE
  8
0
 10
-134.651
 20
-258.586
 11
-134.394
 21
-258.798
  0
LINE
  8
0
 10
-134.394
 20
-258.798
 11
-134.182
 21
-259.056
  0
LINE
  8
0
 10
-134.182
 20
-259.056
 11
-134.025
 21
-259.349
  0
LINE
  8
0
 10
-134.025
 20
-259.349
 11
-133.928
 21
-259.668
  0
LINE
  8
0
 10
-133.928
 20
-259.668
 11
-133.896
 21
-260
  0
LINE
  8
0
 10
-133.896
 20
-260
 11
-133.896
 21
-272
  0
LINE
  8
0
 10
-133.896
 20
-272
 11
-66.9478
 21
-272
  0
LINE
  8
0
 10
-66.9478
 20
-272
 11
-66.9478
 21
-260
  0
LINE
  8
0
 10
-66.9478
 20
-260
 11
-66.9152
 21
-259.668
  0
LINE
  8
0
 10
-66.9152
 20
-259.668
 11
-66.8185
 21
-259.349
  0
LINE
  8
0
 10
-66.8185
 20
-259.349
 11
-66.6613
 21
-259.056
  0
LINE
  8
0
 10
-66.6613
 20
-259.056
 11
-66.4499
 21
-258.798
  0
LINE
  8
0
 10
-66.4499
 20
-258.798
 11
-66.1923
 21
-258.587
  0
LINE
  8
0
 10
-66.1923
 20
-258.587
 11
-65.8984
 21
-258.429
  0
LINE
  8
0
 10
-65.8984
 20
-258.429
 11
-65.5795
 21
-258.333
  0
LINE
  8
0
 10
-65.5795
 20
-258.333
 11
-65.2478
 21
-258.3
  0
LINE
  8
0
 10
-65.2478
 20
-258.3
 11
-64.9162
 21
-258.333
  0
LINE
  8
0
 10
-64.9162
 20
-258.333
 11
-64.5973
 21
-258.429
  0
LINE
  8
0
 10
-64.5973
 20
-258.429
 11
-64.3034
 21
-258.587
  0
LINE
  8
0
 10
-64.3034
 20
-258.587
 11
-64.0458
 21
-258.798
  0
LINE
  8
0
 10
-64.0458
 20
-258.798
 11
-63.8344
 21
-259.056
  0
LINE
  8
0
 10
-63.8344
 20
-259.056
 11
-63.6773
 21
-259.349
  0
LINE
  8
0
 10
-63.6773
 20
-259.349
 11
-63.5805
 21
-259.668
  0
LINE
  8
0
 10
-63.5805
 20
-259.668
 11
-63.5479
 21
-260
  0
LINE
  8
0
 10
-63.5479
 20
-260
 11
-12
 21
-260
  0
LINE
  8
0
 10
-12
 20
-260
 11
-12
 21
-272
  0
LINE
  8
0
 10
-12
 20
-272
 11
0
 21
-272
  0
LINE
  8
0
 10
0
 20
-272
 11
0
 21
-194.286
  0
LINE
  8
0
 10
-100.753
 20
264.333
 11
-101.072
 21
264.429
  0
LINE
  8
0
 10
-101.072
 20
264.429
 11
-101.366
 21
264.586
  0
LINE
  8
0
 10
-101.366
 20
264.586
 11
-101.624
 21
264.798
  0
LINE
  8
0
 10
-101.624
 20
264.798
 11
-101.835
 21
265.056
  0
LINE
  8
0
 10
-101.835
 20
265.056
 11
-101.992
 21
265.349
  0
LINE
  8
0
 10
-101.992
 20
265.349
 11
-102.089
 21
265.668
  0
LINE
  8
0
 10
-102.089
 20
265.668
 11
-102.122
 21
266
  0
LINE
  8
0
 10
-102.122
 20
266
 11
-102.089
 21
266.332
  0
LINE
  8
0
 10
-102.089
 20
266.332
 11
-101.992
 21
266.651
  0
LINE
  8
0
 10
-101.992
 20
266.651
 11
-101.835
 21
266.944
  0
LINE
  8
0
 10
-101.835
 20
266.944
 11
-101.624
 21
267.202
  0
LINE
  8
0
 10
-101.624
 20
267.202
 11
-101.366
 21
267.413
  0
LINE
  8
0
 10
-101.366
 20
267.413
 11
-101.072
 21
267.571
  0
LINE
  8
0
 10
-101.072
 20
267.571
 11
-100.753
 21
267.667
  0
LINE
  8
0
 10
-100.753
 20
267.667
 11
-100.422
 21
267.7
  0
LINE
  8
0
 10
-100.422
 20
267.7
 11
-100.09
 21
267.667
  0
LINE
  8
0
 10
-100.09
 20
267.667
 11
-99.7712
 21
267.571
  0
LINE
  8
0
 10
-99.7712
 20
267.571
 11
-99.4773
 21
267.413
  0
LINE
  8
0
 10
-99.4773
 20
267.413
 11
-99.2197
 21
267.202
  0
LINE
  8
0
 10
-99.2197
 20
267.202
 11
-99.0083
 21
266.944
  0
LINE
  8
0
 10
-99.0083
 20
266.944
 11
-98.8512
 21
266.651
  0
LINE
  8
0
 10
-98.8512
 20
266.651
 11
-98.7544
 21
266.332
  0
LINE
  8
0
 10
-98.7544
 20
266.332
 11
-98.7218
 21
266
  0
LINE
  8
0
 10
-98.7218
 20
266
 11
-98.7544
 21
265.668
  0
LINE
  8
0
 10
-98.7544
 20
265.668
 11
-98.8512
 21
265.349
  0
LINE
  8
0
 10
-98.8512
 20
265.349
 11
-99.0083
 21
265.056
  0
LINE
  8
0
 10
-99.0083
 20
265.056
 11
-99.2197
 21
264.798
  0
LINE
  8
0
 10
-99.2197
 20
264.798
 11
-99.4773
 21
264.586
  0
LINE
  8
0
 10
-99.4773
 20
264.586
 11
-99.7712
 21
264.429
  0
LINE
  8
0
 10
-99.7712
 20
264.429
 11
-100.09
 21
264.333
  0
LINE
  8
0
 10
-100.09
 20
264.333
 11
-100.422
 21
264.3
  0
LINE
  8
0
 10
-100.422
 20
264.3
 11
-100.753
 21
264.333
  0
LINE
  8
0
 10
-6.33165
 20
231.476
 11
-6.65056
 21
231.572
  0
LINE
  8
0
 10
-6.65056
 20
231.572
 11
-6.94446
 21
231.729
  0
LINE
  8
0
 10
-6.94446
 20
231.729
 11
-7.20207
 21
231.941
  0
LINE
  8
0
 10
-7.20207
 20
231.941
 11
-7.4135
 21
232.198
  0
LINE
  8
0
 10
-7.4135
 20
232.198
 11
-7.57059
 21
232.492
  0
LINE
  8
0
 10
-7.57059
 20
232.492
 11
-7.66733
 21
232.811
  0
LINE
  8
0
 10
-7.66733
 20
232.811
 11
-7.7
 21
233.143
  0
LINE
  8
0
 10
-7.7
 20
233.143
 11
-7.66733
 21
233.475
  0
LINE
  8
0
 10
-7.66733
 20
233.475
 11
-7.57059
 21
233.793
  0
LINE
  8
0
 10
-7.57059
 20
233.793
 11
-7.4135
 21
234.087
  0
LINE
  8
0
 10
-7.4135
 20
234.087
 11
-7.20207
 21
234.345
  0
LINE
  8
0
 10
-7.20207
 20
234.345
 11
-6.94446
 21
234.556
  0
LINE
  8
0
 10
-6.94446
 20
234.556
 11
-6.65056
 21
234.713
  0
LINE
  8
0
 10
-6.65056
 20
234.713
 11
-6.33165
 21
234.81
  0
LINE
  8
0
 10
-6.33165
 20
234.81
 11
-5.99998
 21
234.843
  0
LINE
  8
0
 10
-5.99998
 20
234.843
 11
-5.66833
 21
234.81
  0
LINE
  8
0
 10
-5.66833
 20
234.81
 11
-5.34943
 21
234.713
  0
LINE
  8
0
 10
-5.34943
 20
234.713
 11
-5.05553
 21
234.556
  0
LINE
  8
0
 10
-5.05553
 20
234.556
 11
-4.79791
 21
234.345
  0
LINE
  8
0
 10
-4.79791
 20
234.345
 11
-4.58649
 21
234.087
  0
LINE
  8
0
 10
-4.58649
 20
234.087
 11
-4.4294
 21
233.793
  0
LINE
  8
0
 10
-4.4294
 20
233.793
 11
-4.33266
 21
233.475
  0
LINE
  8
0
 10
-4.33266
 20
233.475
 11
-4.29999
 21
233.143
  0
LINE
  8
0
 10
-4.29999
 20
233.143
 11
-4.33266
 21
232.811
  0
LINE
  8
0
 10
-4.33266
 20
232.811
 11
-4.4294
 21
232.492
  0
LINE
  8
0
 10
-4.4294
 20
232.492
 11
-4.58649
 21
232.198
  0
LINE
  8
0
 10
-4.58649
 20
232.198
 11
-4.79791
 21
231.941
  0
LINE
  8
0
 10
-4.79791
 20
231.941
 11
-5.05553
 21
231.729
  0
LINE
  8
0
 10
-5.05553
 20
231.729
 11
-5.34943
 21
231.572
  0
LINE
  8
0
 10
-5.34943
 20
231.572
 11
-5.66833
 21
231.476
  0
LINE
  8
0
 10
-5.66833
 20
231.476
 11
-5.99998
 21
231.443
  0
LINE
  8
0
 10
-5.99998
 20
231.443
 11
-6.33165
 21
231.476
  0
LINE
  8
0
 10
-207.175
 20
231.476
 11
-207.494
 21
231.572
  0
LINE
  8
0
 10
-207.494
 20
231.572
 11
-207.788
 21
231.729
  0
LINE
  8
0
 10
-207.788
 20
231.729
 11
-208.046
 21
231.941
  0
LINE
  8
0
 10
-208.046
 20
231.941
 11
-208.257
 21
232.198
  0
LINE
  8
0
 10
-208.257
 20
232.198
 11
-208.414
 21
232.492
  0
LINE
  8
0
 10
-208.414
 20
232.492
 11
-208.511
 21
232.811
  0
LINE
  8
0
 10
-208.511
 20
232.811
 11
-208.544
 21
233.143
  0
LINE
  8
0
 10
-208.544
 20
233.143
 11
-208.511
 21
233.475
  0
LINE
  8
0
 10
-208.511
 20
233.475
 11
-208.414
 21
233.793
  0
LINE
  8
0
 10
-208.414
 20
233.793
 11
-208.257
 21
234.087
  0
LINE
  8
0
 10
-208.257
 20
234.087
 11
-208.046
 21
234.345
  0
LINE
  8
0
 10
-208.046
 20
234.345
 11
-207.788
 21
234.556
  0
LINE
  8
0
 10
-207.788
 20
234.556
 11
-207.494
 21
234.713
  0
LINE
  8
0
 10
-207.494
 20
234.713
 11
-207.175
 21
234.81
  0
LINE
  8
0
 10
-207.175
 20
234.81
 11
-206.844
 21
234.843
  0
LINE
  8
0
 10
-206.844
 20
234.843
 11
-206.512
 21
234.81
  0
LINE
  8
0
 10
-206.512
 20
234.81
 11
-206.193
 21
234.713
  0
LINE
  8
0
 10
-206.193
 20
234.713
 11
-205.899
 21
234.556
  0
LINE
  8
0
 10
-205.899
 20
234.556
 11
-205.641
 21
234.345
  0
LINE
  8
0
 10
-205.641
 20
234.345
 11
-205.43
 21
234.087
  0
LINE
  8
0
 10
-205.43
 20
234.087
 11
-205.273
 21
233.793
  0
LINE
  8
0
 10
-205.273
 20
233.793
 11
-205.176
 21
233.475
  0
LINE
  8
0
 10
-205.176
 20
233.475
 11
-205.144
 21
233.143
  0
LINE
  8
0
 10
-205.144
 20
233.143
 11
-205.176
 21
232.811
  0
LINE
  8
0
 10
-205.176
 20
232.811
 11
-205.273
 21
232.492
  0
LINE
  8
0
 10
-205.273
 20
232.492
 11
-205.43
 21
232.198
  0
LINE
  8
0
 10
-205.43
 20
232.198
 11
-205.641
 21
231.941
  0
LINE
  8
0
 10
-205.641
 20
231.941
 11
-205.899
 21
231.729
  0
LINE
  8
0
 10
-205.899
 20
231.729
 11
-206.193
 21
231.572
  0
LINE
  8
0
 10
-206.193
 20
231.572
 11
-206.512
 21
231.476
  0
LINE
  8
0
 10
-206.512
 20
231.476
 11
-206.844
 21
231.443
  0
LINE
  8
0
 10
-206.844
 20
231.443
 11
-207.175
 21
231.476
  0
LINE
  8
0
 10
-101.011
 20
168.014
 11
-101.598
 21
168.058
  0
LINE
  8
0
 10
-101.598
 20
168.058
 11
-102.183
 21
168.13
  0
LINE
  8
0
 10
-102.183
 20
168.13
 11
-102.763
 21
168.231
  0
LINE
  8
0
 10
-102.763
 20
168.231
 11
-103.338
 21
168.36
  0
LINE
  8
0
 10
-103.338
 20
168.36
 11
-103.905
 21
168.517
  0
LINE
  8
0
 10
-103.905
 20
168.517
 11
-104.464
 21
168.701
  0
LINE
  8
0
 10
-104.464
 20
168.701
 11
-105.014
 21
168.913
  0
LINE
  8
0
 10
-105.014
 20
168.913
 11
-105.552
 21
169.152
  0
LINE
  8
0
 10
-105.552
 20
169.152
 11
-106.079
 21
169.417
  0
LINE
  8
0
 10
-106.079
 20
169.417
 11
-106.591
 21
169.707
  0
LINE
  8
0
 10
-106.591
 20
169.707
 11
-107.089
 21
170.022
  0
LINE
  8
0
 10
-107.089
 20
170.022
 11
-107.57
 21
170.361
  0
LINE
  8
0
 10
-107.57
 20
170.361
 11
-108.034
 21
170.724
  0
LINE
  8
0
 10
-108.034
 20
170.724
 11
-108.48
 21
171.109
  0
LINE
  8
0
 10
-108.48
 20
171.109
 11
-108.907
 21
171.515
  0
LINE
  8
0
 10
-108.907
 20
171.515
 11
-109.313
 21
171.941
  0
LINE
  8
0
 10
-109.313
 20
171.941
 11
-109.698
 21
172.387
  0
LINE
  8
0
 10
-109.698
 20
172.387
 11
-110.06
 21
172.852
  0
LINE
  8
0
 10
-110.06
 20
172.852
 11
-110.399
 21
173.333
  0
LINE
  8
0
 10
-110.399
 20
173.333
 11
-110.715
 21
173.831
  0
LINE
  8
0
 10
-110.715
 20
173.831
 11
-111.005
 21
174.343
  0
LINE
  8
0
 10
-111.005
 20
174.343
 11
-111.27
 21
174.869
  0
LINE
  8
0
 10
-111.27
 20
174.869
 11
-111.508
 21
175.408
  0
LINE
  8
0
 10
-111.508
 20
175.408
 11
-111.72
 21
175.957
  0
LINE
  8
0
 10
-111.72
 20
175.957
 11
-111.905
 21
176.517
  0
LINE
  8
0
 10
-111.905
 20
176.517
 11
-112.062
 21
177.084
  0
LINE
  8
0
 10
-112.062
 20
177.084
 11
-112.191
 21
177.659
  0
LINE
  8
0
 10
-112.191
 20
177.659
 11
-112.292
 21
178.239
  0
LINE
  8
0
 10
-112.292
 20
178.239
 11
-112.364
 21
178.824
  0
LINE
  8
0
 10
-112.364
 20
178.824
 11
-112.407
 21
179.411
  0
LINE
  8
0
 10
-112.407
 20
179.411
 11
-112.422
 21
180
  0
LINE
  8
0
 10
-112.422
 20
180
 11
-112.407
 21
180.589
  0
LINE
  8
0
 10
-112.407
 20
180.589
 11
-112.364
 21
181.176
  0
LINE
  8
0
 10
-112.364
 20
181.176
 11
-112.292
 21
181.761
  0
LINE
  8
0
 10
-112.292
 20
181.761
 11
-112.191
 21
182.341
  0
LINE
  8
0
 10
-112.191
 20
182.341
 11
-112.062
 21
182.916
  0
LINE
  8
0
 10
-112.062
 20
182.916
 11
-111.905
 21
183.483
  0
LINE
  8
0
 10
-111.905
 20
183.483
 11
-111.72
 21
184.043
  0
LINE
  8
0
 10
-111.72
 20
184.043
 11
-111.508
 21
184.592
  0
LINE
  8
0
 10
-111.508
 20
184.592
 11
-111.27
 21
185.131
  0
LINE
  8
0
 10
-111.27
 20
185.131
 11
-111.005
 21
185.657
  0
LINE
  8
0
 10
-111.005
 20
185.657
 11
-110.715
 21
186.169
  0
LINE
  8
0
 10
-110.715
 20
186.169
 11
-110.399
 21
186.667
  0
LINE
  8
0
 10
-110.399
 20
186.667
 11
-110.06
 21
187.148
  0
LINE
  8
0
 10
-110.06
 20
187.148
 11
-109.698
 21
187.613
  0
LINE
  8
0
 10
-109.698
 20
187.613
 11
-109.313
 21
188.059
  0
LINE
  8
0
 10
-109.313
 20
188.059
 11
-108.907
 21
188.485
  0
LINE
  8
0
 10
-108.907
 20
188.485
 11
-108.48
 21
188.891
  0
LINE
  8
0
 10
-108.48
 20
188.891
 11
-108.034
 21
189.276
  0
LINE
  8
0
 10
-108.034
 20
189.276
 11
-107.57
 21
189.638
  0
LINE
  8
0
 10
-107.57
 20
189.638
 11
-107.089
 21
189.978
  0
LINE
  8
0
 10
-107.089
 20
189.978
 11
-106.591
 21
190.293
  0
LINE
  8
0
 10
-106.591
 20
190.293
 11
-106.079
 21
190.583
  0
LINE
  8
0
 10
-106.079
 20
190.583
 11
-105.552
 21
190.848
  0
LINE
  8
0
 10
-105.552
 20
190.848
 11
-105.014
 21
191.087
  0
LINE
  8
0
 10
-105.014
 20
191.087
 11
-104.464
 21
191.299
  0
LINE
  8
0
 10
-104.464
 20
191.299
 11
-103.905
 21
191.483
  0
LINE
  8
0
 10
-103.905
 20
191.483
 11
-103.338
 21
191.64
  0
LINE
  8
0
 10
-103.338
 20
191.64
 11
-102.763
 21
191.769
  0
LINE
  8
0
 10
-102.763
 20
191.769
 11
-102.183
 21
191.87
  0
LINE
  8
0
 10
-102.183
 20
191.87
 11
-101.598
 21
191.942
  0
LINE
  8
0
 10
-101.598
 20
191.942
 11
-101.011
 21
191.986
  0
LINE
  8
0
 10
-101.011
 20
191.986
 11
-100.422
 21
192
  0
LINE
  8
0
 10
-100.422
 20
192
 11
-99.833
 21
191.986
  0
LINE
  8
0
 10
-99.833
 20
191.986
 11
-99.2456
 21
191.942
  0
LINE
  8
0
 10
-99.2456
 20
191.942
 11
-98.661
 21
191.87
  0
LINE
  8
0
 10
-98.661
 20
191.87
 11
-98.0807
 21
191.769
  0
LINE
  8
0
 10
-98.0807
 20
191.769
 11
-97.506
 21
191.64
  0
LINE
  8
0
 10
-97.506
 20
191.64
 11
-96.9384
 21
191.483
  0
LINE
  8
0
 10
-96.9384
 20
191.483
 11
-96.3791
 21
191.299
  0
LINE
  8
0
 10
-96.3791
 20
191.299
 11
-95.8296
 21
191.087
  0
LINE
  8
0
 10
-95.8296
 20
191.087
 11
-95.2911
 21
190.848
  0
LINE
  8
0
 10
-95.2911
 20
190.848
 11
-94.765
 21
190.583
  0
LINE
  8
0
 10
-94.765
 20
190.583
 11
-94.2525
 21
190.293
  0
LINE
  8
0
 10
-94.2525
 20
190.293
 11
-93.7549
 21
189.978
  0
LINE
  8
0
 10
-93.7549
 20
189.978
 11
-93.2734
 21
189.638
  0
LINE
  8
0
 10
-93.2734
 20
189.638
 11
-92.8091
 21
189.276
  0
LINE
  8
0
 10
-92.8091
 20
189.276
 11
-92.3631
 21
188.891
  0
LINE
  8
0
 10
-92.3631
 20
188.891
 11
-91.9365
 21
188.485
  0
LINE
  8
0
 10
-91.9365
 20
188.485
 11
-91.5303
 21
188.059
  0
LINE
  8
0
 10
-91.5303
 20
188.059
 11
-91.1456
 21
187.613
  0
LINE
  8
0
 10
-91.1456
 20
187.613
 11
-90.7833
 21
187.148
  0
LINE
  8
0
 10
-90.7833
 20
187.148
 11
-90.4441
 21
186.667
  0
LINE
  8
0
 10
-90.4441
 20
186.667
 11
-90.129
 21
186.169
  0
LINE
  8
0
 10
-90.129
 20
186.169
 11
-89.8387
 21
185.657
  0
LINE
  8
0
 10
-89.8387
 20
185.657
 11
-89.5739
 21
185.131
  0
LINE
  8
0
 10
-89.5739
 20
185.131
 11
-89.3352
 21
184.592
  0
LINE
  8
0
 10
-89.3352
 20
184.592
 11
-89.1232
 21
184.043
  0
LINE
  8
0
 10
-89.1232
 20
184.043
 11
-88.9385
 21
183.483
  0
LINE
  8
0
 10
-88.9385
 20
183.483
 11
-88.7814
 21
182.916
  0
LINE
  8
0
 10
-88.7814
 20
182.916
 11
-88.6523
 21
182.341
  0
LINE
  8
0
 10
-88.6523
 20
182.341
 11
-88.5517
 21
181.761
  0
LINE
  8
0
 10
-88.5517
 20
181.761
 11
-88.4796
 21
181.176
  0
LINE
  8
0
 10
-88.4796
 20
181.176
 11
-88.4362
 21
180.589
  0
LINE
  8
0
 10
-88.4362
 20
180.589
 11
-88.4218
 21
180
  0
LINE
  8
0
 10
-88.4218
 20
180
 11
-88.4362
 21
179.411
  0
LINE
  8
0
 10
-88.4362
 20
179.411
 11
-88.4796
 21
178.824
  0
LINE
  8
0
 10
-88.4796
 20
178.824
 11
-88.5517
 21
178.239
  0
LINE
  8
0
 10
-88.5517
 20
178.239
 11
-88.6523
 21
177.659
  0
LINE
  8
0
 10
-88.6523
 20
177.659
 11
-88.7814
 21
177.084
  0
LINE
  8
0
 10
-88.7814
 20
177.084
 11
-88.9385
 21
176.517
  0
LINE
  8
0
 10
-88.9385
 20
176.517
 11
-89.1232
 21
175.957
  0
LINE
  8
0
 10
-89.1232
 20
175.957
 11
-89.3352
 21
175.408
  0
LINE
  8
0
 10
-89.3352
 20
175.408
 11
-89.5739
 21
174.869
  0
LINE
  8
0
 10
-89.5739
 20
174.869
 11
-89.8387
 21
174.343
  0
LINE
  8
0
 10
-89.8387
 20
174.343
 11
-90.129
 21
173.831
  0
LINE
  8
0
 10
-90.129
 20
173.831
 11
-90.4441
 21
173.333
  0
LINE
  8
0
 10
-90.4441
 20
173.333
 11
-90.7833
 21
172.852
  0
LINE
  8
0
 10
-90.7833
 20
172.852
 11
-91.1456
 21
172.387
  0
LINE
  8
0
 10
-91.1456
 20
172.387
 11
-91.5303
 21
171.941
  0
LINE
  8
0
 10
-91.5303
 20
171.941
 11
-91.9365
 21
171.515
  0
LINE
  8
0
 10
-91.9365
 20
171.515
 11
-92.3631
 21
171.109
  0
LINE
  8
0
 10
-92.3631
 20
171.109
 11
-92.8091
 21
170.724
  0
LINE
  8
0
 10
-92.8091
 20
170.724
 11
-93.2734
 21
170.361
  0
LINE
  8
0
 10
-93.2734
 20
170.361
 11
-93.7549
 21
170.022
  0
LINE
  8
0
 10
-93.7549
 20
170.022
 11
-94.2525
 21
169.707
  0
LINE
  8
0
 10
-94.2525
 20
169.707
 11
-94.765
 21
169.417
  0
LINE
  8
0
 10
-94.765
 20
169.417
 11
-95.2911
 21
169.152
  0
LINE
  8
0
 10
-95.2911
 20
169.152
 11
-95.8296
 21
168.913
  0
LINE
  8
0
 10
-95.8296
 20
168.913
 11
-96.3791
 21
168.701
  0
LINE
  8
0
 10
-96.3791
 20
168.701
 11
-96.9384
 21
168.517
  0
LINE
  8
0
 10
-96.9384
 20
168.517
 11
-97.506
 21
168.36
  0
LINE
  8
0
 10
-97.506
 20
168.36
 11
-98.0807
 21
168.231
  0
LINE
  8
0
 10
-98.0807
 20
168.231
 11
-98.661
 21
168.13
  0
LINE
  8
0
 10
-98.661
 20
168.13
 11
-99.2456
 21
168.058
  0
LINE
  8
0
 10
-99.2456
 20
168.058
 11
-99.833
 21
168.014
  0
LINE
  8
0
 10
-99.833
 20
168.014
 11
-100.422
 21
168
  0
LINE
  8
0
 10
-100.422
 20
168
 11
-101.011
 21
168.014
  0
LINE
  8
0
 10
-207.175
 20
76.0469
 11
-207.494
 21
76.1437
  0
LINE
  8
0
 10
-207.494
 20
76.1437
 11
-207.788
 21
76.3008
  0
LINE
  8
0
 10
-207.788
 20
76.3008
 11
-208.046
 21
76.5122
  0
LINE
  8
0
 10
-208.046
 20
76.5122
 11
-208.257
 21
76.7698
  0
LINE
  8
0
 10
-208.257
 20
76.7698
 11
-208.414
 21
77.0637
  0
LINE
  8
0
 10
-208.414
 20
77.0637
 11
-208.511
 21
77.3826
  0
LINE
  8
0
 10
-208.511
 20
77.3826
 11
-208.544
 21
77.7143
  0
LINE
  8
0
 10
-208.544
 20
77.7143
 11
-208.511
 21
78.0459
  0
LINE
  8
0
 10
-208.511
 20
78.0459
 11
-208.414
 21
78.3648
  0
LINE
  8
0
 10
-208.414
 20
78.3648
 11
-208.257
 21
78.6588
  0
LINE
  8
0
 10
-208.257
 20
78.6588
 11
-208.046
 21
78.9164
  0
LINE
  8
0
 10
-208.046
 20
78.9164
 11
-207.788
 21
79.1278
  0
LINE
  8
0
 10
-207.788
 20
79.1278
 11
-207.494
 21
79.2849
  0
LINE
  8
0
 10
-207.494
 20
79.2849
 11
-207.175
 21
79.3816
  0
LINE
  8
0
 10
-207.175
 20
79.3816
 11
-206.844
 21
79.4143
  0
LINE
  8
0
 10
-206.844
 20
79.4143
 11
-206.512
 21
79.3816
  0
LINE
  8
0
 10
-206.512
 20
79.3816
 11
-206.193
 21
79.2849
  0
LINE
  8
0
 10
-206.193
 20
79.2849
 11
-205.899
 21
79.1278
  0
LINE
  8
0
 10
-205.899
 20
79.1278
 11
-205.641
 21
78.9164
  0
LINE
  8
0
 10
-205.641
 20
78.9164
 11
-205.43
 21
78.6588
  0
LINE
  8
0
 10
-205.43
 20
78.6588
 11
-205.273
 21
78.3648
  0
LINE
  8
0
 10
-205.273
 20
78.3648
 11
-205.176
 21
78.0459
  0
LINE
  8
0
 10
-205.176
 20
78.0459
 11
-205.144
 21
77.7143
  0
LINE
  8
0
 10
-205.144
 20
77.7143
 11
-205.176
 21
77.3826
  0
LINE
  8
0
 10
-205.176
 20
77.3826
 11
-205.273
 21
77.0637
  0
LINE
  8
0
 10
-205.273
 20
77.0637
 11
-205.43
 21
76.7698
  0
LINE
  8
0
 10
-205.43
 20
76.7698
 11
-205.641
 21
76.5122
  0
LINE
  8
0
 10
-205.641
 20
76.5122
 11
-205.899
 21
76.3008
  0
LINE
  8
0
 10
-205.899
 20
76.3008
 11
-206.193
 21
76.1437
  0
LINE
  8
0
 10
-206.193
 20
76.1437
 11
-206.512
 21
76.0469
  0
LINE
  8
0
 10
-206.512
 20
76.0469
 11
-206.844
 21
76.0143
  0
LINE
  8
0
 10
-206.844
 20
76.0143
 11
-207.175
 21
76.0469
  0
LINE
  8
0
 10
-6.33165
 20
76.0469
 11
-6.65056
 21
76.1437
  0
LINE
  8
0
 10
-6.65056
 20
76.1437
 11
-6.94446
 21
76.3008
  0
LINE
  8
0
 10
-6.94446
 20
76.3008
 11
-7.20207
 21
76.5122
  0
LINE
  8
0
 10
-7.20207
 20
76.5122
 11
-7.4135
 21
76.7698
  0
LINE
  8
0
 10
-7.4135
 20
76.7698
 11
-7.57059
 21
77.0637
  0
LINE
  8
0
 10
-7.57059
 20
77.0637
 11
-7.66733
 21
77.3826
  0
LINE
  8
0
 10
-7.66733
 20
77.3826
 11
-7.7
 21
77.7143
  0
LINE
  8
0
 10
-7.7
 20
77.7143
 11
-7.66733
 21
78.0459
  0
LINE
  8
0
 10
-7.66733
 20
78.0459
 11
-7.57059
 21
78.3648
  0
LINE
  8
0
 10
-7.57059
 20
78.3648
 11
-7.4135
 21
78.6588
  0
LINE
  8
0
 10
-7.4135
 20
78.6588
 11
-7.20207
 21
78.9164
  0
LINE
  8
0
 10
-7.20207
 20
78.9164
 11
-6.94446
 21
79.1278
  0
LINE
  8
0
 10
-6.94446
 20
79.1278
 11
-6.65056
 21
79.2849
  0
LINE
  8
0
 10
-6.65056
 20
79.2849
 11
-6.33165
 21
79.3816
  0
LINE
  8
0
 10
-6.33165
 20
79.3816
 11
-5.99998
 21
79.4143
  0
LINE
  8
0
 10
-5.99998
 20
79.4143
 11
-5.66833
 21
79.3816
  0
LINE
  8
0
 10
-5.66833
 20
79.3816
 11
-5.34943
 21
79.2849
  0
LINE
  8
0
 10
-5.34943
 20
79.2849
 11
-5.05553
 21
79.1278
  0
LINE
  8
0
 10
-5.05553
 20
79.1278
 11
-4.79791
 21
78.9164
  0
LINE
  8
0
 10
-4.79791
 20
78.9164
 11
-4.58649
 21
78.6588
  0
LINE
  8
0
 10
-4.58649
 20
78.6588
 11
-4.4294
 21
78.3648
  0
LINE
  8
0
 10
-4.4294
 20
78.3648
 11
-4.33266
 21
78.0459
  0
LINE
  8
0
 10
-4.33266
 20
78.0459
 11
-4.29999
 21
77.7143
  0
LINE
  8
0
 10
-4.29999
 20
77.7143
 11
-4.33266
 21
77.3826
  0
LINE
  8
0
 10
-4.33266
 20
77.3826
 11
-4.4294
 21
77.0637
  0
LINE
  8
0
 10
-4.4294
 20
77.0637
 11
-4.58649
 21
76.7698
  0
LINE
  8
0
 10
-4.58649
 20
76.7698
 11
-4.79791
 21
76.5122
  0
LINE
  8
0
 10
-4.79791
 20
76.5122
 11
-5.05553
 21
76.3008
  0
LINE
  8
0
 10
-5.05553
 20
76.3008
 11
-5.34943
 21
76.1437
  0
LINE
  8
0
 10
-5.34943
 20
76.1437
 11
-5.66833
 21
76.0469
  0
LINE
  8
0
 10
-5.66833
 20
76.0469
 11
-5.99998
 21
76.0143
  0
LINE
  8
0
 10
-5.99998
 20
76.0143
 11
-6.33165
 21
76.0469
  0
LINE
  8
0
 10
-101.011
 20
48.0145
 11
-101.598
 21
48.0578
  0
LINE
  8
0
 10
-101.598
 20
48.0578
 11
-102.183
 21
48.1299
  0
LINE
  8
0
 10
-102.183
 20
48.1299
 11
-102.763
 21
48.2306
  0
LINE
  8
0
 10
-102.763
 20
48.2306
 11
-103.338
 21
48.3596
  0
LINE
  8
0
 10
-103.338
 20
48.3596
 11
-103.905
 21
48.5167
  0
LINE
  8
0
 10
-103.905
 20
48.5167
 11
-104.464
 21
48.7015
  0
LINE
  8
0
 10
-104.464
 20
48.7015
 11
-105.014
 21
48.9134
  0
LINE
  8
0
 10
-105.014
 20
48.9134
 11
-105.552
 21
49.1521
  0
LINE
  8
0
 10
-105.552
 20
49.1521
 11
-106.079
 21
49.4169
  0
LINE
  8
0
 10
-106.079
 20
49.4169
 11
-106.591
 21
49.7072
  0
LINE
  8
0
 10
-106.591
 20
49.7072
 11
-107.089
 21
50.0224
  0
LINE
  8
0
 10
-107.089
 20
50.0224
 11
-107.57
 21
50.3615
  0
LINE
  8
0
 10
-107.57
 20
50.3615
 11
-108.034
 21
50.7239
  0
LINE
  8
0
 10
-108.034
 20
50.7239
 11
-108.48
 21
51.1086
  0
LINE
  8
0
 10
-108.48
 20
51.1086
 11
-108.907
 21
51.5147
  0
LINE
  8
0
 10
-108.907
 20
51.5147
 11
-109.313
 21
51.9413
  0
LINE
  8
0
 10
-109.313
 20
51.9413
 11
-109.698
 21
52.3873
  0
LINE
  8
0
 10
-109.698
 20
52.3873
 11
-110.06
 21
52.8516
  0
LINE
  8
0
 10
-110.06
 20
52.8516
 11
-110.399
 21
53.3331
  0
LINE
  8
0
 10
-110.399
 20
53.3331
 11
-110.715
 21
53.8308
  0
LINE
  8
0
 10
-110.715
 20
53.8308
 11
-111.005
 21
54.3432
  0
LINE
  8
0
 10
-111.005
 20
54.3432
 11
-111.27
 21
54.8693
  0
LINE
  8
0
 10
-111.27
 20
54.8693
 11
-111.508
 21
55.4078
  0
LINE
  8
0
 10
-111.508
 20
55.4078
 11
-111.72
 21
55.9573
  0
LINE
  8
0
 10
-111.72
 20
55.9573
 11
-111.905
 21
56.5166
  0
LINE
  8
0
 10
-111.905
 20
56.5166
 11
-112.062
 21
57.0842
  0
LINE
  8
0
 10
-112.062
 20
57.0842
 11
-112.191
 21
57.6589
  0
LINE
  8
0
 10
-112.191
 20
57.6589
 11
-112.292
 21
58.2392
  0
LINE
  8
0
 10
-112.292
 20
58.2392
 11
-112.364
 21
58.8238
  0
LINE
  8
0
 10
-112.364
 20
58.8238
 11
-112.407
 21
59.4112
  0
LINE
  8
0
 10
-112.407
 20
59.4112
 11
-112.422
 21
60
  0
LINE
  8
0
 10
-112.422
 20
60
 11
-112.407
 21
60.5888
  0
LINE
  8
0
 10
-112.407
 20
60.5888
 11
-112.364
 21
61.1762
  0
LINE
  8
0
 10
-112.364
 20
61.1762
 11
-112.292
 21
61.7608
  0
LINE
  8
0
 10
-112.292
 20
61.7608
 11
-112.191
 21
62.3411
  0
LINE
  8
0
 10
-112.191
 20
62.3411
 11
-112.062
 21
62.9158
  0
LINE
  8
0
 10
-112.062
 20
62.9158
 11
-111.905
 21
63.4834
  0
LINE
  8
0
 10
-111.905
 20
63.4834
 11
-111.72
 21
64.0427
  0
LINE
  8
0
 10
-111.72
 20
64.0427
 11
-111.508
 21
64.5922
  0
LINE
  8
0
 10
-111.508
 20
64.5922
 11
-111.27
 21
65.1307
  0
LINE
  8
0
 10
-111.27
 20
65.1307
 11
-111.005
 21
65.6568
  0
LINE
  8
0
 10
-111.005
 20
65.6568
 11
-110.715
 21
66.1692
  0
LINE
  8
0
 10
-110.715
 20
66.1692
 11
-110.399
 21
66.6668
  0
LINE
  8
0
 10
-110.399
 20
66.6668
 11
-110.06
 21
67.1484
  0
LINE
  8
0
 10
-110.06
 20
67.1484
 11
-109.698
 21
67.6127
  0
LINE
  8
0
 10
-109.698
 20
67.6127
 11
-109.313
 21
68.0587
  0
LINE
  8
0
 10
-109.313
 20
68.0587
 11
-108.907
 21
68.4853
  0
LINE
  8
0
 10
-108.907
 20
68.4853
 11
-108.48
 21
68.8914
  0
LINE
  8
0
 10
-108.48
 20
68.8914
 11
-108.034
 21
69.2761
  0
LINE
  8
0
 10
-108.034
 20
69.2761
 11
-107.57
 21
69.6385
  0
LINE
  8
0
 10
-107.57
 20
69.6385
 11
-107.089
 21
69.9776
  0
LINE
  8
0
 10
-107.089
 20
69.9776
 11
-106.591
 21
70.2927
  0
LINE
  8
0
 10
-106.591
 20
70.2927
 11
-106.079
 21
70.5831
  0
LINE
  8
0
 10
-106.079
 20
70.5831
 11
-105.552
 21
70.8479
  0
LINE
  8
0
 10
-105.552
 20
70.8479
 11
-105.014
 21
71.0865
  0
LINE
  8
0
 10
-105.014
 20
71.0865
 11
-104.464
 21
71.2985
  0
LINE
  8
0
 10
-104.464
 20
71.2985
 11
-103.905
 21
71.4833
  0
LINE
  8
0
 10
-103.905
 20
71.4833
 11
-103.338
 21
71.6404
  0
LINE
  8
0
 10
-103.338
 20
71.6404
 11
-102.763
 21
71.7694
  0
LINE
  8
0
 10
-102.763
 20
71.7694
 11
-102.183
 21
71.8701
  0
LINE
  8
0
 10
-102.183
 20
71.8701
 11
-101.598
 21
71.9422
  0
LINE
  8
0
 10
-101.598
 20
71.9422
 11
-101.011
 21
71.9855
  0
LINE
  8
0
 10
-101.011
 20
71.9855
 11
-100.422
 21
72
  0
LINE
  8
0
 10
-100.422
 20
72
 11
-99.833
 21
71.9855
  0
LINE
  8
0
 10
-99.833
 20
71.9855
 11
-99.2456
 21
71.9422
  0
LINE
  8
0
 10
-99.2456
 20
71.9422
 11
-98.661
 21
71.8701
  0
LINE
  8
0
 10
-98.661
 20
71.8701
 11
-98.0807
 21
71.7694
  0
LINE
  8
0
 10
-98.0807
 20
71.7694
 11
-97.506
 21
71.6404
  0
LINE
  8
0
 10
-97.506
 20
71.6404
 11
-96.9384
 21
71.4833
  0
LINE
  8
0
 10
-96.9384
 20
71.4833
 11
-96.3791
 21
71.2985
  0
LINE
  8
0
 10
-96.3791
 20
71.2985
 11
-95.8296
 21
71.0865
  0
LINE
  8
0
 10
-95.8296
 20
71.0865
 11
-95.2911
 21
70.8479
  0
LINE
  8
0
 10
-95.2911
 20
70.8479
 11
-94.765
 21
70.5831
  0
LINE
  8
0
 10
-94.765
 20
70.5831
 11
-94.2525
 21
70.2927
  0
LINE
  8
0
 10
-94.2525
 20
70.2927
 11
-93.7549
 21
69.9776
  0
LINE
  8
0
 10
-93.7549
 20
69.9776
 11
-93.2734
 21
69.6385
  0
LINE
  8
0
 10
-93.2734
 20
69.6385
 11
-92.8091
 21
69.2761
  0
LINE
  8
0
 10
-92.8091
 20
69.2761
 11
-92.3631
 21
68.8914
  0
LINE
  8
0
 10
-92.3631
 20
68.8914
 11
-91.9365
 21
68.4853
  0
LINE
  8
0
 10
-91.9365
 20
68.4853
 11
-91.5303
 21
68.0587
  0
LINE
  8
0
 10
-91.5303
 20
68.0587
 11
-91.1456
 21
67.6127
  0
LINE
  8
0
 10
-91.1456
 20
67.6127
 11
-90.7833
 21
67.1484
  0
LINE
  8
0
 10
-90.7833
 20
67.1484
 11
-90.4441
 21
66.6668
  0
LINE
  8
0
 10
-90.4441
 20
66.6668
 11
-90.129
 21
66.1692
  0
LINE
  8
0
 10
-90.129
 20
66.1692
 11
-89.8387
 21
65.6568
  0
LINE
  8
0
 10
-89.8387
 20
65.6568
 11
-89.5739
 21
65.1307
  0
LINE
  8
0
 10
-89.5739
 20
65.1307
 11
-89.3352
 21
64.5922
  0
LINE
  8
0
 10
-89.3352
 20
64.5922
 11
-89.1232
 21
64.0427
  0
LINE
  8
0
 10
-89.1232
 20
64.0427
 11
-88.9385
 21
63.4834
  0
LINE
  8
0
 10
-88.9385
 20
63.4834
 11
-88.7814
 21
62.9158
  0
LINE
  8
0
 10
-88.7814
 20
62.9158
 11
-88.6523
 21
62.3411
  0
LINE
  8
0
 10
-88.6523
 20
62.3411
 11
-88.5517
 21
61.7608
  0
LINE
  8
0
 10
-88.5517
 20
61.7608
 11
-88.4796
 21
61.1762
  0
LINE
  8
0
 10
-88.4796
 20
61.1762
 11
-88.4362
 21
60.5888
  0
LINE
  8
0
 10
-88.4362
 20
60.5888
 11
-88.4218
 21
60
  0
LINE
  8
0
 10
-88.4218
 20
60
 11
-88.4362
 21
59.4112
  0
LINE
  8
0
 10
-88.4362
 20
59.4112
 11
-88.4796
 21
58.8238
  0
LINE
  8
0
 10
-88.4796
 20
58.8238
 11
-88.5517
 21
58.2392
  0
LINE
  8
0
 10
-88.5517
 20
58.2392
 11
-88.6523
 21
57.6589
  0
LINE
  8
0
 10
-88.6523
 20
57.6589
 11
-88.7814
 21
57.0842
  0
LINE
  8
0
 10
-88.7814
 20
57.0842
 11
-88.9385
 21
56.5166
  0
LINE
  8
0
 10
-88.9385
 20
56.5166
 11
-89.1232
 21
55.9573
  0
LINE
  8
0
 10
-89.1232
 20
55.9573
 11
-89.3352
 21
55.4078
  0
LINE
  8
0
 10
-89.3352
 20
55.4078
 11
-89.5739
 21
54.8693
  0
LINE
  8
0
 10
-89.5739
 20
54.8693
 11
-89.8387
 21
54.3432
  0
LINE
  8
0
 10
-89.8387
 20
54.3432
 11
-90.129
 21
53.8308
  0
LINE
  8
0
 10
-90.129
 20
53.8308
 11
-90.4441
 21
53.3331
  0
LINE
  8
0
 10
-90.4441
 20
53.3331
 11
-90.7833
 21
52.8516
  0
LINE
  8
0
 10
-90.7833
 20
52.8516
 11
-91.1456
 21
52.3873
  0
LINE
  8
0
 10
-91.1456
 20
52.3873
 11
-91.5303
 21
51.9413
  0
LINE
  8
0
 10
-91.5303
 20
51.9413
 11
-91.9365
 21
51.5147
  0
LINE
  8
0
 10
-91.9365
 20
51.5147
 11
-92.3631
 21
51.1086
  0
LINE
  8
0
 10
-92.3631
 20
51.1086
 11
-92.8091
 21
50.7239
  0
LINE
  8
0
 10
-92.8091
 20
50.7239
 11
-93.2734
 21
50.3615
  0
LINE
  8
0
 10
-93.2734
 20
50.3615
 11
-93.7549
 21
50.0224
  0
LINE
  8
0
 10
-93.7549
 20
50.0224
 11
-94.2525
 21
49.7072
  0
LINE
  8
0
 10
-94.2525
 20
49.7072
 11
-94.765
 21
49.4169
  0
LINE
  8
0
 10
-94.765
 20
49.4169
 11
-95.2911
 21
49.1521
  0
LINE
  8
0
 10
-95.2911
 20
49.1521
 11
-95.8296
 21
48.9134
  0
LINE
  8
0
 10
-95.8296
 20
48.9134
 11
-96.3791
 21
48.7015
  0
LINE
  8
0
 10
-96.3791
 20
48.7015
 11
-96.9384
 21
48.5167
  0
LINE
  8
0
 10
-96.9384
 20
48.5167
 11
-97.506
 21
48.3596
  0
LINE
  8
0
 10
-97.506
 20
48.3596
 11
-98.0807
 21
48.2306
  0
LINE
  8
0
 10
-98.0807
 20
48.2306
 11
-98.661
 21
48.1299
  0
LINE
  8
0
 10
-98.661
 20
48.1299
 11
-99.2456
 21
48.0578
  0
LINE
  8
0
 10
-99.2456
 20
48.0578
 11
-99.833
 21
48.0145
  0
LINE
  8
0
 10
-99.833
 20
48.0145
 11
-100.422
 21
48
  0
LINE
  8
0
 10
-100.422
 20
48
 11
-101.011
 21
48.0145
  0
LINE
  8
0
 10
-101.011
 20
-71.9855
 11
-101.598
 21
-71.9422
  0
LINE
  8
0
 10
-101.598
 20
-71.9422
 11
-102.183
 21
-71.8701
  0
LINE
  8
0
 10
-102.183
 20
-71.8701
 11
-102.763
 21
-71.7694
  0
LINE
  8
0
 10
-102.763
 20
-71.7694
 11
-103.338
 21
-71.6404
  0
LINE
  8
0
 10
-103.338
 20
-71.6404
 11
-103.905
 21
-71.4833
  0
LINE
  8
0
 10
-103.905
 20
-71.4833
 11
-104.464
 21
-71.2985
  0
LINE
  8
0
 10
-104.464
 20
-71.2985
 11
-105.014
 21
-71.0865
  0
LINE
  8
0
 10
-105.014
 20
-71.0865
 11
-105.552
 21
-70.8479
  0
LINE
  8
0
 10
-105.552
 20
-70.8479
 11
-106.079
 21
-70.583
  0
LINE
  8
0
 10
-106.079
 20
-70.583
 11
-106.591
 21
-70.2927
  0
LINE
  8
0
 10
-106.591
 20
-70.2927
 11
-107.089
 21
-69.9776
  0
LINE
  8
0
 10
-107.089
 20
-69.9776
 11
-107.57
 21
-69.6385
  0
LINE
  8
0
 10
-107.57
 20
-69.6385
 11
-108.035
 21
-69.2761
  0
LINE
  8
0
 10
-108.035
 20
-69.2761
 11
-108.48
 21
-68.8914
  0
LINE
  8
0
 10
-108.48
 20
-68.8914
 11
-108.907
 21
-68.4853
  0
LINE
  8
0
 10
-108.907
 20
-68.4853
 11
-109.313
 21
-68.0587
  0
LINE
  8
0
 10
-109.313
 20
-68.0587
 11
-109.698
 21
-67.6127
  0
LINE
  8
0
 10
-109.698
 20
-67.6127
 11
-110.06
 21
-67.1484
  0
LINE
  8
0
 10
-110.06
 20
-67.1484
 11
-110.399
 21
-66.6668
  0
LINE
  8
0
 10
-110.399
 20
-66.6668
 11
-110.715
 21
-66.1692
  0
LINE
  8
0
 10
-110.715
 20
-66.1692
 11
-111.005
 21
-65.6567
  0
LINE
  8
0
 10
-111.005
 20
-65.6567
 11
-111.27
 21
-65.1306
  0
LINE
  8
0
 10
-111.27
 20
-65.1306
 11
-111.508
 21
-64.5922
  0
LINE
  8
0
 10
-111.508
 20
-64.5922
 11
-111.72
 21
-64.0426
  0
LINE
  8
0
 10
-111.72
 20
-64.0426
 11
-111.905
 21
-63.4834
  0
LINE
  8
0
 10
-111.905
 20
-63.4834
 11
-112.062
 21
-62.9157
  0
LINE
  8
0
 10
-112.062
 20
-62.9157
 11
-112.191
 21
-62.3411
  0
LINE
  8
0
 10
-112.191
 20
-62.3411
 11
-112.292
 21
-61.7607
  0
LINE
  8
0
 10
-112.292
 20
-61.7607
 11
-112.364
 21
-61.1762
  0
LINE
  8
0
 10
-112.364
 20
-61.1762
 11
-112.407
 21
-60.5888
  0
LINE
  8
0
 10
-112.407
 20
-60.5888
 11
-112.422
 21
-60
  0
LINE
  8
0
 10
-112.422
 20
-60
 11
-112.407
 21
-59.4112
  0
LINE
  8
0
 10
-112.407
 20
-59.4112
 11
-112.364
 21
-58.8238
  0
LINE
  8
0
 10
-112.364
 20
-58.8238
 11
-112.292
 21
-58.2392
  0
LINE
  8
0
 10
-112.292
 20
-58.2392
 11
-112.191
 21
-57.6589
  0
LINE
  8
0
 10
-112.191
 20
-57.6589
 11
-112.062
 21
-57.0842
  0
LINE
  8
0
 10
-112.062
 20
-57.0842
 11
-111.905
 21
-56.5166
  0
LINE
  8
0
 10
-111.905
 20
-56.5166
 11
-111.72
 21
-55.9573
  0
LINE
  8
0
 10
-111.72
 20
-55.9573
 11
-111.508
 21
-55.4078
  0
LINE
  8
0
 10
-111.508
 20
-55.4078
 11
-111.27
 21
-54.8693
  0
LINE
  8
0
 10
-111.27
 20
-54.8693
 11
-111.005
 21
-54.3432
  0
LINE
  8
0
 10
-111.005
 20
-54.3432
 11
-110.715
 21
-53.8307
  0
LINE
  8
0
 10
-110.715
 20
-53.8307
 11
-110.399
 21
-53.3331
  0
LINE
  8
0
 10
-110.399
 20
-53.3331
 11
-110.06
 21
-52.8516
  0
LINE
  8
0
 10
-110.06
 20
-52.8516
 11
-109.698
 21
-52.3873
  0
LINE
  8
0
 10
-109.698
 20
-52.3873
 11
-109.313
 21
-51.9413
  0
LINE
  8
0
 10
-109.313
 20
-51.9413
 11
-108.907
 21
-51.5147
  0
LINE
  8
0
 10
-108.907
 20
-51.5147
 11
-108.48
 21
-51.1086
  0
LINE
  8
0
 10
-108.48
 20
-51.1086
 11
-108.035
 21
-50.7238
  0
LINE
  8
0
 10
-108.035
 20
-50.7238
 11
-107.57
 21
-50.3615
  0
LINE
  8
0
 10
-107.57
 20
-50.3615
 11
-107.089
 21
-50.0223
  0
LINE
  8
0
 10
-107.089
 20
-50.0223
 11
-106.591
 21
-49.7072
  0
LINE
  8
0
 10
-106.591
 20
-49.7072
 11
-106.079
 21
-49.4169
  0
LINE
  8
0
 10
-106.079
 20
-49.4169
 11
-105.552
 21
-49.1521
  0
LINE
  8
0
 10
-105.552
 20
-49.1521
 11
-105.014
 21
-48.9134
  0
LINE
  8
0
 10
-105.014
 20
-48.9134
 11
-104.464
 21
-48.7014
  0
LINE
  8
0
 10
-104.464
 20
-48.7014
 11
-103.905
 21
-48.5167
  0
LINE
  8
0
 10
-103.905
 20
-48.5167
 11
-103.338
 21
-48.3596
  0
LINE
  8
0
 10
-103.338
 20
-48.3596
 11
-102.763
 21
-48.2306
  0
LINE
  8
0
 10
-102.763
 20
-48.2306
 11
-102.183
 21
-48.1299
  0
LINE
  8
0
 10
-102.183
 20
-48.1299
 11
-101.598
 21
-48.0578
  0
LINE
  8
0
 10
-101.598
 20
-48.0578
 11
-101.011
 21
-48.0144
  0
LINE
  8
0
 10
-101.011
 20
-48.0144
 11
-100.422
 21
-48
  0
LINE
  8
0
 10
-100.422
 20
-48
 11
-99.833
 21
-48.0144
  0
LINE
  8
0
 10
-99.833
 20
-48.0144
 11
-99.2456
 21
-48.0578
  0
LINE
  8
0
 10
-99.2456
 20
-48.0578
 11
-98.661
 21
-48.1299
  0
LINE
  8
0
 10
-98.661
 20
-48.1299
 11
-98.0807
 21
-48.2306
  0
LINE
  8
0
 10
-98.0807
 20
-48.2306
 11
-97.506
 21
-48.3596
  0
LINE
  8
0
 10
-97.506
 20
-48.3596
 11
-96.9384
 21
-48.5167
  0
LINE
  8
0
 10
-96.9384
 20
-48.5167
 11
-96.3791
 21
-48.7014
  0
LINE
  8
0
 10
-96.3791
 20
-48.7014
 11
-95.8296
 21
-48.9134
  0
LINE
  8
0
 10
-95.8296
 20
-48.9134
 11
-95.2911
 21
-49.1521
  0
LINE
  8
0
 10
-95.2911
 20
-49.1521
 11
-94.765
 21
-49.4169
  0
LINE
  8
0
 10
-94.765
 20
-49.4169
 11
-94.2525
 21
-49.7072
  0
LINE
  8
0
 10
-94.2525
 20
-49.7072
 11
-93.7549
 21
-50.0223
  0
LINE
  8
0
 10
-93.7549
 20
-50.0223
 11
-93.2734
 21
-50.3615
  0
LINE
  8
0
 10
-93.2734
 20
-50.3615
 11
-92.8091
 21
-50.7238
  0
LINE
  8
0
 10
-92.8091
 20
-50.7238
 11
-92.3631
 21
-51.1086
  0
LINE
  8
0
 10
-92.3631
 20
-51.1086
 11
-91.9365
 21
-51.5147
  0
LINE
  8
0
 10
-91.9365
 20
-51.5147
 11
-91.5304
 21
-51.9413
  0
LINE
  8
0
 10
-91.5304
 20
-51.9413
 11
-91.1457
 21
-52.3873
  0
LINE
  8
0
 10
-91.1457
 20
-52.3873
 11
-90.7833
 21
-52.8516
  0
LINE
  8
0
 10
-90.7833
 20
-52.8516
 11
-90.4442
 21
-53.3331
  0
LINE
  8
0
 10
-90.4442
 20
-53.3331
 11
-90.129
 21
-53.8307
  0
LINE
  8
0
 10
-90.129
 20
-53.8307
 11
-89.8387
 21
-54.3432
  0
LINE
  8
0
 10
-89.8387
 20
-54.3432
 11
-89.5739
 21
-54.8693
  0
LINE
  8
0
 10
-89.5739
 20
-54.8693
 11
-89.3352
 21
-55.4078
  0
LINE
  8
0
 10
-89.3352
 20
-55.4078
 11
-89.1233
 21
-55.9573
  0
LINE
  8
0
 10
-89.1233
 20
-55.9573
 11
-88.9385
 21
-56.5166
  0
LINE
  8
0
 10
-88.9385
 20
-56.5166
 11
-88.7814
 21
-57.0842
  0
LINE
  8
0
 10
-88.7814
 20
-57.0842
 11
-88.6524
 21
-57.6589
  0
LINE
  8
0
 10
-88.6524
 20
-57.6589
 11
-88.5517
 21
-58.2392
  0
LINE
  8
0
 10
-88.5517
 20
-58.2392
 11
-88.4796
 21
-58.8238
  0
LINE
  8
0
 10
-88.4796
 20
-58.8238
 11
-88.4362
 21
-59.4112
  0
LINE
  8
0
 10
-88.4362
 20
-59.4112
 11
-88.4218
 21
-60
  0
LINE
  8
0
 10
-88.4218
 20
-60
 11
-88.4362
 21
-60.5888
  0
LINE
  8
0
 10
-88.4362
 20
-60.5888
 11
-88.4796
 21
-61.1762
  0
LINE
  8
0
 10
-88.4796
 20
-61.1762
 11
-88.5517
 21
-61.7607
  0
LINE
  8
0
 10
-88.5517
 20
-61.7607
 11
-88.6524
 21
-62.3411
  0
LINE
  8
0
 10
-88.6524
 20
-62.3411
 11
-88.7814
 21
-62.9157
  0
LINE
  8
0
 10
-88.7814
 20
-62.9157
 11
-88.9385
 21
-63.4834
  0
LINE
  8
0
 10
-88.9385
 20
-63.4834
 11
-89.1233
 21
-64.0426
  0
LINE
  8
0
 10
-89.1233
 20
-64.0426
 11
-89.3352
 21
-64.5922
  0
LINE
  8
0
 10
-89.3352
 20
-64.5922
 11
-89.5739
 21
-65.1306
  0
LINE
  8
0
 10
-89.5739
 20
-65.1306
 11
-89.8387
 21
-65.6567
  0
LINE
  8
0
 10
-89.8387
 20
-65.6567
 11
-90.129
 21
-66.1692
  0
LINE
  8
0
 10
-90.129
 20
-66.1692
 11
-90.4442
 21
-66.6668
  0
LINE
  8
0
 10
-90.4442
 20
-66.6668
 11
-90.7833
 21
-67.1484
  0
LINE
  8
0
 10
-90.7833
 20
-67.1484
 11
-91.1457
 21
-67.6127
  0
LINE
  8
0
 10
-91.1457
 20
-67.6127
 11
-91.5304
 21
-68.0587
  0
LINE
  8
0
 10
-91.5304
 20
-68.0587
 11
-91.9365
 21
-68.4853
  0
LINE
  8
0
 10
-91.9365
 20
-68.4853
 11
-92.3631
 21
-68.8914
  0
LINE
  8
0
 10
-92.3631
 20
-68.8914
 11
-92.8091
 21
-69.2761
  0
LINE
  8
0
 10
-92.8091
 20
-69.2761
 11
-93.2734
 21
-69.6385
  0
LINE
  8
0
 10
-93.2734
 20
-69.6385
 11
-93.7549
 21
-69.9776
  0
LINE
  8
0
 10
-93.7549
 20
-69.9776
 11
-94.2525
 21
-70.2927
  0
LINE
  8
0
 10
-94.2525
 20
-70.2927
 11
-94.765
 21
-70.583
  0
LINE
  8
0
 10
-94.765
 20
-70.583
 11
-95.2911
 21
-70.8479
  0
LINE
  8
0
 10
-95.2911
 20
-70.8479
 11
-95.8296
 21
-71.0865
  0
LINE
  8
0
 10
-95.8296
 20
-71.0865
 11
-96.3791
 21
-71.2985
  0
LINE
  8
0
 10
-96.3791
 20
-71.2985
 11
-96.9384
 21
-71.4833
  0
LINE
  8
0
 10
-96.9384
 20
-71.4833
 11
-97.506
 21
-71.6404
  0
LINE
  8
0
 10
-97.506
 20
-71.6404
 11
-98.0807
 21
-71.7694
  0
LINE
  8
0
 10
-98.0807
 20
-71.7694
 11
-98.661
 21
-71.8701
  0
LINE
  8
0
 10
-98.661
 20
-71.8701
 11
-99.2456
 21
-71.9422
  0
LINE
  8
0
 10
-99.2456
 20
-71.9422
 11
-99.833
 21
-71.9855
  0
LINE
  8
0
 10
-99.833
 20
-71.9855
 11
-100.422
 21
-72
  0
LINE
  8
0
 10
-100.422
 20
-72
 11
-101.011
 21
-71.9855
  0
LINE
  8
0
 10
-207.175
 20
-79.3816
 11
-207.494
 21
-79.2849
  0
LINE
  8
0
 10
-207.494
 20
-79.2849
 11
-207.788
 21
-79.1278
  0
LINE
  8
0
 10
-207.788
 20
-79.1278
 11
-208.046
 21
-78.9164
  0
LINE
  8
0
 10
-208.046
 20
-78.9164
 11
-208.257
 21
-78.6588
  0
LINE
  8
0
 10
-208.257
 20
-78.6588
 11
-208.414
 21
-78.3648
  0
LINE
  8
0
 10
-208.414
 20
-78.3648
 11
-208.511
 21
-78.0459
  0
LINE
  8
0
 10
-208.511
 20
-78.0459
 11
-208.544
 21
-77.7143
  0
LINE
  8
0
 10
-208.544
 20
-77.7143
 11
-208.511
 21
-77.3826
  0
LINE
  8
0
 10
-208.511
 20
-77.3826
 11
-208.414
 21
-77.0637
  0
LINE
  8
0
 10
-208.414
 20
-77.0637
 11
-208.257
 21
-76.7698
  0
LINE
  8
0
 10
-208.257
 20
-76.7698
 11
-208.046
 21
-76.5122
  0
LINE
  8
0
 10
-208.046
 20
-76.5122
 11
-207.788
 21
-76.3008
  0
LINE
  8
0
 10
-207.788
 20
-76.3008
 11
-207.494
 21
-76.1437
  0
LINE
  8
0
 10
-207.494
 20
-76.1437
 11
-207.175
 21
-76.0469
  0
LINE
  8
0
 10
-207.175
 20
-76.0469
 11
-206.844
 21
-76.0143
  0
LINE
  8
0
 10
-206.844
 20
-76.0143
 11
-206.512
 21
-76.0469
  0
LINE
  8
0
 10
-206.512
 20
-76.0469
 11
-206.193
 21
-76.1437
  0
LINE
  8
0
 10
-206.193
 20
-76.1437
 11
-205.899
 21
-76.3008
  0
LINE
  8
0
 10
-205.899
 20
-76.3008
 11
-205.641
 21
-76.5122
  0
LINE
  8
0
 10
-205.641
 20
-76.5122
 11
-205.43
 21
-76.7698
  0
LINE
  8
0
 10
-205.43
 20
-76.7698
 11
-205.273
 21
-77.0637
  0
LINE
  8
0
 10
-205.273
 20
-77.0637
 11
-205.176
 21
-77.3826
  0
LINE
  8
0
 10
-205.176
 20
-77.3826
 11
-205.144
 21
-77.7143
  0
LINE
  8
0
 10
-205.144
 20
-77.7143
 11
-205.176
 21
-78.0459
  0
LINE
  8
0
 10
-205.176
 20
-78.0459
 11
-205.273
 21
-78.3648
  0
LINE
  8
0
 10
-205.273
 20
-78.3648
 11
-205.43
 21
-78.6588
  0
LINE
  8
0
 10
-205.43
 20
-78.6588
 11
-205.641
 21
-78.9164
  0
LINE
  8
0
 10
-205.641
 20
-78.9164
 11
-205.899
 21
-79.1278
  0
LINE
  8
0
 10
-205.899
 20
-79.1278
 11
-206.193
 21
-79.2849
  0
LINE
  8
0
 10
-206.193
 20
-79.2849
 11
-206.512
 21
-79.3816
  0
LINE
  8
0
 10
-206.512
 20
-79.3816
 11
-206.844
 21
-79.4143
  0
LINE
  8
0
 10
-206.844
 20
-79.4143
 11
-207.175
 21
-79.3816
  0
LINE
  8
0
 10
-6.33167
 20
-79.3816
 11
-6.65057
 21
-79.2849
  0
LINE
  8
0
 10
-6.65057
 20
-79.2849
 11
-6.94447
 21
-79.1278
  0
LINE
  8
0
 10
-6.94447
 20
-79.1278
 11
-7.20209
 21
-78.9164
  0
LINE
  8
0
 10
-7.20209
 20
-78.9164
 11
-7.41351
 21
-78.6588
  0
LINE
  8
0
 10
-7.41351
 20
-78.6588
 11
-7.5706
 21
-78.3649
  0
LINE
  8
0
 10
-7.5706
 20
-78.3649
 11
-7.66734
 21
-78.0459
  0
LINE
  8
0
 10
-7.66734
 20
-78.0459
 11
-7.70001
 21
-77.7143
  0
LINE
  8
0
 10
-7.70001
 20
-77.7143
 11
-7.66734
 21
-77.3826
  0
LINE
  8
0
 10
-7.66734
 20
-77.3826
 11
-7.5706
 21
-77.0637
  0
LINE
  8
0
 10
-7.5706
 20
-77.0637
 11
-7.41351
 21
-76.7698
  0
LINE
  8
0
 10
-7.41351
 20
-76.7698
 11
-7.20209
 21
-76.5122
  0
LINE
  8
0
 10
-7.20209
 20
-76.5122
 11
-6.94447
 21
-76.3008
  0
LINE
  8
0
 10
-6.94447
 20
-76.3008
 11
-6.65057
 21
-76.1437
  0
LINE
  8
0
 10
-6.65057
 20
-76.1437
 11
-6.33167
 21
-76.047
  0
LINE
  8
0
 10
-6.33167
 20
-76.047
 11
-6
 21
-76.0143
  0
LINE
  8
0
 10
-6
 20
-76.0143
 11
-5.66835
 21
-76.047
  0
LINE
  8
0
 10
-5.66835
 20
-76.047
 11
-5.34944
 21
-76.1437
  0
LINE
  8
0
 10
-5.34944
 20
-76.1437
 11
-5.05554
 21
-76.3008
  0
LINE
  8
0
 10
-5.05554
 20
-76.3008
 11
-4.79793
 21
-76.5122
  0
LINE
  8
0
 10
-4.79793
 20
-76.5122
 11
-4.5865
 21
-76.7698
  0
LINE
  8
0
 10
-4.5865
 20
-76.7698
 11
-4.42941
 21
-77.0637
  0
LINE
  8
0
 10
-4.42941
 20
-77.0637
 11
-4.33267
 21
-77.3826
  0
LINE
  8
0
 10
-4.33267
 20
-77.3826
 11
-4.3
 21
-77.7143
  0
LINE
  8
0
 10
-4.3
 20
-77.7143
 11
-4.33267
 21
-78.0459
  0
LINE
  8
0
 10
-4.33267
 20
-78.0459
 11
-4.42941
 21
-78.3649
  0
LINE
  8
0
 10
-4.42941
 20
-78.3649
 11
-4.5865
 21
-78.6588
  0
LINE
  8
0
 10
-4.5865
 20
-78.6588
 11
-4.79793
 21
-78.9164
  0
LINE
  8
0
 10
-4.79793
 20
-78.9164
 11
-5.05554
 21
-79.1278
  0
LINE
  8
0
 10
-5.05554
 20
-79.1278
 11
-5.34944
 21
-79.2849
  0
LINE
  8
0
 10
-5.34944
 20
-79.2849
 11
-5.66835
 21
-79.3816
  0
LINE
  8
0
 10
-5.66835
 20
-79.3816
 11
-6
 21
-79.4143
  0
LINE
  8
0
 10
-6
 20
-79.4143
 11
-6.33167
 21
-79.3816
  0
LINE
  8
0
 10
-101.011
 20
-191.986
 11
-101.598
 21
-191.942
  0
LINE
  8
0
 10
-101.598
 20
-191.942
 11
-102.183
 21
-191.87
  0
LINE
  8
0
 10
-102.183
 20
-191.87
 11
-102.763
 21
-191.769
  0
LINE
  8
0
 10
-102.763
 20
-191.769
 11
-103.338
 21
-191.64
  0
LINE
  8
0
 10
-103.338
 20
-191.64
 11
-103.905
 21
-191.483
  0
LINE
  8
0
 10
-103.905
 20
-191.483
 11
-104.464
 21
-191.299
  0
LINE
  8
0
 10
-104.464
 20
-191.299
 11
-105.014
 21
-191.087
  0
LINE
  8
0
 10
-105.014
 20
-191.087
 11
-105.552
 21
-190.848
  0
LINE
  8
0
 10
-105.552
 20
-190.848
 11
-106.079
 21
-190.583
  0
LINE
  8
0
 10
-106.079
 20
-190.583
 11
-106.591
 21
-190.293
  0
LINE
  8
0
 10
-106.591
 20
-190.293
 11
-107.089
 21
-189.978
  0
LINE
  8
0
 10
-107.089
 20
-189.978
 11
-107.57
 21
-189.638
  0
LINE
  8
0
 10
-107.57
 20
-189.638
 11
-108.035
 21
-189.276
  0
LINE
  8
0
 10
-108.035
 20
-189.276
 11
-108.48
 21
-188.891
  0
LINE
  8
0
 10
-108.48
 20
-188.891
 11
-108.907
 21
-188.485
  0
LINE
  8
0
 10
-108.907
 20
-188.485
 11
-109.313
 21
-188.059
  0
LINE
  8
0
 10
-109.313
 20
-188.059
 11
-109.698
 21
-187.613
  0
LINE
  8
0
 10
-109.698
 20
-187.613
 11
-110.06
 21
-187.148
  0
LINE
  8
0
 10
-110.06
 20
-187.148
 11
-110.399
 21
-186.667
  0
LINE
  8
0
 10
-110.399
 20
-186.667
 11
-110.715
 21
-186.169
  0
LINE
  8
0
 10
-110.715
 20
-186.169
 11
-111.005
 21
-185.657
  0
LINE
  8
0
 10
-111.005
 20
-185.657
 11
-111.27
 21
-185.131
  0
LINE
  8
0
 10
-111.27
 20
-185.131
 11
-111.508
 21
-184.592
  0
LINE
  8
0
 10
-111.508
 20
-184.592
 11
-111.72
 21
-184.043
  0
LINE
  8
0
 10
-111.72
 20
-184.043
 11
-111.905
 21
-183.483
  0
LINE
  8
0
 10
-111.905
 20
-183.483
 11
-112.062
 21
-182.916
  0
LINE
  8
0
 10
-112.062
 20
-182.916
 11
-112.191
 21
-182.341
  0
LINE
  8
0
 10
-112.191
 20
-182.341
 11
-112.292
 21
-181.761
  0
LINE
  8
0
 10
-112.292
 20
-181.761
 11
-112.364
 21
-181.176
  0
LINE
  8
0
 10
-112.364
 20
-181.176
 11
-112.407
 21
-180.589
  0
LINE
  8
0
 10
-112.407
 20
-180.589
 11
-112.422
 21
-180
  0
LINE
  8
0
 10
-112.422
 20
-180
 11
-112.407
 21
-179.411
  0
LINE
  8
0
 10
-112.407
 20
-179.411
 11
-112.364
 21
-178.824
  0
LINE
  8
0
 10
-112.364
 20
-178.824
 11
-112.292
 21
-178.239
  0
LINE
  8
0
 10
-112.292
 20
-178.239
 11
-112.191
 21
-177.659
  0
LINE
  8
0
 10
-112.191
 20
-177.659
 11
-112.062
 21
-177.084
  0
LINE
  8
0
 10
-112.062
 20
-177.084
 11
-111.905
 21
-176.517
  0
LINE
  8
0
 10
-111.905
 20
-176.517
 11
-111.72
 21
-175.957
  0
LINE
  8
0
 10
-111.72
 20
-175.957
 11
-111.508
 21
-175.408
  0
LINE
  8
0
 10
-111.508
 20
-175.408
 11
-111.27
 21
-174.869
  0
LINE
  8
0
 10
-111.27
 20
-174.869
 11
-111.005
 21
-174.343
  0
LINE
  8
0
 10
-111.005
 20
-174.343
 11
-110.715
 21
-173.831
  0
LINE
  8
0
 10
-110.715
 20
-173.831
 11
-110.399
 21
-173.333
  0
LINE
  8
0
 10
-110.399
 20
-173.333
 11
-110.06
 21
-172.852
  0
LINE
  8
0
 10
-110.06
 20
-172.852
 11
-109.698
 21
-172.387
  0
LINE
  8
0
 10
-109.698
 20
-172.387
 11
-109.313
 21
-171.941
  0
LINE
  8
0
 10
-109.313
 20
-171.941
 11
-108.907
 21
-171.515
  0
LINE
  8
0
 10
-108.907
 20
-171.515
 11
-108.48
 21
-171.109
  0
LINE
  8
0
 10
-108.48
 20
-171.109
 11
-108.035
 21
-170.724
  0
LINE
  8
0
 10
-108.035
 20
-170.724
 11
-107.57
 21
-170.361
  0
LINE
  8
0
 10
-107.57
 20
-170.361
 11
-107.089
 21
-170.022
  0
LINE
  8
0
 10
-107.089
 20
-170.022
 11
-106.591
 21
-169.707
  0
LINE
  8
0
 10
-106.591
 20
-169.707
 11
-106.079
 21
-169.417
  0
LINE
  8
0
 10
-106.079
 20
-169.417
 11
-105.552
 21
-169.152
  0
LINE
  8
0
 10
-105.552
 20
-169.152
 11
-105.014
 21
-168.913
  0
LINE
  8
0
 10
-105.014
 20
-168.913
 11
-104.464
 21
-168.701
  0
LINE
  8
0
 10
-104.464
 20
-168.701
 11
-103.905
 21
-168.517
  0
LINE
  8
0
 10
-103.905
 20
-168.517
 11
-103.338
 21
-168.36
  0
LINE
  8
0
 10
-103.338
 20
-168.36
 11
-102.763
 21
-168.231
  0
LINE
  8
0
 10
-102.763
 20
-168.231
 11
-102.183
 21
-168.13
  0
LINE
  8
0
 10
-102.183
 20
-168.13
 11
-101.598
 21
-168.058
  0
LINE
  8
0
 10
-101.598
 20
-168.058
 11
-101.011
 21
-168.014
  0
LINE
  8
0
 10
-101.011
 20
-168.014
 11
-100.422
 21
-168
  0
LINE
  8
0
 10
-100.422
 20
-168
 11
-99.833
 21
-168.014
  0
LINE
  8
0
 10
-99.833
 20
-168.014
 11
-99.2456
 21
-168.058
  0
LINE
  8
0
 10
-99.2456
 20
-168.058
 11
-98.661
 21
-168.13
  0
LINE
  8
0
 10
-98.661
 20
-168.13
 11
-98.0807
 21
-168.231
  0
LINE
  8
0
 10
-98.0807
 20
-168.231
 11
-97.506
 21
-168.36
  0
LINE
  8
0
 10
-97.506
 20
-168.36
 11
-96.9384
 21
-168.517
  0
LINE
  8
0
 10
-96.9384
 20
-168.517
 11
-96.3791
 21
-168.701
  0
LINE
  8
0
 10
-96.3791
 20
-168.701
 11
-95.8296
 21
-168.913
  0
LINE
  8
0
 10
-95.8296
 20
-168.913
 11
-95.2911
 21
-169.152
  0
LINE
  8
0
 10
-95.2911
 20
-169.152
 11
-94.765
 21
-169.417
  0
LINE
  8
0
 10
-94.765
 20
-169.417
 11
-94.2525
 21
-169.707
  0
LINE
  8
0
 10
-94.2525
 20
-169.707
 11
-93.7549
 21
-170.022
  0
LINE
  8
0
 10
-93.7549
 20
-170.022
 11
-93.2734
 21
-170.361
  0
LINE
  8
0
 10
-93.2734
 20
-170.361
 11
-92.8091
 21
-170.724
  0
LINE
  8
0
 10
-92.8091
 20
-170.724
 11
-92.3631
 21
-171.109
  0
LINE
  8
0
 10
-92.3631
 20
-171.109
 11
-91.9365
 21
-171.515
  0
LINE
  8
0
 10
-91.9365
 20
-171.515
 11
-91.5304
 21
-171.941
  0
LINE
  8
0
 10
-91.5304
 20
-171.941
 11
-91.1457
 21
-172.387
  0
LINE
  8
0
 10
-91.1457
 20
-172.387
 11
-90.7833
 21
-172.852
  0
LINE
  8
0
 10
-90.7833
 20
-172.852
 11
-90.4442
 21
-173.333
  0
LINE
  8
0
 10
-90.4442
 20
-173.333
 11
-90.129
 21
-173.831
  0
LINE
  8
0
 10
-90.129
 20
-173.831
 11
-89.8387
 21
-174.343
  0
LINE
  8
0
 10
-89.8387
 20
-174.343
 11
-89.5739
 21
-174.869
  0
LINE
  8
0
 10
-89.5739
 20
-174.869
 11
-89.3352
 21
-175.408
  0
LINE
  8
0
 10
-89.3352
 20
-175.408
 11
-89.1233
 21
-175.957
  0
LINE
  8
0
 10
-89.1233
 20
-175.957
 11
-88.9385
 21
-176.517
  0
LINE
  8
0
 10
-88.9385
 20
-176.517
 11
-88.7814
 21
-177.084
  0
LINE
  8
0
 10
-88.7814
 20
-177.084
 11
-88.6524
 21
-177.659
  0
LINE
  8
0
 10
-88.6524
 20
-177.659
 11
-88.5517
 21
-178.239
  0
LINE
  8
0
 10
-88.5517
 20
-178.239
 11
-88.4796
 21
-178.824
  0
LINE
  8
0
 10
-88.4796
 20
-178.824
 11
-88.4362
 21
-179.411
  0
LINE
  8
0
 10
-88.4362
 20
-179.411
 11
-88.4218
 21
-180
  0
LINE
  8
0
 10
-88.4218
 20
-180
 11
-88.4362
 21
-180.589
  0
LINE
  8
0
 10
-88.4362
 20
-180.589
 11
-88.4796
 21
-181.176
  0
LINE
  8
0
 10
-88.4796
 20
-181.176
 11
-88.5517
 21
-181.761
  0
LINE
  8
0
 10
-88.5517
 20
-181.761
 11
-88.6524
 21
-182.341
  0
LINE
  8
0
 10
-88.6524
 20
-182.341
 11
-88.7814
 21
-182.916
  0
LINE
  8
0
 10
-88.7814
 20
-182.916
 11
-88.9385
 21
-183.483
  0
LINE
  8
0
 10
-88.9385
 20
-183.483
 11
-89.1233
 21
-184.043
  0
LINE
  8
0
 10
-89.1233
 20
-184.043
 11
-89.3352
 21
-184.592
  0
LINE
  8
0
 10
-89.3352
 20
-184.592
 11
-89.5739
 21
-185.131
  0
LINE
  8
0
 10
-89.5739
 20
-185.131
 11
-89.8387
 21
-185.657
  0
LINE
  8
0
 10
-89.8387
 20
-185.657
 11
-90.129
 21
-186.169
  0
LINE
  8
0
 10
-90.129
 20
-186.169
 11
-90.4442
 21
-186.667
  0
LINE
  8
0
 10
-90.4442
 20
-186.667
 11
-90.7833
 21
-187.148
  0
LINE
  8
0
 10
-90.7833
 20
-187.148
 11
-91.1457
 21
-187.613
  0
LINE
  8
0
 10
-91.1457
 20
-187.613
 11
-91.5304
 21
-188.059
  0
LINE
  8
0
 10
-91.5304
 20
-188.059
 11
-91.9365
 21
-188.485
  0
LINE
  8
0
 10
-91.9365
 20
-188.485
 11
-92.3631
 21
-188.891
  0
LINE
  8
0
 10
-92.3631
 20
-188.891
 11
-92.8091
 21
-189.276
  0
LINE
  8
0
 10
-92.8091
 20
-189.276
 11
-93.2734
 21
-189.638
  0
LINE
  8
0
 10
-93.2734
 20
-189.638
 11
-93.7549
 21
-189.978
  0
LINE
  8
0
 10
-93.7549
 20
-189.978
 11
-94.2525
 21
-190.293
  0
LINE
  8
0
 10
-94.2525
 20
-190.293
 11
-94.765
 21
-190.583
  0
LINE
  8
0
 10
-94.765
 20
-190.583
 11
-95.2911
 21
-190.848
  0
LINE
  8
0
 10
-95.2911
 20
-190.848
 11
-95.8296
 21
-191.087
  0
LINE
  8
0
 10
-95.8296
 20
-191.087
 11
-96.3791
 21
-191.299
  0
LINE
  8
0
 10
-96.3791
 20
-191.299
 11
-96.9384
 21
-191.483
  0
LINE
  8
0
 10
-96.9384
 20
-191.483
 11
-97.506
 21
-191.64
  0
LINE
  8
0
 10
-97.506
 20
-191.64
 11
-98.0807
 21
-191.769
  0
LINE
  8
0
 10
-98.0807
 20
-191.769
 11
-98.661
 21
-191.87
  0
LINE
  8
0
 10
-98.661
 20
-191.87
 11
-99.2456
 21
-191.942
  0
LINE
  8
0
 10
-99.2456
 20
-191.942
 11
-99.833
 21
-191.986
  0
LINE
  8
0
 10
-99.833
 20
-191.986
 11
-100.422
 21
-192
  0
LINE
  8
0
 10
-100.422
 20
-192
 11
-101.011
 21
-191.986
  0
LINE
  8
0
 10
-207.175
 20
-234.81
 11
-207.494
 21
-234.713
  0
LINE
  8
0
 10
-207.494
 20
-234.713
 11
-207.788
 21
-234.556
  0
LINE
  8
0
 10
-207.788
 20
-234.556
 11
-208.046
 21
-234.345
  0
LINE
  8
0
 10
-208.046
 20
-234.345
 11
-208.257
 21
-234.087
  0
LINE
  8
0
 10
-208.257
 20
-234.087
 11
-208.414
 21
-233.793
  0
LINE
  8
0
 10
-208.414
 20
-233.793
 11
-208.511
 21
-233.475
  0
LINE
  8
0
 10
-208.511
 20
-233.475
 11
-208.544
 21
-233.143
  0
LINE
  8
0
 10
-208.544
 20
-233.143
 11
-208.511
 21
-232.811
  0
LINE
  8
0
 10
-208.511
 20
-232.811
 11
-208.414
 21
-232.492
  0
LINE
  8
0
 10
-208.414
 20
-232.492
 11
-208.257
 21
-232.198
  0
LINE
  8
0
 10
-208.257
 20
-232.198
 11
-208.046
 21
-231.941
  0
LINE
  8
0
 10
-208.046
 20
-231.941
 11
-207.788
 21
-231.729
  0
LINE
  8
0
 10
-207.788
 20
-231.729
 11
-207.494
 21
-231.572
  0
LINE
  8
0
 10
-207.494
 20
-231.572
 11
-207.175
 21
-231.476
  0
LINE
  8
0
 10
-207.175
 20
-231.476
 11
-206.844
 21
-231.443
  0
LINE
  8
0
 10
-206.844
 20
-231.443
 11
-206.512
 21
-231.476
  0
LINE
  8
0
 10
-206.512
 20
-231.476
 11
-206.193
 21
-231.572
  0
LINE
  8
0
 10
-206.193
 20
-231.572
 11
-205.899
 21
-231.729
  0
LINE
  8
0
 10
-205.899
 20
-231.729
 11
-205.641
 21
-231.941
  0
LINE
  8
0
 10
-205.641
 20
-231.941
 11
-205.43
 21
-232.198
  0
LINE
  8
0
 10
-205.43
 20
-232.198
 11
-205.273
 21
-232.492
  0
LINE
  8
0
 10
-205.273
 20
-232.492
 11
-205.176
 21
-232.811
  0
LINE
  8
0
 10
-205.176
 20
-232.811
 11
-205.144
 21
-233.143
  0
LINE
  8
0
 10
-205.144
 20
-233.143
 11
-205.176
 21
-233.475
  0
LINE
  8
0
 10
-205.176
 20
-233.475
 11
-205.273
 21
-233.793
  0
LINE
  8
0
 10
-205.273
 20
-233.793
 11
-205.43
 21
-234.087
  0
LINE
  8
0
 10
-205.43
 20
-234.087
 11
-205.641
 21
-234.345
  0
LINE
  8
0
 10
-205.641
 20
-234.345
 11
-205.899
 21
-234.556
  0
LINE
  8
0
 10
-205.899
 20
-234.556
 11
-206.193
 21
-234.713
  0
LINE
  8
0
 10
-206.193
 20
-234.713
 11
-206.512
 21
-234.81
  0
LINE
  8
0
 10
-206.512
 20
-234.81
 11
-206.844
 21
-234.843
  0
LINE
  8
0
 10
-206.844
 20
-234.843
 11
-207.175
 21
-234.81
  0
LINE
  8
0
 10
-6.33167
 20
-234.81
 11
-6.65057
 21
-234.713
  0
LINE
  8
0
 10
-6.65057
 20
-234.713
 11
-6.94447
 21
-234.556
  0
LINE
  8
0
 10
-6.94447
 20
-234.556
 11
-7.20209
 21
-234.345
  0
LINE
  8
0
 10
-7.20209
 20
-234.345
 11
-7.41351
 21
-234.087
  0
LINE
  8
0
 10
-7.41351
 20
-234.087
 11
-7.5706
 21
-233.793
  0
LINE
  8
0
 10
-7.5706
 20
-233.793
 11
-7.66734
 21
-233.475
  0
LINE
  8
0
 10
-7.66734
 20
-233.475
 11
-7.70001
 21
-233.143
  0
LINE
  8
0
 10
-7.70001
 20
-233.143
 11
-7.66734
 21
-232.811
  0
LINE
  8
0
 10
-7.66734
 20
-232.811
 11
-7.5706
 21
-232.492
  0
LINE
  8
0
 10
-7.5706
 20
-232.492
 11
-7.41351
 21
-232.198
  0
LINE
  8
0
 10
-7.41351
 20
-232.198
 11
-7.20209
 21
-231.941
  0
LINE
  8
0
 10
-7.20209
 20
-231.941
 11
-6.94447
 21
-231.729
  0
LINE
  8
0
 10
-6.94447
 20
-231.729
 11
-6.65057
 21
-231.572
  0
LINE
  8
0
 10
-6.65057
 20
-231.572
 11
-6.33167
 21
-231.476
  0
LINE
  8
0
 10
-6.33167
 20
-231.476
 11
-6
 21
-231.443
  0
LINE
  8
0
 10
-6
 20
-231.443
 11
-5.66835
 21
-231.476
  0
LINE
  8
0
 10
-5.66835
 20
-231.476
 11
-5.34944
 21
-231.572
  0
LINE
  8
0
 10
-5.34944
 20
-231.572
 11
-5.05554
 21
-231.729
  0
LINE
  8
0
 10
-5.05554
 20
-231.729
 11
-4.79793
 21
-231.941
  0
LINE
  8
0
 10
-4.79793
 20
-231.941
 11
-4.5865
 21
-232.198
  0
LINE
  8
0
 10
-4.5865
 20
-232.198
 11
-4.42941
 21
-232.492
  0
LINE
  8
0
 10
-4.42941
 20
-232.492
 11
-4.33267
 21
-232.811
  0
LINE
  8
0
 10
-4.33267
 20
-232.811
 11
-4.3
 21
-233.143
  0
LINE
  8
0
 10
-4.3
 20
-233.143
 11
-4.33267
 21
-233.475
  0
LINE
  8
0
 10
-4.33267
 20
-233.475
 11
-4.42941
 21
-233.793
  0
LINE
  8
0
 10
-4.42941
 20
-233.793
 11
-4.5865
 21
-234.087
  0
LINE
  8
0
 10
-4.5865
 20
-234.087
 11
-4.79793
 21
-234.345
  0
LINE
  8
0
 10
-4.79793
 20
-234.345
 11
-5.05554
 21
-234.556
  0
LINE
  8
0
 10
-5.05554
 20
-234.556
 11
-5.34944
 21
-234.713
  0
LINE
  8
0
 10
-5.34944
 20
-234.713
 11
-5.66835
 21
-234.81
  0
LINE
  8
0
 10
-5.66835
 20
-234.81
 11
-6
 21
-234.843
  0
LINE
  8
0
 10
-6
 20
-234.843
 11
-6.33167
 21
-234.81
  0
LINE
  8
0
 10
-100.753
 20
-267.667
 11
-101.072
 21
-267.571
  0
LINE
  8
0
 10
-101.072
 20
-267.571
 11
-101.366
 21
-267.413
  0
LINE
  8
0
 10
-101.366
 20
-267.413
 11
-101.624
 21
-267.202
  0
LINE
  8
0
 10
-101.624
 20
-267.202
 11
-101.835
 21
-266.944
  0
LINE
  8
0
 10
-101.835
 20
-266.944
 11
-101.992
 21
-266.651
  0
LINE
  8
0
 10
-101.992
 20
-266.651
 11
-102.089
 21
-266.332
  0
LINE
  8
0
 10
-102.089
 20
-266.332
 11
-102.122
 21
-266
  0
LINE
  8
0
 10
-102.122
 20
-266
 11
-102.089
 21
-265.668
  0
LINE
  8
0
 10
-102.089
 20
-265.668
 11
-101.992
 21
-265.349
  0
LINE
  8
0
 10
-101.992
 20
-265.349
 11
-101.835
 21
-265.056
  0
LINE
  8
0
 10
-101.835
 20
-265.056
 11
-101.624
 21
-264.798
  0
LINE
  8
0
 10
-101.624
 20
-264.798
 11
-101.366
 21
-264.586
  0
LINE
  8
0
 10
-101.366
 20
-264.586
 11
-101.072
 21
-264.429
  0
LINE
  8
0
 10
-101.072
 20
-264.429
 11
-100.753
 21
-264.333
  0
LINE
  8
0
 10
-100.753
 20
-264.333
 11
-100.422
 21
-264.3
  0
LINE
  8
0
 10
-100.422
 20
-264.3
 11
-100.09
 21
-264.333
  0
LINE
  8
0
 10
-100.09
 20
-264.333
 11
-99.7712
 21
-264.429
  0
LINE
  8
0
 10
-99.7712
 20
-264.429
 11
-99.4773
 21
-264.586
  0
LINE
  8
0
 10
-99.4773
 20
-264.586
 11
-99.2197
 21
-264.798
  0
LINE
  8
0
 10
-99.2197
 20
-264.798
 11
-99.0083
 21
-265.056
  0
LINE
  8
0
 10
-99.0083
 20
-265.056
 11
-98.8512
 21
-265.349
  0
LINE
  8
0
 10
-98.8512
 20
-265.349
 11
-98.7544
 21
-265.668
  0
LINE
  8
0
 10
-98.7544
 20
-265.668
 11
-98.7218
 21
-266
  0
LINE
  8
0
 10
-98.7218
 20
-266
 11
-98.7544
 21
-266.332
  0
LINE
  8
0
 10
-98.7544
 20
-266.332
 11
-98.8512
 21
-266.651
  0
LINE
  8
0
 10
-98.8512
 20
-266.651
 11
-99.0083
 21
-266.944
  0
LINE
  8
0
 10
-99.0083
 20
-266.944
 11
-99.2197
 21
-267.202
  0
LINE
  8
0
 10
-99.2197
 20
-267.202
 11
-99.4773
 21
-267.413
  0
LINE
  8
0
 10
-99.4773
 20
-267.413
 11
-99.7712
 21
-267.571
  0
LINE
  8
0
 10
-99.7712
 20
-267.571
 11
-100.09
 21
-267.667
  0
LINE
  8
0
 10
-100.09
 20
-267.667
 11
-100.422
 21
-267.7
  0
LINE
  8
0
 10
-100.422
 20
-267.7
 11
-100.753
 21
-267.667
  0
LINE
  8
0
 10
281.667
 20
-260
 11
281.699
 21
-259.668
  0
LINE
  8
0
 10
281.699
 20
-259.668
 11
281.796
 21
-259.349
  0
LINE
  8
0
 10
281.796
 20
-259.349
 11
281.953
 21
-259.056
  0
LINE
  8
0
 10
281.953
 20
-259.056
 11
282.165
 21
-258.798
  0
LINE
  8
0
 10
282.165
 20
-258.798
 11
282.422
 21
-258.587
  0
LINE
  8
0
 10
282.422
 20
-258.587
 11
282.716
 21
-258.429
  0
LINE
  8
0
 10
282.716
 20
-258.429
 11
283.035
 21
-258.333
  0
LINE
  8
0
 10
283.035
 20
-258.333
 11
283.367
 21
-258.3
  0
LINE
  8
0
 10
283.367
 20
-258.3
 11
283.698
 21
-258.333
  0
LINE
  8
0
 10
283.698
 20
-258.333
 11
284.017
 21
-258.429
  0
LINE
  8
0
 10
284.017
 20
-258.429
 11
284.311
 21
-258.587
  0
LINE
  8
0
 10
284.311
 20
-258.587
 11
284.569
 21
-258.798
  0
LINE
  8
0
 10
284.569
 20
-258.798
 11
284.78
 21
-259.056
  0
LINE
  8
0
 10
284.78
 20
-259.056
 11
284.937
 21
-259.349
  0
LINE
  8
0
 10
284.937
 20
-259.349
 11
285.034
 21
-259.668
  0
LINE
  8
0
 10
285.034
 20
-259.668
 11
285.067
 21
-260
  0
LINE
  8
0
 10
285.067
 20
-260
 11
334.933
 21
-260
  0
LINE
  8
0
 10
334.933
 20
-260
 11
334.966
 21
-259.668
  0
LINE
  8
0
 10
334.966
 20
-259.668
 11
335.063
 21
-259.349
  0
LINE
  8
0
 10
335.063
 20
-259.349
 11
335.22
 21
-259.056
  0
LINE
  8
0
 10
335.22
 20
-259.056
 11
335.431
 21
-258.798
  0
LINE
  8
0
 10
335.431
 20
-258.798
 11
335.689
 21
-258.587
  0
LINE
  8
0
 10
335.689
 20
-258.587
 11
335.983
 21
-258.429
  0
LINE
  8
0
 10
335.983
 20
-258.429
 11
336.302
 21
-258.333
  0
LINE
  8
0
 10
336.302
 20
-258.333
 11
336.633
 21
-258.3
  0
LINE
  8
0
 10
336.633
 20
-258.3
 11
336.965
 21
-258.333
  0
LINE
  8
0
 10
336.965
 20
-258.333
 11
337.284
 21
-258.429
  0
LINE
  8
0
 10
337.284
 20
-258.429
 11
337.578
 21
-258.587
  0
LINE
  8
0
 10
337.578
 20
-258.587
 11
337.835
 21
-258.798
  0
LINE
  8
0
 10
337.835
 20
-258.798
 11
338.047
 21
-259.056
  0
LINE
  8
0
 10
338.047
 20
-259.056
 11
338.204
 21
-259.349
  0
LINE
  8
0
 10
338.204
 20
-259.349
 11
338.301
 21
-259.668
  0
LINE
  8
0
 10
338.301
 20
-259.668
 11
338.333
 21
-260
  0
LINE
  8
0
 10
338.333
 20
-260
 11
338.333
 21
-272
  0
LINE
  8
0
 10
338.333
 20
-272
 11
407
 21
-272
  0
LINE
  8
0
 10
407
 20
-272
 11
407
 21
-194.286
  0
LINE
  8
0
 10
407
 20
-194.286
 11
395
 21
-194.286
  0
LINE
  8
0
 10
395
 20
-194.286
 11
394.668
 21
-194.253
  0
LINE
  8
0
 10
394.668
 20
-194.253
 11
394.349
 21
-194.156
  0
LINE
  8
0
 10
394.349
 20
-194.156
 11
394.056
 21
-193.999
  0
LINE
  8
0
 10
394.056
 20
-193.999
 11
393.798
 21
-193.788
  0
LINE
  8
0
 10
393.798
 20
-193.788
 11
393.586
 21
-193.53
  0
LINE
  8
0
 10
393.586
 20
-193.53
 11
393.429
 21
-193.236
  0
LINE
  8
0
 10
393.429
 20
-193.236
 11
393.333
 21
-192.917
  0
LINE
  8
0
 10
393.333
 20
-192.917
 11
393.3
 21
-192.586
  0
LINE
  8
0
 10
393.3
 20
-192.586
 11
393.333
 21
-192.254
  0
LINE
  8
0
 10
393.333
 20
-192.254
 11
393.429
 21
-191.935
  0
LINE
  8
0
 10
393.429
 20
-191.935
 11
393.587
 21
-191.641
  0
LINE
  8
0
 10
393.587
 20
-191.641
 11
393.798
 21
-191.384
  0
LINE
  8
0
 10
393.798
 20
-191.384
 11
394.056
 21
-191.172
  0
LINE
  8
0
 10
394.056
 20
-191.172
 11
394.349
 21
-191.015
  0
LINE
  8
0
 10
394.349
 20
-191.015
 11
394.668
 21
-190.918
  0
LINE
  8
0
 10
394.668
 20
-190.918
 11
395
 21
-190.886
  0
LINE
  8
0
 10
395
 20
-190.886
 11
395
 21
-119.971
  0
LINE
  8
0
 10
395
 20
-119.971
 11
394.668
 21
-119.939
  0
LINE
  8
0
 10
394.668
 20
-119.939
 11
394.349
 21
-119.842
  0
LINE
  8
0
 10
394.349
 20
-119.842
 11
394.056
 21
-119.685
  0
LINE
  8
0
 10
394.056
 20
-119.685
 11
393.798
 21
-119.474
  0
LINE
  8
0
 10
393.798
 20
-119.474
 11
393.587
 21
-119.216
  0
LINE
  8
0
 10
393.587
 20
-119.216
 11
393.429
 21
-118.922
  0
LINE
  8
0
 10
393.429
 20
-118.922
 11
393.333
 21
-118.603
  0
LINE
  8
0
 10
393.333
 20
-118.603
 11
393.3
 21
-118.271
  0
LINE
  8
0
 10
393.3
 20
-118.271
 11
393.333
 21
-117.94
  0
LINE
  8
0
 10
393.333
 20
-117.94
 11
393.429
 21
-117.621
  0
LINE
  8
0
 10
393.429
 20
-117.621
 11
393.587
 21
-117.327
  0
LINE
  8
0
 10
393.587
 20
-117.327
 11
393.798
 21
-117.069
  0
LINE
  8
0
 10
393.798
 20
-117.069
 11
394.056
 21
-116.858
  0
LINE
  8
0
 10
394.056
 20
-116.858
 11
394.349
 21
-116.701
  0
LINE
  8
0
 10
394.349
 20
-116.701
 11
394.668
 21
-116.604
  0
LINE
  8
0
 10
394.668
 20
-116.604
 11
395
 21
-116.571
  0
LINE
  8
0
 10
395
 20
-116.571
 11
407
 21
-116.571
  0
LINE
  8
0
 10
407
 20
-116.571
 11
407
 21
-38.8571
  0
LINE
  8
0
 10
407
 20
-38.8571
 11
395
 21
-38.8571
  0
LINE
  8
0
 10
395
 20
-38.8571
 11
394.668
 21
-38.8245
  0
LINE
  8
0
 10
394.668
 20
-38.8245
 11
394.349
 21
-38.7278
  0
LINE
  8
0
 10
394.349
 20
-38.7278
 11
394.056
 21
-38.5706
  0
LINE
  8
0
 10
394.056
 20
-38.5706
 11
393.798
 21
-38.3592
  0
LINE
  8
0
 10
393.798
 20
-38.3592
 11
393.587
 21
-38.1016
  0
LINE
  8
0
 10
393.587
 20
-38.1016
 11
393.429
 21
-37.8077
  0
LINE
  8
0
 10
393.429
 20
-37.8077
 11
393.333
 21
-37.4888
  0
LINE
  8
0
 10
393.333
 20
-37.4888
 11
393.3
 21
-37.1572
  0
LINE
  8
0
 10
393.3
 20
-37.1572
 11
393.333
 21
-36.8255
  0
LINE
  8
0
 10
393.333
 20
-36.8255
 11
393.429
 21
-36.5066
  0
LINE
  8
0
 10
393.429
 20
-36.5066
 11
393.587
 21
-36.2127
  0
LINE
  8
0
 10
393.587
 20
-36.2127
 11
393.798
 21
-35.9551
  0
LINE
  8
0
 10
393.798
 20
-35.9551
 11
394.056
 21
-35.7437
  0
LINE
  8
0
 10
394.056
 20
-35.7437
 11
394.349
 21
-35.5865
  0
LINE
  8
0
 10
394.349
 20
-35.5865
 11
394.668
 21
-35.4898
  0
LINE
  8
0
 10
394.668
 20
-35.4898
 11
395
 21
-35.4572
  0
LINE
  8
0
 10
395
 20
-35.4572
 11
395
 21
35.4571
  0
LINE
  8
0
 10
395
 20
35.4571
 11
394.668
 21
35.4898
  0
LINE
  8
0
 10
394.668
 20
35.4898
 11
394.349
 21
35.5865
  0
LINE
  8
0
 10
394.349
 20
35.5865
 11
394.056
 21
35.7436
  0
LINE
  8
0
 10
394.056
 20
35.7436
 11
393.798
 21
35.955
  0
LINE
  8
0
 10
393.798
 20
35.955
 11
393.587
 21
36.2126
  0
LINE
  8
0
 10
393.587
 20
36.2126
 11
393.429
 21
36.5066
  0
LINE
  8
0
 10
393.429
 20
36.5066
 11
393.333
 21
36.8255
  0
LINE
  8
0
 10
393.333
 20
36.8255
 11
393.3
 21
37.1571
  0
LINE
  8
0
 10
393.3
 20
37.1571
 11
393.333
 21
37.4888
  0
LINE
  8
0
 10
393.333
 20
37.4888
 11
393.429
 21
37.8077
  0
LINE
  8
0
 10
393.429
 20
37.8077
 11
393.587
 21
38.1016
  0
LINE
  8
0
 10
393.587
 20
38.1016
 11
393.798
 21
38.3592
  0
LINE
  8
0
 10
393.798
 20
38.3592
 11
394.056
 21
38.5706
  0
LINE
  8
0
 10
394.056
 20
38.5706
 11
394.349
 21
38.7277
  0
LINE
  8
0
 10
394.349
 20
38.7277
 11
394.668
 21
38.8244
  0
LINE
  8
0
 10
394.668
 20
38.8244
 11
395
 21
38.8571
  0
LINE
  8
0
 10
395
 20
38.8571
 11
407
 21
38.8571
  0
LINE
  8
0
 10
407
 20
38.8571
 11
407
 21
116.571
  0
LINE
  8
0
 10
407
 20
116.571
 11
395
 21
116.571
  0
LINE
  8
0
 10
395
 20
116.571
 11
394.668
 21
116.604
  0
LINE
  8
0
 10
394.668
 20
116.604
 11
394.349
 21
116.701
  0
LINE
  8
0
 10
394.349
 20
116.701
 11
394.056
 21
116.858
  0
LINE
  8
0
 10
394.056
 20
116.858
 11
393.798
 21
117.069
  0
LINE
  8
0
 10
393.798
 20
117.069
 11
393.587
 21
117.327
  0
LINE
  8
0
 10
393.587
 20
117.327
 11
393.429
 21
117.621
  0
LINE
  8
0
 10
393.429
 20
117.621
 11
393.333
 21
117.94
  0
LINE
  8
0
 10
393.333
 20
117.94
 11
393.3
 21
118.271
  0
LINE
  8
0
 10
393.3
 20
118.271
 11
393.333
 21
118.603
  0
LINE
  8
0
 10
393.333
 20
118.603
 11
393.429
 21
118.922
  0
LINE
  8
0
 10
393.429
 20
118.922
 11
393.587
 21
119.216
  0
LINE
  8
0
 10
393.587
 20
119.216
 11
393.798
 21
119.473
  0
LINE
  8
0
 10
393.798
 20
119.473
 11
394.056
 21
119.685
  0
LINE
  8
0
 10
394.056
 20
119.685
 11
394.349
 21
119.842
  0
LINE
  8
0
 10
394.349
 20
119.842
 11
394.668
 21
119.939
  0
LINE
  8
0
 10
394.668
 20
119.939
 11
395
 21
119.971
  0
LINE
  8
0
 10
395
 20
119.971
 11
395
 21
190.886
  0
LINE
  8
0
 10
395
 20
190.886
 11
394.668
 21
190.918
  0
LINE
  8
0
 10
394.668
 20
190.918
 11
394.349
 21
191.015
  0
LINE
  8
0
 10
394.349
 20
191.015
 11
394.056
 21
191.172
  0
LINE
  8
0
 10
394.056
 20
191.172
 11
393.798
 21
191.384
  0
LINE
  8
0
 10
393.798
 20
191.384
 11
393.587
 21
191.641
  0
LINE
  8
0
 10
393.587
 20
191.641
 11
393.429
 21
191.935
  0
LINE
  8
0
 10
393.429
 20
191.935
 11
393.333
 21
192.254
  0
LINE
  8
0
 10
393.333
 20
192.254
 11
393.3
 21
192.586
  0
LINE
  8
0
 10
393.3
 20
192.586
 11
393.333
 21
192.917
  0
LINE
  8
0
 10
393.333
 20
192.917
 11
393.429
 21
193.236
  0
LINE
  8
0
 10
393.429
 20
193.236
 11
393.587
 21
193.53
  0
LINE
  8
0
 10
393.587
 20
193.53
 11
393.798
 21
193.788
  0
LINE
  8
0
 10
393.798
 20
193.788
 11
394.056
 21
193.999
  0
LINE
  8
0
 10
394.056
 20
193.999
 11
394.349
 21
194.156
  0
LINE
  8
0
 10
394.349
 20
194.156
 11
394.668
 21
194.253
  0
LINE
  8
0
 10
394.668
 20
194.253
 11
395
 21
194.286
  0
LINE
  8
0
 10
395
 20
194.286
 11
407
 21
194.286
  0
LINE
  8
0
 10
407
 20
194.286
 11
407
 21
272
  0
LINE
  8
0
 10
407
 20
272
 11
338.333
 21
272
  0
LINE
  8
0
 10
338.333
 20
272
 11
338.333
 21
260
  0
LINE
  8
0
 10
338.333
 20
260
 11
338.301
 21
259.668
  0
LINE
  8
0
 10
338.301
 20
259.668
 11
338.204
 21
259.349
  0
LINE
  8
0
 10
338.204
 20
259.349
 11
338.047
 21
259.056
  0
LINE
  8
0
 10
338.047
 20
259.056
 11
337.835
 21
258.798
  0
LINE
  8
0
 10
337.835
 20
258.798
 11
337.578
 21
258.586
  0
LINE
  8
0
 10
337.578
 20
258.586
 11
337.284
 21
258.429
  0
LINE
  8
0
 10
337.284
 20
258.429
 11
336.965
 21
258.333
  0
LINE
  8
0
 10
336.965
 20
258.333
 11
336.633
 21
258.3
  0
LINE
  8
0
 10
336.633
 20
258.3
 11
336.302
 21
258.333
  0
LINE
  8
0
 10
336.302
 20
258.333
 11
335.983
 21
258.429
  0
LINE
  8
0
 10
335.983
 20
258.429
 11
335.689
 21
258.586
  0
LINE
  8
0
 10
335.689
 20
258.586
 11
335.431
 21
258.798
  0
LINE
  8
0
 10
335.431
 20
258.798
 11
335.22
 21
259.056
  0
LINE
  8
0
 10
335.22
 20
259.056
 11
335.063
 21
259.349
  0
LINE
  8
0
 10
335.063
 20
259.349
 11
334.966
 21
259.668
  0
LINE
  8
0
 10
334.966
 20
259.668
 11
334.933
 21
260
  0
LINE
  8
0
 10
334.933
 20
260
 11
285.067
 21
260
  0
LINE
  8
0
 10
285.067
 20
260
 11
285.034
 21
259.668
  0
LINE
  8
0
 10
285.034
 20
259.668
 11
284.937
 21
259.349
  0
LINE
  8
0
 10
284.937
 20
259.349
 11
284.78
 21
259.056
  0
LINE
  8
0
 10
284.78
 20
259.056
 11
284.569
 21
258.798
  0
LINE
  8
0
 10
284.569
 20
258.798
 11
284.311
 21
258.587
  0
LINE
  8
0
 10
284.311
 20
258.587
 11
284.017
 21
258.429
  0
LINE
  8
0
 10
284.017
 20
258.429
 11
283.698
 21
258.333
  0
LINE
  8
0
 10
283.698
 20
258.333
 11
283.367
 21
258.3
  0
LINE
  8
0
 10
283.367
 20
258.3
 11
283.035
 21
258.333
  0
LINE
  8
0
 10
283.035
 20
258.333
 11
282.716
 21
258.429
  0
LINE
  8
0
 10
282.716
 20
258.429
 11
282.422
 21
258.587
  0
LINE
  8
0
 10
282.422
 20
258.587
 11
282.165
 21
258.798
  0
LINE
  8
0
 10
282.165
 20
258.798
 11
281.953
 21
259.056
  0
LINE
  8
0
 10
281.953
 20
259.056
 11
281.796
 21
259.349
  0
LINE
  8
0
 10
281.796
 20
259.349
 11
281.699
 21
259.668
  0
LINE
  8
0
 10
281.699
 20
259.668
 11
281.667
 21
260
  0
LINE
  8
0
 10
281.667
 20
260
 11
281.667
 21
272
  0
LINE
  8
0
 10
281.667
 20
272
 11
201
 21
272
  0
LINE
  8
0
 10
201
 20
272
 11
201
 21
194.286
  0
LINE
  8
0
 10
201
 20
194.286
 11
213
 21
194.286
  0
LINE
  8
0
 10
213
 20
194.286
 11
213.332
 21
194.253
  0
LINE
  8
0
 10
213.332
 20
194.253
 11
213.651
 21
194.156
  0
LINE
  8
0
 10
213.651
 20
194.156
 11
213.944
 21
193.999
  0
LINE
  8
0
 10
213.944
 20
193.999
 11
214.202
 21
193.788
  0
LINE
  8
0
 10
214.202
 20
193.788
 11
214.413
 21
193.53
  0
LINE
  8
0
 10
214.413
 20
193.53
 11
214.571
 21
193.236
  0
LINE
  8
0
 10
214.571
 20
193.236
 11
214.667
 21
192.917
  0
LINE
  8
0
 10
214.667
 20
192.917
 11
214.7
 21
192.586
  0
LINE
  8
0
 10
214.7
 20
192.586
 11
214.667
 21
192.254
  0
LINE
  8
0
 10
214.667
 20
192.254
 11
214.571
 21
191.935
  0
LINE
  8
0
 10
214.571
 20
191.935
 11
214.413
 21
191.641
  0
LINE
  8
0
 10
214.413
 20
191.641
 11
214.202
 21
191.384
  0
LINE
  8
0
 10
214.202
 20
191.384
 11
213.944
 21
191.172
  0
LINE
  8
0
 10
213.944
 20
191.172
 11
213.651
 21
191.015
  0
LINE
  8
0
 10
213.651
 20
191.015
 11
213.332
 21
190.918
  0
LINE
  8
0
 10
213.332
 20
190.918
 11
213
 21
190.886
  0
LINE
  8
0
 10
213
 20
190.886
 11
213
 21
119.971
  0
LINE
  8
0
 10
213
 20
119.971
 11
213.332
 21
119.939
  0
LINE
  8
0
 10
213.332
 20
119.939
 11
213.651
 21
119.842
  0
LINE
  8
0
 10
213.651
 20
119.842
 11
213.944
 21
119.685
  0
LINE
  8
0
 10
213.944
 20
119.685
 11
214.202
 21
119.473
  0
LINE
  8
0
 10
214.202
 20
119.473
 11
214.413
 21
119.216
  0
LINE
  8
0
 10
214.413
 20
119.216
 11
214.571
 21
118.922
  0
LINE
  8
0
 10
214.571
 20
118.922
 11
214.667
 21
118.603
  0
LINE
  8
0
 10
214.667
 20
118.603
 11
214.7
 21
118.271
  0
LINE
  8
0
 10
214.7
 20
118.271
 11
214.667
 21
117.94
  0
LINE
  8
0
 10
214.667
 20
117.94
 11
214.571
 21
117.621
  0
LINE
  8
0
 10
214.571
 20
117.621
 11
214.413
 21
117.327
  0
LINE
  8
0
 10
214.413
 20
117.327
 11
214.202
 21
117.069
  0
LINE
  8
0
 10
214.202
 20
117.069
 11
213.944
 21
116.858
  0
LINE
  8
0
 10
213.944
 20
116.858
 11
213.651
 21
116.701
  0
LINE
  8
0
 10
213.651
 20
116.701
 11
213.332
 21
116.604
  0
LINE
  8
0
 10
213.332
 20
116.604
 11
213
 21
116.571
  0
LINE
  8
0
 10
213
 20
116.571
 11
201
 21
116.571
  0
LINE
  8
0
 10
201
 20
116.571
 11
201
 21
38.8571
  0
LINE
  8
0
 10
201
 20
38.8571
 11
213
 21
38.8571
  0
LINE
  8
0
 10
213
 20
38.8571
 11
213.332
 21
38.8244
  0
LINE
  8
0
 10
213.332
 20
38.8244
 11
213.651
 21
38.7277
  0
LINE
  8
0
 10
213.651
 20
38.7277
 11
213.944
 21
38.5706
  0
LINE
  8
0
 10
213.944
 20
38.5706
 11
214.202
 21
38.3592
  0
LINE
  8
0
 10
214.202
 20
38.3592
 11
214.413
 21
38.1016
  0
LINE
  8
0
 10
214.413
 20
38.1016
 11
214.571
 21
37.8077
  0
LINE
  8
0
 10
214.571
 20
37.8077
 11
214.667
 21
37.4888
  0
LINE
  8
0
 10
214.667
 20
37.4888
 11
214.7
 21
37.1571
  0
LINE
  8
0
 10
214.7
 20
37.1571
 11
214.667
 21
36.8255
  0
LINE
  8
0
 10
214.667
 20
36.8255
 11
214.571
 21
36.5066
  0
LINE
  8
0
 10
214.571
 20
36.5066
 11
214.413
 21
36.2126
  0
LINE
  8
0
 10
214.413
 20
36.2126
 11
214.202
 21
35.955
  0
LINE
  8
0
 10
214.202
 20
35.955
 11
213.944
 21
35.7436
  0
LINE
  8
0
 10
213.944
 20
35.7436
 11
213.651
 21
35.5865
  0
LINE
  8
0
 10
213.651
 20
35.5865
 11
213.332
 21
35.4898
  0
LINE
  8
0
 10
213.332
 20
35.4898
 11
213
 21
35.4571
  0
LINE
  8
0
 10
213
 20
35.4571
 11
213
 21
-35.4572
  0
LINE
  8
0
 10
213
 20
-35.4572
 11
213.332
 21
-35.4898
  0
LINE
  8
0
 10
213.332
 20
-35.4898
 11
213.651
 21
-35.5865
  0
LINE
  8
0
 10
213.651
 20
-35.5865
 11
213.944
 21
-35.7437
  0
LINE
  8
0
 10
213.944
 20
-35.7437
 11
214.202
 21
-35.9551
  0
LINE
  8
0
 10
214.202
 20
-35.9551
 11
214.413
 21
-36.2127
  0
LINE
  8
0
 10
214.413
 20
-36.2127
 11
214.571
 21
-36.5066
  0
LINE
  8
0
 10
214.571
 20
-36.5066
 11
214.667
 21
-36.8255
  0
LINE
  8
0
 10
214.667
 20
-36.8255
 11
214.7
 21
-37.1572
  0
LINE
  8
0
 10
214.7
 20
-37.1572
 11
214.667
 21
-37.4888
  0
LINE
  8
0
 10
214.667
 20
-37.4888
 11
214.571
 21
-37.8077
  0
LINE
  8
0
 10
214.571
 20
-37.8077
 11
214.413
 21
-38.1016
  0
LINE
  8
0
 10
214.413
 20
-38.1016
 11
214.202
 21
-38.3592
  0
LINE
  8
0
 10
214.202
 20
-38.3592
 11
213.944
 21
-38.5706
  0
LINE
  8
0
 10
213.944
 20
-38.5706
 11
213.651
 21
-38.7278
  0
LINE
  8
0
 10
213.651
 20
-38.7278
 11
213.332
 21
-38.8245
  0
LINE
  8
0
 10
213.332
 20
-38.8245
 11
213
 21
-38.8571
  0
LINE
  8
0
 10
213
 20
-38.8571
 11
201
 21
-38.8571
  0
LINE
  8
0
 10
201
 20
-38.8571
 11
201
 21
-116.571
  0
LINE
  8
0
 10
201
 20
-116.571
 11
213
 21
-116.571
  0
LINE
  8
0
 10
213
 20
-116.571
 11
213.332
 21
-116.604
  0
LINE
  8
0
 10
213.332
 20
-116.604
 11
213.651
 21
-116.701
  0
LINE
  8
0
 10
213.651
 20
-116.701
 11
213.944
 21
-116.858
  0
LINE
  8
0
 10
213.944
 20
-116.858
 11
214.202
 21
-117.069
  0
LINE
  8
0
 10
214.202
 20
-117.069
 11
214.413
 21
-117.327
  0
LINE
  8
0
 10
214.413
 20
-117.327
 11
214.571
 21
-117.621
  0
LINE
  8
0
 10
214.571
 20
-117.621
 11
214.667
 21
-117.94
  0
LINE
  8
0
 10
214.667
 20
-117.94
 11
214.7
 21
-118.271
  0
LINE
  8
0
 10
214.7
 20
-118.271
 11
214.667
 21
-118.603
  0
LINE
  8
0
 10
214.667
 20
-118.603
 11
214.571
 21
-118.922
  0
LINE
  8
0
 10
214.571
 20
-118.922
 11
214.413
 21
-119.216
  0
LINE
  8
0
 10
214.413
 20
-119.216
 11
214.202
 21
-119.474
  0
LINE
  8
0
 10
214.202
 20
-119.474
 11
213.944
 21
-119.685
  0
LINE
  8
0
 10
213.944
 20
-119.685
 11
213.651
 21
-119.842
  0
LINE
  8
0
 10
213.651
 20
-119.842
 11
213.332
 21
-119.939
  0
LINE
  8
0
 10
213.332
 20
-119.939
 11
213
 21
-119.971
  0
LINE
  8
0
 10
213
 20
-119.971
 11
213
 21
-190.886
  0
LINE
  8
0
 10
213
 20
-190.886
 11
213.332
 21
-190.918
  0
LINE
  8
0
 10
213.332
 20
-190.918
 11
213.651
 21
-191.015
  0
LINE
  8
0
 10
213.651
 20
-191.015
 11
213.944
 21
-191.172
  0
LINE
  8
0
 10
213.944
 20
-191.172
 11
214.202
 21
-191.384
  0
LINE
  8
0
 10
214.202
 20
-191.384
 11
214.413
 21
-191.641
  0
LINE
  8
0
 10
214.413
 20
-191.641
 11
214.571
 21
-191.935
  0
LINE
  8
0
 10
214.571
 20
-191.935
 11
214.667
 21
-192.254
  0
LINE
  8
0
 10
214.667
 20
-192.254
 11
214.7
 21
-192.586
  0
LINE
  8
0
 10
214.7
 20
-192.586
 11
214.667
 21
-192.917
  0
LINE
  8
0
 10
214.667
 20
-192.917
 11
214.571
 21
-193.236
  0
LINE
  8
0
 10
214.571
 20
-193.236
 11
214.413
 21
-193.53
  0
LINE
  8
0
 10
214.413
 20
-193.53
 11
214.202
 21
-193.788
  0
LINE
  8
0
 10
214.202
 20
-193.788
 11
213.944
 21
-193.999
  0
LINE
  8
0
 10
213.944
 20
-193.999
 11
213.651
 21
-194.156
  0
LINE
  8
0
 10
213.651
 20
-194.156
 11
213.332
 21
-194.253
  0
LINE
  8
0
 10
213.332
 20
-194.253
 11
213
 21
-194.286
  0
LINE
  8
0
 10
213
 20
-194.286
 11
201
 21
-194.286
  0
LINE
  8
0
 10
201
 20
-194.286
 11
201
 21
-272
  0
LINE
  8
0
 10
201
 20
-272
 11
281.667
 21
-272
  0
LINE
  8
0
 10
281.667
 20
-272
 11
281.667
 21
-260
  0
LINE
  8
0
 10
50
 20
-260
 11
50.0327
 21
-259.668
  0
LINE
  8
0
 10
50.0327
 20
-259.668
 11
50.1294
 21
-259.349
  0
LINE
  8
0
 10
50.1294
 20
-259.349
 11
50.2865
 21
-259.056
  0
LINE
  8
0
 10
50.2865
 20
-259.056
 11
50.4979
 21
-258.798
  0
LINE
  8
0
 10
50.4979
 20
-258.798
 11
50.7555
 21
-258.587
  0
LINE
  8
0
 10
50.7555
 20
-258.587
 11
51.0494
 21
-258.429
  0
LINE
  8
0
 10
51.0494
 20
-258.429
 11
51.3683
 21
-258.333
  0
LINE
  8
0
 10
51.3683
 20
-258.333
 11
51.7
 21
-258.3
  0
LINE
  8
0
 10
51.7
 20
-258.3
 11
52.0316
 21
-258.333
  0
LINE
  8
0
 10
52.0316
 20
-258.333
 11
52.3506
 21
-258.429
  0
LINE
  8
0
 10
52.3506
 20
-258.429
 11
52.6445
 21
-258.587
  0
LINE
  8
0
 10
52.6445
 20
-258.587
 11
52.9021
 21
-258.798
  0
LINE
  8
0
 10
52.9021
 20
-258.798
 11
53.1135
 21
-259.056
  0
LINE
  8
0
 10
53.1135
 20
-259.056
 11
53.2706
 21
-259.349
  0
LINE
  8
0
 10
53.2706
 20
-259.349
 11
53.3673
 21
-259.668
  0
LINE
  8
0
 10
53.3673
 20
-259.668
 11
53.4
 21
-260
  0
LINE
  8
0
 10
53.4
 20
-260
 11
60
 21
-260
  0
LINE
  8
0
 10
60
 20
-260
 11
60
 21
-197.686
  0
LINE
  8
0
 10
60
 20
-197.686
 11
59.6683
 21
-197.653
  0
LINE
  8
0
 10
59.6683
 20
-197.653
 11
59.3494
 21
-197.556
  0
LINE
  8
0
 10
59.3494
 20
-197.556
 11
59.0555
 21
-197.399
  0
LINE
  8
0
 10
59.0555
 20
-197.399
 11
58.7979
 21
-197.188
  0
LINE
  8
0
 10
58.7979
 20
-197.188
 11
58.5865
 21
-196.93
  0
LINE
  8
0
 10
58.5865
 20
-196.93
 11
58.4294
 21
-196.636
  0
LINE
  8
0
 10
58.4294
 20
-196.636
 11
58.3327
 21
-196.317
  0
LINE
  8
0
 10
58.3327
 20
-196.317
 11
58.3
 21
-195.986
  0
LINE
  8
0
 10
58.3
 20
-195.986
 11
58.3327
 21
-195.654
  0
LINE
  8
0
 10
58.3327
 20
-195.654
 11
58.4294
 21
-195.335
  0
LINE
  8
0
 10
58.4294
 20
-195.335
 11
58.5865
 21
-195.041
  0
LINE
  8
0
 10
58.5865
 20
-195.041
 11
58.7979
 21
-194.784
  0
LINE
  8
0
 10
58.7979
 20
-194.784
 11
59.0555
 21
-194.572
  0
LINE
  8
0
 10
59.0555
 20
-194.572
 11
59.3494
 21
-194.415
  0
LINE
  8
0
 10
59.3494
 20
-194.415
 11
59.6683
 21
-194.318
  0
LINE
  8
0
 10
59.6683
 20
-194.318
 11
60
 21
-194.286
  0
LINE
  8
0
 10
60
 20
-194.286
 11
72
 21
-194.286
  0
LINE
  8
0
 10
72
 20
-194.286
 11
72
 21
-116.571
  0
LINE
  8
0
 10
72
 20
-116.571
 11
60
 21
-116.571
  0
LINE
  8
0
 10
60
 20
-116.571
 11
59.6683
 21
-116.539
  0
LINE
  8
0
 10
59.6683
 20
-116.539
 11
59.3494
 21
-116.442
  0
LINE
  8
0
 10
59.3494
 20
-116.442
 11
59.0555
 21
-116.285
  0
LINE
  8
0
 10
59.0555
 20
-116.285
 11
58.7979
 21
-116.074
  0
LINE
  8
0
 10
58.7979
 20
-116.074
 11
58.5865
 21
-115.816
  0
LINE
  8
0
 10
58.5865
 20
-115.816
 11
58.4294
 21
-115.522
  0
LINE
  8
0
 10
58.4294
 20
-115.522
 11
58.3327
 21
-115.203
  0
LINE
  8
0
 10
58.3327
 20
-115.203
 11
58.3
 21
-114.871
  0
LINE
  8
0
 10
58.3
 20
-114.871
 11
58.3327
 21
-114.54
  0
LINE
  8
0
 10
58.3327
 20
-114.54
 11
58.4294
 21
-114.221
  0
LINE
  8
0
 10
58.4294
 20
-114.221
 11
58.5865
 21
-113.927
  0
LINE
  8
0
 10
58.5865
 20
-113.927
 11
58.7979
 21
-113.669
  0
LINE
  8
0
 10
58.7979
 20
-113.669
 11
59.0555
 21
-113.458
  0
LINE
  8
0
 10
59.0555
 20
-113.458
 11
59.3494
 21
-113.301
  0
LINE
  8
0
 10
59.3494
 20
-113.301
 11
59.6683
 21
-113.204
  0
LINE
  8
0
 10
59.6683
 20
-113.204
 11
60
 21
-113.171
  0
LINE
  8
0
 10
60
 20
-113.171
 11
60
 21
-42.2572
  0
LINE
  8
0
 10
60
 20
-42.2572
 11
59.6683
 21
-42.2245
  0
LINE
  8
0
 10
59.6683
 20
-42.2245
 11
59.3494
 21
-42.1277
  0
LINE
  8
0
 10
59.3494
 20
-42.1277
 11
59.0555
 21
-41.9706
  0
LINE
  8
0
 10
59.0555
 20
-41.9706
 11
58.7979
 21
-41.7592
  0
LINE
  8
0
 10
58.7979
 20
-41.7592
 11
58.5865
 21
-41.5016
  0
LINE
  8
0
 10
58.5865
 20
-41.5016
 11
58.4294
 21
-41.2077
  0
LINE
  8
0
 10
58.4294
 20
-41.2077
 11
58.3327
 21
-40.8888
  0
LINE
  8
0
 10
58.3327
 20
-40.8888
 11
58.3
 21
-40.5571
  0
LINE
  8
0
 10
58.3
 20
-40.5571
 11
58.3327
 21
-40.2255
  0
LINE
  8
0
 10
58.3327
 20
-40.2255
 11
58.4294
 21
-39.9066
  0
LINE
  8
0
 10
58.4294
 20
-39.9066
 11
58.5865
 21
-39.6127
  0
LINE
  8
0
 10
58.5865
 20
-39.6127
 11
58.7979
 21
-39.3551
  0
LINE
  8
0
 10
58.7979
 20
-39.3551
 11
59.0555
 21
-39.1436
  0
LINE
  8
0
 10
59.0555
 20
-39.1436
 11
59.3494
 21
-38.9866
  0
LINE
  8
0
 10
59.3494
 20
-38.9866
 11
59.6683
 21
-38.8898
  0
LINE
  8
0
 10
59.6683
 20
-38.8898
 11
60
 21
-38.8571
  0
LINE
  8
0
 10
60
 20
-38.8571
 11
72
 21
-38.8571
  0
LINE
  8
0
 10
72
 20
-38.8571
 11
72
 21
38.8571
  0
LINE
  8
0
 10
72
 20
38.8571
 11
60
 21
38.8571
  0
LINE
  8
0
 10
60
 20
38.8571
 11
59.6684
 21
38.8898
  0
LINE
  8
0
 10
59.6684
 20
38.8898
 11
59.3494
 21
38.9865
  0
LINE
  8
0
 10
59.3494
 20
38.9865
 11
59.0555
 21
39.1436
  0
LINE
  8
0
 10
59.0555
 20
39.1436
 11
58.7979
 21
39.355
  0
LINE
  8
0
 10
58.7979
 20
39.355
 11
58.5865
 21
39.6127
  0
LINE
  8
0
 10
58.5865
 20
39.6127
 11
58.4294
 21
39.9066
  0
LINE
  8
0
 10
58.4294
 20
39.9066
 11
58.3327
 21
40.2255
  0
LINE
  8
0
 10
58.3327
 20
40.2255
 11
58.3
 21
40.5571
  0
LINE
  8
0
 10
58.3
 20
40.5571
 11
58.3327
 21
40.8888
  0
LINE
  8
0
 10
58.3327
 20
40.8888
 11
58.4294
 21
41.2077
  0
LINE
  8
0
 10
58.4294
 20
41.2077
 11
58.5865
 21
41.5016
  0
LINE
  8
0
 10
58.5865
 20
41.5016
 11
58.7979
 21
41.7592
  0
LINE
  8
0
 10
58.7979
 20
41.7592
 11
59.0555
 21
41.9706
  0
LINE
  8
0
 10
59.0555
 20
41.9706
 11
59.3494
 21
42.1277
  0
LINE
  8
0
 10
59.3494
 20
42.1277
 11
59.6684
 21
42.2245
  0
LINE
  8
0
 10
59.6684
 20
42.2245
 11
60
 21
42.2571
  0
LINE
  8
0
 10
60
 20
42.2571
 11
60
 21
113.171
  0
LINE
  8
0
 10
60
 20
113.171
 11
59.6684
 21
113.204
  0
LINE
  8
0
 10
59.6684
 20
113.204
 11
59.3494
 21
113.301
  0
LINE
  8
0
 10
59.3494
 20
113.301
 11
59.0555
 21
113.458
  0
LINE
  8
0
 10
59.0555
 20
113.458
 11
58.7979
 21
113.669
  0
LINE
  8
0
 10
58.7979
 20
113.669
 11
58.5865
 21
113.927
  0
LINE
  8
0
 10
58.5865
 20
113.927
 11
58.4294
 21
114.221
  0
LINE
  8
0
 10
58.4294
 20
114.221
 11
58.3327
 21
114.54
  0
LINE
  8
0
 10
58.3327
 20
114.54
 11
58.3
 21
114.871
  0
LINE
  8
0
 10
58.3
 20
114.871
 11
58.3327
 21
115.203
  0
LINE
  8
0
 10
58.3327
 20
115.203
 11
58.4294
 21
115.522
  0
LINE
  8
0
 10
58.4294
 20
115.522
 11
58.5865
 21
115.816
  0
LINE
  8
0
 10
58.5865
 20
115.816
 11
58.7979
 21
116.073
  0
LINE
  8
0
 10
58.7979
 20
116.073
 11
59.0555
 21
116.285
  0
LINE
  8
0
 10
59.0555
 20
116.285
 11
59.3494
 21
116.442
  0
LINE
  8
0
 10
59.3494
 20
116.442
 11
59.6684
 21
116.539
  0
LINE
  8
0
 10
59.6684
 20
116.539
 11
60
 21
116.571
  0
LINE
  8
0
 10
60
 20
116.571
 11
72
 21
116.571
  0
LINE
  8
0
 10
72
 20
116.571
 11
72
 21
194.286
  0
LINE
  8
0
 10
72
 20
194.286
 11
60
 21
194.286
  0
LINE
  8
0
 10
60
 20
194.286
 11
59.6684
 21
194.318
  0
LINE
  8
0
 10
59.6684
 20
194.318
 11
59.3494
 21
194.415
  0
LINE
  8
0
 10
59.3494
 20
194.415
 11
59.0555
 21
194.572
  0
LINE
  8
0
 10
59.0555
 20
194.572
 11
58.7979
 21
194.784
  0
LINE
  8
0
 10
58.7979
 20
194.784
 11
58.5865
 21
195.041
  0
LINE
  8
0
 10
58.5865
 20
195.041
 11
58.4294
 21
195.335
  0
LINE
  8
0
 10
58.4294
 20
195.335
 11
58.3327
 21
195.654
  0
LINE
  8
0
 10
58.3327
 20
195.654
 11
58.3
 21
195.986
  0
LINE
  8
0
 10
58.3
 20
195.986
 11
58.3327
 21
196.317
  0
LINE
  8
0
 10
58.3327
 20
196.317
 11
58.4294
 21
196.636
  0
LINE
  8
0
 10
58.4294
 20
196.636
 11
58.5865
 21
196.93
  0
LINE
  8
0
 10
58.5865
 20
196.93
 11
58.7979
 21
197.188
  0
LINE
  8
0
 10
58.7979
 20
197.188
 11
59.0555
 21
197.399
  0
LINE
  8
0
 10
59.0555
 20
197.399
 11
59.3494
 21
197.556
  0
LINE
  8
0
 10
59.3494
 20
197.556
 11
59.6684
 21
197.653
  0
LINE
  8
0
 10
59.6684
 20
197.653
 11
60
 21
197.686
  0
LINE
  8
0
 10
60
 20
197.686
 11
60
 21
260
  0
LINE
  8
0
 10
60
 20
260
 11
53.4
 21
260
  0
LINE
  8
0
 10
53.4
 20
260
 11
53.3673
 21
259.668
  0
LINE
  8
0
 10
53.3673
 20
259.668
 11
53.2706
 21
259.349
  0
LINE
  8
0
 10
53.2706
 20
259.349
 11
53.1135
 21
259.056
  0
LINE
  8
0
 10
53.1135
 20
259.056
 11
52.9021
 21
258.798
  0
LINE
  8
0
 10
52.9021
 20
258.798
 11
52.6445
 21
258.587
  0
LINE
  8
0
 10
52.6445
 20
258.587
 11
52.3506
 21
258.429
  0
LINE
  8
0
 10
52.3506
 20
258.429
 11
52.0317
 21
258.333
  0
LINE
  8
0
 10
52.0317
 20
258.333
 11
51.7
 21
258.3
  0
LINE
  8
0
 10
51.7
 20
258.3
 11
51.3683
 21
258.333
  0
LINE
  8
0
 10
51.3683
 20
258.333
 11
51.0494
 21
258.429
  0
LINE
  8
0
 10
51.0494
 20
258.429
 11
50.7555
 21
258.587
  0
LINE
  8
0
 10
50.7555
 20
258.587
 11
50.4979
 21
258.798
  0
LINE
  8
0
 10
50.4979
 20
258.798
 11
50.2865
 21
259.056
  0
LINE
  8
0
 10
50.2865
 20
259.056
 11
50.1294
 21
259.349
  0
LINE
  8
0
 10
50.1294
 20
259.349
 11
50.0327
 21
259.668
  0
LINE
  8
0
 10
50.0327
 20
259.668
 11
50
 21
260
  0
LINE
  8
0
 10
50
 20
260
 11
50
 21
272
  0
LINE
  8
0
 10
50
 20
272
 11
30
 21
272
  0
LINE
  8
0
 10
30
 20
272
 11
30
 21
260
  0
LINE
  8
0
 10
30
 20
260
 11
29.9673
 21
259.668
  0
LINE
  8
0
 10
29.9673
 20
259.668
 11
29.8706
 21
259.349
  0
LINE
  8
0
 10
29.8706
 20
259.349
 11
29.7135
 21
259.056
  0
LINE
  8
0
 10
29.7135
 20
259.056
 11
29.5021
 21
258.798
  0
LINE
  8
0
 10
29.5021
 20
258.798
 11
29.2445
 21
258.587
  0
LINE
  8
0
 10
29.2445
 20
258.587
 11
28.9506
 21
258.429
  0
LINE
  8
0
 10
28.9506
 20
258.429
 11
28.6317
 21
258.333
  0
LINE
  8
0
 10
28.6317
 20
258.333
 11
28.3
 21
258.3
  0
LINE
  8
0
 10
28.3
 20
258.3
 11
27.9684
 21
258.333
  0
LINE
  8
0
 10
27.9684
 20
258.333
 11
27.6494
 21
258.429
  0
LINE
  8
0
 10
27.6494
 20
258.429
 11
27.3555
 21
258.587
  0
LINE
  8
0
 10
27.3555
 20
258.587
 11
27.0979
 21
258.798
  0
LINE
  8
0
 10
27.0979
 20
258.798
 11
26.8865
 21
259.056
  0
LINE
  8
0
 10
26.8865
 20
259.056
 11
26.7294
 21
259.349
  0
LINE
  8
0
 10
26.7294
 20
259.349
 11
26.6327
 21
259.668
  0
LINE
  8
0
 10
26.6327
 20
259.668
 11
26.6
 21
260
  0
LINE
  8
0
 10
26.6
 20
260
 11
20
 21
260
  0
LINE
  8
0
 10
20
 20
260
 11
20
 21
197.686
  0
LINE
  8
0
 10
20
 20
197.686
 11
20.3316
 21
197.653
  0
LINE
  8
0
 10
20.3316
 20
197.653
 11
20.6506
 21
197.556
  0
LINE
  8
0
 10
20.6506
 20
197.556
 11
20.9445
 21
197.399
  0
LINE
  8
0
 10
20.9445
 20
197.399
 11
21.2021
 21
197.188
  0
LINE
  8
0
 10
21.2021
 20
197.188
 11
21.4135
 21
196.93
  0
LINE
  8
0
 10
21.4135
 20
196.93
 11
21.5706
 21
196.636
  0
LINE
  8
0
 10
21.5706
 20
196.636
 11
21.6673
 21
196.317
  0
LINE
  8
0
 10
21.6673
 20
196.317
 11
21.7
 21
195.986
  0
LINE
  8
0
 10
21.7
 20
195.986
 11
21.6673
 21
195.654
  0
LINE
  8
0
 10
21.6673
 20
195.654
 11
21.5706
 21
195.335
  0
LINE
  8
0
 10
21.5706
 20
195.335
 11
21.4135
 21
195.041
  0
LINE
  8
0
 10
21.4135
 20
195.041
 11
21.2021
 21
194.784
  0
LINE
  8
0
 10
21.2021
 20
194.784
 11
20.9445
 21
194.572
  0
LINE
  8
0
 10
20.9445
 20
194.572
 11
20.6506
 21
194.415
  0
LINE
  8
0
 10
20.6506
 20
194.415
 11
20.3316
 21
194.318
  0
LINE
  8
0
 10
20.3316
 20
194.318
 11
20
 21
194.286
  0
LINE
  8
0
 10
20
 20
194.286
 11
5
 21
194.286
  0
LINE
  8
0
 10
5
 20
194.286
 11
5
 21
116.571
  0
LINE
  8
0
 10
5
 20
116.571
 11
20
 21
116.571
  0
LINE
  8
0
 10
20
 20
116.571
 11
20.3316
 21
116.539
  0
LINE
  8
0
 10
20.3316
 20
116.539
 11
20.6506
 21
116.442
  0
LINE
  8
0
 10
20.6506
 20
116.442
 11
20.9445
 21
116.285
  0
LINE
  8
0
 10
20.9445
 20
116.285
 11
21.2021
 21
116.074
  0
LINE
  8
0
 10
21.2021
 20
116.074
 11
21.4135
 21
115.816
  0
LINE
  8
0
 10
21.4135
 20
115.816
 11
21.5706
 21
115.522
  0
LINE
  8
0
 10
21.5706
 20
115.522
 11
21.6673
 21
115.203
  0
LINE
  8
0
 10
21.6673
 20
115.203
 11
21.7
 21
114.871
  0
LINE
  8
0
 10
21.7
 20
114.871
 11
21.6673
 21
114.54
  0
LINE
  8
0
 10
21.6673
 20
114.54
 11
21.5706
 21
114.221
  0
LINE
  8
0
 10
21.5706
 20
114.221
 11
21.4135
 21
113.927
  0
LINE
  8
0
 10
21.4135
 20
113.927
 11
21.2021
 21
113.669
  0
LINE
  8
0
 10
21.2021
 20
113.669
 11
20.9445
 21
113.458
  0
LINE
  8
0
 10
20.9445
 20
113.458
 11
20.6506
 21
113.301
  0
LINE
  8
0
 10
20.6506
 20
113.301
 11
20.3316
 21
113.204
  0
LINE
  8
0
 10
20.3316
 20
113.204
 11
20
 21
113.171
  0
LINE
  8
0
 10
20
 20
113.171
 11
20
 21
42.2571
  0
LINE
  8
0
 10
20
 20
42.2571
 11
20.3316
 21
42.2245
  0
LINE
  8
0
 10
20.3316
 20
42.2245
 11
20.6506
 21
42.1277
  0
LINE
  8
0
 10
20.6506
 20
42.1277
 11
20.9445
 21
41.9706
  0
LINE
  8
0
 10
20.9445
 20
41.9706
 11
21.2021
 21
41.7592
  0
LINE
  8
0
 10
21.2021
 20
41.7592
 11
21.4135
 21
41.5016
  0
LINE
  8
0
 10
21.4135
 20
41.5016
 11
21.5706
 21
41.2077
  0
LINE
  8
0
 10
21.5706
 20
41.2077
 11
21.6673
 21
40.8888
  0
LINE
  8
0
 10
21.6673
 20
40.8888
 11
21.7
 21
40.5571
  0
LINE
  8
0
 10
21.7
 20
40.5571
 11
21.6673
 21
40.2255
  0
LINE
  8
0
 10
21.6673
 20
40.2255
 11
21.5706
 21
39.9066
  0
LINE
  8
0
 10
21.5706
 20
39.9066
 11
21.4135
 21
39.6127
  0
LINE
  8
0
 10
21.4135
 20
39.6127
 11
21.2021
 21
39.355
  0
LINE
  8
0
 10
21.2021
 20
39.355
 11
20.9445
 21
39.1436
  0
LINE
  8
0
 10
20.9445
 20
39.1436
 11
20.6506
 21
38.9865
  0
LINE
  8
0
 10
20.6506
 20
38.9865
 11
20.3316
 21
38.8898
  0
LINE
  8
0
 10
20.3316
 20
38.8898
 11
20
 21
38.8571
  0
LINE
  8
0
 10
20
 20
38.8571
 11
5
 21
38.8571
  0
LINE
  8
0
 10
5
 20
38.8571
 11
4.99998
 21
-38.8571
  0
LINE
  8
0
 10
4.99998
 20
-38.8571
 11
20
 21
-38.8571
  0
LINE
  8
0
 10
20
 20
-38.8571
 11
20.3316
 21
-38.8898
  0
LINE
  8
0
 10
20.3316
 20
-38.8898
 11
20.6505
 21
-38.9866
  0
LINE
  8
0
 10
20.6505
 20
-38.9866
 11
20.9444
 21
-39.1436
  0
LINE
  8
0
 10
20.9444
 20
-39.1436
 11
21.2021
 21
-39.3551
  0
LINE
  8
0
 10
21.2021
 20
-39.3551
 11
21.4135
 21
-39.6127
  0
LINE
  8
0
 10
21.4135
 20
-39.6127
 11
21.5706
 21
-39.9066
  0
LINE
  8
0
 10
21.5706
 20
-39.9066
 11
21.6673
 21
-40.2255
  0
LINE
  8
0
 10
21.6673
 20
-40.2255
 11
21.7
 21
-40.5571
  0
LINE
  8
0
 10
21.7
 20
-40.5571
 11
21.6673
 21
-40.8888
  0
LINE
  8
0
 10
21.6673
 20
-40.8888
 11
21.5706
 21
-41.2077
  0
LINE
  8
0
 10
21.5706
 20
-41.2077
 11
21.4135
 21
-41.5016
  0
LINE
  8
0
 10
21.4135
 20
-41.5016
 11
21.2021
 21
-41.7592
  0
LINE
  8
0
 10
21.2021
 20
-41.7592
 11
20.9444
 21
-41.9706
  0
LINE
  8
0
 10
20.9444
 20
-41.9706
 11
20.6505
 21
-42.1277
  0
LINE
  8
0
 10
20.6505
 20
-42.1277
 11
20.3316
 21
-42.2245
  0
LINE
  8
0
 10
20.3316
 20
-42.2245
 11
20
 21
-42.2572
  0
LINE
  8
0
 10
20
 20
-42.2572
 11
20
 21
-113.171
  0
LINE
  8
0
 10
20
 20
-113.171
 11
20.3316
 21
-113.204
  0
LINE
  8
0
 10
20.3316
 20
-113.204
 11
20.6505
 21
-113.301
  0
LINE
  8
0
 10
20.6505
 20
-113.301
 11
20.9444
 21
-113.458
  0
LINE
  8
0
 10
20.9444
 20
-113.458
 11
21.2021
 21
-113.669
  0
LINE
  8
0
 10
21.2021
 20
-113.669
 11
21.4135
 21
-113.927
  0
LINE
  8
0
 10
21.4135
 20
-113.927
 11
21.5706
 21
-114.221
  0
LINE
  8
0
 10
21.5706
 20
-114.221
 11
21.6673
 21
-114.54
  0
LINE
  8
0
 10
21.6673
 20
-114.54
 11
21.7
 21
-114.871
  0
LINE
  8
0
 10
21.7
 20
-114.871
 11
21.6673
 21
-115.203
  0
LINE
  8
0
 10
21.6673
 20
-115.203
 11
21.5706
 21
-115.522
  0
LINE
  8
0
 10
21.5706
 20
-115.522
 11
21.4135
 21
-115.816
  0
LINE
  8
0
 10
21.4135
 20
-115.816
 11
21.2021
 21
-116.074
  0
LINE
  8
0
 10
21.2021
 20
-116.074
 11
20.9444
 21
-116.285
  0
LINE
  8
0
 10
20.9444
 20
-116.285
 11
20.6505
 21
-116.442
  0
LINE
  8
0
 10
20.6505
 20
-116.442
 11
20.3316
 21
-116.539
  0
LINE
  8
0
 10
20.3316
 20
-116.539
 11
20
 21
-116.571
  0
LINE
  8
0
 10
20
 20
-116.571
 11
4.99998
 21
-116.571
  0
LINE
  8
0
 10
4.99998
 20
-116.571
 11
4.99998
 21
-194.286
  0
LINE
  8
0
 10
4.99998
 20
-194.286
 11
20
 21
-194.286
  0
LINE
  8
0
 10
20
 20
-194.286
 11
20.3316
 21
-194.318
  0
LINE
  8
0
 10
20.3316
 20
-194.318
 11
20.6505
 21
-194.415
  0
LINE
  8
0
 10
20.6505
 20
-194.415
 11
20.9444
 21
-194.572
  0
LINE
  8
0
 10
20.9444
 20
-194.572
 11
21.2021
 21
-194.784
  0
LINE
  8
0
 10
21.2021
 20
-194.784
 11
21.4135
 21
-195.041
  0
LINE
  8
0
 10
21.4135
 20
-195.041
 11
21.5706
 21
-195.335
  0
LINE
  8
0
 10
21.5706
 20
-195.335
 11
21.6673
 21
-195.654
  0
LINE
  8
0
 10
21.6673
 20
-195.654
 11
21.7
 21
-195.986
  0
LINE
  8
0
 10
21.7
 20
-195.986
 11
21.6673
 21
-196.317
  0
LINE
  8
0
 10
21.6673
 20
-196.317
 11
21.5706
 21
-196.636
  0
LINE
  8
0
 10
21.5706
 20
-196.636
 11
21.4135
 21
-196.93
  0
LINE
  8
0
 10
21.4135
 20
-196.93
 11
21.2021
 21
-197.188
  0
LINE
  8
0
 10
21.2021
 20
-197.188
 11
20.9444
 21
-197.399
  0
LINE
  8
0
 10
20.9444
 20
-197.399
 11
20.6505
 21
-197.556
  0
LINE
  8
0
 10
20.6505
 20
-197.556
 11
20.3316
 21
-197.653
  0
LINE
  8
0
 10
20.3316
 20
-197.653
 11
20
 21
-197.686
  0
LINE
  8
0
 10
20
 20
-197.686
 11
20
 21
-260
  0
LINE
  8
0
 10
20
 20
-260
 11
26.6
 21
-260
  0
LINE
  8
0
 10
26.6
 20
-260
 11
26.6327
 21
-259.668
  0
LINE
  8
0
 10
26.6327
 20
-259.668
 11
26.7294
 21
-259.349
  0
LINE
  8
0
 10
26.7294
 20
-259.349
 11
26.8865
 21
-259.056
  0
LINE
  8
0
 10
26.8865
 20
-259.056
 11
27.0979
 21
-258.798
  0
LINE
  8
0
 10
27.0979
 20
-258.798
 11
27.3555
 21
-258.587
  0
LINE
  8
0
 10
27.3555
 20
-258.587
 11
27.6494
 21
-258.429
  0
LINE
  8
0
 10
27.6494
 20
-258.429
 11
27.9683
 21
-258.333
  0
LINE
  8
0
 10
27.9683
 20
-258.333
 11
28.3
 21
-258.3
  0
LINE
  8
0
 10
28.3
 20
-258.3
 11
28.6317
 21
-258.333
  0
LINE
  8
0
 10
28.6317
 20
-258.333
 11
28.9506
 21
-258.429
  0
LINE
  8
0
 10
28.9506
 20
-258.429
 11
29.2445
 21
-258.587
  0
LINE
  8
0
 10
29.2445
 20
-258.587
 11
29.5021
 21
-258.798
  0
LINE
  8
0
 10
29.5021
 20
-258.798
 11
29.7135
 21
-259.056
  0
LINE
  8
0
 10
29.7135
 20
-259.056
 11
29.8706
 21
-259.349
  0
LINE
  8
0
 10
29.8706
 20
-259.349
 11
29.9673
 21
-259.668
  0
LINE
  8
0
 10
29.9673
 20
-259.668
 11
30
 21
-260
  0
LINE
  8
0
 10
30
 20
-260
 11
30
 21
-272
  0
LINE
  8
0
 10
30
 20
-272
 11
50
 21
-272
  0
LINE
  8
0
 10
50
 20
-272
 11
50
 21
-260
  0
LINE
  8
0
 10
39.6684
 20
264.333
 11
39.3494
 21
264.429
  0
LINE
  8
0
 10
39.3494
 20
264.429
 11
39.0555
 21
264.586
  0
LINE
  8
0
 10
39.0555
 20
264.586
 11
38.7979
 21
264.798
  0
LINE
  8
0
 10
38.7979
 20
264.798
 11
38.5865
 21
265.056
  0
LINE
  8
0
 10
38.5865
 20
265.056
 11
38.4294
 21
265.349
  0
LINE
  8
0
 10
38.4294
 20
265.349
 11
38.3327
 21
265.668
  0
LINE
  8
0
 10
38.3327
 20
265.668
 11
38.3
 21
266
  0
LINE
  8
0
 10
38.3
 20
266
 11
38.3327
 21
266.332
  0
LINE
  8
0
 10
38.3327
 20
266.332
 11
38.4294
 21
266.651
  0
LINE
  8
0
 10
38.4294
 20
266.651
 11
38.5865
 21
266.944
  0
LINE
  8
0
 10
38.5865
 20
266.944
 11
38.7979
 21
267.202
  0
LINE
  8
0
 10
38.7979
 20
267.202
 11
39.0555
 21
267.413
  0
LINE
  8
0
 10
39.0555
 20
267.413
 11
39.3494
 21
267.571
  0
LINE
  8
0
 10
39.3494
 20
267.571
 11
39.6684
 21
267.667
  0
LINE
  8
0
 10
39.6684
 20
267.667
 11
40
 21
267.7
  0
LINE
  8
0
 10
40
 20
267.7
 11
40.3317
 21
267.667
  0
LINE
  8
0
 10
40.3317
 20
267.667
 11
40.6506
 21
267.571
  0
LINE
  8
0
 10
40.6506
 20
267.571
 11
40.9445
 21
267.413
  0
LINE
  8
0
 10
40.9445
 20
267.413
 11
41.2021
 21
267.202
  0
LINE
  8
0
 10
41.2021
 20
267.202
 11
41.4135
 21
266.944
  0
LINE
  8
0
 10
41.4135
 20
266.944
 11
41.5706
 21
266.651
  0
LINE
  8
0
 10
41.5706
 20
266.651
 11
41.6673
 21
266.332
  0
LINE
  8
0
 10
41.6673
 20
266.332
 11
41.7
 21
266
  0
LINE
  8
0
 10
41.7
 20
266
 11
41.6673
 21
265.668
  0
LINE
  8
0
 10
41.6673
 20
265.668
 11
41.5706
 21
265.349
  0
LINE
  8
0
 10
41.5706
 20
265.349
 11
41.4135
 21
265.056
  0
LINE
  8
0
 10
41.4135
 20
265.056
 11
41.2021
 21
264.798
  0
LINE
  8
0
 10
41.2021
 20
264.798
 11
40.9445
 21
264.586
  0
LINE
  8
0
 10
40.9445
 20
264.586
 11
40.6506
 21
264.429
  0
LINE
  8
0
 10
40.6506
 20
264.429
 11
40.3317
 21
264.333
  0
LINE
  8
0
 10
40.3317
 20
264.333
 11
40
 21
264.3
  0
LINE
  8
0
 10
40
 20
264.3
 11
39.6684
 21
264.333
  0
LINE
  8
0
 10
65.6683
 20
153.761
 11
65.3494
 21
153.858
  0
LINE
  8
0
 10
65.3494
 20
153.858
 11
65.0555
 21
154.015
  0
LINE
  8
0
 10
65.0555
 20
154.015
 11
64.7979
 21
154.226
  0
LINE
  8
0
 10
64.7979
 20
154.226
 11
64.5865
 21
154.484
  0
LINE
  8
0
 10
64.5865
 20
154.484
 11
64.4294
 21
154.778
  0
LINE
  8
0
 10
64.4294
 20
154.778
 11
64.3327
 21
155.097
  0
LINE
  8
0
 10
64.3327
 20
155.097
 11
64.3
 21
155.429
  0
LINE
  8
0
 10
64.3
 20
155.429
 11
64.3327
 21
155.76
  0
LINE
  8
0
 10
64.3327
 20
155.76
 11
64.4294
 21
156.079
  0
LINE
  8
0
 10
64.4294
 20
156.079
 11
64.5865
 21
156.373
  0
LINE
  8
0
 10
64.5865
 20
156.373
 11
64.7979
 21
156.631
  0
LINE
  8
0
 10
64.7979
 20
156.631
 11
65.0555
 21
156.842
  0
LINE
  8
0
 10
65.0555
 20
156.842
 11
65.3494
 21
156.999
  0
LINE
  8
0
 10
65.3494
 20
156.999
 11
65.6683
 21
157.096
  0
LINE
  8
0
 10
65.6683
 20
157.096
 11
66
 21
157.129
  0
LINE
  8
0
 10
66
 20
157.129
 11
66.3316
 21
157.096
  0
LINE
  8
0
 10
66.3316
 20
157.096
 11
66.6506
 21
156.999
  0
LINE
  8
0
 10
66.6506
 20
156.999
 11
66.9445
 21
156.842
  0
LINE
  8
0
 10
66.9445
 20
156.842
 11
67.2021
 21
156.631
  0
LINE
  8
0
 10
67.2021
 20
156.631
 11
67.4135
 21
156.373
  0
LINE
  8
0
 10
67.4135
 20
156.373
 11
67.5706
 21
156.079
  0
LINE
  8
0
 10
67.5706
 20
156.079
 11
67.6673
 21
155.76
  0
LINE
  8
0
 10
67.6673
 20
155.76
 11
67.7
 21
155.429
  0
LINE
  8
0
 10
67.7
 20
155.429
 11
67.6673
 21
155.097
  0
LINE
  8
0
 10
67.6673
 20
155.097
 11
67.5706
 21
154.778
  0
LINE
  8
0
 10
67.5706
 20
154.778
 11
67.4135
 21
154.484
  0
LINE
  8
0
 10
67.4135
 20
154.484
 11
67.2021
 21
154.226
  0
LINE
  8
0
 10
67.2021
 20
154.226
 11
66.9445
 21
154.015
  0
LINE
  8
0
 10
66.9445
 20
154.015
 11
66.6506
 21
153.858
  0
LINE
  8
0
 10
66.6506
 20
153.858
 11
66.3316
 21
153.761
  0
LINE
  8
0
 10
66.3316
 20
153.761
 11
66
 21
153.729
  0
LINE
  8
0
 10
66
 20
153.729
 11
65.6683
 21
153.761
  0
LINE
  8
0
 10
65.6683
 20
-1.66734
 11
65.3494
 21
-1.5706
  0
LINE
  8
0
 10
65.3494
 20
-1.5706
 11
65.0555
 21
-1.41351
  0
LINE
  8
0
 10
65.0555
 20
-1.41351
 11
64.7979
 21
-1.20209
  0
LINE
  8
0
 10
64.7979
 20
-1.20209
 11
64.5865
 21
-0.944473
  0
LINE
  8
0
 10
64.5865
 20
-0.944473
 11
64.4294
 21
-0.650574
  0
LINE
  8
0
 10
64.4294
 20
-0.650574
 11
64.3327
 21
-0.331665
  0
LINE
  8
0
 10
64.3327
 20
-0.331665
 11
64.3
 21
0
  0
LINE
  8
0
 10
64.3
 20
0
 11
64.3327
 21
0.331635
  0
LINE
  8
0
 10
64.3327
 20
0.331635
 11
64.4294
 21
0.650543
  0
LINE
  8
0
 10
64.4294
 20
0.650543
 11
64.5865
 21
0.944443
  0
LINE
  8
0
 10
64.5865
 20
0.944443
 11
64.7979
 21
1.20206
  0
LINE
  8
0
 10
64.7979
 20
1.20206
 11
65.0555
 21
1.41348
  0
LINE
  8
0
 10
65.0555
 20
1.41348
 11
65.3494
 21
1.57057
  0
LINE
  8
0
 10
65.3494
 20
1.57057
 11
65.6683
 21
1.66731
  0
LINE
  8
0
 10
65.6683
 20
1.66731
 11
66
 21
1.69998
  0
LINE
  8
0
 10
66
 20
1.69998
 11
66.3316
 21
1.66731
  0
LINE
  8
0
 10
66.3316
 20
1.66731
 11
66.6506
 21
1.57057
  0
LINE
  8
0
 10
66.6506
 20
1.57057
 11
66.9445
 21
1.41348
  0
LINE
  8
0
 10
66.9445
 20
1.41348
 11
67.2021
 21
1.20206
  0
LINE
  8
0
 10
67.2021
 20
1.20206
 11
67.4135
 21
0.944443
  0
LINE
  8
0
 10
67.4135
 20
0.944443
 11
67.5706
 21
0.650543
  0
LINE
  8
0
 10
67.5706
 20
0.650543
 11
67.6673
 21
0.331635
  0
LINE
  8
0
 10
67.6673
 20
0.331635
 11
67.7
 21
0
  0
LINE
  8
0
 10
67.7
 20
0
 11
67.6673
 21
-0.331665
  0
LINE
  8
0
 10
67.6673
 20
-0.331665
 11
67.5706
 21
-0.650574
  0
LINE
  8
0
 10
67.5706
 20
-0.650574
 11
67.4135
 21
-0.944473
  0
LINE
  8
0
 10
67.4135
 20
-0.944473
 11
67.2021
 21
-1.20209
  0
LINE
  8
0
 10
67.2021
 20
-1.20209
 11
66.9445
 21
-1.41351
  0
LINE
  8
0
 10
66.9445
 20
-1.41351
 11
66.6506
 21
-1.5706
  0
LINE
  8
0
 10
66.6506
 20
-1.5706
 11
66.3316
 21
-1.66734
  0
LINE
  8
0
 10
66.3316
 20
-1.66734
 11
66
 21
-1.70001
  0
LINE
  8
0
 10
66
 20
-1.70001
 11
65.6683
 21
-1.66734
  0
LINE
  8
0
 10
65.6683
 20
-157.096
 11
65.3494
 21
-156.999
  0
LINE
  8
0
 10
65.3494
 20
-156.999
 11
65.0555
 21
-156.842
  0
LINE
  8
0
 10
65.0555
 20
-156.842
 11
64.7979
 21
-156.631
  0
LINE
  8
0
 10
64.7979
 20
-156.631
 11
64.5865
 21
-156.373
  0
LINE
  8
0
 10
64.5865
 20
-156.373
 11
64.4294
 21
-156.079
  0
LINE
  8
0
 10
64.4294
 20
-156.079
 11
64.3326
 21
-155.76
  0
LINE
  8
0
 10
64.3326
 20
-155.76
 11
64.3
 21
-155.429
  0
LINE
  8
0
 10
64.3
 20
-155.429
 11
64.3326
 21
-155.097
  0
LINE
  8
0
 10
64.3326
 20
-155.097
 11
64.4294
 21
-154.778
  0
LINE
  8
0
 10
64.4294
 20
-154.778
 11
64.5865
 21
-154.484
  0
LINE
  8
0
 10
64.5865
 20
-154.484
 11
64.7979
 21
-154.227
  0
LINE
  8
0
 10
64.7979
 20
-154.227
 11
65.0555
 21
-154.015
  0
LINE
  8
0
 10
65.0555
 20
-154.015
 11
65.3494
 21
-153.858
  0
LINE
  8
0
 10
65.3494
 20
-153.858
 11
65.6683
 21
-153.761
  0
LINE
  8
0
 10
65.6683
 20
-153.761
 11
66
 21
-153.729
  0
LINE
  8
0
 10
66
 20
-153.729
 11
66.3316
 21
-153.761
  0
LINE
  8
0
 10
66.3316
 20
-153.761
 11
66.6505
 21
-153.858
  0
LINE
  8
0
 10
66.6505
 20
-153.858
 11
66.9444
 21
-154.015
  0
LINE
  8
0
 10
66.9444
 20
-154.015
 11
67.2021
 21
-154.227
  0
LINE
  8
0
 10
67.2021
 20
-154.227
 11
67.4135
 21
-154.484
  0
LINE
  8
0
 10
67.4135
 20
-154.484
 11
67.5706
 21
-154.778
  0
LINE
  8
0
 10
67.5706
 20
-154.778
 11
67.6673
 21
-155.097
  0
LINE
  8
0
 10
67.6673
 20
-155.097
 11
67.7
 21
-155.429
  0
LINE
  8
0
 10
67.7
 20
-155.429
 11
67.6673
 21
-155.76
  0
LINE
  8
0
 10
67.6673
 20
-155.76
 11
67.5706
 21
-156.079
  0
LINE
  8
0
 10
67.5706
 20
-156.079
 11
67.4135
 21
-156.373
  0
LINE
  8
0
 10
67.4135
 20
-156.373
 11
67.2021
 21
-156.631
  0
LINE
  8
0
 10
67.2021
 20
-156.631
 11
66.9444
 21
-156.842
  0
LINE
  8
0
 10
66.9444
 20
-156.842
 11
66.6505
 21
-156.999
  0
LINE
  8
0
 10
66.6505
 20
-156.999
 11
66.3316
 21
-157.096
  0
LINE
  8
0
 10
66.3316
 20
-157.096
 11
66
 21
-157.129
  0
LINE
  8
0
 10
66
 20
-157.129
 11
65.6683
 21
-157.096
  0
LINE
  8
0
 10
39.6683
 20
-267.667
 11
39.3494
 21
-267.571
  0
LINE
  8
0
 10
39.3494
 20
-267.571
 11
39.0555
 21
-267.413
  0
LINE
  8
0
 10
39.0555
 20
-267.413
 11
38.7979
 21
-267.202
  0
LINE
  8
0
 10
38.7979
 20
-267.202
 11
38.5865
 21
-266.944
  0
LINE
  8
0
 10
38.5865
 20
-266.944
 11
38.4294
 21
-266.651
  0
LINE
  8
0
 10
38.4294
 20
-266.651
 11
38.3327
 21
-266.332
  0
LINE
  8
0
 10
38.3327
 20
-266.332
 11
38.3
 21
-266
  0
LINE
  8
0
 10
38.3
 20
-266
 11
38.3327
 21
-265.668
  0
LINE
  8
0
 10
38.3327
 20
-265.668
 11
38.4294
 21
-265.349
  0
LINE
  8
0
 10
38.4294
 20
-265.349
 11
38.5865
 21
-265.056
  0
LINE
  8
0
 10
38.5865
 20
-265.056
 11
38.7979
 21
-264.798
  0
LINE
  8
0
 10
38.7979
 20
-264.798
 11
39.0555
 21
-264.586
  0
LINE
  8
0
 10
39.0555
 20
-264.586
 11
39.3494
 21
-264.429
  0
LINE
  8
0
 10
39.3494
 20
-264.429
 11
39.6683
 21
-264.333
  0
LINE
  8
0
 10
39.6683
 20
-264.333
 11
40
 21
-264.3
  0
LINE
  8
0
 10
40
 20
-264.3
 11
40.3316
 21
-264.333
  0
LINE
  8
0
 10
40.3316
 20
-264.333
 11
40.6506
 21
-264.429
  0
LINE
  8
0
 10
40.6506
 20
-264.429
 11
40.9445
 21
-264.586
  0
LINE
  8
0
 10
40.9445
 20
-264.586
 11
41.2021
 21
-264.798
  0
LINE
  8
0
 10
41.2021
 20
-264.798
 11
41.4135
 21
-265.056
  0
LINE
  8
0
 10
41.4135
 20
-265.056
 11
41.5706
 21
-265.349
  0
LINE
  8
0
 10
41.5706
 20
-265.349
 11
41.6673
 21
-265.668
  0
LINE
  8
0
 10
41.6673
 20
-265.668
 11
41.7
 21
-266
  0
LINE
  8
0
 10
41.7
 20
-266
 11
41.6673
 21
-266.332
  0
LINE
  8
0
 10
41.6673
 20
-266.332
 11
41.5706
 21
-266.651
  0
LINE
  8
0
 10
41.5706
 20
-266.651
 11
41.4135
 21
-266.944
  0
LINE
  8
0
 10
41.4135
 20
-266.944
 11
41.2021
 21
-267.202
  0
LINE
  8
0
 10
41.2021
 20
-267.202
 11
40.9445
 21
-267.413
  0
LINE
  8
0
 10
40.9445
 20
-267.413
 11
40.6506
 21
-267.571
  0
LINE
  8
0
 10
40.6506
 20
-267.571
 11
40.3316
 21
-267.667
  0
LINE
  8
0
 10
40.3316
 20
-267.667
 11
40
 21
-267.7
  0
LINE
  8
0
 10
40
 20
-267.7
 11
39.6683
 21
-267.667
  0
LINE
  8
0
 10
154
 20
-260
 11
154.033
 21
-259.668
  0
LINE
  8
0
 10
154.033
 20
-259.668
 11
154.129
 21
-259.349
  0
LINE
  8
0
 10
154.129
 20
-259.349
 11
154.286
 21
-259.056
  0
LINE
  8
0
 10
154.286
 20
-259.056
 11
154.498
 21
-258.798
  0
LINE
  8
0
 10
154.498
 20
-258.798
 11
154.756
 21
-258.587
  0
LINE
  8
0
 10
154.756
 20
-258.587
 11
155.049
 21
-258.429
  0
LINE
  8
0
 10
155.049
 20
-258.429
 11
155.368
 21
-258.333
  0
LINE
  8
0
 10
155.368
 20
-258.333
 11
155.7
 21
-258.3
  0
LINE
  8
0
 10
155.7
 20
-258.3
 11
156.032
 21
-258.333
  0
LINE
  8
0
 10
156.032
 20
-258.333
 11
156.351
 21
-258.429
  0
LINE
  8
0
 10
156.351
 20
-258.429
 11
156.644
 21
-258.587
  0
LINE
  8
0
 10
156.644
 20
-258.587
 11
156.902
 21
-258.798
  0
LINE
  8
0
 10
156.902
 20
-258.798
 11
157.113
 21
-259.056
  0
LINE
  8
0
 10
157.113
 20
-259.056
 11
157.271
 21
-259.349
  0
LINE
  8
0
 10
157.271
 20
-259.349
 11
157.367
 21
-259.668
  0
LINE
  8
0
 10
157.367
 20
-259.668
 11
157.4
 21
-260
  0
LINE
  8
0
 10
157.4
 20
-260
 11
184
 21
-260
  0
LINE
  8
0
 10
184
 20
-260
 11
184
 21
-197.686
  0
LINE
  8
0
 10
184
 20
-197.686
 11
183.668
 21
-197.653
  0
LINE
  8
0
 10
183.668
 20
-197.653
 11
183.349
 21
-197.556
  0
LINE
  8
0
 10
183.349
 20
-197.556
 11
183.056
 21
-197.399
  0
LINE
  8
0
 10
183.056
 20
-197.399
 11
182.798
 21
-197.188
  0
LINE
  8
0
 10
182.798
 20
-197.188
 11
182.586
 21
-196.93
  0
LINE
  8
0
 10
182.586
 20
-196.93
 11
182.429
 21
-196.636
  0
LINE
  8
0
 10
182.429
 20
-196.636
 11
182.333
 21
-196.317
  0
LINE
  8
0
 10
182.333
 20
-196.317
 11
182.3
 21
-195.986
  0
LINE
  8
0
 10
182.3
 20
-195.986
 11
182.333
 21
-195.654
  0
LINE
  8
0
 10
182.333
 20
-195.654
 11
182.429
 21
-195.335
  0
LINE
  8
0
 10
182.429
 20
-195.335
 11
182.586
 21
-195.041
  0
LINE
  8
0
 10
182.586
 20
-195.041
 11
182.798
 21
-194.784
  0
LINE
  8
0
 10
182.798
 20
-194.784
 11
183.056
 21
-194.572
  0
LINE
  8
0
 10
183.056
 20
-194.572
 11
183.349
 21
-194.415
  0
LINE
  8
0
 10
183.349
 20
-194.415
 11
183.668
 21
-194.318
  0
LINE
  8
0
 10
183.668
 20
-194.318
 11
184
 21
-194.286
  0
LINE
  8
0
 10
184
 20
-194.286
 11
196
 21
-194.286
  0
LINE
  8
0
 10
196
 20
-194.286
 11
196
 21
-116.571
  0
LINE
  8
0
 10
196
 20
-116.571
 11
184
 21
-116.571
  0
LINE
  8
0
 10
184
 20
-116.571
 11
183.668
 21
-116.539
  0
LINE
  8
0
 10
183.668
 20
-116.539
 11
183.349
 21
-116.442
  0
LINE
  8
0
 10
183.349
 20
-116.442
 11
183.056
 21
-116.285
  0
LINE
  8
0
 10
183.056
 20
-116.285
 11
182.798
 21
-116.074
  0
LINE
  8
0
 10
182.798
 20
-116.074
 11
182.586
 21
-115.816
  0
LINE
  8
0
 10
182.586
 20
-115.816
 11
182.429
 21
-115.522
  0
LINE
  8
0
 10
182.429
 20
-115.522
 11
182.333
 21
-115.203
  0
LINE
  8
0
 10
182.333
 20
-115.203
 11
182.3
 21
-114.871
  0
LINE
  8
0
 10
182.3
 20
-114.871
 11
182.333
 21
-114.54
  0
LINE
  8
0
 10
182.333
 20
-114.54
 11
182.429
 21
-114.221
  0
LINE
  8
0
 10
182.429
 20
-114.221
 11
182.586
 21
-113.927
  0
LINE
  8
0
 10
182.586
 20
-113.927
 11
182.798
 21
-113.669
  0
LINE
  8
0
 10
182.798
 20
-113.669
 11
183.056
 21
-113.458
  0
LINE
  8
0
 10
183.056
 20
-113.458
 11
183.349
 21
-113.301
  0
LINE
  8
0
 10
183.349
 20
-113.301
 11
183.668
 21
-113.204
  0
LINE
  8
0
 10
183.668
 20
-113.204
 11
184
 21
-113.171
  0
LINE
  8
0
 10
184
 20
-113.171
 11
184
 21
-42.2572
  0
LINE
  8
0
 10
184
 20
-42.2572
 11
183.668
 21
-42.2245
  0
LINE
  8
0
 10
183.668
 20
-42.2245
 11
183.349
 21
-42.1277
  0
LINE
  8
0
 10
183.349
 20
-42.1277
 11
183.056
 21
-41.9706
  0
LINE
  8
0
 10
183.056
 20
-41.9706
 11
182.798
 21
-41.7592
  0
LINE
  8
0
 10
182.798
 20
-41.7592
 11
182.587
 21
-41.5016
  0
LINE
  8
0
 10
182.587
 20
-41.5016
 11
182.429
 21
-41.2077
  0
LINE
  8
0
 10
182.429
 20
-41.2077
 11
182.333
 21
-40.8888
  0
LINE
  8
0
 10
182.333
 20
-40.8888
 11
182.3
 21
-40.5571
  0
LINE
  8
0
 10
182.3
 20
-40.5571
 11
182.333
 21
-40.2255
  0
LINE
  8
0
 10
182.333
 20
-40.2255
 11
182.429
 21
-39.9066
  0
LINE
  8
0
 10
182.429
 20
-39.9066
 11
182.587
 21
-39.6127
  0
LINE
  8
0
 10
182.587
 20
-39.6127
 11
182.798
 21
-39.3551
  0
LINE
  8
0
 10
182.798
 20
-39.3551
 11
183.056
 21
-39.1436
  0
LINE
  8
0
 10
183.056
 20
-39.1436
 11
183.349
 21
-38.9866
  0
LINE
  8
0
 10
183.349
 20
-38.9866
 11
183.668
 21
-38.8898
  0
LINE
  8
0
 10
183.668
 20
-38.8898
 11
184
 21
-38.8571
  0
LINE
  8
0
 10
184
 20
-38.8571
 11
196
 21
-38.8571
  0
LINE
  8
0
 10
196
 20
-38.8571
 11
196
 21
38.8571
  0
LINE
  8
0
 10
196
 20
38.8571
 11
184
 21
38.8571
  0
LINE
  8
0
 10
184
 20
38.8571
 11
183.668
 21
38.8898
  0
LINE
  8
0
 10
183.668
 20
38.8898
 11
183.349
 21
38.9865
  0
LINE
  8
0
 10
183.349
 20
38.9865
 11
183.056
 21
39.1436
  0
LINE
  8
0
 10
183.056
 20
39.1436
 11
182.798
 21
39.3551
  0
LINE
  8
0
 10
182.798
 20
39.3551
 11
182.587
 21
39.6127
  0
LINE
  8
0
 10
182.587
 20
39.6127
 11
182.429
 21
39.9066
  0
LINE
  8
0
 10
182.429
 20
39.9066
 11
182.333
 21
40.2255
  0
LINE
  8
0
 10
182.333
 20
40.2255
 11
182.3
 21
40.5571
  0
LINE
  8
0
 10
182.3
 20
40.5571
 11
182.333
 21
40.8888
  0
LINE
  8
0
 10
182.333
 20
40.8888
 11
182.429
 21
41.2077
  0
LINE
  8
0
 10
182.429
 20
41.2077
 11
182.587
 21
41.5016
  0
LINE
  8
0
 10
182.587
 20
41.5016
 11
182.798
 21
41.7592
  0
LINE
  8
0
 10
182.798
 20
41.7592
 11
183.056
 21
41.9706
  0
LINE
  8
0
 10
183.056
 20
41.9706
 11
183.349
 21
42.1277
  0
LINE
  8
0
 10
183.349
 20
42.1277
 11
183.668
 21
42.2245
  0
LINE
  8
0
 10
183.668
 20
42.2245
 11
184
 21
42.2571
  0
LINE
  8
0
 10
184
 20
42.2571
 11
184
 21
113.171
  0
LINE
  8
0
 10
184
 20
113.171
 11
183.668
 21
113.204
  0
LINE
  8
0
 10
183.668
 20
113.204
 11
183.349
 21
113.301
  0
LINE
  8
0
 10
183.349
 20
113.301
 11
183.056
 21
113.458
  0
LINE
  8
0
 10
183.056
 20
113.458
 11
182.798
 21
113.669
  0
LINE
  8
0
 10
182.798
 20
113.669
 11
182.587
 21
113.927
  0
LINE
  8
0
 10
182.587
 20
113.927
 11
182.429
 21
114.221
  0
LINE
  8
0
 10
182.429
 20
114.221
 11
182.333
 21
114.54
  0
LINE
  8
0
 10
182.333
 20
114.54
 11
182.3
 21
114.871
  0
LINE
  8
0
 10
182.3
 20
114.871
 11
182.333
 21
115.203
  0
LINE
  8
0
 10
182.333
 20
115.203
 11
182.429
 21
115.522
  0
LINE
  8
0
 10
182.429
 20
115.522
 11
182.587
 21
115.816
  0
LINE
  8
0
 10
182.587
 20
115.816
 11
182.798
 21
116.074
  0
LINE
  8
0
 10
182.798
 20
116.074
 11
183.056
 21
116.285
  0
LINE
  8
0
 10
183.056
 20
116.285
 11
183.349
 21
116.442
  0
LINE
  8
0
 10
183.349
 20
116.442
 11
183.668
 21
116.539
  0
LINE
  8
0
 10
183.668
 20
116.539
 11
184
 21
116.571
  0
LINE
  8
0
 10
184
 20
116.571
 11
196
 21
116.571
  0
LINE
  8
0
 10
196
 20
116.571
 11
196
 21
194.286
  0
LINE
  8
0
 10
196
 20
194.286
 11
184
 21
194.286
  0
LINE
  8
0
 10
184
 20
194.286
 11
183.668
 21
194.318
  0
LINE
  8
0
 10
183.668
 20
194.318
 11
183.349
 21
194.415
  0
LINE
  8
0
 10
183.349
 20
194.415
 11
183.056
 21
194.572
  0
LINE
  8
0
 10
183.056
 20
194.572
 11
182.798
 21
194.784
  0
LINE
  8
0
 10
182.798
 20
194.784
 11
182.587
 21
195.041
  0
LINE
  8
0
 10
182.587
 20
195.041
 11
182.429
 21
195.335
  0
LINE
  8
0
 10
182.429
 20
195.335
 11
182.333
 21
195.654
  0
LINE
  8
0
 10
182.333
 20
195.654
 11
182.3
 21
195.986
  0
LINE
  8
0
 10
182.3
 20
195.986
 11
182.333
 21
196.317
  0
LINE
  8
0
 10
182.333
 20
196.317
 11
182.429
 21
196.636
  0
LINE
  8
0
 10
182.429
 20
196.636
 11
182.587
 21
196.93
  0
LINE
  8
0
 10
182.587
 20
196.93
 11
182.798
 21
197.188
  0
LINE
  8
0
 10
182.798
 20
197.188
 11
183.056
 21
197.399
  0
LINE
  8
0
 10
183.056
 20
197.399
 11
183.349
 21
197.556
  0
LINE
  8
0
 10
183.349
 20
197.556
 11
183.668
 21
197.653
  0
LINE
  8
0
 10
183.668
 20
197.653
 11
184
 21
197.686
  0
LINE
  8
0
 10
184
 20
197.686
 11
184
 21
260
  0
LINE
  8
0
 10
184
 20
260
 11
157.4
 21
260
  0
LINE
  8
0
 10
157.4
 20
260
 11
157.367
 21
259.668
  0
LINE
  8
0
 10
157.367
 20
259.668
 11
157.271
 21
259.349
  0
LINE
  8
0
 10
157.271
 20
259.349
 11
157.114
 21
259.056
  0
LINE
  8
0
 10
157.114
 20
259.056
 11
156.902
 21
258.798
  0
LINE
  8
0
 10
156.902
 20
258.798
 11
156.644
 21
258.587
  0
LINE
  8
0
 10
156.644
 20
258.587
 11
156.351
 21
258.429
  0
LINE
  8
0
 10
156.351
 20
258.429
 11
156.032
 21
258.333
  0
LINE
  8
0
 10
156.032
 20
258.333
 11
155.7
 21
258.3
  0
LINE
  8
0
 10
155.7
 20
258.3
 11
155.368
 21
258.333
  0
LINE
  8
0
 10
155.368
 20
258.333
 11
155.049
 21
258.429
  0
LINE
  8
0
 10
155.049
 20
258.429
 11
154.756
 21
258.587
  0
LINE
  8
0
 10
154.756
 20
258.587
 11
154.498
 21
258.798
  0
LINE
  8
0
 10
154.498
 20
258.798
 11
154.287
 21
259.056
  0
LINE
  8
0
 10
154.287
 20
259.056
 11
154.129
 21
259.349
  0
LINE
  8
0
 10
154.129
 20
259.349
 11
154.033
 21
259.668
  0
LINE
  8
0
 10
154.033
 20
259.668
 11
154
 21
260
  0
LINE
  8
0
 10
154
 20
260
 11
154
 21
272
  0
LINE
  8
0
 10
154
 20
272
 11
122.018
 21
272
  0
LINE
  8
0
 10
122.018
 20
272
 11
122.018
 21
260
  0
LINE
  8
0
 10
122.018
 20
260
 11
121.985
 21
259.668
  0
LINE
  8
0
 10
121.985
 20
259.668
 11
121.888
 21
259.349
  0
LINE
  8
0
 10
121.888
 20
259.349
 11
121.731
 21
259.056
  0
LINE
  8
0
 10
121.731
 20
259.056
 11
121.52
 21
258.798
  0
LINE
  8
0
 10
121.52
 20
258.798
 11
121.262
 21
258.587
  0
LINE
  8
0
 10
121.262
 20
258.587
 11
120.968
 21
258.429
  0
LINE
  8
0
 10
120.968
 20
258.429
 11
120.65
 21
258.333
  0
LINE
  8
0
 10
120.65
 20
258.333
 11
120.318
 21
258.3
  0
LINE
  8
0
 10
120.318
 20
258.3
 11
119.986
 21
258.333
  0
LINE
  8
0
 10
119.986
 20
258.333
 11
119.667
 21
258.429
  0
LINE
  8
0
 10
119.667
 20
258.429
 11
119.373
 21
258.587
  0
LINE
  8
0
 10
119.373
 20
258.587
 11
119.116
 21
258.798
  0
LINE
  8
0
 10
119.116
 20
258.798
 11
118.904
 21
259.056
  0
LINE
  8
0
 10
118.904
 20
259.056
 11
118.747
 21
259.349
  0
LINE
  8
0
 10
118.747
 20
259.349
 11
118.651
 21
259.668
  0
LINE
  8
0
 10
118.651
 20
259.668
 11
118.618
 21
260
  0
LINE
  8
0
 10
118.618
 20
260
 11
92.0179
 21
260
  0
LINE
  8
0
 10
92.0179
 20
260
 11
92.0179
 21
197.686
  0
LINE
  8
0
 10
92.0179
 20
197.686
 11
92.3495
 21
197.653
  0
LINE
  8
0
 10
92.3495
 20
197.653
 11
92.6684
 21
197.556
  0
LINE
  8
0
 10
92.6684
 20
197.556
 11
92.9623
 21
197.399
  0
LINE
  8
0
 10
92.9623
 20
197.399
 11
93.2199
 21
197.188
  0
LINE
  8
0
 10
93.2199
 20
197.188
 11
93.4314
 21
196.93
  0
LINE
  8
0
 10
93.4314
 20
196.93
 11
93.5885
 21
196.636
  0
LINE
  8
0
 10
93.5885
 20
196.636
 11
93.6852
 21
196.317
  0
LINE
  8
0
 10
93.6852
 20
196.317
 11
93.7179
 21
195.986
  0
LINE
  8
0
 10
93.7179
 20
195.986
 11
93.6852
 21
195.654
  0
LINE
  8
0
 10
93.6852
 20
195.654
 11
93.5885
 21
195.335
  0
LINE
  8
0
 10
93.5885
 20
195.335
 11
93.4314
 21
195.041
  0
LINE
  8
0
 10
93.4314
 20
195.041
 11
93.2199
 21
194.784
  0
LINE
  8
0
 10
93.2199
 20
194.784
 11
92.9623
 21
194.572
  0
LINE
  8
0
 10
92.9623
 20
194.572
 11
92.6684
 21
194.415
  0
LINE
  8
0
 10
92.6684
 20
194.415
 11
92.3495
 21
194.318
  0
LINE
  8
0
 10
92.3495
 20
194.318
 11
92.0179
 21
194.286
  0
LINE
  8
0
 10
92.0179
 20
194.286
 11
77.0179
 21
194.286
  0
LINE
  8
0
 10
77.0179
 20
194.286
 11
77.0179
 21
116.571
  0
LINE
  8
0
 10
77.0179
 20
116.571
 11
92.0179
 21
116.571
  0
LINE
  8
0
 10
92.0179
 20
116.571
 11
92.3495
 21
116.539
  0
LINE
  8
0
 10
92.3495
 20
116.539
 11
92.6684
 21
116.442
  0
LINE
  8
0
 10
92.6684
 20
116.442
 11
92.9623
 21
116.285
  0
LINE
  8
0
 10
92.9623
 20
116.285
 11
93.2199
 21
116.074
  0
LINE
  8
0
 10
93.2199
 20
116.074
 11
93.4314
 21
115.816
  0
LINE
  8
0
 10
93.4314
 20
115.816
 11
93.5885
 21
115.522
  0
LINE
  8
0
 10
93.5885
 20
115.522
 11
93.6852
 21
115.203
  0
LINE
  8
0
 10
93.6852
 20
115.203
 11
93.7179
 21
114.871
  0
LINE
  8
0
 10
93.7179
 20
114.871
 11
93.6852
 21
114.54
  0
LINE
  8
0
 10
93.6852
 20
114.54
 11
93.5885
 21
114.221
  0
LINE
  8
0
 10
93.5885
 20
114.221
 11
93.4314
 21
113.927
  0
LINE
  8
0
 10
93.4314
 20
113.927
 11
93.2199
 21
113.669
  0
LINE
  8
0
 10
93.2199
 20
113.669
 11
92.9623
 21
113.458
  0
LINE
  8
0
 10
92.9623
 20
113.458
 11
92.6684
 21
113.301
  0
LINE
  8
0
 10
92.6684
 20
113.301
 11
92.3495
 21
113.204
  0
LINE
  8
0
 10
92.3495
 20
113.204
 11
92.0179
 21
113.171
  0
LINE
  8
0
 10
92.0179
 20
113.171
 11
92.0179
 21
42.2571
  0
LINE
  8
0
 10
92.0179
 20
42.2571
 11
92.3495
 21
42.2245
  0
LINE
  8
0
 10
92.3495
 20
42.2245
 11
92.6684
 21
42.1277
  0
LINE
  8
0
 10
92.6684
 20
42.1277
 11
92.9623
 21
41.9706
  0
LINE
  8
0
 10
92.9623
 20
41.9706
 11
93.2199
 21
41.7592
  0
LINE
  8
0
 10
93.2199
 20
41.7592
 11
93.4314
 21
41.5016
  0
LINE
  8
0
 10
93.4314
 20
41.5016
 11
93.5885
 21
41.2077
  0
LINE
  8
0
 10
93.5885
 20
41.2077
 11
93.6852
 21
40.8888
  0
LINE
  8
0
 10
93.6852
 20
40.8888
 11
93.7179
 21
40.5571
  0
LINE
  8
0
 10
93.7179
 20
40.5571
 11
93.6852
 21
40.2255
  0
LINE
  8
0
 10
93.6852
 20
40.2255
 11
93.5885
 21
39.9066
  0
LINE
  8
0
 10
93.5885
 20
39.9066
 11
93.4314
 21
39.6127
  0
LINE
  8
0
 10
93.4314
 20
39.6127
 11
93.2199
 21
39.3551
  0
LINE
  8
0
 10
93.2199
 20
39.3551
 11
92.9623
 21
39.1436
  0
LINE
  8
0
 10
92.9623
 20
39.1436
 11
92.6684
 21
38.9865
  0
LINE
  8
0
 10
92.6684
 20
38.9865
 11
92.3495
 21
38.8898
  0
LINE
  8
0
 10
92.3495
 20
38.8898
 11
92.0179
 21
38.8571
  0
LINE
  8
0
 10
92.0179
 20
38.8571
 11
77.0179
 21
38.8571
  0
LINE
  8
0
 10
77.0179
 20
38.8571
 11
77.0179
 21
-38.8571
  0
LINE
  8
0
 10
77.0179
 20
-38.8571
 11
92.0179
 21
-38.8571
  0
LINE
  8
0
 10
92.0179
 20
-38.8571
 11
92.3495
 21
-38.8898
  0
LINE
  8
0
 10
92.3495
 20
-38.8898
 11
92.6684
 21
-38.9865
  0
LINE
  8
0
 10
92.6684
 20
-38.9865
 11
92.9623
 21
-39.1436
  0
LINE
  8
0
 10
92.9623
 20
-39.1436
 11
93.2199
 21
-39.3551
  0
LINE
  8
0
 10
93.2199
 20
-39.3551
 11
93.4314
 21
-39.6127
  0
LINE
  8
0
 10
93.4314
 20
-39.6127
 11
93.5884
 21
-39.9066
  0
LINE
  8
0
 10
93.5884
 20
-39.9066
 11
93.6852
 21
-40.2255
  0
LINE
  8
0
 10
93.6852
 20
-40.2255
 11
93.7178
 21
-40.5571
  0
LINE
  8
0
 10
93.7178
 20
-40.5571
 11
93.6852
 21
-40.8888
  0
LINE
  8
0
 10
93.6852
 20
-40.8888
 11
93.5884
 21
-41.2077
  0
LINE
  8
0
 10
93.5884
 20
-41.2077
 11
93.4314
 21
-41.5016
  0
LINE
  8
0
 10
93.4314
 20
-41.5016
 11
93.2199
 21
-41.7592
  0
LINE
  8
0
 10
93.2199
 20
-41.7592
 11
92.9623
 21
-41.9706
  0
LINE
  8
0
 10
92.9623
 20
-41.9706
 11
92.6684
 21
-42.1277
  0
LINE
  8
0
 10
92.6684
 20
-42.1277
 11
92.3495
 21
-42.2245
  0
LINE
  8
0
 10
92.3495
 20
-42.2245
 11
92.0179
 21
-42.2571
  0
LINE
  8
0
 10
92.0179
 20
-42.2571
 11
92.0179
 21
-113.171
  0
LINE
  8
0
 10
92.0179
 20
-113.171
 11
92.3495
 21
-113.204
  0
LINE
  8
0
 10
92.3495
 20
-113.204
 11
92.6684
 21
-113.301
  0
LINE
  8
0
 10
92.6684
 20
-113.301
 11
92.9623
 21
-113.458
  0
LINE
  8
0
 10
92.9623
 20
-113.458
 11
93.2199
 21
-113.669
  0
LINE
  8
0
 10
93.2199
 20
-113.669
 11
93.4314
 21
-113.927
  0
LINE
  8
0
 10
93.4314
 20
-113.927
 11
93.5884
 21
-114.221
  0
LINE
  8
0
 10
93.5884
 20
-114.221
 11
93.6852
 21
-114.54
  0
LINE
  8
0
 10
93.6852
 20
-114.54
 11
93.7178
 21
-114.871
  0
LINE
  8
0
 10
93.7178
 20
-114.871
 11
93.6852
 21
-115.203
  0
LINE
  8
0
 10
93.6852
 20
-115.203
 11
93.5884
 21
-115.522
  0
LINE
  8
0
 10
93.5884
 20
-115.522
 11
93.4314
 21
-115.816
  0
LINE
  8
0
 10
93.4314
 20
-115.816
 11
93.2199
 21
-116.074
  0
LINE
  8
0
 10
93.2199
 20
-116.074
 11
92.9623
 21
-116.285
  0
LINE
  8
0
 10
92.9623
 20
-116.285
 11
92.6684
 21
-116.442
  0
LINE
  8
0
 10
92.6684
 20
-116.442
 11
92.3495
 21
-116.539
  0
LINE
  8
0
 10
92.3495
 20
-116.539
 11
92.0179
 21
-116.571
  0
LINE
  8
0
 10
92.0179
 20
-116.571
 11
77.0179
 21
-116.571
  0
LINE
  8
0
 10
77.0179
 20
-116.571
 11
77.0179
 21
-194.286
  0
LINE
  8
0
 10
77.0179
 20
-194.286
 11
92.0179
 21
-194.286
  0
LINE
  8
0
 10
92.0179
 20
-194.286
 11
92.3495
 21
-194.318
  0
LINE
  8
0
 10
92.3495
 20
-194.318
 11
92.6684
 21
-194.415
  0
LINE
  8
0
 10
92.6684
 20
-194.415
 11
92.9623
 21
-194.572
  0
LINE
  8
0
 10
92.9623
 20
-194.572
 11
93.2199
 21
-194.784
  0
LINE
  8
0
 10
93.2199
 20
-194.784
 11
93.4314
 21
-195.041
  0
LINE
  8
0
 10
93.4314
 20
-195.041
 11
93.5884
 21
-195.335
  0
LINE
  8
0
 10
93.5884
 20
-195.335
 11
93.6852
 21
-195.654
  0
LINE
  8
0
 10
93.6852
 20
-195.654
 11
93.7178
 21
-195.986
  0
LINE
  8
0
 10
93.7178
 20
-195.986
 11
93.6852
 21
-196.317
  0
LINE
  8
0
 10
93.6852
 20
-196.317
 11
93.5884
 21
-196.636
  0
LINE
  8
0
 10
93.5884
 20
-196.636
 11
93.4314
 21
-196.93
  0
LINE
  8
0
 10
93.4314
 20
-196.93
 11
93.2199
 21
-197.188
  0
LINE
  8
0
 10
93.2199
 20
-197.188
 11
92.9623
 21
-197.399
  0
LINE
  8
0
 10
92.9623
 20
-197.399
 11
92.6684
 21
-197.556
  0
LINE
  8
0
 10
92.6684
 20
-197.556
 11
92.3495
 21
-197.653
  0
LINE
  8
0
 10
92.3495
 20
-197.653
 11
92.0179
 21
-197.686
  0
LINE
  8
0
 10
92.0179
 20
-197.686
 11
92.0179
 21
-260
  0
LINE
  8
0
 10
92.0179
 20
-260
 11
118.618
 21
-260
  0
LINE
  8
0
 10
118.618
 20
-260
 11
118.651
 21
-259.668
  0
LINE
  8
0
 10
118.651
 20
-259.668
 11
118.747
 21
-259.349
  0
LINE
  8
0
 10
118.747
 20
-259.349
 11
118.904
 21
-259.056
  0
LINE
  8
0
 10
118.904
 20
-259.056
 11
119.116
 21
-258.798
  0
LINE
  8
0
 10
119.116
 20
-258.798
 11
119.373
 21
-258.587
  0
LINE
  8
0
 10
119.373
 20
-258.587
 11
119.667
 21
-258.429
  0
LINE
  8
0
 10
119.667
 20
-258.429
 11
119.986
 21
-258.333
  0
LINE
  8
0
 10
119.986
 20
-258.333
 11
120.318
 21
-258.3
  0
LINE
  8
0
 10
120.318
 20
-258.3
 11
120.65
 21
-258.333
  0
LINE
  8
0
 10
120.65
 20
-258.333
 11
120.968
 21
-258.429
  0
LINE
  8
0
 10
120.968
 20
-258.429
 11
121.262
 21
-258.587
  0
LINE
  8
0
 10
121.262
 20
-258.587
 11
121.52
 21
-258.798
  0
LINE
  8
0
 10
121.52
 20
-258.798
 11
121.731
 21
-259.056
  0
LINE
  8
0
 10
121.731
 20
-259.056
 11
121.888
 21
-259.349
  0
LINE
  8
0
 10
121.888
 20
-259.349
 11
121.985
 21
-259.668
  0
LINE
  8
0
 10
121.985
 20
-259.668
 11
122.018
 21
-260
  0
LINE
  8
0
 10
122.018
 20
-260
 11
122.018
 21
-272
  0
LINE
  8
0
 10
122.018
 20
-272
 11
154
 21
-272
  0
LINE
  8
0
 10
154
 20
-272
 11
154
 21
-260
  0
LINE
  8
0
 10
137.677
 20
264.333
 11
137.358
 21
264.429
  0
LINE
  8
0
 10
137.358
 20
264.429
 11
137.064
 21
264.586
  0
LINE
  8
0
 10
137.064
 20
264.586
 11
136.807
 21
264.798
  0
LINE
  8
0
 10
136.807
 20
264.798
 11
136.595
 21
265.056
  0
LINE
  8
0
 10
136.595
 20
265.056
 11
136.438
 21
265.349
  0
LINE
  8
0
 10
136.438
 20
265.349
 11
136.342
 21
265.668
  0
LINE
  8
0
 10
136.342
 20
265.668
 11
136.309
 21
266
  0
LINE
  8
0
 10
136.309
 20
266
 11
136.342
 21
266.332
  0
LINE
  8
0
 10
136.342
 20
266.332
 11
136.438
 21
266.651
  0
LINE
  8
0
 10
136.438
 20
266.651
 11
136.595
 21
266.944
  0
LINE
  8
0
 10
136.595
 20
266.944
 11
136.807
 21
267.202
  0
LINE
  8
0
 10
136.807
 20
267.202
 11
137.064
 21
267.413
  0
LINE
  8
0
 10
137.064
 20
267.413
 11
137.358
 21
267.571
  0
LINE
  8
0
 10
137.358
 20
267.571
 11
137.677
 21
267.667
  0
LINE
  8
0
 10
137.677
 20
267.667
 11
138.009
 21
267.7
  0
LINE
  8
0
 10
138.009
 20
267.7
 11
138.341
 21
267.667
  0
LINE
  8
0
 10
138.341
 20
267.667
 11
138.66
 21
267.571
  0
LINE
  8
0
 10
138.66
 20
267.571
 11
138.953
 21
267.413
  0
LINE
  8
0
 10
138.953
 20
267.413
 11
139.211
 21
267.202
  0
LINE
  8
0
 10
139.211
 20
267.202
 11
139.422
 21
266.944
  0
LINE
  8
0
 10
139.422
 20
266.944
 11
139.58
 21
266.651
  0
LINE
  8
0
 10
139.58
 20
266.651
 11
139.676
 21
266.332
  0
LINE
  8
0
 10
139.676
 20
266.332
 11
139.709
 21
266
  0
LINE
  8
0
 10
139.709
 20
266
 11
139.676
 21
265.668
  0
LINE
  8
0
 10
139.676
 20
265.668
 11
139.58
 21
265.349
  0
LINE
  8
0
 10
139.58
 20
265.349
 11
139.422
 21
265.056
  0
LINE
  8
0
 10
139.422
 20
265.056
 11
139.211
 21
264.798
  0
LINE
  8
0
 10
139.211
 20
264.798
 11
138.953
 21
264.586
  0
LINE
  8
0
 10
138.953
 20
264.586
 11
138.66
 21
264.429
  0
LINE
  8
0
 10
138.66
 20
264.429
 11
138.341
 21
264.333
  0
LINE
  8
0
 10
138.341
 20
264.333
 11
138.009
 21
264.3
  0
LINE
  8
0
 10
138.009
 20
264.3
 11
137.677
 21
264.333
  0
LINE
  8
0
 10
189.668
 20
153.761
 11
189.349
 21
153.858
  0
LINE
  8
0
 10
189.349
 20
153.858
 11
189.056
 21
154.015
  0
LINE
  8
0
 10
189.056
 20
154.015
 11
188.798
 21
154.226
  0
LINE
  8
0
 10
188.798
 20
154.226
 11
188.586
 21
154.484
  0
LINE
  8
0
 10
188.586
 20
154.484
 11
188.429
 21
154.778
  0
LINE
  8
0
 10
188.429
 20
154.778
 11
188.333
 21
155.097
  0
LINE
  8
0
 10
188.333
 20
155.097
 11
188.3
 21
155.429
  0
LINE
  8
0
 10
188.3
 20
155.429
 11
188.333
 21
155.76
  0
LINE
  8
0
 10
188.333
 20
155.76
 11
188.429
 21
156.079
  0
LINE
  8
0
 10
188.429
 20
156.079
 11
188.586
 21
156.373
  0
LINE
  8
0
 10
188.586
 20
156.373
 11
188.798
 21
156.631
  0
LINE
  8
0
 10
188.798
 20
156.631
 11
189.056
 21
156.842
  0
LINE
  8
0
 10
189.056
 20
156.842
 11
189.349
 21
156.999
  0
LINE
  8
0
 10
189.349
 20
156.999
 11
189.668
 21
157.096
  0
LINE
  8
0
 10
189.668
 20
157.096
 11
190
 21
157.129
  0
LINE
  8
0
 10
190
 20
157.129
 11
190.332
 21
157.096
  0
LINE
  8
0
 10
190.332
 20
157.096
 11
190.651
 21
156.999
  0
LINE
  8
0
 10
190.651
 20
156.999
 11
190.944
 21
156.842
  0
LINE
  8
0
 10
190.944
 20
156.842
 11
191.202
 21
156.631
  0
LINE
  8
0
 10
191.202
 20
156.631
 11
191.413
 21
156.373
  0
LINE
  8
0
 10
191.413
 20
156.373
 11
191.571
 21
156.079
  0
LINE
  8
0
 10
191.571
 20
156.079
 11
191.667
 21
155.76
  0
LINE
  8
0
 10
191.667
 20
155.76
 11
191.7
 21
155.429
  0
LINE
  8
0
 10
191.7
 20
155.429
 11
191.667
 21
155.097
  0
LINE
  8
0
 10
191.667
 20
155.097
 11
191.571
 21
154.778
  0
LINE
  8
0
 10
191.571
 20
154.778
 11
191.413
 21
154.484
  0
LINE
  8
0
 10
191.413
 20
154.484
 11
191.202
 21
154.226
  0
LINE
  8
0
 10
191.202
 20
154.226
 11
190.944
 21
154.015
  0
LINE
  8
0
 10
190.944
 20
154.015
 11
190.651
 21
153.858
  0
LINE
  8
0
 10
190.651
 20
153.858
 11
190.332
 21
153.761
  0
LINE
  8
0
 10
190.332
 20
153.761
 11
190
 21
153.729
  0
LINE
  8
0
 10
190
 20
153.729
 11
189.668
 21
153.761
  0
LINE
  8
0
 10
189.668
 20
-1.66734
 11
189.349
 21
-1.5706
  0
LINE
  8
0
 10
189.349
 20
-1.5706
 11
189.056
 21
-1.41351
  0
LINE
  8
0
 10
189.056
 20
-1.41351
 11
188.798
 21
-1.20209
  0
LINE
  8
0
 10
188.798
 20
-1.20209
 11
188.586
 21
-0.944473
  0
LINE
  8
0
 10
188.586
 20
-0.944473
 11
188.429
 21
-0.650574
  0
LINE
  8
0
 10
188.429
 20
-0.650574
 11
188.333
 21
-0.331665
  0
LINE
  8
0
 10
188.333
 20
-0.331665
 11
188.3
 21
0
  0
LINE
  8
0
 10
188.3
 20
0
 11
188.333
 21
0.331635
  0
LINE
  8
0
 10
188.333
 20
0.331635
 11
188.429
 21
0.650543
  0
LINE
  8
0
 10
188.429
 20
0.650543
 11
188.586
 21
0.944443
  0
LINE
  8
0
 10
188.586
 20
0.944443
 11
188.798
 21
1.20206
  0
LINE
  8
0
 10
188.798
 20
1.20206
 11
189.056
 21
1.41348
  0
LINE
  8
0
 10
189.056
 20
1.41348
 11
189.349
 21
1.57057
  0
LINE
  8
0
 10
189.349
 20
1.57057
 11
189.668
 21
1.66731
  0
LINE
  8
0
 10
189.668
 20
1.66731
 11
190
 21
1.69998
  0
LINE
  8
0
 10
190
 20
1.69998
 11
190.332
 21
1.66731
  0
LINE
  8
0
 10
190.332
 20
1.66731
 11
190.651
 21
1.57057
  0
LINE
  8
0
 10
190.651
 20
1.57057
 11
190.944
 21
1.41348
  0
LINE
  8
0
 10
190.944
 20
1.41348
 11
191.202
 21
1.20206
  0
LINE
  8
0
 10
191.202
 20
1.20206
 11
191.413
 21
0.944443
  0
LINE
  8
0
 10
191.413
 20
0.944443
 11
191.571
 21
0.650543
  0
LINE
  8
0
 10
191.571
 20
0.650543
 11
191.667
 21
0.331635
  0
LINE
  8
0
 10
191.667
 20
0.331635
 11
191.7
 21
0
  0
LINE
  8
0
 10
191.7
 20
0
 11
191.667
 21
-0.331665
  0
LINE
  8
0
 10
191.667
 20
-0.331665
 11
191.571
 21
-0.650574
  0
LINE
  8
0
 10
191.571
 20
-0.650574
 11
191.413
 21
-0.944473
  0
LINE
  8
0
 10
191.413
 20
-0.944473
 11
191.202
 21
-1.20209
  0
LINE
  8
0
 10
191.202
 20
-1.20209
 11
190.944
 21
-1.41351
  0
LINE
  8
0
 10
190.944
 20
-1.41351
 11
190.651
 21
-1.5706
  0
LINE
  8
0
 10
190.651
 20
-1.5706
 11
190.332
 21
-1.66734
  0
LINE
  8
0
 10
190.332
 20
-1.66734
 11
190
 21
-1.70001
  0
LINE
  8
0
 10
190
 20
-1.70001
 11
189.668
 21
-1.66734
  0
LINE
  8
0
 10
189.668
 20
-157.096
 11
189.349
 21
-156.999
  0
LINE
  8
0
 10
189.349
 20
-156.999
 11
189.056
 21
-156.842
  0
LINE
  8
0
 10
189.056
 20
-156.842
 11
188.798
 21
-156.631
  0
LINE
  8
0
 10
188.798
 20
-156.631
 11
188.586
 21
-156.373
  0
LINE
  8
0
 10
188.586
 20
-156.373
 11
188.429
 21
-156.079
  0
LINE
  8
0
 10
188.429
 20
-156.079
 11
188.333
 21
-155.76
  0
LINE
  8
0
 10
188.333
 20
-155.76
 11
188.3
 21
-155.429
  0
LINE
  8
0
 10
188.3
 20
-155.429
 11
188.333
 21
-155.097
  0
LINE
  8
0
 10
188.333
 20
-155.097
 11
188.429
 21
-154.778
  0
LINE
  8
0
 10
188.429
 20
-154.778
 11
188.586
 21
-154.484
  0
LINE
  8
0
 10
188.586
 20
-154.484
 11
188.798
 21
-154.227
  0
LINE
  8
0
 10
188.798
 20
-154.227
 11
189.056
 21
-154.015
  0
LINE
  8
0
 10
189.056
 20
-154.015
 11
189.349
 21
-153.858
  0
LINE
  8
0
 10
189.349
 20
-153.858
 11
189.668
 21
-153.761
  0
LINE
  8
0
 10
189.668
 20
-153.761
 11
190
 21
-153.729
  0
LINE
  8
0
 10
190
 20
-153.729
 11
190.332
 21
-153.761
  0
LINE
  8
0
 10
190.332
 20
-153.761
 11
190.651
 21
-153.858
  0
LINE
  8
0
 10
190.651
 20
-153.858
 11
190.944
 21
-154.015
  0
LINE
  8
0
 10
190.944
 20
-154.015
 11
191.202
 21
-154.227
  0
LINE
  8
0
 10
191.202
 20
-154.227
 11
191.413
 21
-154.484
  0
LINE
  8
0
 10
191.413
 20
-154.484
 11
191.571
 21
-154.778
  0
LINE
  8
0
 10
191.571
 20
-154.778
 11
191.667
 21
-155.097
  0
LINE
  8
0
 10
191.667
 20
-155.097
 11
191.7
 21
-155.429
  0
LINE
  8
0
 10
191.7
 20
-155.429
 11
191.667
 21
-155.76
  0
LINE
  8
0
 10
191.667
 20
-155.76
 11
191.571
 21
-156.079
  0
LINE
  8
0
 10
191.571
 20
-156.079
 11
191.413
 21
-156.373
  0
LINE
  8
0
 10
191.413
 20
-156.373
 11
191.202
 21
-156.631
  0
LINE
  8
0
 10
191.202
 20
-156.631
 11
190.944
 21
-156.842
  0
LINE
  8
0
 10
190.944
 20
-156.842
 11
190.651
 21
-156.999
  0
LINE
  8
0
 10
190.651
 20
-156.999
 11
190.332
 21
-157.096
  0
LINE
  8
0
 10
190.332
 20
-157.096
 11
190
 21
-157.129
  0
LINE
  8
0
 10
190
 20
-157.129
 11
189.668
 21
-157.096
  0
LINE
  8
0
 10
137.677
 20
-267.667
 11
137.358
 21
-267.571
  0
LINE
  8
0
 10
137.358
 20
-267.571
 11
137.064
 21
-267.413
  0
LINE
  8
0
 10
137.064
 20
-267.413
 11
136.807
 21
-267.202
  0
LINE
  8
0
 10
136.807
 20
-267.202
 11
136.595
 21
-266.944
  0
LINE
  8
0
 10
136.595
 20
-266.944
 11
136.438
 21
-266.651
  0
LINE
  8
0
 10
136.438
 20
-266.651
 11
136.342
 21
-266.332
  0
LINE
  8
0
 10
136.342
 20
-266.332
 11
136.309
 21
-266
  0
LINE
  8
0
 10
136.309
 20
-266
 11
136.342
 21
-265.668
  0
LINE
  8
0
 10
136.342
 20
-265.668
 11
136.438
 21
-265.349
  0
LINE
  8
0
 10
136.438
 20
-265.349
 11
136.595
 21
-265.056
  0
LINE
  8
0
 10
136.595
 20
-265.056
 11
136.807
 21
-264.798
  0
LINE
  8
0
 10
136.807
 20
-264.798
 11
137.064
 21
-264.586
  0
LINE
  8
0
 10
137.064
 20
-264.586
 11
137.358
 21
-264.429
  0
LINE
  8
0
 10
137.358
 20
-264.429
 11
137.677
 21
-264.333
  0
LINE
  8
0
 10
137.677
 20
-264.333
 11
138.009
 21
-264.3
  0
LINE
  8
0
 10
138.009
 20
-264.3
 11
138.341
 21
-264.333
  0
LINE
  8
0
 10
138.341
 20
-264.333
 11
138.659
 21
-264.429
  0
LINE
  8
0
 10
138.659
 20
-264.429
 11
138.953
 21
-264.586
  0
LINE
  8
0
 10
138.953
 20
-264.586
 11
139.211
 21
-264.798
  0
LINE
  8
0
 10
139.211
 20
-264.798
 11
139.422
 21
-265.056
  0
LINE
  8
0
 10
139.422
 20
-265.056
 11
139.58
 21
-265.349
  0
LINE
  8
0
 10
139.58
 20
-265.349
 11
139.676
 21
-265.668
  0
LINE
  8
0
 10
139.676
 20
-265.668
 11
139.709
 21
-266
  0
LINE
  8
0
 10
139.709
 20
-266
 11
139.676
 21
-266.332
  0
LINE
  8
0
 10
139.676
 20
-266.332
 11
139.58
 21
-266.651
  0
LINE
  8
0
 10
139.58
 20
-266.651
 11
139.422
 21
-266.944
  0
LINE
  8
0
 10
139.422
 20
-266.944
 11
139.211
 21
-267.202
  0
LINE
  8
0
 10
139.211
 20
-267.202
 11
138.953
 21
-267.413
  0
LINE
  8
0
 10
138.953
 20
-267.413
 11
138.659
 21
-267.571
  0
LINE
  8
0
 10
138.659
 20
-267.571
 11
138.341
 21
-267.667
  0
LINE
  8
0
 10
138.341
 20
-267.667
 11
138.009
 21
-267.7
  0
LINE
  8
0
 10
138.009
 20
-267.7
 11
137.677
 21
-267.667
  0
ENDSEC
  0
SECTION
  2
OBJECTS
  0
DICTIONARY
  0
ENDSEC
  0
EOF
