<?xml version="1.0" encoding="UTF-8" standalone="no"?>
<svg
   xmlns:dc="http://purl.org/dc/elements/1.1/"
   xmlns:cc="http://creativecommons.org/ns#"
   xmlns:rdf="http://www.w3.org/1999/02/22-rdf-syntax-ns#"
   xmlns:svg="http://www.w3.org/2000/svg"
   xmlns="http://www.w3.org/2000/svg"
   viewBox="0 0 71.25 40"
   height="40"
   width="71.25"
   xml:space="preserve"
   version="1.1"
   id="svg2"><metadata
     id="metadata8"><rdf:RDF><cc:Work
         rdf:about=""><dc:format>image/svg+xml</dc:format><dc:type
           rdf:resource="http://purl.org/dc/dcmitype/StillImage" /><dc:title></dc:title></cc:Work></rdf:RDF></metadata><defs
     id="defs6"><clipPath
       id="clipPath16"
       clipPathUnits="userSpaceOnUse"><path
         id="path18"
         d="M 0,32 57,32 57,0 0,0 0,32 Z" /></clipPath><clipPath
       id="clipPath28"
       clipPathUnits="userSpaceOnUse"><path
         id="path30"
         d="m 27.4926,22.0253 27.5824,0 0,-9.1228 -27.5824,0 0,9.1228 z" /></clipPath></defs><g
     transform="matrix(1.25,0,0,-1.25,0,40)"
     id="g10"><g
       id="g12"><g
         clip-path="url(#clipPath16)"
         id="g14"><g
           transform="translate(55.0752,19.6126)"
           id="g20"><path
             id="path22"
             style="fill:#d29c33;fill-opacity:1;fill-rule:nonzero;stroke:none"
             d="m 0,0 c 0,2.362 -6.131,2.128 -15.052,2.06 -3.622,-0.029 -7.705,0.352 -12.023,0.352 -4.177,0 -8.134,-0.386 -11.667,-0.355 C -47.855,2.134 -54.15,2.394 -54.15,0 c 0,-1.288 1.746,-4.471 4.755,-5.558 4.752,-1.717 12.657,-1.048 21.812,-1.048 9.346,0 17.784,-0.618 22.798,1.156 C -1.776,-4.387 0,-1.246 0,0" /></g><g
           id="g24"><g
             id="g26" /><g
             id="g32"><g
               style="opacity:0.25"
               id="g34"
               clip-path="url(#clipPath28)"><g
                 id="g36"
                 transform="translate(55.0752,19.6126)"><path
                   id="path38"
                   style="fill:#b07f29;fill-opacity:1;fill-rule:nonzero;stroke:none"
                   d="m 0,0 c 0,2.362 -6.131,2.128 -15.052,2.06 -3.622,-0.029 -8.179,0.353 -12.498,0.353 l -0.033,-9.019 c 9.346,0 17.784,-0.618 22.798,1.156 C -1.776,-4.387 0,-1.246 0,0" /></g></g></g></g><g
           transform="translate(1.1665,20.0999)"
           id="g40"><path
             id="path42"
             style="fill:#fcf695;fill-opacity:1;fill-rule:nonzero;stroke:none"
             d="M 0,0 C 0,2.085 12.014,3.774 26.833,3.774 41.653,3.774 53.667,2.085 53.667,0 53.667,-2.085 41.653,-3.775 26.833,-3.775 12.014,-3.775 0,-2.085 0,0" /></g></g></g></g></svg>