<?xml version="1.0" encoding="UTF-8" standalone="no"?>
<svg
   xmlns:dc="http://purl.org/dc/elements/1.1/"
   xmlns:cc="http://creativecommons.org/ns#"
   xmlns:rdf="http://www.w3.org/1999/02/22-rdf-syntax-ns#"
   xmlns:svg="http://www.w3.org/2000/svg"
   xmlns="http://www.w3.org/2000/svg"
   viewBox="0 0 71.25 40"
   height="40"
   width="71.25"
   xml:space="preserve"
   version="1.1"
   id="svg2"><metadata
     id="metadata8"><rdf:RDF><cc:Work
         rdf:about=""><dc:format>image/svg+xml</dc:format><dc:type
           rdf:resource="http://purl.org/dc/dcmitype/StillImage" /><dc:title></dc:title></cc:Work></rdf:RDF></metadata><defs
     id="defs6"><clipPath
       id="clipPath16"
       clipPathUnits="userSpaceOnUse"><path
         id="path18"
         d="M 0,32 57,32 57,0 0,0 0,32 Z" /></clipPath><clipPath
       id="clipPath28"
       clipPathUnits="userSpaceOnUse"><path
         id="path30"
         d="m 27.9997,21.125 28.1878,0 0,-9.5927 -28.1878,0 0,9.5927 z" /></clipPath><clipPath
       id="clipPath44"
       clipPathUnits="userSpaceOnUse"><path
         id="path46"
         d="m 23.3168,20.3286 7.3325,0 0,-0.722 -7.3325,0 0,0.722 z" /></clipPath><clipPath
       id="clipPath60"
       clipPathUnits="userSpaceOnUse"><path
         id="path62"
         d="m 8.47426,20.1271 13.28054,0 0,-1.4555 -13.28054,0 0,1.4555 z" /></clipPath></defs><g
     transform="matrix(1.25,0,0,-1.25,0,40)"
     id="g10"><g
       id="g12"><g
         clip-path="url(#clipPath16)"
         id="g14"><g
           transform="translate(55.6924,16.0898)"
           id="g20"><path
             id="path22"
             style="fill:#f9bb0b;fill-opacity:1;fill-rule:nonzero;stroke:none"
             d="m 0,0 c 0.879,0.965 0.563,2.179 -0.702,2.775 -3.132,1.476 -8.416,2.324 -16.825,2.256 l -18.292,0 c -9.492,-0.693 -16.324,-1.513 -18.655,-4.478 -0.366,-0.466 -0.488,-1.008 -0.344,-1.531 0.149,-0.542 1.334,-1.304 1.489,-1.182 3.407,2.662 7.301,2.32 12.86,0.437 2.018,-0.683 6.974,-2.292 8.874,-3.073 0.928,-0.382 2.056,-0.402 3.02,-0.068 9.844,3.413 16.637,5.668 24.558,3.613 1.288,-0.334 2.97,0.103 3.71,0.915 L 0,0 Z" /></g><g
           id="g24"><g
             id="g26" /><g
             id="g32"><g
               style="opacity:0.25"
               id="g34"
               clip-path="url(#clipPath28)"><g
                 id="g36"
                 transform="translate(55.6895,16.0898)"><path
                   id="path38"
                   style="fill:#e5a012;fill-opacity:1;fill-rule:nonzero;stroke:none"
                   d="m 0,0 c 0.879,0.965 0.563,2.179 -0.702,2.775 -3.132,1.476 -8.415,2.324 -16.825,2.256 l -10.162,0 -0.001,-9.589 c 9.371,3.24 15.991,5.299 23.673,3.307 1.288,-0.334 2.97,0.103 3.71,0.915 L 0,0 Z" /></g></g></g></g><g
           id="g40"><g
             id="g42" /><g
             id="g48"><g
               style="opacity:0.52999902"
               id="g50"
               clip-path="url(#clipPath44)"><g
                 id="g52"
                 transform="translate(23.3169,19.9678)"><path
                   id="path54"
                   style="fill:#fcf695;fill-opacity:1;fill-rule:nonzero;stroke:none"
                   d="m 0,0 c 0,-0.199 1.641,-0.361 3.666,-0.361 2.025,0 3.667,0.162 3.667,0.361 0,0.199 -1.642,0.36 -3.667,0.36 C 1.641,0.36 0,0.199 0,0" /></g></g></g></g><g
           id="g56"><g
             id="g58" /><g
             id="g64"><g
               style="opacity:0.52999902"
               id="g66"
               clip-path="url(#clipPath60)"><g
                 id="g68"
                 transform="translate(8.4746,18.8799)"><path
                   id="path70"
                   style="fill:#fcf695;fill-opacity:1;fill-rule:nonzero;stroke:none"
                   d="M 0,0 C 0.045,-0.281 3.054,-0.277 6.721,0.01 10.388,0.297 13.324,0.758 13.28,1.039 13.235,1.32 10.226,1.315 6.559,1.029 2.892,0.742 -0.044,0.281 0,0" /></g></g></g></g></g></g></g></svg>