<?xml version="1.0" encoding="UTF-8" standalone="no"?>
<svg
   xmlns:dc="http://purl.org/dc/elements/1.1/"
   xmlns:cc="http://creativecommons.org/ns#"
   xmlns:rdf="http://www.w3.org/1999/02/22-rdf-syntax-ns#"
   xmlns:svg="http://www.w3.org/2000/svg"
   xmlns="http://www.w3.org/2000/svg"
   viewBox="0 0 71.25 40"
   height="40"
   width="71.25"
   xml:space="preserve"
   version="1.1"
   id="svg2"><metadata
     id="metadata8"><rdf:RDF><cc:Work
         rdf:about=""><dc:format>image/svg+xml</dc:format><dc:type
           rdf:resource="http://purl.org/dc/dcmitype/StillImage" /><dc:title></dc:title></cc:Work></rdf:RDF></metadata><defs
     id="defs6"><clipPath
       id="clipPath16"
       clipPathUnits="userSpaceOnUse"><path
         id="path18"
         d="M 0,32 57,32 57,0 0,0 0,32 Z" /></clipPath><clipPath
       id="clipPath28"
       clipPathUnits="userSpaceOnUse"><path
         id="path30"
         d="m 27.9997,21.4219 28.1878,0 0,-13.65988 -28.1878,0 0,13.65988 z" /></clipPath><clipPath
       id="clipPath44"
       clipPathUnits="userSpaceOnUse"><path
         id="path46"
         d="m 23.3168,20.2878 7.3325,0 0,-1.0281 -7.3325,0 0,1.0281 z" /></clipPath><clipPath
       id="clipPath60"
       clipPathUnits="userSpaceOnUse"><path
         id="path62"
         d="m 8.47426,20.0009 13.28054,0 0,-2.0726 -13.28054,0 0,2.0726 z" /></clipPath></defs><g
     transform="matrix(1.25,0,0,-1.25,0,40)"
     id="g10"><g
       id="g12"><g
         clip-path="url(#clipPath16)"
         id="g14"><g
           transform="translate(55.6924,14.252)"
           id="g20"><path
             id="path22"
             style="fill:#f9bb0b;fill-opacity:1;fill-rule:nonzero;stroke:none"
             d="M 0,0 C 0.879,1.374 0.563,3.103 -0.702,3.951 -3.834,6.054 -9.118,7.26 -17.527,7.165 l -18.292,0 c -9.492,-0.988 -16.324,-2.156 -18.655,-6.378 -0.366,-0.663 -0.488,-1.435 -0.344,-2.18 0.149,-0.771 1.334,-1.857 1.489,-1.683 3.407,3.791 7.301,3.305 12.86,0.623 2.018,-0.973 6.974,-3.264 8.874,-4.376 0.928,-0.543 2.056,-0.573 3.02,-0.097 9.844,4.86 16.637,8.071 24.558,5.145 1.288,-0.476 2.97,0.146 3.71,1.302 L 0,0 Z" /></g><g
           id="g24"><g
             id="g26" /><g
             id="g32"><g
               style="opacity:0.25"
               id="g34"
               clip-path="url(#clipPath28)"><g
                 id="g36"
                 transform="translate(55.6895,14.252)"><path
                   id="path38"
                   style="fill:#e5a012;fill-opacity:1;fill-rule:nonzero;stroke:none"
                   d="M 0,0 C 0.879,1.374 0.563,3.103 -0.702,3.951 -3.834,6.054 -9.117,7.26 -17.527,7.165 l -10.162,0 -0.001,-13.655 c 9.371,4.612 15.991,7.546 23.673,4.709 1.288,-0.476 2.97,0.146 3.71,1.302 L 0,0 Z" /></g></g></g></g><g
           id="g40"><g
             id="g42" /><g
             id="g48"><g
               style="opacity:0.52999902"
               id="g50"
               clip-path="url(#clipPath44)"><g
                 id="g52"
                 transform="translate(23.3169,19.7734)"><path
                   id="path54"
                   style="fill:#fcf695;fill-opacity:1;fill-rule:nonzero;stroke:none"
                   d="m 0,0 c 0,-0.283 1.641,-0.514 3.666,-0.514 2.025,0 3.667,0.231 3.667,0.514 0,0.284 -1.642,0.515 -3.667,0.515 C 1.641,0.515 0,0.284 0,0" /></g></g></g></g><g
           id="g56"><g
             id="g58" /><g
             id="g64"><g
               style="opacity:0.52999902"
               id="g66"
               clip-path="url(#clipPath60)"><g
                 id="g68"
                 transform="translate(8.4746,18.2246)"><path
                   id="path70"
                   style="fill:#fcf695;fill-opacity:1;fill-rule:nonzero;stroke:none"
                   d="M 0,0 C 0.045,-0.4 3.054,-0.395 6.721,0.015 10.388,0.424 13.324,1.08 13.28,1.48 13.235,1.881 10.226,1.874 6.559,1.465 2.892,1.057 -0.044,0.4 0,0" /></g></g></g></g></g></g></g></svg>