<?xml version="1.0" encoding="UTF-8" standalone="no"?>
<svg
   xmlns:dc="http://purl.org/dc/elements/1.1/"
   xmlns:cc="http://creativecommons.org/ns#"
   xmlns:rdf="http://www.w3.org/1999/02/22-rdf-syntax-ns#"
   xmlns:svg="http://www.w3.org/2000/svg"
   xmlns="http://www.w3.org/2000/svg"
   viewBox="0 0 71.25 40"
   height="40"
   width="71.25"
   xml:space="preserve"
   version="1.1"
   id="svg2"><metadata
     id="metadata8"><rdf:RDF><cc:Work
         rdf:about=""><dc:format>image/svg+xml</dc:format><dc:type
           rdf:resource="http://purl.org/dc/dcmitype/StillImage" /><dc:title></dc:title></cc:Work></rdf:RDF></metadata><defs
     id="defs6"><clipPath
       id="clipPath16"
       clipPathUnits="userSpaceOnUse"><path
         id="path18"
         d="M 0,32 57,32 57,0 0,0 0,32 Z" /></clipPath><clipPath
       id="clipPath56"
       clipPathUnits="userSpaceOnUse"><path
         id="path58"
         d="m 27.9803,22.7771 28.3802,0 0,-15.99731 -28.3802,0 0,15.99731 z" /></clipPath></defs><g
     transform="matrix(1.25,0,0,-1.25,0,40)"
     id="g10"><g
       id="g12"><g
         clip-path="url(#clipPath16)"
         id="g14"><g
           transform="translate(53.7637,21.2653)"
           id="g20"><path
             id="path22"
             style="fill:#6bc62f;fill-opacity:1;fill-rule:nonzero;stroke:none"
             d="m 0,0 c -1.295,-1.246 -3.542,-2.62 -5.268,-1.696 -0.472,0.254 -0.814,0.659 -1.375,0.781 -0.412,0.09 -0.773,0.01 -1.112,-0.15 0.114,0.333 0.42,0.633 0.857,0.762 -1.865,0.125 -3.787,-0.586 -4.755,-1.758 -0.209,-0.253 -0.379,-0.525 -0.558,-0.793 -0.975,0.09 -1.961,0.405 -2.752,0.832 -1.562,0.843 -2.729,2.041 -4.34,2.835 -1.609,0.794 -4.024,1.055 -5.343,0.012 -0.375,-0.297 -0.626,-0.666 -0.958,-0.988 -0.015,0.091 -0.03,0.183 -0.044,0.274 -1.258,-0.134 -2.298,-0.718 -3.397,-1.207 -0.943,0.046 -1.92,0.21 -2.809,0.393 -2.061,0.423 -4.7,0.671 -5.957,-0.598 -0.866,0.843 -1.772,1.71 -3.039,2.211 -3.162,1.25 -5.704,-0.329 -6.11,-2.473 -0.445,-0.182 -0.794,-0.461 -1.014,-0.798 -1.546,-0.026 -3.115,0.602 -3.816,1.62 -0.697,-0.351 -0.705,-0.936 -0.38,-1.521 -1.411,-0.541 -1.758,-2.247 -0.537,-3.082 1.348,-0.922 1.698,-1.168 2.734,-0.051 -0.233,-1.367 0.227,-1.957 -1.643,-2.109 -0.474,-0.039 -0.999,-0.031 -1.361,-0.259 -0.583,-0.367 -0.245,-1.161 0.476,-1.36 0.72,-0.198 1.555,0.081 2.043,0.517 0.49,0.434 1.402,0.235 1.61,0.777 0.442,-0.374 0.212,0 0.824,-0.21 0.611,-0.21 1.42,-0.197 1.882,0.164 0.362,-0.35 0.724,-0.701 1.085,-1.052 1.084,0.75 2.708,1.053 4.149,0.776 0.058,-0.997 -0.213,-2.004 -0.784,-2.911 0.713,-0.019 1.425,0.277 1.768,0.736 0.137,-0.379 0.275,-0.757 0.413,-1.136 1.587,0.297 1.836,2.351 3.474,2.331 1.049,-0.013 1.607,-0.953 1.544,-1.72 -0.062,-0.767 -0.47,-1.537 -0.234,-2.286 1.491,-0.108 2.891,-0.755 3.665,-1.694 0.952,0.57 1.834,1.202 2.633,1.886 0.22,-0.808 1.111,-1.588 2.236,-1.589 1.126,-0.002 2.04,1.116 1.265,1.714 1.091,-0.072 2.037,0.594 2.494,1.323 0.456,0.73 0.584,1.547 0.995,2.291 0.048,0.09 0.112,0.178 0.175,0.266 0.657,0.177 1.283,0.416 1.86,0.707 1.057,-0.254 1.947,-1.281 3.061,-1.055 0.414,0.084 0.739,0.335 1.158,0.406 1.488,0.252 2.582,-1.807 3.929,-1.281 0.886,0.346 0.506,1.353 0.95,2.012 0.195,0.288 0.579,0.465 1.003,0.536 0.835,-0.575 1.963,-0.864 3.017,-0.538 1.122,0.347 1.769,1.229 2.825,1.674 1.056,0.445 2.932,-0.128 2.439,-0.943 0.544,0.406 1.097,0.824 1.602,1.263 0.808,0.108 1.549,0.491 1.551,1.069 0,0.159 -0.063,0.307 -0.164,0.441 0.206,0.305 0.379,0.622 0.494,0.957 C 2.97,-2.213 2.027,-0.351 0,0" /></g><g
           transform="translate(34.4551,16.5622)"
           id="g24"><path
             id="path26"
             style="fill:#7ecd45;fill-opacity:1;fill-rule:nonzero;stroke:none"
             d="m 0,0 c -2.304,0.164 -10.281,-0.06 -12.583,-0.258 -7.25,-0.624 -9.019,-0.289 -16.366,0.162 3.817,-1.14 9.659,-1.712 13.715,-1.289 6.784,0.708 11.994,0.833 18.903,0.651 C 4.973,-0.769 18.631,-1.411 17.467,0.482 16.977,1.28 10.536,0.139 9.341,0.058 6.235,-0.151 3.108,-0.222 0,0" /></g><g
           transform="translate(37.0566,17.8591)"
           id="g28"><path
             id="path30"
             style="fill:#7ecd45;fill-opacity:1;fill-rule:nonzero;stroke:none"
             d="m 0,0 c -0.19,0.196 -0.386,0.393 -0.61,0.496 -0.153,0.07 -0.315,0.095 -0.461,0.187 -0.387,0.243 -0.574,0.891 -0.949,1.166 -0.053,-0.633 0.302,-1.184 0.669,-1.56 0.149,-0.152 0.307,-0.294 0.484,-0.361 0.11,-0.041 0.225,-0.053 0.332,-0.112 0.1,-0.055 0.187,-0.149 0.272,-0.241 0.232,-0.251 0.468,-0.51 0.624,-0.856 0.069,-0.15 0.121,-0.317 0.212,-0.442 0.229,-0.316 1.078,-0.298 0.823,0.264 C 1.27,-1.181 0.89,-0.923 0.699,-0.725 0.467,-0.481 0.233,-0.24 0,0" /></g><g
           transform="translate(32.2314,15.279)"
           id="g32"><path
             id="path34"
             style="fill:#7ecd45;fill-opacity:1;fill-rule:nonzero;stroke:none"
             d="m 0,0 c -0.095,-0.137 -0.176,-0.283 -0.277,-0.415 -0.127,-0.165 -0.284,-0.304 -0.439,-0.442 -0.343,-0.305 -0.685,-0.61 -1.029,-0.915 -0.231,-0.206 -0.472,-0.417 -0.769,-0.504 0.412,0.109 0.883,-0.025 1.254,0.187 0.454,0.257 1.546,0.909 1.973,1.211 0.168,0.118 0.373,0.17 0.563,0.247 0.647,0.259 0.159,0.837 0.342,1.512 C 1.652,1.007 0.841,0.856 0.742,0.788 0.473,0.603 0.184,0.266 0,0" /></g><g
           transform="translate(27.5537,17.1945)"
           id="g36"><path
             id="path38"
             style="fill:#7ecd45;fill-opacity:1;fill-rule:nonzero;stroke:none"
             d="m 0,0 c -0.579,0.321 -1.247,0.505 -1.807,0.847 -0.139,0.084 -1.268,0.256 -1.418,0.326 -0.097,0.046 -0.2,0.081 -0.294,0.131 -0.262,0.141 -0.403,0.369 -0.524,0.579 -0.148,-0.098 -0.3,-0.248 -0.163,-0.416 0.049,-0.059 0.51,-0.566 0.584,-0.611 1.364,-0.832 2.792,-1.61 4.404,-1.947 C 0.186,-0.72 0.622,-0.345 0,0" /></g><g
           transform="translate(39.9639,13.9753)"
           id="g40"><path
             id="path42"
             style="fill:#7ecd45;fill-opacity:1;fill-rule:nonzero;stroke:none"
             d="M 0,0 C 0.929,0.018 1.533,0.763 2.45,0.864 2.673,0.888 2.902,0.872 3.123,0.902 3.344,0.932 3.571,1.025 3.625,1.178 3.663,1.286 3.606,1.398 3.596,1.51 3.508,2.408 3.253,2.202 2.355,1.661 1.505,1.148 0.706,0.613 0,0" /></g><g
           transform="translate(16.3877,16.7135)"
           id="g44"><path
             id="path46"
             style="fill:#7ecd45;fill-opacity:1;fill-rule:nonzero;stroke:none"
             d="m 0,0 c -0.165,0.116 -0.352,0.194 -0.533,0.281 -0.735,0.35 -1.396,0.852 -1.931,1.466 0.068,-0.659 0.203,-1.421 0.788,-1.732 0.123,-0.066 0.258,-0.105 0.382,-0.169 0.502,-0.261 0.782,-0.906 1.339,-1.003 0.058,-0.01 0.119,-0.013 0.172,0.01 0.159,0.07 0.225,0.305 0.387,0.4 C 0.476,-0.46 0.261,-0.184 0,0" /></g><g
           transform="translate(21.1328,15.6486)"
           id="g48"><path
             id="path50"
             style="fill:#7ecd45;fill-opacity:1;fill-rule:nonzero;stroke:none"
             d="m 0,0 c -0.521,-0.638 -1.07,-1.225 -1.645,-1.754 -0.113,-0.104 -0.241,-0.241 -0.241,-0.435 0.412,0.132 0.817,0.303 1.222,0.474 0.412,0.174 0.823,0.348 1.235,0.522 0.217,0.091 0.443,0.192 0.601,0.427 0.147,0.221 0.213,0.529 0.274,0.824 C 1.462,0.139 1.479,0.229 1.455,0.306 1.424,0.405 1.342,0.439 1.27,0.463 0.855,0.598 0.327,0.668 0.102,0.144" /></g><g
           id="g52"><g
             id="g54" /><g
             id="g60"><g
               style="opacity:0.25"
               id="g62"
               clip-path="url(#clipPath56)"><g
                 id="g64"
                 transform="translate(53.7637,21.2653)"><path
                   id="path66"
                   style="fill:#5f9e33;fill-opacity:1;fill-rule:nonzero;stroke:none"
                   d="m 0,0 c -1.295,-1.246 -3.542,-2.62 -5.268,-1.696 -0.472,0.254 -0.814,0.659 -1.375,0.781 -0.412,0.09 -0.773,0.01 -1.112,-0.15 0.114,0.333 0.42,0.633 0.857,0.762 -1.865,0.125 -3.787,-0.586 -4.755,-1.758 -0.209,-0.253 -0.379,-0.525 -0.558,-0.793 -0.975,0.09 -1.961,0.405 -2.752,0.832 -1.562,0.843 -2.729,2.041 -4.34,2.835 -1.609,0.794 -4.024,1.055 -5.343,0.012 -0.375,-0.297 -0.626,-0.666 -0.958,-0.988 -0.015,0.091 -0.03,0.183 -0.044,0.274 l -0.135,-14.596 c 0.918,0.221 1.532,1.142 0.855,1.665 1.091,-0.072 2.037,0.594 2.494,1.323 0.456,0.73 0.584,1.547 0.995,2.291 0.048,0.09 0.112,0.178 0.175,0.266 0.657,0.177 1.283,0.416 1.86,0.707 1.057,-0.254 1.947,-1.281 3.061,-1.055 0.414,0.084 0.739,0.335 1.158,0.406 1.488,0.252 2.582,-1.807 3.929,-1.281 0.886,0.346 0.506,1.353 0.95,2.012 0.195,0.288 0.579,0.465 1.003,0.536 0.835,-0.575 1.963,-0.864 3.017,-0.538 1.122,0.347 1.769,1.229 2.825,1.674 1.056,0.445 2.932,-0.128 2.439,-0.943 0.544,0.406 1.097,0.824 1.602,1.263 0.808,0.108 1.549,0.491 1.551,1.069 0,0.159 -0.063,0.307 -0.164,0.441 0.206,0.305 0.379,0.622 0.494,0.957 C 2.97,-2.213 2.027,-0.351 0,0" /></g></g></g></g></g></g></g></svg>