<?xml version="1.0" encoding="UTF-8" standalone="no"?>
<svg
   xmlns:dc="http://purl.org/dc/elements/1.1/"
   xmlns:cc="http://creativecommons.org/ns#"
   xmlns:rdf="http://www.w3.org/1999/02/22-rdf-syntax-ns#"
   xmlns:svg="http://www.w3.org/2000/svg"
   xmlns="http://www.w3.org/2000/svg"
   viewBox="0 0 71.25 40"
   height="40"
   width="71.25"
   xml:space="preserve"
   version="1.1"
   id="svg2"><metadata
     id="metadata8"><rdf:RDF><cc:Work
         rdf:about=""><dc:format>image/svg+xml</dc:format><dc:type
           rdf:resource="http://purl.org/dc/dcmitype/StillImage" /><dc:title></dc:title></cc:Work></rdf:RDF></metadata><defs
     id="defs6"><clipPath
       id="clipPath16"
       clipPathUnits="userSpaceOnUse"><path
         id="path18"
         d="M 0,32 57,32 57,0 0,0 0,32 Z" /></clipPath><clipPath
       id="clipPath28"
       clipPathUnits="userSpaceOnUse"><path
         id="path30"
         d="m 4.02061,24.4576 49.81339,0 0,-12.4864 -49.81339,0 0,12.4864 z" /></clipPath><clipPath
       id="clipPath68"
       clipPathUnits="userSpaceOnUse"><path
         id="path70"
         d="m 27.9996,24.621 26.4449,0 0,-16.93246 -26.4449,0 0,16.93246 z" /></clipPath></defs><g
     transform="matrix(1.25,0,0,-1.25,0,40)"
     id="g10"><g
       id="g12"><g
         clip-path="url(#clipPath16)"
         id="g14"><g
           transform="translate(4.2446,12.9225)"
           id="g20"><path
             id="path22"
             style="fill:#8b3c27;fill-opacity:1;fill-rule:nonzero;stroke:none"
             d="m 0,0 c 0.228,-0.304 0.59,-0.469 0.937,-0.623 2.689,-1.189 5.378,-2.378 8.067,-3.567 0.998,-0.442 2.011,-0.888 3.09,-1.053 1.04,-0.158 2.101,-0.049 3.15,0.043 5.067,0.446 10.169,0.49 15.242,0.133 2.216,-0.157 4.498,-0.383 6.616,0.287 0.934,0.296 1.804,0.757 2.708,1.13 2.534,1.047 5.301,1.398 7.896,2.284 0.73,0.249 1.49,0.575 1.921,1.216 0.283,0.419 0.392,0.93 0.462,1.43 0.247,1.758 0.078,3.573 -0.487,5.255 -0.356,1.062 -0.894,2.102 -1.763,2.809 -1.26,1.027 -2.991,1.197 -4.611,1.323 -4.94,0.387 -9.884,0.758 -14.836,0.927 -4.39,0.149 -8.783,0.137 -13.175,0.126 -1.066,-0.002 -2.145,-0.007 -3.179,-0.266 -1.194,-0.3 -2.275,-0.926 -3.42,-1.375 C 7.06,9.466 5.406,9.194 3.767,8.894 2.669,8.692 1.352,8.542 0.671,7.493 0.152,6.692 -0.442,5.621 -0.331,4.779 -0.153,3.419 -0.866,1.157 0,0" /></g><g
           id="g24"><g
             id="g26" /><g
             id="g32"><g
               style="opacity:0.57000703"
               id="g34"
               clip-path="url(#clipPath28)"><g
                 id="g36"
                 transform="translate(4.2017,17.2633)"><path
                   id="path38"
                   style="fill:#783021;fill-opacity:1;fill-rule:nonzero;stroke:none"
                   d="m 0,0 c 0.227,-0.304 0.43,-0.438 0.777,-0.592 2.689,-1.189 5.378,-2.378 8.066,-3.568 0.998,-0.441 2.011,-0.887 3.09,-1.051 1.041,-0.159 2.102,-0.05 3.15,0.042 5.067,0.446 10.168,0.49 15.242,0.132 2.217,-0.156 4.499,-0.382 6.617,0.288 0.933,0.295 1.804,0.756 2.708,1.13 2.534,1.047 5.301,1.397 7.895,2.284 0.731,0.249 1.491,0.575 1.922,1.216 0.283,0.419 0.159,1.422 -0.046,2.06 -0.343,1.067 -0.709,2.164 -1.578,2.871 -1.26,1.027 -2.991,1.197 -4.611,1.324 C 38.292,6.521 33.348,6.894 28.396,7.062 24.006,7.211 19.613,7.2 15.221,7.188 14.155,7.186 13.076,7.182 12.042,6.922 10.848,6.623 9.767,5.997 8.622,5.547 7.063,4.935 5.41,4.662 3.771,4.362 2.673,4.16 1.398,3.943 0.717,2.894 0.198,2.093 -0.275,1.101 -0.165,0.259 L 0,0 Z" /></g></g></g></g><g
           transform="translate(17.645,18.3146)"
           id="g40"><path
             id="path42"
             style="fill:#783021;fill-opacity:1;fill-rule:nonzero;stroke:none"
             d="M 0,0 C 0.566,-2.218 0.849,-4.061 0.632,-4.117 0.415,-4.172 -0.22,-2.418 -0.786,-0.201 -1.352,2.018 -1.635,3.861 -1.417,3.916 -1.201,3.972 -0.566,2.218 0,0" /></g><g
           transform="translate(23.1621,19.0089)"
           id="g44"><path
             id="path46"
             style="fill:#783021;fill-opacity:1;fill-rule:nonzero;stroke:none"
             d="M 0,0 C 0.679,-2.66 1.039,-4.864 0.804,-4.924 0.569,-4.984 -0.171,-2.876 -0.85,-0.217 -1.528,2.442 -1.888,4.647 -1.653,4.707 -1.418,4.767 -0.678,2.66 0,0" /></g><g
           transform="translate(33.1377,18.9753)"
           id="g48"><path
             id="path50"
             style="fill:#783021;fill-opacity:1;fill-rule:nonzero;stroke:none"
             d="M 0,0 C 0.455,-2.421 0.645,-4.417 0.425,-4.458 0.204,-4.5 -0.343,-2.571 -0.797,-0.15 -1.252,2.271 -1.441,4.267 -1.222,4.308 -1.001,4.35 -0.454,2.421 0,0" /></g><g
           transform="translate(28.2495,18.8488)"
           id="g52"><path
             id="path54"
             style="fill:#783021;fill-opacity:1;fill-rule:nonzero;stroke:none"
             d="M 0,0 C 0.679,-2.66 1.039,-4.864 0.803,-4.924 0.569,-4.984 -0.171,-2.876 -0.85,-0.217 -1.528,2.443 -1.888,4.647 -1.653,4.708 -1.418,4.767 -0.678,2.66 0,0" /></g><g
           transform="translate(38.3564,18.8405)"
           id="g56"><path
             id="path58"
             style="fill:#783021;fill-opacity:1;fill-rule:nonzero;stroke:none"
             d="M 0,0 C 0.609,-2.387 0.927,-4.366 0.71,-4.421 0.493,-4.477 -0.177,-2.587 -0.785,-0.2 -1.395,2.187 -1.712,4.166 -1.495,4.221 -1.278,4.277 -0.608,2.387 0,0" /></g><g
           transform="translate(42.7969,18.8009)"
           id="g60"><path
             id="path62"
             style="fill:#783021;fill-opacity:1;fill-rule:nonzero;stroke:none"
             d="M 0,0 C 0.487,-1.909 0.776,-3.484 0.646,-3.517 0.515,-3.55 0.014,-2.03 -0.474,-0.121 -0.96,1.788 -1.249,3.363 -1.118,3.396 -0.987,3.429 -0.486,1.909 0,0" /></g><g
           id="g64"><g
             id="g66" /><g
             id="g72"><g
               style="opacity:0.25"
               id="g74"
               clip-path="url(#clipPath68)"><g
                 id="g76"
                 transform="translate(28,8.0939)"><path
                   id="path78"
                   style="fill:#783021;fill-opacity:1;fill-rule:nonzero;stroke:none"
                   d="m 0,0 c 2.245,-0.001 4.49,-0.081 6.73,-0.239 2.216,-0.157 4.499,-0.382 6.617,0.288 0.933,0.295 1.803,0.756 2.708,1.13 2.534,1.047 5.3,1.397 7.895,2.283 0.731,0.25 1.49,0.576 1.922,1.216 0.282,0.42 0.392,0.93 0.462,1.431 0.247,1.758 0.078,3.572 -0.487,5.254 -0.357,1.063 -0.895,2.102 -1.763,2.81 -1.261,1.026 -2.991,1.197 -4.611,1.323 C 14.532,15.882 9.589,16.254 4.637,16.422 3.092,16.475 1.546,16.507 0,16.527" /></g></g></g></g></g></g></g></svg>