<?xml version="1.0" encoding="UTF-8" standalone="no"?>
<svg
   xmlns:dc="http://purl.org/dc/elements/1.1/"
   xmlns:cc="http://creativecommons.org/ns#"
   xmlns:rdf="http://www.w3.org/1999/02/22-rdf-syntax-ns#"
   xmlns:svg="http://www.w3.org/2000/svg"
   xmlns="http://www.w3.org/2000/svg"
   viewBox="0 0 71.25 40"
   height="40"
   width="71.25"
   xml:space="preserve"
   version="1.1"
   id="svg2"><metadata
     id="metadata8"><rdf:RDF><cc:Work
         rdf:about=""><dc:format>image/svg+xml</dc:format><dc:type
           rdf:resource="http://purl.org/dc/dcmitype/StillImage" /><dc:title></dc:title></cc:Work></rdf:RDF></metadata><defs
     id="defs6"><clipPath
       id="clipPath16"
       clipPathUnits="userSpaceOnUse"><path
         id="path18"
         d="M 0,32 57,32 57,0 0,0 0,32 Z" /></clipPath><clipPath
       id="clipPath36"
       clipPathUnits="userSpaceOnUse"><path
         id="path38"
         d="m 21.4368,18.2007 0.7698,0 0,-0.3937 -0.7698,0 0,0.3937 z" /></clipPath><clipPath
       id="clipPath52"
       clipPathUnits="userSpaceOnUse"><path
         id="path54"
         d="m 20.8818,17.4091 0.9417,0 0,-0.3341 -0.9417,0 0,0.3341 z" /></clipPath><clipPath
       id="clipPath68"
       clipPathUnits="userSpaceOnUse"><path
         id="path70"
         d="m 23.4193,18.9252 0.6146,0 0,-0.6104 -0.6146,0 0,0.6104 z" /></clipPath><clipPath
       id="clipPath84"
       clipPathUnits="userSpaceOnUse"><path
         id="path86"
         d="m 25.5264,19.069 0.3731,0 0,-0.7542 -0.3731,0 0,0.7542 z" /></clipPath><clipPath
       id="clipPath100"
       clipPathUnits="userSpaceOnUse"><path
         id="path102"
         d="m 24.6796,19.2289 0.399,0 0,-0.8337 -0.399,0 0,0.8337 z" /></clipPath><clipPath
       id="clipPath116"
       clipPathUnits="userSpaceOnUse"><path
         id="path118"
         d="m 26.7561,16.1721 0.6238,0 0,-0.6009 -0.6238,0 0,0.6009 z" /></clipPath><clipPath
       id="clipPath132"
       clipPathUnits="userSpaceOnUse"><path
         id="path134"
         d="m 24.3269,16.1446 0.3618,0 0,-0.7596 -0.3618,0 0,0.7596 z" /></clipPath><clipPath
       id="clipPath148"
       clipPathUnits="userSpaceOnUse"><path
         id="path150"
         d="m 25.5964,16.1294 0.4036,0 0,-0.8277 -0.4036,0 0,0.8277 z" /></clipPath><clipPath
       id="clipPath164"
       clipPathUnits="userSpaceOnUse"><path
         id="path166"
         d="m 22.2398,16.3559 0.6334,0 0,-0.5897 -0.6334,0 0,0.5897 z" /></clipPath><clipPath
       id="clipPath180"
       clipPathUnits="userSpaceOnUse"><path
         id="path182"
         d="m 21.2266,16.5199 0.9089,0 0,-0.328 -0.9089,0 0,0.328 z" /></clipPath><clipPath
       id="clipPath196"
       clipPathUnits="userSpaceOnUse"><path
         id="path198"
         d="m 27.9272,16.9113 0.8167,0 0,-0.3284 -0.8167,0 0,0.3284 z" /></clipPath><clipPath
       id="clipPath212"
       clipPathUnits="userSpaceOnUse"><path
         id="path214"
         d="m 28.1843,17.7492 0.9407,0 0,-0.3353 -0.9407,0 0,0.3353 z" /></clipPath><clipPath
       id="clipPath228"
       clipPathUnits="userSpaceOnUse"><path
         id="path230"
         d="m 27.068,18.812 0.5154,0 0,-0.6946 -0.5154,0 0,0.6946 z" /></clipPath><clipPath
       id="clipPath244"
       clipPathUnits="userSpaceOnUse"><path
         id="path246"
         d="m 27.8229,18.4455 0.8334,0 0,-0.4895 -0.8334,0 0,0.4895 z" /></clipPath><clipPath
       id="clipPath272"
       clipPathUnits="userSpaceOnUse"><path
         id="path274"
         d="m 41.3027,21.1732 0.4803,0 0,-0.2677 -0.4803,0 0,0.2677 z" /></clipPath><clipPath
       id="clipPath288"
       clipPathUnits="userSpaceOnUse"><path
         id="path290"
         d="m 41.5627,20.6791 0.6018,0 0,-0.21 -0.6018,0 0,0.21 z" /></clipPath><clipPath
       id="clipPath304"
       clipPathUnits="userSpaceOnUse"><path
         id="path306"
         d="m 40.1245,21.5717 0.3748,0 0,-0.4046 -0.3748,0 0,0.4046 z" /></clipPath><clipPath
       id="clipPath320"
       clipPathUnits="userSpaceOnUse"><path
         id="path322"
         d="m 38.9175,21.5893 0.2578,0 0,-0.47 -0.2578,0 0,0.47 z" /></clipPath><clipPath
       id="clipPath336"
       clipPathUnits="userSpaceOnUse"><path
         id="path338"
         d="m 39.4415,21.7217 0.2539,0 0,-0.5312 -0.2539,0 0,0.5312 z" /></clipPath><clipPath
       id="clipPath352"
       clipPathUnits="userSpaceOnUse"><path
         id="path354"
         d="m 38.0809,19.7171 0.381,0 0,-0.3988 -0.381,0 0,0.3988 z" /></clipPath><clipPath
       id="clipPath368"
       clipPathUnits="userSpaceOnUse"><path
         id="path370"
         d="m 39.7779,19.766 0.2504,0 0,-0.4739 -0.2504,0 0,0.4739 z" /></clipPath><clipPath
       id="clipPath384"
       clipPathUnits="userSpaceOnUse"><path
         id="path386"
         d="m 38.9611,19.7229 0.2551,0 0,-0.5296 -0.2551,0 0,0.5296 z" /></clipPath><clipPath
       id="clipPath400"
       clipPathUnits="userSpaceOnUse"><path
         id="path402"
         d="m 40.9254,19.9585 0.4188,0 0,-0.3581 -0.4188,0 0,0.3581 z" /></clipPath><clipPath
       id="clipPath416"
       clipPathUnits="userSpaceOnUse"><path
         id="path418"
         d="m 41.3895,20.0938 0.5862,0 0,-0.1921 -0.5862,0 0,0.1921 z" /></clipPath><clipPath
       id="clipPath432"
       clipPathUnits="userSpaceOnUse"><path
         id="path434"
         d="m 37.1806,20.1369 0.5151,0 0,-0.2151 -0.5151,0 0,0.2151 z" /></clipPath><clipPath
       id="clipPath448"
       clipPathUnits="userSpaceOnUse"><path
         id="path450"
         d="m 36.9091,20.6546 0.6014,0 0,-0.2105 -0.6014,0 0,0.2105 z" /></clipPath><clipPath
       id="clipPath464"
       clipPathUnits="userSpaceOnUse"><path
         id="path466"
         d="m 37.8546,21.3726 0.3466,0 0,-0.4283 -0.3466,0 0,0.4283 z" /></clipPath><clipPath
       id="clipPath480"
       clipPathUnits="userSpaceOnUse"><path
         id="path482"
         d="m 37.1823,21.105 0.544,0 0,-0.2875 -0.544,0 0,0.2875 z" /></clipPath><clipPath
       id="clipPath496"
       clipPathUnits="userSpaceOnUse"><path
         id="path498"
         d="m 27.927,23.5441 22.0611,0 0,-13.2656 -22.0611,0 0,13.2656 z" /></clipPath></defs><g
     transform="matrix(1.25,0,0,-1.25,0,40)"
     id="g10"><g
       id="g12"><g
         clip-path="url(#clipPath16)"
         id="g14"><g
           transform="translate(8.9243,17.2064)"
           id="g20"><path
             id="path22"
             style="fill:#ed1d36;fill-opacity:1;fill-rule:nonzero;stroke:none"
             d="m 0,0 -0.18,-2.876 c -0.028,-0.433 0.036,-0.876 0.238,-1.26 0.961,-1.836 3.753,-2.595 7.432,-2.836 0.01,-10e-4 0.012,-10e-4 0.023,-0.002 l 12.485,0 c 0.011,0.001 0.013,0.001 0.023,0.002 7.094,0.491 9.395,1.737 11.023,3.088 0.078,0.064 0.129,0.155 0.149,0.252 0.276,1.438 0.184,2.763 -0.188,4.002 -0.669,2.72 -8.578,4.313 -8.984,4.313 -0.406,0 -9.908,-0.065 -9.908,-0.065 C 11.177,4.683 1.211,2.635 0.04,0.169 0.015,0.116 0.003,0.06 0,0" /></g><g
           transform="translate(9.9004,17.1253)"
           id="g24"><path
             id="path26"
             style="fill:#f0383d;fill-opacity:1;fill-rule:nonzero;stroke:none"
             d="m 0,0 0.045,-0.643 c -0.027,-0.299 0.219,-0.471 0.516,-0.625 1.872,-0.965 2.707,-1.609 6.093,-1.875 0.011,0 -0.01,10e-4 0,0 0.331,0 12.014,0.219 12.344,0.219 -0.024,0.4 -0.011,0 0,0 7.093,0.341 7.38,1.043 8.891,1.688 1.187,0.507 0.793,1.484 0.453,2.015 -0.577,0.904 -5.828,3.286 -7.469,3.286 -0.406,0 -9.627,-0.043 -9.627,-0.043 C 10.311,4.067 1.212,1.827 0.04,0.117 0.015,0.08 0.004,0.041 0,0" /></g><g
           transform="translate(22.1157,20.4144)"
           id="g28"><path
             id="path30"
             style="fill:#f57669;fill-opacity:1;fill-rule:nonzero;stroke:none"
             d="m 0,0 c 0,0 3.175,0.144 4.649,0.041 0.233,0 0.397,-0.229 0.322,-0.449 l -0.534,-1.551 1.441,1.844 c 0.076,0.096 0.197,0.145 0.319,0.127 2.441,-0.194 4.753,-0.441 6.366,-0.971 l -2.25,-1.437 c 1.12,0.26 2.222,0.361 3.304,0.29 0.152,0.013 0.295,-0.078 0.348,-0.221 l 0.348,-0.944 c -1.187,-0.991 -2.8,-1.44 -4.739,-1.477 0.134,0.042 -0.1,-0.02 -0.15,-0.012 -1.285,-0.027 -2.55,0.167 -3.799,0.551 0.525,-0.482 0.859,-0.94 1,-1.375 -2.726,-0.247 -4.301,-0.143 -5.75,0 0.085,0.35 0.35,0.765 0.812,1.25 -1.313,-0.583 -2.636,-1.175 -3.373,-1.227 -0.042,-0.015 -0.087,-0.021 -0.132,-0.019 -2,-0.074 -4.19,0.057 -6.484,0.303 -0.087,0.004 -0.169,0.041 -0.229,0.103 0,0 -1.865,0.507 -1.469,1.528 0.396,0.354 5.979,-0.167 5.75,0 -0.229,0.167 -4.246,0.921 -4.271,1.25 -0.027,0.367 4.234,2.053 4.379,1.921 0.09,0.05 0.198,0.056 0.293,0.018 1.421,-0.34 2.916,-0.918 4.474,-1.814 l -0.638,1.312 C -0.417,-0.25 0,0 0,0" /></g><g
           id="g32"><g
             id="g34" /><g
             id="g40"><g
               style="opacity:0.89999402"
               id="g42"
               clip-path="url(#clipPath36)"><g
                 id="g44"
                 transform="translate(21.814,18.1488)"><path
                   id="path46"
                   style="fill:#fbf4b0;fill-opacity:1;fill-rule:nonzero;stroke:none"
                   d="m 0,0 c -0.178,0.075 -0.337,0.066 -0.371,-0.013 -0.034,-0.08 0.071,-0.2 0.248,-0.276 0.178,-0.075 0.516,-0.048 0.516,-0.048 0,0 -0.215,0.262 -0.393,0.337" /></g></g></g></g><g
           id="g48"><g
             id="g50" /><g
             id="g56"><g
               style="opacity:0.89999402"
               id="g58"
               clip-path="url(#clipPath52)"><g
                 id="g60"
                 transform="translate(21.2476,17.4066)"><path
                   id="path62"
                   style="fill:#fbf4b0;fill-opacity:1;fill-rule:nonzero;stroke:none"
                   d="m 0,0 c -0.219,-0.021 -0.375,-0.111 -0.365,-0.201 0.009,-0.091 0.178,-0.148 0.398,-0.126 0.219,0.022 0.543,0.22 0.543,0.22 0,0 -0.357,0.129 -0.576,0.107" /></g></g></g></g><g
           id="g64"><g
             id="g66" /><g
             id="g72"><g
               style="opacity:0.89999402"
               id="g74"
               clip-path="url(#clipPath68)"><g
                 id="g76"
                 transform="translate(23.8018,18.7786)"><path
                   id="path78"
                   style="fill:#fbf4b0;fill-opacity:1;fill-rule:nonzero;stroke:none"
                   d="M 0,0 C -0.137,0.135 -0.29,0.183 -0.354,0.118 -0.419,0.053 -0.37,-0.101 -0.233,-0.235 -0.097,-0.371 0.232,-0.464 0.232,-0.464 0.232,-0.464 0.137,-0.136 0,0" /></g></g></g></g><g
           id="g80"><g
             id="g82" /><g
             id="g88"><g
               style="opacity:0.89999402"
               id="g90"
               clip-path="url(#clipPath84)"><g
                 id="g92"
                 transform="translate(25.8408,18.7083)"><path
                   id="path94"
                   style="fill:#fbf4b0;fill-opacity:1;fill-rule:nonzero;stroke:none"
                   d="m 0,0 c 0.076,0.174 0.077,0.327 0.01,0.355 -0.067,0.03 -0.177,-0.076 -0.253,-0.251 -0.075,-0.174 -0.071,-0.498 -0.071,-0.498 0,0 0.238,0.219 0.314,0.394" /></g></g></g></g><g
           id="g96"><g
             id="g98" /><g
             id="g104"><g
               style="opacity:0.89999402"
               id="g106"
               clip-path="url(#clipPath100)"><g
                 id="g108"
                 transform="translate(25.0786,18.8978)"><path
                   id="path110"
                   style="fill:#fbf4b0;fill-opacity:1;fill-rule:nonzero;stroke:none"
                   d="m 0,0 c -0.007,0.194 -0.102,0.335 -0.212,0.331 -0.11,-0.004 -0.194,-0.151 -0.186,-0.346 0.006,-0.193 0.217,-0.488 0.217,-0.488 0,0 0.188,0.31 0.181,0.503" /></g></g></g></g><g
           id="g112"><g
             id="g114" /><g
             id="g120"><g
               style="opacity:0.89999402"
               id="g122"
               clip-path="url(#clipPath116)"><g
                 id="g124"
                 transform="translate(26.9966,15.7132)"><path
                   id="path126"
                   style="fill:#fbf4b0;fill-opacity:1;fill-rule:nonzero;stroke:none"
                   d="M 0,0 C 0.139,-0.133 0.293,-0.178 0.356,-0.112 0.42,-0.046 0.368,0.106 0.229,0.239 0.09,0.372 -0.24,0.459 -0.24,0.459 -0.24,0.459 -0.139,0.133 0,0" /></g></g></g></g><g
           id="g128"><g
             id="g130" /><g
             id="g136"><g
               style="opacity:0.89999402"
               id="g138"
               clip-path="url(#clipPath132)"><g
                 id="g140"
                 transform="translate(24.3813,15.7454)"><path
                   id="path142"
                   style="fill:#fbf4b0;fill-opacity:1;fill-rule:nonzero;stroke:none"
                   d="m 0,0 c -0.073,-0.176 -0.071,-0.328 -0.004,-0.356 0.067,-0.028 0.176,0.08 0.248,0.255 0.073,0.176 0.063,0.5 0.063,0.5 C 0.307,0.399 0.072,0.177 0,0" /></g></g></g></g><g
           id="g144"><g
             id="g146" /><g
             id="g152"><g
               style="opacity:0.89999402"
               id="g154"
               clip-path="url(#clipPath148)"><g
                 id="g156"
                 transform="translate(25.5996,15.6107)"><path
                   id="path158"
                   style="fill:#fbf4b0;fill-opacity:1;fill-rule:nonzero;stroke:none"
                   d="m 0,0 c 0.026,-0.192 0.134,-0.322 0.243,-0.308 0.109,0.015 0.178,0.17 0.152,0.363 C 0.369,0.247 0.13,0.519 0.13,0.519 0.13,0.519 -0.026,0.192 0,0" /></g></g></g></g><g
           id="g160"><g
             id="g162" /><g
             id="g168"><g
               style="opacity:0.89999402"
               id="g170"
               clip-path="url(#clipPath164)"><g
                 id="g172"
                 transform="translate(22.6162,15.9066)"><path
                   id="path174"
                   style="fill:#fbf4b0;fill-opacity:1;fill-rule:nonzero;stroke:none"
                   d="m 0,0 c -0.142,-0.131 -0.295,-0.176 -0.354,-0.111 -0.059,0.063 0,0.212 0.142,0.342 C -0.07,0.362 0.257,0.449 0.257,0.449 0.257,0.449 0.142,0.131 0,0" /></g></g></g></g><g
           id="g176"><g
             id="g178" /><g
             id="g184"><g
               style="opacity:0.89999402"
               id="g186"
               clip-path="url(#clipPath180)"><g
                 id="g188"
                 transform="translate(21.6318,16.2347)"><path
                   id="path190"
                   style="fill:#fbf4b0;fill-opacity:1;fill-rule:nonzero;stroke:none"
                   d="m 0,0 c -0.211,-0.062 -0.384,-0.055 -0.403,0.012 -0.02,0.067 0.12,0.168 0.332,0.23 C 0.14,0.305 0.503,0.281 0.503,0.281 0.503,0.281 0.211,0.062 0,0" /></g></g></g></g><g
           id="g192"><g
             id="g194" /><g
             id="g200"><g
               style="opacity:0.89999402"
               id="g202"
               clip-path="url(#clipPath196)"><g
                 id="g204"
                 transform="translate(28.3833,16.595)"><path
                   id="path206"
                   style="fill:#fbf4b0;fill-opacity:1;fill-rule:nonzero;stroke:none"
                   d="M 0,0 C 0.19,-0.035 0.343,0.008 0.359,0.093 0.375,0.178 0.247,0.273 0.058,0.309 -0.132,0.344 -0.456,0.245 -0.456,0.245 -0.456,0.245 -0.19,0.035 0,0" /></g></g></g></g><g
           id="g208"><g
             id="g210" /><g
             id="g216"><g
               style="opacity:0.89999402"
               id="g218"
               clip-path="url(#clipPath212)"><g
                 id="g220"
                 transform="translate(28.7617,17.4173)"><path
                   id="path222"
                   style="fill:#fbf4b0;fill-opacity:1;fill-rule:nonzero;stroke:none"
                   d="m 0,0 c 0.219,0.024 0.373,0.115 0.363,0.205 -0.01,0.09 -0.18,0.146 -0.4,0.121 -0.218,-0.024 -0.541,-0.225 -0.541,-0.225 0,0 0.359,-0.125 0.578,-0.101" /></g></g></g></g><g
           id="g224"><g
             id="g226" /><g
             id="g232"><g
               style="opacity:0.89999402"
               id="g234"
               clip-path="url(#clipPath228)"><g
                 id="g236"
                 transform="translate(27.2222,18.6116)"><path
                   id="path238"
                   style="fill:#fbf4b0;fill-opacity:1;fill-rule:nonzero;stroke:none"
                   d="M 0,0 C 0.111,0.158 0.25,0.235 0.321,0.186 0.392,0.136 0.368,-0.021 0.257,-0.18 0.146,-0.338 -0.154,-0.494 -0.154,-0.494 c 0,0 0.043,0.336 0.154,0.494" /></g></g></g></g><g
           id="g240"><g
             id="g242" /><g
             id="g248"><g
               style="opacity:0.89999402"
               id="g250"
               clip-path="url(#clipPath244)"><g
                 id="g252"
                 transform="translate(28.2539,18.3392)"><path
                   id="path254"
                   style="fill:#fbf4b0;fill-opacity:1;fill-rule:nonzero;stroke:none"
                   d="M 0,0 C 0.193,0.106 0.363,0.136 0.396,0.075 0.43,0.014 0.315,-0.114 0.122,-0.221 c -0.193,-0.107 -0.553,-0.162 -0.553,-0.162 0,0 0.238,0.276 0.431,0.383" /></g></g></g></g><g
           transform="translate(49.7695,20.9466)"
           id="g256"><path
             id="path258"
             style="fill:#ed1d36;fill-opacity:1;fill-rule:nonzero;stroke:none"
             d="m 0,0 0.206,-1.823 c 0.031,-0.275 0.005,-0.559 -0.11,-0.81 -0.553,-1.198 -2.304,-1.77 -4.636,-2.042 -0.007,0 -0.008,0 -0.015,-0.001 -0.211,-0.011 -7.73,-0.389 -7.94,-0.4 l -0.015,0 c -4.527,0.085 -6.03,0.804 -7.109,1.611 -0.051,0.038 -0.087,0.094 -0.103,0.155 -0.221,0.906 -0.206,1.751 -0.008,2.552 0.337,1.751 5.317,3.017 5.575,3.03 0.259,0.013 6.303,0.277 6.303,0.277 C -7.259,2.62 -0.855,1.637 -0.031,0.105 -0.014,0.073 -0.005,0.037 0,0" /></g><g
           transform="translate(49.1514,20.8636)"
           id="g260"><path
             id="path262"
             style="fill:#f0383d;fill-opacity:1;fill-rule:nonzero;stroke:none"
             d="m 0,0 -0.009,-0.41 c 0.028,-0.19 -0.124,-0.307 -0.307,-0.414 -1.16,-0.674 -1.67,-1.111 -3.816,-1.388 -0.007,0 0.007,0.001 0,0 -0.21,-0.011 -7.647,-0.245 -7.857,-0.256 0.003,0.254 0.007,0 0,0 -4.522,-0.011 -4.727,0.426 -5.708,0.788 -0.772,0.285 -0.552,0.918 -0.353,1.268 0.338,0.593 3.602,2.276 4.645,2.329 0.259,0.013 6.124,0.28 6.124,0.28 C -6.687,2.256 -0.83,1.123 -0.029,0.073 -0.013,0.051 -0.004,0.025 0,0" /></g><g
           transform="translate(41.2773,22.5638)"
           id="g264"><path
             id="path266"
             style="fill:#f57669;fill-opacity:1;fill-rule:nonzero;stroke:none"
             d="m 0,0 c 0,0 -2.024,-0.011 -2.958,-0.123 -0.148,-0.007 -0.245,-0.158 -0.19,-0.296 l 0.388,-0.969 -0.974,1.126 c -0.052,0.06 -0.131,0.086 -0.207,0.071 -1.547,-0.202 -3.009,-0.432 -4.018,-0.821 l 1.477,-0.842 c -0.721,0.129 -1.424,0.158 -2.111,0.079 -0.097,0.003 -0.185,-0.059 -0.214,-0.153 l -0.191,-0.611 c 0.786,-0.592 1.827,-0.826 3.061,-0.787 -0.086,0.022 0.064,-0.009 0.096,-0.003 0.818,0.023 1.616,0.188 2.399,0.473 -0.319,-0.325 -0.517,-0.626 -0.593,-0.908 1.742,-0.069 2.74,0.047 3.657,0.185 -0.065,0.22 -0.247,0.475 -0.557,0.768 0.855,-0.329 1.714,-0.663 2.185,-0.671 0.027,-0.008 0.056,-0.011 0.085,-0.009 1.274,0.017 2.662,0.171 4.113,0.401 0.056,0.005 0.107,0.031 0.143,0.073 0,0 1.17,0.382 0.886,1.019 C 6.213,-1.786 2.679,-2.296 2.819,-2.183 2.96,-2.069 5.49,-1.461 5.495,-1.251 5.501,-1.017 2.737,-0.08 2.649,-0.169 2.59,-0.141 2.521,-0.14 2.463,-0.167 1.569,-0.429 0.637,-0.845 -0.325,-1.465 l 0.364,0.856 C 0.272,-0.146 0,0 0,0" /></g><g
           id="g268"><g
             id="g270" /><g
             id="g276"><g
               style="opacity:0.89999402"
               id="g278"
               clip-path="url(#clipPath272)"><g
                 id="g280"
                 transform="translate(41.542,21.1322)"><path
                   id="path282"
                   style="fill:#fbf4b0;fill-opacity:1;fill-rule:nonzero;stroke:none"
                   d="m 0,0 c 0.11,0.054 0.212,0.054 0.236,0.004 0.024,-0.05 -0.039,-0.13 -0.149,-0.184 -0.11,-0.052 -0.326,-0.047 -0.326,-0.047 0,0 0.128,0.173 0.239,0.227" /></g></g></g></g><g
           id="g284"><g
             id="g286" /><g
             id="g292"><g
               style="opacity:0.89999402"
               id="g294"
               clip-path="url(#clipPath288)"><g
                 id="g296"
                 transform="translate(41.9258,20.679)"><path
                   id="path298"
                   style="fill:#fbf4b0;fill-opacity:1;fill-rule:nonzero;stroke:none"
                   d="M 0,0 C 0.14,-0.007 0.241,-0.06 0.238,-0.117 0.235,-0.175 0.13,-0.216 -0.011,-0.209 c -0.139,0.007 -0.352,0.122 -0.352,0.122 0,0 0.222,0.094 0.363,0.087" /></g></g></g></g><g
           id="g300"><g
             id="g302" /><g
             id="g308"><g
               style="opacity:0.89999402"
               id="g310"
               clip-path="url(#clipPath304)"><g
                 id="g312"
                 transform="translate(40.2568,21.4691)"><path
                   id="path314"
                   style="fill:#fbf4b0;fill-opacity:1;fill-rule:nonzero;stroke:none"
                   d="m 0,0 c 0.083,0.091 0.179,0.126 0.222,0.087 0.043,-0.039 0.017,-0.139 -0.066,-0.229 -0.082,-0.09 -0.289,-0.16 -0.289,-0.16 0,0 0.051,0.212 0.133,0.302" /></g></g></g></g><g
           id="g316"><g
             id="g318" /><g
             id="g324"><g
               style="opacity:0.89999402"
               id="g326"
               clip-path="url(#clipPath320)"><g
                 id="g328"
                 transform="translate(38.9629,21.3587)"><path
                   id="path330"
                   style="fill:#fbf4b0;fill-opacity:1;fill-rule:nonzero;stroke:none"
                   d="M 0,0 C -0.054,0.109 -0.06,0.206 -0.018,0.227 0.023,0.247 0.098,0.184 0.15,0.075 0.204,-0.033 0.212,-0.239 0.212,-0.239 0.212,-0.239 0.054,-0.108 0,0" /></g></g></g></g><g
           id="g332"><g
             id="g334" /><g
             id="g340"><g
               style="opacity:0.89999402"
               id="g342"
               clip-path="url(#clipPath336)"><g
                 id="g344"
                 transform="translate(39.4414,21.5042)"><path
                   id="path346"
                   style="fill:#fbf4b0;fill-opacity:1;fill-rule:nonzero;stroke:none"
                   d="M 0,0 C -0.002,0.124 0.054,0.217 0.124,0.218 0.194,0.219 0.252,0.128 0.254,0.004 0.256,-0.12 0.132,-0.313 0.132,-0.313 0.132,-0.313 0.002,-0.123 0,0" /></g></g></g></g><g
           id="g348"><g
             id="g350" /><g
             id="g356"><g
               style="opacity:0.89999402"
               id="g358"
               clip-path="url(#clipPath352)"><g
                 id="g360"
                 transform="translate(38.3232,19.4173)"><path
                   id="path362"
                   style="fill:#fbf4b0;fill-opacity:1;fill-rule:nonzero;stroke:none"
                   d="m 0,0 c -0.084,-0.089 -0.181,-0.122 -0.223,-0.082 -0.043,0.04 -0.014,0.138 0.07,0.228 C -0.068,0.234 0.139,0.3 0.139,0.3 0.139,0.3 0.084,0.089 0,0" /></g></g></g></g><g
           id="g364"><g
             id="g366" /><g
             id="g372"><g
               style="opacity:0.89999402"
               id="g374"
               clip-path="url(#clipPath368)"><g
                 id="g376"
                 transform="translate(39.9863,19.5218)"><path
                   id="path378"
                   style="fill:#fbf4b0;fill-opacity:1;fill-rule:nonzero;stroke:none"
                   d="m 0,0 c 0.051,-0.109 0.056,-0.206 0.014,-0.227 -0.042,-0.019 -0.115,0.046 -0.166,0.156 -0.052,0.109 -0.056,0.315 -0.056,0.315 0,0 0.156,-0.134 0.208,-0.244" /></g></g></g></g><g
           id="g380"><g
             id="g382" /><g
             id="g388"><g
               style="opacity:0.89999402"
               id="g390"
               clip-path="url(#clipPath384)"><g
                 id="g392"
                 transform="translate(39.2158,19.3978)"><path
                   id="path394"
                   style="fill:#fbf4b0;fill-opacity:1;fill-rule:nonzero;stroke:none"
                   d="m 0,0 c -0.011,-0.124 -0.075,-0.21 -0.146,-0.204 -0.069,0.006 -0.118,0.102 -0.107,0.225 0.01,0.124 0.153,0.304 0.153,0.304 0,0 0.11,-0.202 0.1,-0.325" /></g></g></g></g><g
           id="g396"><g
             id="g398" /><g
             id="g404"><g
               style="opacity:0.89999402"
               id="g406"
               clip-path="url(#clipPath400)"><g
                 id="g408"
                 transform="translate(41.1035,19.681)"><path
                   id="path410"
                   style="fill:#fbf4b0;fill-opacity:1;fill-rule:nonzero;stroke:none"
                   d="M 0,0 C 0.095,-0.078 0.193,-0.103 0.229,-0.06 0.264,-0.018 0.222,0.075 0.127,0.153 0.032,0.232 -0.178,0.277 -0.178,0.277 -0.178,0.277 -0.095,0.079 0,0" /></g></g></g></g><g
           id="g412"><g
             id="g414" /><g
             id="g420"><g
               style="opacity:0.89999402"
               id="g422"
               clip-path="url(#clipPath416)"><g
                 id="g424"
                 transform="translate(41.7188,19.9212)"><path
                   id="path426"
                   style="fill:#fbf4b0;fill-opacity:1;fill-rule:nonzero;stroke:none"
                   d="M 0,0 C 0.136,-0.033 0.246,-0.022 0.256,0.021 0.267,0.063 0.174,0.123 0.038,0.156 -0.099,0.189 -0.329,0.162 -0.329,0.162 -0.329,0.162 -0.137,0.033 0,0" /></g></g></g></g><g
           id="g428"><g
             id="g430" /><g
             id="g436"><g
               style="opacity:0.89999402"
               id="g438"
               clip-path="url(#clipPath432)"><g
                 id="g440"
                 transform="translate(37.4131,19.9339)"><path
                   id="path442"
                   style="fill:#fbf4b0;fill-opacity:1;fill-rule:nonzero;stroke:none"
                   d="M 0,0 C -0.119,-0.028 -0.219,-0.006 -0.231,0.048 -0.244,0.102 -0.166,0.166 -0.046,0.194 0.073,0.223 0.282,0.17 0.282,0.17 0.282,0.17 0.12,0.029 0,0" /></g></g></g></g><g
           id="g444"><g
             id="g446" /><g
             id="g452"><g
               style="opacity:0.89999402"
               id="g454"
               clip-path="url(#clipPath448)"><g
                 id="g456"
                 transform="translate(37.1465,20.4447)"><path
                   id="path458"
                   style="fill:#fbf4b0;fill-opacity:1;fill-rule:nonzero;stroke:none"
                   d="m 0,0 c -0.14,0.009 -0.241,0.062 -0.237,0.119 0.004,0.058 0.11,0.098 0.25,0.09 C 0.152,0.2 0.364,0.083 0.364,0.083 0.364,0.083 0.141,-0.009 0,0" /></g></g></g></g><g
           id="g460"><g
             id="g462" /><g
             id="g468"><g
               style="opacity:0.89999402"
               id="g470"
               clip-path="url(#clipPath464)"><g
                 id="g472"
                 transform="translate(38.0869,21.2533)"><path
                   id="path474"
                   style="fill:#fbf4b0;fill-opacity:1;fill-rule:nonzero;stroke:none"
                   d="m 0,0 c -0.075,0.098 -0.166,0.142 -0.21,0.108 -0.043,-0.034 -0.022,-0.133 0.053,-0.23 0.075,-0.098 0.271,-0.187 0.271,-0.187 0,0 -0.038,0.212 -0.114,0.309" /></g></g></g></g><g
           id="g476"><g
             id="g478" /><g
             id="g484"><g
               style="opacity:0.89999402"
               id="g486"
               clip-path="url(#clipPath480)"><g
                 id="g488"
                 transform="translate(37.4395,21.0472)"><path
                   id="path490"
                   style="fill:#fbf4b0;fill-opacity:1;fill-rule:nonzero;stroke:none"
                   d="m 0,0 c -0.126,0.062 -0.234,0.075 -0.254,0.035 -0.019,-0.04 0.058,-0.118 0.184,-0.18 0.126,-0.061 0.357,-0.084 0.357,-0.084 0,0 -0.161,0.167 -0.287,0.229" /></g></g></g></g><g
           id="g492"><g
             id="g494" /><g
             id="g500"><g
               style="opacity:0.25"
               id="g502"
               clip-path="url(#clipPath496)"><g
                 id="g504"
                 transform="translate(49.7695,20.9915)"><path
                   id="path506"
                   style="fill:#d61d2b;fill-opacity:1;fill-rule:nonzero;stroke:none"
                   d="m 0,0 c -0.005,0.037 -0.014,0.073 -0.031,0.106 -0.824,1.531 -7.228,2.514 -7.821,2.443 0,0 -6.044,-0.264 -6.303,-0.277 -0.17,-0.008 -2.395,-0.565 -3.987,-1.445 -0.364,0.073 -0.62,0.115 -0.682,0.115 -0.142,0 -1.385,-0.007 -2.946,-0.017 l -0.072,-11.638 0.995,0 c 0.011,0 0.013,10e-4 0.023,10e-4 7.094,0.49 9.394,1.736 11.023,3.089 0.077,0.062 0.129,0.153 0.149,0.251 0.164,0.854 0.184,1.665 0.107,2.445 2.208,0.112 4.866,0.245 4.99,0.251 0.007,0.001 0.008,0.001 0.015,0.002 2.332,0.271 4.083,0.844 4.636,2.042 0.115,0.251 0.141,0.534 0.11,0.809 L 0,0 Z" /></g></g></g></g></g></g></g></svg>