<?xml version="1.0" encoding="UTF-8" standalone="no"?>
<svg
   xmlns:dc="http://purl.org/dc/elements/1.1/"
   xmlns:cc="http://creativecommons.org/ns#"
   xmlns:rdf="http://www.w3.org/1999/02/22-rdf-syntax-ns#"
   xmlns:svg="http://www.w3.org/2000/svg"
   xmlns="http://www.w3.org/2000/svg"
   viewBox="0 0 71.25 40"
   height="40"
   width="71.25"
   xml:space="preserve"
   version="1.1"
   id="svg2"><metadata
     id="metadata8"><rdf:RDF><cc:Work
         rdf:about=""><dc:format>image/svg+xml</dc:format><dc:type
           rdf:resource="http://purl.org/dc/dcmitype/StillImage" /><dc:title></dc:title></cc:Work></rdf:RDF></metadata><defs
     id="defs6"><clipPath
       id="clipPath16"
       clipPathUnits="userSpaceOnUse"><path
         id="path18"
         d="M 0,32 57,32 57,0 0,0 0,32 Z" /></clipPath><clipPath
       id="clipPath36"
       clipPathUnits="userSpaceOnUse"><path
         id="path38"
         d="m 24.0732,18.5054 1.1256,0 0,-0.3613 -1.1256,0 0,0.3613 z" /></clipPath><clipPath
       id="clipPath52"
       clipPathUnits="userSpaceOnUse"><path
         id="path54"
         d="m 23.2618,17.7791 1.3769,0 0,-0.3065 -1.3769,0 0,0.3065 z" /></clipPath><clipPath
       id="clipPath68"
       clipPathUnits="userSpaceOnUse"><path
         id="path70"
         d="m 26.9718,19.17 0.8986,0 0,-0.56 -0.8986,0 0,0.56 z" /></clipPath><clipPath
       id="clipPath84"
       clipPathUnits="userSpaceOnUse"><path
         id="path86"
         d="m 30.0527,19.3019 0.5454,0 0,-0.6919 -0.5454,0 0,0.6919 z" /></clipPath><clipPath
       id="clipPath100"
       clipPathUnits="userSpaceOnUse"><path
         id="path102"
         d="m 28.8145,19.4486 0.5834,0 0,-0.7649 -0.5834,0 0,0.7649 z" /></clipPath><clipPath
       id="clipPath116"
       clipPathUnits="userSpaceOnUse"><path
         id="path118"
         d="m 31.8507,16.6442 0.912,0 0,-0.5512 -0.912,0 0,0.5512 z" /></clipPath><clipPath
       id="clipPath132"
       clipPathUnits="userSpaceOnUse"><path
         id="path134"
         d="m 28.2988,16.6191 0.529,0 0,-0.6969 -0.529,0 0,0.6969 z" /></clipPath><clipPath
       id="clipPath148"
       clipPathUnits="userSpaceOnUse"><path
         id="path150"
         d="m 30.1551,16.6051 0.59,0 0,-0.7593 -0.59,0 0,0.7593 z" /></clipPath><clipPath
       id="clipPath164"
       clipPathUnits="userSpaceOnUse"><path
         id="path166"
         d="m 25.2473,16.8129 0.9262,0 0,-0.541 -0.9262,0 0,0.541 z" /></clipPath><clipPath
       id="clipPath180"
       clipPathUnits="userSpaceOnUse"><path
         id="path182"
         d="m 23.7659,16.9634 1.3289,0 0,-0.3009 -1.3289,0 0,0.3009 z" /></clipPath><clipPath
       id="clipPath196"
       clipPathUnits="userSpaceOnUse"><path
         id="path198"
         d="m 33.5629,17.3224 1.1942,0 0,-0.3012 -1.1942,0 0,0.3012 z" /></clipPath><clipPath
       id="clipPath212"
       clipPathUnits="userSpaceOnUse"><path
         id="path214"
         d="m 33.9388,18.0912 1.3754,0 0,-0.3077 -1.3754,0 0,0.3077 z" /></clipPath><clipPath
       id="clipPath228"
       clipPathUnits="userSpaceOnUse"><path
         id="path230"
         d="m 32.3067,19.0662 0.7536,0 0,-0.6373 -0.7536,0 0,0.6373 z" /></clipPath><clipPath
       id="clipPath244"
       clipPathUnits="userSpaceOnUse"><path
         id="path246"
         d="m 33.4104,18.7299 1.2186,0 0,-0.4491 -1.2186,0 0,0.4491 z" /></clipPath><clipPath
       id="clipPath260"
       clipPathUnits="userSpaceOnUse"><path
         id="path262"
         d="m 28.0001,21.8329 23.6203,0 0,-10.693 -23.6203,0 0,10.693 z" /></clipPath><clipPath
       id="clipPath276"
       clipPathUnits="userSpaceOnUse"><path
         id="path278"
         d="m 5.50627,17.6922 11.22293,0 0,-6.5514 -11.22293,0 0,6.5514 z" /></clipPath></defs><g
     transform="matrix(1.25,0,0,-1.25,0,40)"
     id="g10"><g
       id="g12"><g
         clip-path="url(#clipPath16)"
         id="g14"><g
           transform="translate(5.7783,17.5931)"
           id="g20"><path
             id="path22"
             style="fill:#ed1d36;fill-opacity:1;fill-rule:nonzero;stroke:none"
             d="m 0,0 -0.263,-2.639 c -0.04,-0.396 0.054,-0.802 0.347,-1.155 1.406,-1.685 5.489,-2.382 10.867,-2.602 0.015,0 0.018,0 0.034,-0.001 l 18.255,0 c 0.015,0.001 0.019,0.001 0.034,0.001 10.371,0.45 13.735,1.593 16.118,2.833 0.111,0.058 0.188,0.141 0.215,0.231 0.404,1.319 0.271,2.535 -0.274,3.672 C 44.354,2.835 32.791,4.296 32.197,4.296 31.603,4.296 17.711,4.236 17.711,4.236 16.343,4.296 1.772,2.417 0.059,0.155 0.022,0.106 0.005,0.055 0,0" /></g><g
           transform="translate(7.2061,17.5189)"
           id="g24"><path
             id="path26"
             style="fill:#f0383d;fill-opacity:1;fill-rule:nonzero;stroke:none"
             d="m 0,0 0.065,-0.589 c -0.039,-0.275 0.32,-0.433 0.754,-0.573 2.738,-0.887 3.959,-1.478 8.91,-1.721 0.016,0 -0.016,0 0,0 0.484,0 17.565,0.201 18.047,0.201 -0.035,0.367 -0.014,-10e-4 0,0 10.371,0.312 10.791,0.956 13,1.548 1.737,0.466 1.16,1.362 0.662,1.849 -0.844,0.828 -8.521,3.014 -10.92,3.014 -0.594,0 -14.075,-0.04 -14.075,-0.04 C 15.075,3.731 1.771,1.677 0.059,0.107 0.021,0.073 0.005,0.037 0,0" /></g><g
           transform="translate(25.0664,20.5355)"
           id="g28"><path
             id="path30"
             style="fill:#f57669;fill-opacity:1;fill-rule:nonzero;stroke:none"
             d="m 0,0 c 0,0 4.642,0.132 6.798,0.039 0.341,0 0.58,-0.211 0.469,-0.413 l -0.779,-1.422 2.106,1.692 c 0.11,0.087 0.288,0.132 0.466,0.115 3.57,-0.177 6.949,-0.404 9.307,-0.89 l -3.289,-1.318 c 1.638,0.238 3.248,0.331 4.83,0.265 0.224,0.013 0.432,-0.07 0.51,-0.202 L 20.926,-3 c -1.734,-0.909 -4.093,-1.321 -6.929,-1.355 0.197,0.039 -0.145,-0.018 -0.219,-0.011 -1.879,-0.026 -3.728,0.153 -5.553,0.506 0.766,-0.443 1.255,-0.864 1.462,-1.262 -3.987,-0.227 -6.29,-0.131 -8.408,0 0.124,0.321 0.512,0.701 1.188,1.147 -1.921,-0.536 -3.855,-1.079 -4.932,-1.126 -0.062,-0.013 -0.128,-0.02 -0.193,-0.018 -2.925,-0.068 -6.126,0.053 -9.481,0.278 -0.127,0.004 -0.247,0.038 -0.335,0.096 0,0 -2.726,0.464 -2.147,1.4 0.579,0.325 8.742,-0.152 8.407,0 -0.335,0.154 -6.208,0.846 -6.244,1.148 -0.041,0.336 6.189,1.884 6.402,1.762 0.131,0.045 0.288,0.052 0.428,0.016 2.077,-0.311 4.264,-0.842 6.542,-1.664 L -0.02,-0.879 C -0.609,-0.229 0,0 0,0" /></g><g
           id="g32"><g
             id="g34" /><g
             id="g40"><g
               style="opacity:0.89999402"
               id="g42"
               clip-path="url(#clipPath36)"><g
                 id="g44"
                 transform="translate(24.6245,18.4574)"><path
                   id="path46"
                   style="fill:#fbf4b0;fill-opacity:1;fill-rule:nonzero;stroke:none"
                   d="m 0,0 c -0.26,0.069 -0.493,0.062 -0.542,-0.012 -0.049,-0.073 0.103,-0.183 0.363,-0.253 0.26,-0.069 0.753,-0.044 0.753,-0.044 0,0 -0.314,0.24 -0.574,0.309" /></g></g></g></g><g
           id="g48"><g
             id="g50" /><g
             id="g56"><g
               style="opacity:0.89999402"
               id="g58"
               clip-path="url(#clipPath52)"><g
                 id="g60"
                 transform="translate(23.7964,17.7767)"><path
                   id="path62"
                   style="fill:#fbf4b0;fill-opacity:1;fill-rule:nonzero;stroke:none"
                   d="m 0,0 c -0.32,-0.021 -0.547,-0.103 -0.534,-0.185 0.013,-0.083 0.262,-0.135 0.582,-0.115 0.32,0.021 0.794,0.201 0.794,0.201 0,0 -0.522,0.12 -0.842,0.099" /></g></g></g></g><g
           id="g64"><g
             id="g66" /><g
             id="g72"><g
               style="opacity:0.89999402"
               id="g74"
               clip-path="url(#clipPath68)"><g
                 id="g76"
                 transform="translate(27.5308,19.0355)"><path
                   id="path78"
                   style="fill:#fbf4b0;fill-opacity:1;fill-rule:nonzero;stroke:none"
                   d="m 0,0 c -0.199,0.124 -0.424,0.168 -0.518,0.108 -0.094,-0.059 -0.023,-0.2 0.177,-0.324 0.2,-0.124 0.681,-0.21 0.681,-0.21 0,0 -0.14,0.301 -0.34,0.426" /></g></g></g></g><g
           id="g80"><g
             id="g82" /><g
             id="g88"><g
               style="opacity:0.89999402"
               id="g90"
               clip-path="url(#clipPath84)"><g
                 id="g92"
                 transform="translate(30.5127,18.971)"><path
                   id="path94"
                   style="fill:#fbf4b0;fill-opacity:1;fill-rule:nonzero;stroke:none"
                   d="m 0,0 c 0.11,0.16 0.112,0.3 0.015,0.326 -0.098,0.028 -0.26,-0.07 -0.37,-0.23 -0.111,-0.16 -0.105,-0.457 -0.105,-0.457 0,0 0.349,0.201 0.46,0.361" /></g></g></g></g><g
           id="g96"><g
             id="g98" /><g
             id="g104"><g
               style="opacity:0.89999402"
               id="g106"
               clip-path="url(#clipPath100)"><g
                 id="g108"
                 transform="translate(29.3975,19.1449)"><path
                   id="path110"
                   style="fill:#fbf4b0;fill-opacity:1;fill-rule:nonzero;stroke:none"
                   d="M 0,0 C -0.01,0.179 -0.148,0.308 -0.31,0.304 -0.47,0.3 -0.593,0.165 -0.583,-0.013 c 0.011,-0.178 0.318,-0.448 0.318,-0.448 0,0 0.276,0.283 0.265,0.461" /></g></g></g></g><g
           id="g112"><g
             id="g114" /><g
             id="g120"><g
               style="opacity:0.89999402"
               id="g122"
               clip-path="url(#clipPath116)"><g
                 id="g124"
                 transform="translate(32.2021,16.223)"><path
                   id="path126"
                   style="fill:#fbf4b0;fill-opacity:1;fill-rule:nonzero;stroke:none"
                   d="M 0,0 C 0.204,-0.122 0.429,-0.163 0.521,-0.103 0.614,-0.042 0.538,0.098 0.335,0.22 0.132,0.342 -0.352,0.421 -0.352,0.421 -0.352,0.421 -0.203,0.122 0,0" /></g></g></g></g><g
           id="g128"><g
             id="g130" /><g
             id="g136"><g
               style="opacity:0.89999402"
               id="g138"
               clip-path="url(#clipPath132)"><g
                 id="g140"
                 transform="translate(28.3784,16.2533)"><path
                   id="path142"
                   style="fill:#fbf4b0;fill-opacity:1;fill-rule:nonzero;stroke:none"
                   d="M 0,0 C -0.106,-0.161 -0.104,-0.302 -0.005,-0.327 0.093,-0.353 0.251,-0.254 0.357,-0.093 0.463,0.069 0.449,0.366 0.449,0.366 0.449,0.366 0.105,0.161 0,0" /></g></g></g></g><g
           id="g144"><g
             id="g146" /><g
             id="g152"><g
               style="opacity:0.89999402"
               id="g154"
               clip-path="url(#clipPath148)"><g
                 id="g156"
                 transform="translate(30.1592,16.1292)"><path
                   id="path158"
                   style="fill:#fbf4b0;fill-opacity:1;fill-rule:nonzero;stroke:none"
                   d="m 0,0 c 0.039,-0.177 0.196,-0.296 0.356,-0.282 0.16,0.013 0.26,0.155 0.222,0.332 C 0.539,0.227 0.19,0.476 0.19,0.476 0.19,0.476 -0.038,0.177 0,0" /></g></g></g></g><g
           id="g160"><g
             id="g162" /><g
             id="g168"><g
               style="opacity:0.89999402"
               id="g170"
               clip-path="url(#clipPath164)"><g
                 id="g172"
                 transform="translate(25.7974,16.4007)"><path
                   id="path174"
                   style="fill:#fbf4b0;fill-opacity:1;fill-rule:nonzero;stroke:none"
                   d="m 0,0 c -0.208,-0.12 -0.431,-0.161 -0.517,-0.103 -0.086,0.059 -0.001,0.195 0.207,0.315 0.208,0.12 0.686,0.2 0.686,0.2 C 0.376,0.412 0.208,0.12 0,0" /></g></g></g></g><g
           id="g176"><g
             id="g178" /><g
             id="g184"><g
               style="opacity:0.89999402"
               id="g186"
               clip-path="url(#clipPath180)"><g
                 id="g188"
                 transform="translate(24.3584,16.7015)"><path
                   id="path190"
                   style="fill:#fbf4b0;fill-opacity:1;fill-rule:nonzero;stroke:none"
                   d="m 0,0 c -0.309,-0.058 -0.561,-0.05 -0.59,0.011 -0.029,0.061 0.176,0.154 0.486,0.211 0.308,0.057 0.84,0.036 0.84,0.036 0,0 -0.427,-0.2 -0.736,-0.258" /></g></g></g></g><g
           id="g192"><g
             id="g194" /><g
             id="g200"><g
               style="opacity:0.89999402"
               id="g202"
               clip-path="url(#clipPath196)"><g
                 id="g204"
                 transform="translate(34.2295,17.0325)"><path
                   id="path206"
                   style="fill:#fbf4b0;fill-opacity:1;fill-rule:nonzero;stroke:none"
                   d="M 0,0 C 0.278,-0.032 0.503,0.007 0.525,0.085 0.549,0.163 0.362,0.25 0.084,0.283 -0.193,0.315 -0.667,0.225 -0.667,0.225 -0.667,0.225 -0.277,0.032 0,0" /></g></g></g></g><g
           id="g208"><g
             id="g210" /><g
             id="g216"><g
               style="opacity:0.89999402"
               id="g218"
               clip-path="url(#clipPath212)"><g
                 id="g220"
                 transform="translate(34.7822,17.7865)"><path
                   id="path222"
                   style="fill:#fbf4b0;fill-opacity:1;fill-rule:nonzero;stroke:none"
                   d="M 0,0 C 0.32,0.022 0.546,0.105 0.531,0.188 0.517,0.271 0.268,0.321 -0.053,0.3 -0.373,0.277 -0.844,0.093 -0.844,0.093 -0.844,0.093 -0.319,-0.022 0,0" /></g></g></g></g><g
           id="g224"><g
             id="g226" /><g
             id="g232"><g
               style="opacity:0.89999402"
               id="g234"
               clip-path="url(#clipPath228)"><g
                 id="g236"
                 transform="translate(32.5322,18.8822)"><path
                   id="path238"
                   style="fill:#fbf4b0;fill-opacity:1;fill-rule:nonzero;stroke:none"
                   d="M 0,0 C 0.162,0.146 0.365,0.216 0.47,0.17 0.573,0.125 0.537,-0.02 0.376,-0.165 0.214,-0.311 -0.226,-0.453 -0.226,-0.453 c 0,0 0.064,0.307 0.226,0.453" /></g></g></g></g><g
           id="g240"><g
             id="g242" /><g
             id="g248"><g
               style="opacity:0.89999402"
               id="g250"
               clip-path="url(#clipPath244)"><g
                 id="g252"
                 transform="translate(34.041,18.6322)"><path
                   id="path254"
                   style="fill:#fbf4b0;fill-opacity:1;fill-rule:nonzero;stroke:none"
                   d="M 0,0 C 0.281,0.098 0.53,0.125 0.579,0.069 0.629,0.014 0.46,-0.104 0.178,-0.202 c -0.282,-0.099 -0.809,-0.15 -0.809,-0.15 0,0 0.349,0.254 0.631,0.352" /></g></g></g></g><g
           id="g256"><g
             id="g258" /><g
             id="g264"><g
               style="opacity:0.19999701"
               id="g266"
               clip-path="url(#clipPath260)"><g
                 id="g268"
                 transform="translate(28.0005,11.14)"><path
                   id="path270"
                   style="fill:#d51b33;fill-opacity:1;fill-rule:nonzero;stroke:none"
                   d="m 0,0 7.018,0 c 0.015,0 0.019,0 0.034,0.001 10.37,0.449 13.735,1.593 16.117,2.833 0.112,0.059 0.189,0.142 0.216,0.23 0.404,1.32 0.271,2.536 -0.274,3.673 C 22.132,9.231 10.569,10.693 9.975,10.693 9.76,10.693 7.812,10.686 5.41,10.676 3.682,10.668 1.72,10.66 0,10.653" /></g></g></g></g><g
           id="g272"><g
             id="g274" /><g
             id="g280"><g
               style="opacity:0.19999701"
               id="g282"
               clip-path="url(#clipPath276)"><g
                 id="g284"
                 transform="translate(5.8369,17.6917)"><path
                   id="path286"
                   style="fill:#d51b33;fill-opacity:1;fill-rule:nonzero;stroke:none"
                   d="M 0,0 C -0.037,-0.049 -0.053,-0.101 -0.059,-0.154 L -0.322,-2.793 C -0.362,-3.19 -0.268,-3.597 0.026,-3.949 1.431,-5.633 5.514,-6.33 10.892,-6.551" /></g></g></g></g></g></g></g></svg>