<?xml version="1.0" encoding="UTF-8" standalone="no"?>
<svg
   xmlns:dc="http://purl.org/dc/elements/1.1/"
   xmlns:cc="http://creativecommons.org/ns#"
   xmlns:rdf="http://www.w3.org/1999/02/22-rdf-syntax-ns#"
   xmlns:svg="http://www.w3.org/2000/svg"
   xmlns="http://www.w3.org/2000/svg"
   viewBox="0 0 71.25 40"
   height="40"
   width="71.25"
   xml:space="preserve"
   version="1.1"
   id="svg2"><metadata
     id="metadata8"><rdf:RDF><cc:Work
         rdf:about=""><dc:format>image/svg+xml</dc:format><dc:type
           rdf:resource="http://purl.org/dc/dcmitype/StillImage" /><dc:title></dc:title></cc:Work></rdf:RDF></metadata><defs
     id="defs6"><clipPath
       id="clipPath16"
       clipPathUnits="userSpaceOnUse"><path
         id="path18"
         d="M 0,32 57,32 57,0 0,0 0,32 Z" /></clipPath><clipPath
       id="clipPath112"
       clipPathUnits="userSpaceOnUse"><path
         id="path114"
         d="m 27.4926,28.8301 27.5824,0 0,-20.32139 -27.5824,0 0,20.32139 z" /></clipPath></defs><g
     transform="matrix(1.25,0,0,-1.25,0,40)"
     id="g10"><g
       id="g12"><g
         clip-path="url(#clipPath16)"
         id="g14"><g
           transform="translate(55.0752,13.9453)"
           id="g20"><path
             id="path22"
             style="fill:#d29c33;fill-opacity:1;fill-rule:nonzero;stroke:none"
             d="m 0,0 c 0,-5.324 -6.131,-4.796 -15.052,-4.642 -3.622,0.063 -7.705,-0.795 -12.023,-0.795 -4.177,0 -8.134,0.869 -11.667,0.802 -9.113,-0.174 -15.408,-0.76 -15.408,4.635 0,7.487 11.614,14.885 26.567,14.885 C -12.63,14.885 0,7.487 0,0" /></g><g
           transform="translate(17.2334,27.0498)"
           id="g24"><path
             id="path26"
             style="fill:#fcf695;fill-opacity:1;fill-rule:nonzero;stroke:none"
             d="m 0,0 c -0.433,-0.17 -0.67,-0.508 -0.567,-0.769 0.102,-0.261 0.506,-0.346 0.939,-0.175 0.433,0.171 0.919,0.907 0.919,0.907 0,0 -0.858,0.207 -1.291,0.037" /></g><g
           transform="translate(21.8667,27.3296)"
           id="g28"><path
             id="path30"
             style="fill:#fcf695;fill-opacity:1;fill-rule:nonzero;stroke:none"
             d="m 0,0 c -0.416,0.208 -0.826,0.158 -0.951,-0.092 -0.125,-0.251 0.082,-0.608 0.498,-0.816 0.416,-0.208 1.289,-0.076 1.289,-0.076 0,0 -0.419,0.776 -0.836,0.984" /></g><g
           transform="translate(28.2158,21.5596)"
           id="g32"><path
             id="path34"
             style="fill:#fcf695;fill-opacity:1;fill-rule:nonzero;stroke:none"
             d="M 0,0 C 0.312,0.345 0.374,0.753 0.166,0.941 -0.042,1.129 -0.442,1.025 -0.753,0.68 -1.065,0.334 -1.172,-0.542 -1.172,-0.542 c 0,0 0.86,0.196 1.172,0.542" /></g><g
           transform="translate(34.8369,26.417)"
           id="g36"><path
             id="path38"
             style="fill:#fcf695;fill-opacity:1;fill-rule:nonzero;stroke:none"
             d="M 0,0 C 0.371,0.28 0.51,0.669 0.341,0.893 0.172,1.116 -0.24,1.09 -0.611,0.81 -0.982,0.53 -1.254,-0.31 -1.254,-0.31 c 0,0 0.882,0.03 1.254,0.31" /></g><g
           transform="translate(35.083,22.6567)"
           id="g40"><path
             id="path42"
             style="fill:#fcf695;fill-opacity:1;fill-rule:nonzero;stroke:none"
             d="M 0,0 C -0.005,-0.465 0.219,-0.812 0.499,-0.815 0.779,-0.818 1.01,-0.476 1.015,-0.011 1.021,0.454 0.521,1.182 0.521,1.182 0.521,1.182 0.005,0.465 0,0" /></g><g
           transform="translate(25.4824,24.1802)"
           id="g44"><path
             id="path46"
             style="fill:#fcf695;fill-opacity:1;fill-rule:nonzero;stroke:none"
             d="M 0,0 C -0.208,-0.416 -0.158,-0.826 0.092,-0.951 0.343,-1.076 0.7,-0.87 0.908,-0.453 1.116,-0.037 0.984,0.836 0.984,0.836 0.984,0.836 0.208,0.416 0,0" /></g><g
           transform="translate(38.6445,25.0737)"
           id="g48"><path
             id="path50"
             style="fill:#fcf695;fill-opacity:1;fill-rule:nonzero;stroke:none"
             d="M 0,0 C 0.433,0.171 0.67,0.509 0.566,0.77 0.464,1.03 0.06,1.115 -0.373,0.944 -0.806,0.773 -1.291,0.036 -1.291,0.036 -1.291,0.036 -0.433,-0.17 0,0" /></g><g
           transform="translate(32.9492,23.3911)"
           id="g52"><path
             id="path54"
             style="fill:#fcf695;fill-opacity:1;fill-rule:nonzero;stroke:none"
             d="M 0,0 C 0.416,-0.208 0.826,-0.158 0.951,0.093 1.076,0.344 0.869,0.701 0.452,0.908 0.036,1.116 -0.837,0.983 -0.837,0.983 -0.837,0.983 -0.416,0.207 0,0" /></g><g
           transform="translate(29.7646,27.0283)"
           id="g56"><path
             id="path58"
             style="fill:#fcf695;fill-opacity:1;fill-rule:nonzero;stroke:none"
             d="m 0,0 c -0.311,-0.346 -0.373,-0.754 -0.164,-0.941 0.208,-0.188 0.607,-0.084 0.919,0.262 0.31,0.346 0.417,1.222 0.417,1.222 C 1.172,0.543 0.312,0.346 0,0" /></g><g
           transform="translate(21.3701,22.6885)"
           id="g60"><path
             id="path62"
             style="fill:#fcf695;fill-opacity:1;fill-rule:nonzero;stroke:none"
             d="M 0,0 C -0.371,-0.28 -0.509,-0.669 -0.34,-0.893 -0.171,-1.117 0.241,-1.09 0.612,-0.81 0.983,-0.529 1.253,0.311 1.253,0.311 1.253,0.311 0.371,0.28 0,0" /></g><g
           transform="translate(25.9136,27.5776)"
           id="g64"><path
             id="path66"
             style="fill:#fcf695;fill-opacity:1;fill-rule:nonzero;stroke:none"
             d="m 0,0 c -0.457,0.088 -0.838,-0.069 -0.892,-0.345 -0.053,-0.275 0.243,-0.563 0.699,-0.652 0.457,-0.088 1.262,0.273 1.262,0.273 0,0 -0.612,0.636 -1.069,0.724" /></g><g
           transform="translate(30.5039,23.8735)"
           id="g68"><path
             id="path70"
             style="fill:#fcf695;fill-opacity:1;fill-rule:nonzero;stroke:none"
             d="m 0,0 c 0.207,0.417 0.157,0.826 -0.094,0.951 -0.25,0.125 -0.607,-0.082 -0.814,-0.498 -0.208,-0.417 -0.076,-1.289 -0.076,-1.289 0,0 0.776,0.42 0.984,0.836" /></g><g
           transform="translate(18.9839,24.4824)"
           id="g72"><path
             id="path74"
             style="fill:#fcf695;fill-opacity:1;fill-rule:nonzero;stroke:none"
             d="m 0,0 c -0.208,0.416 -0.566,0.622 -0.816,0.497 -0.251,-0.126 -0.3,-0.536 -0.091,-0.952 0.208,-0.416 0.986,-0.834 0.986,-0.834 0,0 0.129,0.873 -0.079,1.289" /></g><g
           transform="translate(12.5625,21.8887)"
           id="g76"><path
             id="path78"
             style="fill:#fcf695;fill-opacity:1;fill-rule:nonzero;stroke:none"
             d="M 0,0 C 0.312,-0.345 0.712,-0.448 0.919,-0.26 1.127,-0.072 1.064,0.336 0.752,0.681 0.44,1.026 -0.421,1.221 -0.421,1.221 -0.421,1.221 -0.312,0.345 0,0" /></g><g
           transform="translate(13.7866,25.1138)"
           id="g80"><path
             id="path82"
             style="fill:#fcf695;fill-opacity:1;fill-rule:nonzero;stroke:none"
             d="M 0,0 C -0.249,-0.393 -0.24,-0.806 -0.003,-0.956 0.233,-1.105 0.61,-0.935 0.858,-0.542 1.106,-0.148 1.063,0.733 1.063,0.733 1.063,0.733 0.248,0.393 0,0" /></g><g
           transform="translate(24.1235,25.2739)"
           id="g84"><path
             id="path86"
             style="fill:#fcf695;fill-opacity:1;fill-rule:nonzero;stroke:none"
             d="m 0,0 c 0.331,0.327 0.417,0.731 0.22,0.93 -0.197,0.2 -0.602,0.119 -0.933,-0.208 -0.331,-0.326 -0.489,-1.195 -0.489,-1.195 0,0 0.871,0.146 1.202,0.473" /></g><g
           transform="translate(39.1924,21.5708)"
           id="g88"><path
             id="path90"
             style="fill:#fcf695;fill-opacity:1;fill-rule:nonzero;stroke:none"
             d="M 0,0 C 0.207,0.416 0.158,0.826 -0.093,0.951 -0.344,1.076 -0.701,0.869 -0.908,0.452 -1.115,0.036 -0.983,-0.837 -0.983,-0.837 c 0,0 0.776,0.42 0.983,0.837" /></g><g
           transform="translate(9.6758,22.0405)"
           id="g92"><path
             id="path94"
             style="fill:#fcf695;fill-opacity:1;fill-rule:nonzero;stroke:none"
             d="M 0,0 C 0.331,0.327 0.417,0.73 0.22,0.93 0.022,1.129 -0.382,1.049 -0.713,0.722 -1.044,0.395 -1.202,-0.474 -1.202,-0.474 c 0,0 0.871,0.147 1.202,0.474" /></g><g
           transform="translate(44.8467,23.2598)"
           id="g96"><path
             id="path98"
             style="fill:#fcf695;fill-opacity:1;fill-rule:nonzero;stroke:none"
             d="m 0,0 c -0.278,0.373 -0.666,0.514 -0.891,0.346 -0.224,-0.167 -0.201,-0.579 0.077,-0.952 0.278,-0.373 1.117,-0.649 1.117,-0.649 0,0 -0.026,0.882 -0.303,1.255" /></g><g
           transform="translate(16.6636,21.2402)"
           id="g100"><path
             id="path102"
             style="fill:#fcf695;fill-opacity:1;fill-rule:nonzero;stroke:none"
             d="M 0,0 C 0.106,-0.453 0.407,-0.736 0.68,-0.672 0.953,-0.607 1.094,-0.22 0.988,0.233 0.881,0.686 0.221,1.272 0.221,1.272 0.221,1.272 -0.107,0.453 0,0" /></g><g
           transform="translate(41.2979,23.0752)"
           id="g104"><path
             id="path106"
             style="fill:#fcf695;fill-opacity:1;fill-rule:nonzero;stroke:none"
             d="M 0,0 C -0.208,-0.416 -0.158,-0.826 0.093,-0.951 0.343,-1.076 0.7,-0.869 0.908,-0.453 1.115,-0.037 0.984,0.836 0.984,0.836 0.984,0.836 0.208,0.416 0,0" /></g><g
           id="g108"><g
             id="g110" /><g
             id="g116"><g
               style="opacity:0.25"
               id="g118"
               clip-path="url(#clipPath112)"><g
                 id="g120"
                 transform="translate(55.0752,13.9453)"><path
                   id="path122"
                   style="fill:#b07f29;fill-opacity:1;fill-rule:nonzero;stroke:none"
                   d="m 0,0 c 0,-5.324 -6.131,-4.796 -15.052,-4.642 -3.622,0.063 -7.931,-0.795 -12.25,-0.795 l -0.281,20.322 C -12.63,14.885 0,7.487 0,0" /></g></g></g></g></g></g></g></svg>