<?xml version="1.0" encoding="UTF-8" standalone="no"?>
<svg
   xmlns:dc="http://purl.org/dc/elements/1.1/"
   xmlns:cc="http://creativecommons.org/ns#"
   xmlns:rdf="http://www.w3.org/1999/02/22-rdf-syntax-ns#"
   xmlns:svg="http://www.w3.org/2000/svg"
   xmlns="http://www.w3.org/2000/svg"
   viewBox="0 0 76 42.666668"
   height="42.666668"
   width="76"
   xml:space="preserve"
   id="svg10"
   version="1.1"><metadata
     id="metadata16"><rdf:RDF><cc:Work
         rdf:about=""><dc:format>image/svg+xml</dc:format><dc:type
           rdf:resource="http://purl.org/dc/dcmitype/StillImage" /><dc:title></dc:title></cc:Work></rdf:RDF></metadata><defs
     id="defs14"><clipPath
       id="clipPath26"
       clipPathUnits="userSpaceOnUse"><path
         id="path24"
         d="M 0,32 H 57 V 0 H 0 Z" /></clipPath><clipPath
       id="clipPath58"
       clipPathUnits="userSpaceOnUse"><path
         id="path56"
         d="M 28.4823,24.8041 H 54.7425 V 8.74161 H 28.4823 Z" /></clipPath></defs><g
     transform="matrix(1.3333333,0,0,-1.3333333,0,42.666667)"
     id="g18"><g
       id="g20"><g
         clip-path="url(#clipPath26)"
         id="g22"><g
           transform="translate(6.9522,19.1006)"
           id="g28"><path
             id="path30"
             style="fill:#ffcb18;fill-opacity:1;fill-rule:nonzero;stroke:none"
             d="m 0,0 c -1.664,0.422 -1.831,-0.82 -0.37,-2.759 0.03,-0.046 0.067,-0.087 0.111,-0.123 1.967,-1.62 5.181,-3.649 7.144,-4.509 1.963,-0.859 5.224,-1.829 7.247,-2.156 2.023,-0.326 5.137,-0.594 6.919,-0.594 1.782,0 4.388,0.127 5.79,0.282 1.402,0.155 3.385,0.408 4.407,0.562 1.021,0.155 2.791,0.69 3.932,1.188 1.142,0.499 2.519,1.173 3.059,1.5 0.541,0.327 1.311,0.973 1.712,1.437 0.401,0.465 0.843,1.103 0.983,1.419 0.14,0.316 0.255,0.851 0.255,1.188 0,0.336 0.147,1.336 0.327,2.221 C 41.695,0.542 39.893,0.267 37.51,-0.956 35.127,-2.178 30.047,-3.381 26.222,-3.628 22.396,-3.875 15.612,-3.332 11.146,-2.422 6.68,-1.511 1.664,-0.421 0,0" /></g><g
           transform="translate(10.7818,21.5762)"
           id="g32"><path
             id="path34"
             style="fill:#fedb3c;fill-opacity:1;fill-rule:nonzero;stroke:none"
             d="M 0,0 C -2.434,0.855 -4.604,1.474 -4.824,1.375 -5.043,1.277 -5.37,1 -5.549,0.759 c -0.18,-0.24 -0.327,-0.817 -0.327,-1.281 0,-0.464 0.164,-1.407 0.363,-2.094 0.2,-0.688 0.999,-1.652 1.777,-2.144 0.778,-0.491 2.639,-1.49 4.135,-2.219 1.497,-0.728 3.651,-1.507 4.788,-1.731 1.137,-0.223 2.802,-0.532 3.7,-0.687 0.897,-0.155 2.595,-0.282 3.772,-0.282 h 4.679 c 1.396,0 3.681,0.063 5.078,0.138 1.396,0.076 3.355,0.343 4.352,0.594 0.998,0.251 2.499,0.71 3.337,1.018 0.838,0.31 2.144,0.949 2.902,1.419 0.758,0.471 1.851,1.214 2.43,1.653 0.579,0.437 1.199,0.905 1.378,1.039 0.18,0.133 0.425,0.472 0.544,0.754 0.12,0.281 0.528,0.736 0.907,1.01 0.379,0.276 0.93,0.653 1.225,0.839 0.295,0.187 0.786,0.376 1.091,0.421 0.305,0.045 0.554,0.284 0.554,0.531 0,0.247 -0.249,0.97 -0.554,1.606 -0.305,0.636 -1.978,0.434 -3.719,-0.448 -1.74,-0.884 -4.968,-2.148 -7.174,-2.809 -2.205,-0.661 -6.881,-1.202 -10.393,-1.202 -3.511,0 -8.293,0.351 -10.627,0.781 C 6.335,-1.905 2.434,-0.854 0,0" /></g><g
           transform="translate(7.832,22.1973)"
           id="g36"><path
             id="path38"
             style="fill:#fee486;fill-opacity:1;fill-rule:nonzero;stroke:none"
             d="M 0,0 C -1.264,0.405 -1.933,0.781 -1.487,0.835 -1.042,0.889 -0.123,0.776 0.556,0.584 1.234,0.392 2.491,0.044 3.349,-0.188 4.207,-0.422 5.48,-0.774 6.178,-0.973 6.876,-1.171 8.084,-1.634 8.862,-2.002 9.64,-2.37 11.125,-2.798 12.163,-2.954 13.2,-3.109 15.012,-3.237 16.189,-3.237 h 5.295 c 1.736,0 4.756,0.197 6.71,0.437 1.955,0.241 4.502,0.593 5.659,0.781 1.157,0.19 3.442,1.005 5.078,1.813 1.636,0.809 2.974,1.394 2.974,1.304 0,-0.09 -0.489,-0.597 -1.088,-1.125 -0.599,-0.528 -1.741,-1.255 -2.539,-1.617 -0.798,-0.36 -2.561,-0.937 -3.917,-1.281 -1.357,-0.344 -3.332,-0.77 -4.389,-0.948 -1.057,-0.178 -3.033,-0.323 -4.389,-0.323 -1.356,0 -3.707,-0.014 -5.223,-0.032 -1.516,-0.016 -4.013,0.059 -5.549,0.168 -1.537,0.109 -3.887,0.466 -5.224,0.793 -1.336,0.329 -3.524,1.032 -4.86,1.563 C 3.391,-1.172 1.263,-0.405 0,0" /></g><g
           transform="translate(52.5298,24.6006)"
           id="g40"><path
             id="path42"
             style="fill:#a26639;fill-opacity:1;fill-rule:nonzero;stroke:none"
             d="m 0,0 c 0.16,0.009 0.201,0.107 0.091,0.219 -0.11,0.112 -0.346,0.203 -0.526,0.203 -0.18,0 -0.653,-0.091 -1.052,-0.203 -0.399,-0.112 -0.897,-0.281 -1.106,-0.375 -0.21,-0.094 -0.381,-0.249 -0.381,-0.344 0,-0.094 0.041,-0.352 0.091,-0.571 0.05,-0.219 0.27,-0.234 0.489,-0.032 0.22,0.204 0.546,0.482 0.726,0.619 0.179,0.137 0.563,0.299 0.852,0.359 C -0.527,-0.064 -0.159,-0.008 0,0" /></g><g
           transform="translate(52.5049,22.5439)"
           id="g44"><path
             id="path46"
             style="fill:#6b3b17;fill-opacity:1;fill-rule:nonzero;stroke:none"
             d="m 0,0 c -0.724,-0.733 -1.153,-1.411 -0.952,-1.507 0.201,-0.095 0.681,-0.21 1.066,-0.255 0.386,-0.045 0.892,-0.082 1.124,-0.082 0.233,0 0.501,0.213 0.596,0.474 0.095,0.261 0.225,0.684 0.289,0.942 0.063,0.258 0.115,0.543 0.115,0.633 0,0.091 -0.208,0.382 -0.461,0.647 C 1.524,1.117 0.724,0.733 0,0" /></g><g
           transform="translate(53.5093,24.293)"
           id="g48"><path
             id="path50"
             style="fill:#884b20;fill-opacity:1;fill-rule:nonzero;stroke:none"
             d="M 0,0 C -0.379,0.401 -0.997,0.622 -1.373,0.49 -1.749,0.358 -2.24,0.176 -2.465,0.083 -2.69,-0.01 -3.076,-0.274 -3.323,-0.505 -3.57,-0.736 -3.772,-0.959 -3.772,-1 c 0,-0.041 0.111,-0.291 0.248,-0.556 0.136,-0.264 0.56,-0.803 0.941,-1.199 0.382,-0.394 0.888,-0.497 1.125,-0.228 0.237,0.268 0.697,0.695 1.022,0.946 0.325,0.252 0.69,0.615 0.811,0.807 0.12,0.192 0.24,0.383 0.267,0.424 C 0.667,-0.764 0.379,-0.401 0,0" /></g><g
           id="g52"><g
             id="g54" /><g
             id="g66"><g
               style="opacity:0.30000299"
               id="g64"
               clip-path="url(#clipPath58)"><g
                 id="g62"
                 transform="translate(54.1802,23.3447)"><path
                   id="path60"
                   style="fill:#ffcb18;fill-opacity:1;fill-rule:nonzero;stroke:none"
                   d="M 0,0 -1.424,1.459 -1.731,1.355 -1.837,1.459 H -2.512 L -4.011,1.053 -4.798,0.709 V 0.365 l 0.103,-0.437 -5.344,-2.624 -0.005,-0.003 -1.732,-0.502 -3.331,-0.528 -7.348,-0.875 h -3.243 v -10 h 1.974 l 5.269,0.563 3.839,0.562 4.291,1.813 2.032,1.187 1.506,1.688 0.527,1.15 v 1.225 l 0.422,2.014 1.227,0.861 1.108,0.678 1.146,0.164 1.45,-0.164 h 0.874 l 0.357,0.947 0.238,0.937 v 0.329 l -0.593,0.602 z" /></g></g></g></g></g></g></g></svg>