<?xml version="1.0" encoding="UTF-8" standalone="no"?>
<svg
   xmlns:dc="http://purl.org/dc/elements/1.1/"
   xmlns:cc="http://creativecommons.org/ns#"
   xmlns:rdf="http://www.w3.org/1999/02/22-rdf-syntax-ns#"
   xmlns:svg="http://www.w3.org/2000/svg"
   xmlns="http://www.w3.org/2000/svg"
   viewBox="0 0 71.25 40"
   height="40"
   width="71.25"
   xml:space="preserve"
   version="1.1"
   id="svg2"><metadata
     id="metadata8"><rdf:RDF><cc:Work
         rdf:about=""><dc:format>image/svg+xml</dc:format><dc:type
           rdf:resource="http://purl.org/dc/dcmitype/StillImage" /><dc:title></dc:title></cc:Work></rdf:RDF></metadata><defs
     id="defs6"><clipPath
       id="clipPath16"
       clipPathUnits="userSpaceOnUse"><path
         id="path18"
         d="M 0,32 57,32 57,0 0,0 0,32 Z" /></clipPath><clipPath
       id="clipPath28"
       clipPathUnits="userSpaceOnUse"><path
         id="path30"
         d="m 27.4926,21.7361 27.5824,0 0,-12.65277 -27.5824,0 0,12.65277 z" /></clipPath></defs><g
     transform="matrix(1.25,0,0,-1.25,0,40)"
     id="g10"><g
       id="g12"><g
         clip-path="url(#clipPath16)"
         id="g14"><g
           transform="translate(55.0752,18.9456)"
           id="g20"><path
             id="path22"
             style="fill:#d29c33;fill-opacity:1;fill-rule:nonzero;stroke:none"
             d="M 0,0 C 0,2.732 -6.131,2.462 -15.052,2.382 -18.674,2.35 -22.757,2.79 -27.075,2.79 -31.252,2.79 -35.209,2.344 -38.742,2.379 -47.855,2.468 -54.15,2.769 -54.15,0 c 0,-1.489 1.746,-5.169 4.755,-6.427 4.752,-1.985 12.657,-3.435 21.812,-3.435 9.346,0 17.784,1.509 22.798,3.56 C -1.776,-5.072 0,-1.44 0,0" /></g><g
           id="g24"><g
             id="g26" /><g
             id="g32"><g
               style="opacity:0.25"
               id="g34"
               clip-path="url(#clipPath28)"><g
                 id="g36"
                 transform="translate(55.0752,18.9456)"><path
                   id="path38"
                   style="fill:#b07f29;fill-opacity:1;fill-rule:nonzero;stroke:none"
                   d="M 0,0 C 0,2.732 -6.131,2.462 -15.052,2.382 -18.674,2.35 -23.231,2.79 -27.55,2.79 l -0.033,-12.652 c 9.346,0 17.784,1.509 22.798,3.56 C -1.776,-5.072 0,-1.44 0,0" /></g></g></g></g><g
           transform="translate(1.1665,19.5091)"
           id="g40"><path
             id="path42"
             style="fill:#fcf695;fill-opacity:1;fill-rule:nonzero;stroke:none"
             d="M 0,0 C 0,2.411 12.014,4.365 26.833,4.365 41.653,4.365 53.667,2.411 53.667,0 53.667,-2.41 41.653,-4.364 26.833,-4.364 12.014,-4.364 0,-2.41 0,0" /></g></g></g></g></svg>