<?xml version="1.0" encoding="UTF-8" standalone="no"?>
<svg
   xmlns:dc="http://purl.org/dc/elements/1.1/"
   xmlns:cc="http://creativecommons.org/ns#"
   xmlns:rdf="http://www.w3.org/1999/02/22-rdf-syntax-ns#"
   xmlns:svg="http://www.w3.org/2000/svg"
   xmlns="http://www.w3.org/2000/svg"
   xmlns:sodipodi="http://sodipodi.sourceforge.net/DTD/sodipodi-0.dtd"
   xmlns:inkscape="http://www.inkscape.org/namespaces/inkscape"
   id="svg6755"
   version="1.1"
   viewBox="0 0 210 297"
   height="297mm"
   width="210mm"
   sodipodi:docname="burger_chute.svg"
   inkscape:version="0.92.1 r15371">
  <sodipodi:namedview
     pagecolor="#ffffff"
     bordercolor="#666666"
     borderopacity="1"
     objecttolerance="10"
     gridtolerance="10"
     guidetolerance="10"
     inkscape:pageopacity="0"
     inkscape:pageshadow="2"
     inkscape:window-width="3840"
     inkscape:window-height="2097"
     id="namedview9782"
     showgrid="false"
     inkscape:zoom="2.3786088"
     inkscape:cx="396.85039"
     inkscape:cy="815.78479"
     inkscape:window-x="-8"
     inkscape:window-y="-8"
     inkscape:window-maximized="1"
     inkscape:current-layer="svg6755" />
  <defs
     id="defs6749">
    <clipPath
       id="clipPath4754"
       clipPathUnits="userSpaceOnUse">
      <path
         id="path4752"
         d="M 0,591.581 H 1053 V 0 H 0 Z" />
    </clipPath>
    <clipPath
       id="clipPath4772"
       clipPathUnits="userSpaceOnUse">
      <path
         id="path4770"
         d="m 708.273,259.657 h 79.15 v -26.179 h -79.15 z" />
    </clipPath>
    <clipPath
       id="clipPath4796"
       clipPathUnits="userSpaceOnUse">
      <path
         id="path4794"
         d="m 708.285,299.92 h 80.888 v -39.198 h -80.888 z" />
    </clipPath>
    <clipPath
       id="clipPath4812"
       clipPathUnits="userSpaceOnUse">
      <path
         id="path4810"
         d="m 694.847,296.666 h 21.041 v -2.95 h -21.041 z" />
    </clipPath>
    <clipPath
       id="clipPath4828"
       clipPathUnits="userSpaceOnUse">
      <path
         id="path4826"
         d="m 652.255,295.843 h 38.11 v -5.948 h -38.11 z" />
    </clipPath>
    <clipPath
       id="clipPath4856"
       clipPathUnits="userSpaceOnUse">
      <path
         id="path4854"
         d="m 685.983,325.132 h 2.21 v -1.13 h -2.21 z" />
    </clipPath>
    <clipPath
       id="clipPath4872"
       clipPathUnits="userSpaceOnUse">
      <path
         id="path4870"
         d="m 684.391,322.86 h 2.702 v -0.958 h -2.702 z" />
    </clipPath>
    <clipPath
       id="clipPath4888"
       clipPathUnits="userSpaceOnUse">
      <path
         id="path4886"
         d="m 691.672,327.211 h 1.764 v -1.752 h -1.764 z" />
    </clipPath>
    <clipPath
       id="clipPath4904"
       clipPathUnits="userSpaceOnUse">
      <path
         id="path4902"
         d="m 697.719,327.624 h 1.07 v -2.165 h -1.07 z" />
    </clipPath>
    <clipPath
       id="clipPath4920"
       clipPathUnits="userSpaceOnUse">
      <path
         id="path4918"
         d="m 695.289,328.082 h 1.145 v -2.392 h -1.145 z" />
    </clipPath>
    <clipPath
       id="clipPath4936"
       clipPathUnits="userSpaceOnUse">
      <path
         id="path4934"
         d="m 701.248,319.31 h 1.79 v -1.724 h -1.79 z" />
    </clipPath>
    <clipPath
       id="clipPath4952"
       clipPathUnits="userSpaceOnUse">
      <path
         id="path4950"
         d="m 694.277,319.232 h 1.038 v -2.18 h -1.038 z" />
    </clipPath>
    <clipPath
       id="clipPath4968"
       clipPathUnits="userSpaceOnUse">
      <path
         id="path4966"
         d="m 697.92,319.188 h 1.158 v -2.375 h -1.158 z" />
    </clipPath>
    <clipPath
       id="clipPath4984"
       clipPathUnits="userSpaceOnUse">
      <path
         id="path4982"
         d="m 688.288,319.838 h 1.817 v -1.692 h -1.817 z" />
    </clipPath>
    <clipPath
       id="clipPath5000"
       clipPathUnits="userSpaceOnUse">
      <path
         id="path4998"
         d="m 685.38,320.309 h 2.608 v -0.942 h -2.608 z" />
    </clipPath>
    <clipPath
       id="clipPath5016"
       clipPathUnits="userSpaceOnUse">
      <path
         id="path5014"
         d="m 704.608,321.432 h 2.344 v -0.942 h -2.344 z" />
    </clipPath>
    <clipPath
       id="clipPath5032"
       clipPathUnits="userSpaceOnUse">
      <path
         id="path5030"
         d="m 705.346,323.836 h 2.7 v -0.962 h -2.7 z" />
    </clipPath>
    <clipPath
       id="clipPath5048"
       clipPathUnits="userSpaceOnUse">
      <path
         id="path5046"
         d="m 702.143,326.886 h 1.479 v -1.993 h -1.479 z" />
    </clipPath>
    <clipPath
       id="clipPath5064"
       clipPathUnits="userSpaceOnUse">
      <path
         id="path5062"
         d="m 704.309,325.834 h 2.392 v -1.404 h -2.392 z" />
    </clipPath>
    <clipPath
       id="clipPath5092"
       clipPathUnits="userSpaceOnUse">
      <path
         id="path5090"
         d="m 742.991,333.662 h 1.378 v -0.769 h -1.378 z" />
    </clipPath>
    <clipPath
       id="clipPath5108"
       clipPathUnits="userSpaceOnUse">
      <path
         id="path5106"
         d="m 743.737,332.244 h 1.727 v -0.603 h -1.727 z" />
    </clipPath>
    <clipPath
       id="clipPath5124"
       clipPathUnits="userSpaceOnUse">
      <path
         id="path5122"
         d="m 739.61,334.805 h 1.075 v -1.161 h -1.075 z" />
    </clipPath>
    <clipPath
       id="clipPath5140"
       clipPathUnits="userSpaceOnUse">
      <path
         id="path5138"
         d="m 736.146,334.856 h 0.74 v -1.349 h -0.74 z" />
    </clipPath>
    <clipPath
       id="clipPath5156"
       clipPathUnits="userSpaceOnUse">
      <path
         id="path5154"
         d="m 737.65,335.236 h 0.728 v -1.525 h -0.728 z" />
    </clipPath>
    <clipPath
       id="clipPath5172"
       clipPathUnits="userSpaceOnUse">
      <path
         id="path5170"
         d="m 733.745,329.483 h 1.094 v -1.144 h -1.094 z" />
    </clipPath>
    <clipPath
       id="clipPath5188"
       clipPathUnits="userSpaceOnUse">
      <path
         id="path5186"
         d="m 738.615,329.623 h 0.719 v -1.359 h -0.719 z" />
    </clipPath>
    <clipPath
       id="clipPath5204"
       clipPathUnits="userSpaceOnUse">
      <path
         id="path5202"
         d="m 736.271,329.5 h 0.732 v -1.52 h -0.732 z" />
    </clipPath>
    <clipPath
       id="clipPath5220"
       clipPathUnits="userSpaceOnUse">
      <path
         id="path5218"
         d="m 741.908,330.176 h 1.202 v -1.028 h -1.202 z" />
    </clipPath>
    <clipPath
       id="clipPath5236"
       clipPathUnits="userSpaceOnUse">
      <path
         id="path5234"
         d="m 743.24,330.564 h 1.682 v -0.551 h -1.682 z" />
    </clipPath>
    <clipPath
       id="clipPath5252"
       clipPathUnits="userSpaceOnUse">
      <path
         id="path5250"
         d="m 731.162,330.688 h 1.478 v -0.617 h -1.478 z" />
    </clipPath>
    <clipPath
       id="clipPath5268"
       clipPathUnits="userSpaceOnUse">
      <path
         id="path5266"
         d="m 730.383,332.173 h 1.726 v -0.604 h -1.726 z" />
    </clipPath>
    <clipPath
       id="clipPath5284"
       clipPathUnits="userSpaceOnUse">
      <path
         id="path5282"
         d="m 733.096,334.234 h 0.995 v -1.229 h -0.995 z" />
    </clipPath>
    <clipPath
       id="clipPath5300"
       clipPathUnits="userSpaceOnUse">
      <path
         id="path5298"
         d="m 731.167,333.466 h 1.561 v -0.825 h -1.561 z" />
    </clipPath>
    <clipPath
       id="clipPath5316"
       clipPathUnits="userSpaceOnUse">
      <path
         id="path5314"
         d="m 704.608,340.465 h 63.306 v -38.067 h -63.306 z" />
    </clipPath>
    <clipPath
       id="clipPath5364"
       clipPathUnits="userSpaceOnUse">
      <path
         id="path5362"
         d="m 708.709,377.392 h 81.44 v -45.906 h -81.44 z" />
    </clipPath>
    <clipPath
       id="clipPath5384"
       clipPathUnits="userSpaceOnUse">
      <path
         id="path5382"
         d="M 640.558,425.434 H 783.503 V 389.603 H 640.558 Z" />
    </clipPath>
    <clipPath
       id="clipPath5424"
       clipPathUnits="userSpaceOnUse">
      <path
         id="path5422"
         d="m 709.369,425.902 h 75.886 v -48.589 h -75.886 z" />
    </clipPath>
    <clipPath
       id="clipPath5528"
       clipPathUnits="userSpaceOnUse">
      <path
         id="path5526"
         d="m 708.273,487.253 h 79.15 v -58.314 h -79.15 z" />
    </clipPath>
    <clipPath
       id="clipPath5560"
       clipPathUnits="userSpaceOnUse">
      <path
         id="path5558"
         d="M 709.552,700.755 H 849.78 V 497.422 H 709.552 Z" />
    </clipPath>
    <clipPath
       id="clipPath4738"
       clipPathUnits="userSpaceOnUse">
      <path
         id="path4736"
         d="M 0,591.581 H 1053 V 0 H 0 Z" />
    </clipPath>
    <clipPath
       id="clipPath4726"
       clipPathUnits="userSpaceOnUse">
      <path
         id="path4724"
         d="M 0,591.581 H 1053 V 0 H 0 Z" />
    </clipPath>
    <clipPath
       id="clipPath4714"
       clipPathUnits="userSpaceOnUse">
      <path
         id="path4712"
         d="M 0,591.581 H 1053 V 0 H 0 Z" />
    </clipPath>
    <clipPath
       id="clipPath4702"
       clipPathUnits="userSpaceOnUse">
      <path
         id="path4700"
         d="M 0,591.581 H 1053 V 0 H 0 Z" />
    </clipPath>
    <clipPath
       id="clipPath4660"
       clipPathUnits="userSpaceOnUse">
      <path
         id="path4658"
         d="M 0,591.581 H 1053 V 0 H 0 Z" />
    </clipPath>
    <clipPath
       id="clipPath4670"
       clipPathUnits="userSpaceOnUse">
      <path
         id="path4668"
         d="M 710.102,227.743 H 870.283 V -88.5906 H 710.102 Z" />
    </clipPath>
    <clipPath
       id="clipPath4648"
       clipPathUnits="userSpaceOnUse">
      <path
         id="path4646"
         d="M 0,591.581 H 1053 V 0 H 0 Z" />
    </clipPath>
    <clipPath
       id="clipPath4636"
       clipPathUnits="userSpaceOnUse">
      <path
         id="path4634"
         d="M 0,591.581 H 1053 V 0 H 0 Z" />
    </clipPath>
    <clipPath
       id="clipPath4624"
       clipPathUnits="userSpaceOnUse">
      <path
         id="path4622"
         d="M 0,591.581 H 1053 V 0 H 0 Z" />
    </clipPath>
  </defs>
  <metadata
     id="metadata6752">
    <rdf:RDF>
      <cc:Work
         rdf:about="">
        <dc:format>image/svg+xml</dc:format>
        <dc:type
           rdf:resource="http://purl.org/dc/dcmitype/StillImage" />
        <dc:title />
      </cc:Work>
    </rdf:RDF>
  </metadata>
  <g
     id="g4606"
     transform="matrix(0.35277777,0,0,-0.35277777,132.65744,151.76986)">
    <path
       d="M 0,0 48,46 H -204 L -157,0 Z"
       style="fill:#84d5f7;fill-opacity:1;fill-rule:nonzero;stroke:none"
       id="path4608"
       inkscape:connector-curvature="0" />
  </g>
  <g
     id="g4610"
     transform="matrix(0.35277777,0,0,-0.35277777,132.65744,151.76986)">
    <path
       d="M 0,0 48,46 H -204 L -157,0 Z"
       style="fill:none;stroke:#231f20;stroke-width:4.86800003;stroke-linecap:butt;stroke-linejoin:miter;stroke-miterlimit:10;stroke-dasharray:none;stroke-opacity:1"
       id="path4612"
       inkscape:connector-curvature="0" />
  </g>
  <path
     d="M 154.25731,135.54201 H 56.024588 v -6.23253 h 98.232722 z"
     style="fill:#84d5f7;fill-opacity:1;fill-rule:nonzero;stroke:#231f20;stroke-width:1.71732211;stroke-linecap:butt;stroke-linejoin:miter;stroke-miterlimit:10;stroke-dasharray:none;stroke-opacity:1"
     id="path4614"
     inkscape:connector-curvature="0" />
  <path
     d="M 80.681638,209.33642 H 129.60026 V 199.03178 H 80.681638 Z"
     style="fill:#84d5f7;fill-opacity:1;fill-rule:nonzero;stroke:none;stroke-width:0.35277775"
     id="path4616"
     inkscape:connector-curvature="0" />
  <g
     transform="matrix(0.35277777,0,0,-0.35277777,-145.59532,209.33642)"
     id="g4618">
    <g
       id="g4620"
       clip-path="url(#clipPath4624)">
      <path
         d="M 780.081,-92.486 H 641.415 V 29.21 h 138.666 z"
         style="fill:none;stroke:#231f20;stroke-width:4.78200006;stroke-linecap:butt;stroke-linejoin:miter;stroke-miterlimit:10;stroke-dasharray:none;stroke-opacity:1"
         id="path4626"
         inkscape:connector-curvature="0" />
    </g>
  </g>
  <path
     d="m 109.82495,209.33642 h 4.31306 v -3.8227 h -4.31306 z"
     style="fill:#ffffff;fill-opacity:1;fill-rule:nonzero;stroke:none;stroke-width:0.35277775"
     id="path4628"
     inkscape:connector-curvature="0" />
  <g
     transform="matrix(0.35277777,0,0,-0.35277777,-145.59532,209.33642)"
     id="g4630">
    <g
       id="g4632"
       clip-path="url(#clipPath4636)">
      <path
         d="m 736.251,-3.835 h -12.226 v 14.671 h 12.226 z"
         style="fill:none;stroke:#231f20;stroke-width:4.15700006;stroke-linecap:butt;stroke-linejoin:miter;stroke-miterlimit:10;stroke-dasharray:none;stroke-opacity:1"
         id="path4638"
         inkscape:connector-curvature="0" />
    </g>
  </g>
  <path
     d="m 115.95588,209.33642 h 4.31341 v -3.8227 h -4.31341 z"
     style="fill:#ffffff;fill-opacity:1;fill-rule:nonzero;stroke:none;stroke-width:0.35277775"
     id="path4640"
     inkscape:connector-curvature="0" />
  <g
     transform="matrix(0.35277777,0,0,-0.35277777,-145.59532,209.33642)"
     id="g4642">
    <g
       id="g4644"
       clip-path="url(#clipPath4648)">
      <path
         d="m 753.631,-3.835 h -12.227 v 14.671 h 12.227 z"
         style="fill:none;stroke:#231f20;stroke-width:4.15700006;stroke-linecap:butt;stroke-linejoin:miter;stroke-miterlimit:10;stroke-dasharray:none;stroke-opacity:1"
         id="path4650"
         inkscape:connector-curvature="0" />
    </g>
  </g>
  <path
     d="m 122.08716,209.33642 h 4.31341 v -3.8227 h -4.31341 z"
     style="fill:#ffffff;fill-opacity:1;fill-rule:nonzero;stroke:none;stroke-width:0.35277775"
     id="path4652"
     inkscape:connector-curvature="0" />
  <g
     transform="matrix(0.35277777,0,0,-0.35277777,-145.59532,209.33642)"
     id="g4654">
    <g
       id="g4656"
       clip-path="url(#clipPath4660)">
      <path
         d="m 771.011,-3.835 h -12.227 v 14.671 h 12.227 z"
         style="fill:none;stroke:#231f20;stroke-width:4.15700006;stroke-linecap:butt;stroke-linejoin:miter;stroke-miterlimit:10;stroke-dasharray:none;stroke-opacity:1"
         id="path4662"
         inkscape:connector-curvature="0" />
      <g
         id="g4664">
        <g
           id="g4666" />
        <g
           id="g4682">
          <g
             clip-path="url(#clipPath4670)"
             id="g4680"
             style="opacity:0.119995">
            <g
               transform="translate(869.7832,135.6056)"
               id="g4674">
              <path
                 d="M 0,0 C 0,0.265 -0.055,0.515 -0.146,0.746 V 17 c 0,6.601 -5.4,12 -12,12 h -67.96 l 46.924,44.971 h 13.228 v 17.666 h -139.228 v -315.333 h 69.334 V -103 h 77.702 c 6.6,0 12,5.4 12,12 V -8.479 C -0.055,-8.248 0,-7.997 0,-7.733 c 0,0.263 -0.055,0.514 -0.146,0.746 v 6.241 C -0.055,-0.515 0,-0.264 0,0"
                 style="fill:#757576;fill-opacity:1;fill-rule:nonzero;stroke:none"
                 id="path4672"
                 inkscape:connector-curvature="0" />
            </g>
            <g
               transform="translate(869.7832,135.6056)"
               id="g4678">
              <path
                 d="M 0,0 C 0,0.265 -0.055,0.515 -0.146,0.746 V 17 c 0,6.601 -5.4,12 -12,12 h -67.96 l 46.924,44.971 h 13.228 v 17.666 h -139.228 v -315.333 h 69.334 V -103 h 77.702 c 6.6,0 12,5.4 12,12 V -8.479 C -0.055,-8.248 0,-7.997 0,-7.733 c 0,0.263 -0.055,0.514 -0.146,0.746 v 6.241 C -0.055,-0.515 0,-0.264 0,0 Z"
                 style="fill:none;stroke:#b3b3b3;stroke-width:1;stroke-linecap:butt;stroke-linejoin:miter;stroke-miterlimit:10;stroke-dasharray:none;stroke-opacity:1"
                 id="path4676"
                 inkscape:connector-curvature="0" />
            </g>
          </g>
        </g>
      </g>
    </g>
  </g>
  <path
     inkscape:connector-curvature="0"
     id="path4686"
     style="fill:#84d5f7;fill-opacity:1;fill-rule:nonzero;stroke:none;stroke-width:0.35277778"
     d="M 77.654585,11.233764 60.721252,27.461541 H 149.62125 L 133.0407,11.233764 Z" />
  <g
     id="g4688"
     transform="matrix(0.35277777,0,0,-0.35277777,77.654585,11.233764)">
    <path
       d="M 0,0 -48,-46 H 204 L 157,0 Z"
       style="fill:none;stroke:#231f20;stroke-width:4.86800003;stroke-linecap:butt;stroke-linejoin:miter;stroke-miterlimit:10;stroke-dasharray:none;stroke-opacity:1"
       id="path4690"
       inkscape:connector-curvature="0" />
  </g>
  <path
     d="M 56.054955,27.461716 H 154.28768 V 33.69389 H 56.054955 Z"
     style="fill:#84d5f7;fill-opacity:1;fill-rule:nonzero;stroke:#231f20;stroke-width:1.71732211;stroke-linecap:butt;stroke-linejoin:miter;stroke-miterlimit:10;stroke-dasharray:none;stroke-opacity:1"
     id="path4692"
     inkscape:connector-curvature="0" />
  <path
     d="M 80.712005,11.23394 H 129.63063 V 0.52889851 H 80.712005 Z"
     style="fill:#84d5f7;fill-opacity:1;fill-rule:nonzero;stroke:none;stroke-width:0.35277775"
     id="path4694"
     inkscape:connector-curvature="0" />
  <g
     transform="matrix(0.35277777,0,0,-0.35277777,-145.92902,209.22519)"
     id="g4696">
    <g
       id="g4698"
       clip-path="url(#clipPath4702)">
      <path
         d="M 781.113,561.235 H 642.447 v 138.667 h 138.666 z"
         style="fill:none;stroke:#231f20;stroke-width:5.10500002;stroke-linecap:butt;stroke-linejoin:miter;stroke-miterlimit:10;stroke-dasharray:none;stroke-opacity:1"
         id="path4704"
         inkscape:connector-curvature="0" />
    </g>
  </g>
  <path
     d="m 87.590088,4.171791 h 2.99861 V 0.63978 h -2.99861 z"
     style="fill:#ffffff;fill-opacity:1;fill-rule:nonzero;stroke:none;stroke-width:0.35277775"
     id="path4706"
     inkscape:connector-curvature="0" />
  <g
     transform="matrix(0.35277777,0,0,-0.35277777,-145.59532,209.33642)"
     id="g4708">
    <g
       id="g4710"
       clip-path="url(#clipPath4714)">
      <path
         d="m 669.498,581.569 h -8.5 v 96.333 h 8.5 z"
         style="fill:none;stroke:#231f20;stroke-width:3;stroke-linecap:butt;stroke-linejoin:miter;stroke-miterlimit:10;stroke-dasharray:none;stroke-opacity:1"
         id="path4716"
         inkscape:connector-curvature="0" />
    </g>
  </g>
  <path
     d="m 92.646448,4.289619 h 2.99861 V 0.63978 h -2.99861 z"
     style="fill:#ffffff;fill-opacity:1;fill-rule:nonzero;stroke:none;stroke-width:0.35277775"
     id="path4718"
     inkscape:connector-curvature="0" />
  <g
     transform="matrix(0.35277777,0,0,-0.35277777,-145.59532,209.33642)"
     id="g4720">
    <g
       id="g4722"
       clip-path="url(#clipPath4726)">
      <path
         d="m 683.831,581.235 h -8.5 v 96.334 h 8.5 z"
         style="fill:none;stroke:#231f20;stroke-width:3;stroke-linecap:butt;stroke-linejoin:miter;stroke-miterlimit:10;stroke-dasharray:none;stroke-opacity:1"
         id="path4728"
         inkscape:connector-curvature="0" />
    </g>
  </g>
  <path
     d="m 97.585338,4.230352 h 2.998612 V 0.63978 h -2.998612 z"
     style="fill:#ffffff;fill-opacity:1;fill-rule:nonzero;stroke:none;stroke-width:0.35277775"
     id="path4730"
     inkscape:connector-curvature="0" />
  <g
     transform="matrix(0.35277777,0,0,-0.35277777,-145.59532,209.33642)"
     id="g4732">
    <g
       id="g4734"
       clip-path="url(#clipPath4738)">
      <path
         d="m 697.831,581.402 h -8.5 v 96.333 h 8.5 z"
         style="fill:none;stroke:#231f20;stroke-width:3;stroke-linecap:butt;stroke-linejoin:miter;stroke-miterlimit:10;stroke-dasharray:none;stroke-opacity:1"
         id="path4740"
         inkscape:connector-curvature="0" />
    </g>
  </g>
  <path
     d="m 87.590088,4.171791 h 2.99861 V 0.63978 h -2.99861 z"
     style="fill:#ef4359;fill-opacity:1;fill-rule:nonzero;stroke:none;stroke-width:0.35277775"
     id="path4742"
     inkscape:connector-curvature="0" />
  <path
     d="m 92.646448,4.171791 h 2.99861 V 0.63978 h -2.99861 z"
     style="fill:#159b48;fill-opacity:1;fill-rule:nonzero;stroke:none;stroke-width:0.35277775"
     id="path4744"
     inkscape:connector-curvature="0" />
  <path
     d="m 97.585338,4.171791 h 2.998612 V 0.63978 h -2.998612 z"
     style="fill:#fed500;fill-opacity:1;fill-rule:nonzero;stroke:none;stroke-width:0.35277775"
     id="path4746"
     inkscape:connector-curvature="0" />
  <path
     d="m 90.647258,4.171802 h -2.998611 v -33.984141 h 2.998611 z"
     style="fill:none;stroke:#231f20;stroke-width:1.05833328;stroke-linecap:butt;stroke-linejoin:miter;stroke-miterlimit:10;stroke-dasharray:none;stroke-opacity:1"
     id="path4756"
     inkscape:connector-curvature="0" />
  <path
     d="m 95.703974,4.28963 h -2.998611 v -33.984494 h 2.998611 z"
     style="fill:none;stroke:#231f20;stroke-width:1.05833328;stroke-linecap:butt;stroke-linejoin:miter;stroke-miterlimit:10;stroke-dasharray:none;stroke-opacity:1"
     id="path4758"
     inkscape:connector-curvature="0" />
  <path
     d="m 100.64286,4.230716 h -2.998608 v -33.984141 h 2.998608 z"
     style="fill:none;stroke:#231f20;stroke-width:1.05833328;stroke-linecap:butt;stroke-linejoin:miter;stroke-miterlimit:10;stroke-dasharray:none;stroke-opacity:1"
     id="path4760"
     inkscape:connector-curvature="0" />
  <g
     id="g5542"
     transform="matrix(0.35277777,0,0,-0.35277777,142.3988,125.64332)">
    <path
       d="m 0,0 h -1.021 c -3.225,0 -5.864,2.639 -5.864,5.863 v 51.503 c 0,3.225 2.639,5.864 5.864,5.864 H 0 c 3.225,0 5.863,-2.639 5.863,-5.864 V 5.863 C 5.863,2.639 3.225,0 0,0"
       style="fill:#ffffff;fill-opacity:1;fill-rule:nonzero;stroke:none"
       id="path5544"
       inkscape:connector-curvature="0" />
  </g>
  <g
     id="g5574"
     transform="matrix(0.35277777,0,0,-0.35277777,156.97399,198.33653)">
    <path
       d="m 0,0 h -294.217 c -6.599,0 -12,5.4 -12,12 v 108 c 0,6.6 5.401,12 12,12 H 0 c 6.6,0 12,-5.4 12,-12 V 12 C 12,5.4 6.6,0 0,0"
       style="fill:#c9c9c9;fill-opacity:1;fill-rule:nonzero;stroke:none"
       id="path5576"
       inkscape:connector-curvature="0" />
  </g>
  <g
     id="g5578"
     transform="matrix(0.35277777,0,0,-0.35277777,156.97399,198.33653)">
    <path
       d="m 0,0 h -294.217 c -6.599,0 -12,5.4 -12,12 v 108 c 0,6.6 5.401,12 12,12 H 0 c 6.6,0 12,-5.4 12,-12 V 12 C 12,5.4 6.6,0 0,0 Z"
       style="fill:none;stroke:#231f20;stroke-width:4.49399996;stroke-linecap:butt;stroke-linejoin:miter;stroke-miterlimit:10;stroke-dasharray:none;stroke-opacity:1"
       id="path5580"
       inkscape:connector-curvature="0" />
  </g>
  <path
     d="M 139.93242,191.81783 H 70.22213 v -33.52906 h 69.71029 z"
     style="fill:#f0efef;fill-opacity:1;fill-rule:nonzero;stroke:#231f20;stroke-width:1.71732223;stroke-linecap:butt;stroke-linejoin:miter;stroke-miterlimit:10;stroke-dasharray:none;stroke-opacity:1"
     id="path5582"
     inkscape:connector-curvature="0" />
  <g
     id="g5584"
     transform="matrix(0.35277777,0,0,-0.35277777,52.829445,186.2656)">
    <path
       d="M 0,0 H -8.974 Z"
       style="fill:#ffffff;fill-opacity:1;fill-rule:nonzero;stroke:none"
       id="path5586"
       inkscape:connector-curvature="0" />
  </g>
  <g
     id="g5588"
     transform="matrix(0.35277777,0,0,-0.35277777,48.947514,186.2656)">
    <path
       d="m 0,0 c 0,1.12 0.908,2.029 2.03,2.029 h 8.974 c 1.12,0 2.029,-0.909 2.029,-2.029 0,-1.12 -0.909,-2.029 -2.029,-2.029 H 2.03 C 0.908,-2.029 0,-1.12 0,0"
       style="fill:#231f20;fill-opacity:1;fill-rule:nonzero;stroke:none"
       id="path5590"
       inkscape:connector-curvature="0" />
  </g>
  <g
     id="g5592"
     transform="matrix(0.35277777,0,0,-0.35277777,52.829445,188.90353)">
    <path
       d="M 0,0 H -8.974 Z"
       style="fill:#ffffff;fill-opacity:1;fill-rule:nonzero;stroke:none"
       id="path5594"
       inkscape:connector-curvature="0" />
  </g>
  <g
     id="g5596"
     transform="matrix(0.35277777,0,0,-0.35277777,48.947514,188.90353)">
    <path
       d="m 0,0 c 0,1.12 0.908,2.029 2.03,2.029 h 8.974 c 1.12,0 2.029,-0.909 2.029,-2.029 0,-1.121 -0.909,-2.03 -2.029,-2.03 H 2.03 C 0.908,-2.03 0,-1.121 0,0"
       style="fill:#231f20;fill-opacity:1;fill-rule:nonzero;stroke:none"
       id="path5598"
       inkscape:connector-curvature="0" />
  </g>
  <g
     id="g5600"
     transform="matrix(0.35277777,0,0,-0.35277777,52.829445,191.54178)">
    <path
       d="M 0,0 H -8.974 Z"
       style="fill:#ffffff;fill-opacity:1;fill-rule:nonzero;stroke:none"
       id="path5602"
       inkscape:connector-curvature="0" />
  </g>
  <g
     id="g5604"
     transform="matrix(0.35277777,0,0,-0.35277777,48.947514,191.54178)">
    <path
       d="m 0,0 c 0,1.121 0.908,2.03 2.03,2.03 h 8.974 c 1.12,0 2.029,-0.909 2.029,-2.03 0,-1.12 -0.909,-2.029 -2.029,-2.029 H 2.03 C 0.908,-2.029 0,-1.12 0,0"
       style="fill:#231f20;fill-opacity:1;fill-rule:nonzero;stroke:none"
       id="path5606"
       inkscape:connector-curvature="0" />
  </g>
  <g
     id="g5608"
     transform="matrix(0.35277777,0,0,-0.35277777,52.829445,194.17968)">
    <path
       d="M 0,0 H -8.974 Z"
       style="fill:#ffffff;fill-opacity:1;fill-rule:nonzero;stroke:none"
       id="path5610"
       inkscape:connector-curvature="0" />
  </g>
  <g
     id="g5612"
     transform="matrix(0.35277777,0,0,-0.35277777,48.947514,194.17968)">
    <path
       d="m 0,0 c 0,1.12 0.908,2.029 2.03,2.029 h 8.974 c 1.12,0 2.029,-0.909 2.029,-2.029 0,-1.12 -0.909,-2.029 -2.029,-2.029 H 2.03 C 0.908,-2.029 0,-1.12 0,0"
       style="fill:#231f20;fill-opacity:1;fill-rule:nonzero;stroke:none"
       id="path5614"
       inkscape:connector-curvature="0" />
  </g>
  <g
     id="g5616"
     transform="matrix(0.35277777,0,0,-0.35277777,155.68,184.44901)">
    <path
       d="m 0,0 c 0,-0.695 -0.441,-1.26 -0.985,-1.26 -0.543,0 -0.984,0.565 -0.984,1.26 0,0.693 0.441,1.258 0.984,1.258 C -0.441,1.258 0,0.693 0,0"
       style="fill:#ffffff;fill-opacity:1;fill-rule:nonzero;stroke:none"
       id="path5618"
       inkscape:connector-curvature="0" />
  </g>
  <g
     id="g5620"
     transform="matrix(0.35277777,0,0,-0.35277777,155.33237,184.17719)">
    <path
       d="m 0,0 c -0.588,0 -1.044,-0.414 -1.044,-0.771 0,-0.356 0.456,-0.771 1.044,-0.771 0.589,0 1.046,0.415 1.046,0.771 C 1.046,-0.414 0.589,0 0,0 m 0,-4.06 c -1.661,0 -3.013,1.476 -3.013,3.289 0,1.814 1.352,3.289 3.013,3.289 1.662,0 3.016,-1.475 3.016,-3.289 C 3.016,-2.584 1.662,-4.06 0,-4.06"
       style="fill:#231f20;fill-opacity:1;fill-rule:nonzero;stroke:none"
       id="path5622"
       inkscape:connector-curvature="0" />
  </g>
  <g
     id="g5624"
     transform="matrix(0.35277777,0,0,-0.35277777,155.68,188.35644)">
    <path
       d="m 0,0 c 0,-0.693 -0.441,-1.258 -0.985,-1.258 -0.543,0 -0.984,0.565 -0.984,1.258 0,0.695 0.441,1.26 0.984,1.26 C -0.441,1.26 0,0.695 0,0"
       style="fill:#ffffff;fill-opacity:1;fill-rule:nonzero;stroke:none"
       id="path5626"
       inkscape:connector-curvature="0" />
  </g>
  <g
     id="g5628"
     transform="matrix(0.35277777,0,0,-0.35277777,155.33237,188.08428)">
    <path
       d="m 0,0 c -0.588,0 -1.044,-0.415 -1.044,-0.771 0,-0.357 0.456,-0.771 1.044,-0.771 0.589,0 1.046,0.414 1.046,0.771 C 1.046,-0.415 0.589,0 0,0 m 0,-4.059 c -1.661,0 -3.013,1.475 -3.013,3.288 0,1.814 1.352,3.289 3.013,3.289 1.662,0 3.016,-1.475 3.016,-3.289 0,-1.813 -1.354,-3.288 -3.016,-3.288"
       style="fill:#231f20;fill-opacity:1;fill-rule:nonzero;stroke:none"
       id="path5630"
       inkscape:connector-curvature="0" />
  </g>
  <g
     id="g5632"
     transform="matrix(0.35277777,0,0,-0.35277777,155.68,192.26318)">
    <path
       d="m 0,0 c 0,-0.694 -0.441,-1.259 -0.985,-1.259 -0.543,0 -0.984,0.565 -0.984,1.259 0,0.694 0.441,1.259 0.984,1.259 C -0.441,1.259 0,0.694 0,0"
       style="fill:#ffffff;fill-opacity:1;fill-rule:nonzero;stroke:none"
       id="path5634"
       inkscape:connector-curvature="0" />
  </g>
  <g
     id="g5636"
     transform="matrix(0.35277777,0,0,-0.35277777,155.33237,191.99101)">
    <path
       d="m 0,0 c -0.588,0 -1.044,-0.415 -1.044,-0.771 0,-0.358 0.456,-0.771 1.044,-0.771 0.589,0 1.046,0.413 1.046,0.771 C 1.046,-0.415 0.589,0 0,0 m 0,-4.06 c -1.661,0 -3.013,1.475 -3.013,3.289 0,1.813 1.352,3.288 3.013,3.288 1.662,0 3.016,-1.475 3.016,-3.288 C 3.016,-2.585 1.662,-4.06 0,-4.06"
       style="fill:#231f20;fill-opacity:1;fill-rule:nonzero;stroke:none"
       id="path5638"
       inkscape:connector-curvature="0" />
  </g>
  <g
     id="g5640"
     transform="matrix(0.35277777,0,0,-0.35277777,156.39624,162.00042)">
    <path
       d="M 0,0 H 11.754 Z"
       style="fill:#ffffff;fill-opacity:1;fill-rule:nonzero;stroke:none"
       id="path5642"
       inkscape:connector-curvature="0" />
  </g>
  <g
     id="g5644"
     transform="matrix(0.35277777,0,0,-0.35277777,160.54276,162.71631)">
    <path
       d="m 0,0 h -11.754 c -1.121,0 -2.03,0.908 -2.03,2.029 0,1.121 0.909,2.03 2.03,2.03 L 0,4.059 C 1.12,4.059 2.029,3.15 2.029,2.029 2.029,0.908 1.12,0 0,0"
       style="fill:#231f20;fill-opacity:1;fill-rule:nonzero;stroke:none"
       id="path5646"
       inkscape:connector-curvature="0" />
  </g>
  <g
     id="g5648"
     transform="matrix(0.35277777,0,0,-0.35277777,157.58997,164.72859)">
    <path
       d="M 0,0 H 8.37 Z"
       style="fill:#ffffff;fill-opacity:1;fill-rule:nonzero;stroke:none"
       id="path5650"
       inkscape:connector-curvature="0" />
  </g>
  <g
     id="g5652"
     transform="matrix(0.35277777,0,0,-0.35277777,160.54276,165.44483)">
    <path
       d="m 0,0 h -8.37 c -1.121,0 -2.029,0.909 -2.029,2.03 0,1.121 0.908,2.03 2.029,2.03 H 0 C 1.12,4.06 2.029,3.151 2.029,2.03 2.029,0.909 1.12,0 0,0"
       style="fill:#231f20;fill-opacity:1;fill-rule:nonzero;stroke:none"
       id="path5654"
       inkscape:connector-curvature="0" />
  </g>
  <rect
     style="opacity:1;vector-effect:none;fill:#fff7ff;fill-opacity:0.29648241;stroke:none;stroke-width:0.59917092;stroke-linecap:butt;stroke-linejoin:miter;stroke-miterlimit:4;stroke-dasharray:none;stroke-dashoffset:0;stroke-opacity:1"
     id="rect10327"
     width="99.560776"
     height="93.718239"
     x="55.398727"
     y="34.640923" />
</svg>
