<?xml version="1.0" encoding="UTF-8" standalone="no"?>
<svg
   xmlns:dc="http://purl.org/dc/elements/1.1/"
   xmlns:cc="http://creativecommons.org/ns#"
   xmlns:rdf="http://www.w3.org/1999/02/22-rdf-syntax-ns#"
   xmlns:svg="http://www.w3.org/2000/svg"
   xmlns="http://www.w3.org/2000/svg"
   id="svg6190"
   version="1.1"
   viewBox="0 0 210 297"
   height="297mm"
   width="210mm">
  <defs
     id="defs6184">
    <clipPath
       id="clipPath1056"
       clipPathUnits="userSpaceOnUse">
      <path
         id="path1054"
         d="m 137.933,70.8238 h 19.634 V 31.5551 h -19.634 z" />
    </clipPath>
  </defs>
  <metadata
     id="metadata6187">
    <rdf:RDF>
      <cc:Work
         rdf:about="">
        <dc:format>image/svg+xml</dc:format>
        <dc:type
           rdf:resource="http://purl.org/dc/dcmitype/StillImage" />
        <dc:title></dc:title>
      </cc:Work>
    </rdf:RDF>
  </metadata>
  <g
     id="layer1">
    <g
       transform="matrix(0.35277777,0,0,-0.35277777,6.877126,9.5038967)"
       id="g994">
      <path
         id="path996"
         style="fill:#e4b86f;fill-opacity:1;fill-rule:nonzero;stroke:none"
         d="M 0,0 C 3.115,0 5.64,2.525 5.64,5.64 5.64,8.754 3.115,11.279 0,11.279 -3.114,11.279 -5.64,8.754 -5.64,5.64 -5.64,2.525 -3.114,0 0,0 m -0.209,-13.786 c -10.844,0 -19.634,8.791 -19.634,19.635 0,10.843 8.79,19.634 19.634,19.634 10.844,0 19.635,-8.791 19.635,-19.634 0,-10.844 -8.791,-19.635 -19.635,-19.635" />
    </g>
    <g
       transform="matrix(0.35277777,0,0,-0.35277777,6.891588,9.4995927)"
       id="g998">
      <path
         id="path1000"
         style="fill:#f03e65;fill-opacity:1;fill-rule:nonzero;stroke:none"
         d="m 0,0 c 3.086,0 5.587,2.501 5.587,5.586 0,3.086 -2.501,5.587 -5.587,5.587 -3.085,0 -5.587,-2.501 -5.587,-5.587 C -5.587,2.501 -3.085,0 0,0 m 1.805,-8.503 c -1.088,0.352 -2.851,0.352 -3.938,0 l -2.576,-0.834 c -1.088,-0.352 -2.391,0.188 -2.91,1.206 l -1.233,2.411 c -0.519,1.017 -1.766,2.264 -2.784,2.784 l -2.411,1.232 c -1.017,0.52 -1.557,1.823 -1.205,2.91 l 0.834,2.576 c 0.352,1.088 0.352,2.851 0,3.938 l -0.834,2.576 c -0.352,1.087 0.188,2.391 1.205,2.91 l 2.411,1.232 c 1.018,0.52 2.265,1.767 2.784,2.784 l 1.233,2.412 c 0.519,1.017 1.823,1.557 2.91,1.205 l 2.576,-0.834 c 1.087,-0.352 2.851,-0.352 3.938,0 l 2.576,0.834 c 1.087,0.352 2.39,-0.188 2.91,-1.205 l 1.231,-2.412 c 0.521,-1.017 1.767,-2.264 2.785,-2.784 l 2.411,-1.232 c 1.018,-0.52 1.557,-1.823 1.206,-2.91 L 14.09,7.72 c -0.353,-1.088 -0.353,-2.851 0,-3.938 l 0.834,-2.576 c 0.351,-1.087 -0.189,-2.39 -1.206,-2.91 L 11.307,-2.936 C 10.289,-3.456 9.042,-4.703 8.522,-5.72 L 7.291,-8.131 C 6.771,-9.149 5.468,-9.689 4.381,-9.337 Z" />
    </g>
    <g
       transform="matrix(0.35277777,0,0,-0.35277777,4.851052,3.6890957)"
       id="g1002">
      <path
         id="path1004"
         style="fill:#f6c446;fill-opacity:1;fill-rule:nonzero;stroke:none"
         d="M 0,0 0.79,0.272 1.878,-2.888 1.088,-3.16 Z" />
    </g>
    <g
       transform="matrix(0.35277777,0,0,-0.35277777,4.178233,5.1685747)"
       id="g1006">
      <path
         id="path1008"
         style="fill:#6bccbb;fill-opacity:1;fill-rule:nonzero;stroke:none"
         d="m 0,0 0.34,-0.763 -3.054,-1.36 -0.34,0.764 z" />
    </g>
    <g
       transform="matrix(0.35277777,0,0,-0.35277777,7.437653,3.4615187)"
       id="g1010">
      <path
         id="path1012"
         style="fill:#708ccf;fill-opacity:1;fill-rule:nonzero;stroke:none"
         d="m 0,0 0.515,-0.658 -2.634,-2.058 -0.514,0.658 z" />
    </g>
    <g
       transform="matrix(0.35277777,0,0,-0.35277777,4.369439,8.9352887)"
       id="g1014">
      <path
         id="path1016"
         style="fill:#f6c446;fill-opacity:1;fill-rule:nonzero;stroke:none"
         d="m 0,0 -0.479,0.685 -2.738,-1.917 0.48,-0.685 z" />
    </g>
    <g
       transform="matrix(0.35277777,0,0,-0.35277777,5.269975,10.04407)"
       id="g1018">
      <path
         id="path1020"
         style="fill:#6bccbb;fill-opacity:1;fill-rule:nonzero;stroke:none"
         d="m 0,0 -0.775,0.313 -1.252,-3.099 0.775,-0.313 z" />
    </g>
    <g
       transform="matrix(0.35277777,0,0,-0.35277777,3.198782,6.8924937)"
       id="g1022">
      <path
         id="path1024"
         style="fill:#708ccf;fill-opacity:1;fill-rule:nonzero;stroke:none"
         d="m 0,0 -0.804,-0.23 0.922,-3.213 0.803,0.23 z" />
    </g>
    <g
       transform="matrix(0.35277777,0,0,-0.35277777,8.552113,9.8501127)"
       id="g1026">
      <path
         id="path1028"
         style="fill:#f6c446;fill-opacity:1;fill-rule:nonzero;stroke:none"
         d="m 0,0 -0.649,-0.526 2.102,-2.597 0.65,0.526 z" />
    </g>
    <g
       transform="matrix(0.35277777,0,0,-0.35277777,9.605649,9.0215787)"
       id="g1030">
      <path
         id="path1032"
         style="fill:#6bccbb;fill-opacity:1;fill-rule:nonzero;stroke:none"
         d="M 0,0 -0.258,-0.795 2.92,-1.828 3.179,-1.033 Z" />
    </g>
    <g
       transform="matrix(0.35277777,0,0,-0.35277777,6.154001,11.160647)"
       id="g1034">
      <path
         id="path1036"
         style="fill:#708ccf;fill-opacity:1;fill-rule:nonzero;stroke:none"
         d="M 0,0 0.285,-0.785 3.426,0.358 3.14,1.143 Z" />
    </g>
    <g
       transform="matrix(0.35277777,0,0,-0.35277777,10.142401,5.1873427)"
       id="g1038">
      <path
         id="path1040"
         style="fill:#f6c446;fill-opacity:1;fill-rule:nonzero;stroke:none"
         d="m 0,0 0.692,-0.467 -1.868,-2.771 -0.693,0.467 z" />
    </g>
    <g
       transform="matrix(0.35277777,0,0,-0.35277777,9.49195,4.4600917)"
       id="g1042">
      <path
         id="path1044"
         style="fill:#6bccbb;fill-opacity:1;fill-rule:nonzero;stroke:none"
         d="m 0,0 -0.173,-0.817 -3.269,0.695 0.173,0.817 z" />
    </g>
    <g
       transform="matrix(0.35277777,0,0,-0.35277777,11.029142,7.8171597)"
       id="g1046">
      <path
         id="path1048"
         style="fill:#708ccf;fill-opacity:1;fill-rule:nonzero;stroke:none"
         d="m 0,0 -0.641,-0.537 -2.147,2.56 0.64,0.537 z" />
    </g>
    <g
       id="g1050"
       transform="matrix(0.35277777,0,0,-0.35277777,-41.856162,25.558354)">
      <g
         id="g1052" />
      <g
         id="g1064">
        <g
           style="opacity:0.14999402"
           id="g1062"
           clip-path="url(#clipPath1056)">
          <g
             id="g1060"
             transform="translate(137.9326,70.8237)">
            <path
               id="path1058"
               style="fill:#656767;fill-opacity:1;fill-rule:nonzero;stroke:none"
               d="m 0,0 v -14.31 c 0.084,0.003 0.166,0.013 0.25,0.013 3.086,0 5.587,-2.502 5.587,-5.587 0,-0.764 -0.154,-1.493 -0.433,-2.157 -0.57,-1.347 -1.65,-2.427 -2.998,-2.998 -0.663,-0.277 -1.391,-0.432 -2.156,-0.432 -0.084,0 -0.166,0.009 -0.25,0.013 v -13.811 c 10.844,0 19.635,8.791 19.635,19.635 C 19.635,-8.791 10.844,0 0,0" />
          </g>
        </g>
      </g>
    </g>
  </g>
</svg>
