<?xml version="1.0" encoding="UTF-8" standalone="no"?>
<svg
   xmlns:dc="http://purl.org/dc/elements/1.1/"
   xmlns:cc="http://creativecommons.org/ns#"
   xmlns:rdf="http://www.w3.org/1999/02/22-rdf-syntax-ns#"
   xmlns:svg="http://www.w3.org/2000/svg"
   xmlns="http://www.w3.org/2000/svg"
   xmlns:sodipodi="http://sodipodi.sourceforge.net/DTD/sodipodi-0.dtd"
   xmlns:inkscape="http://www.inkscape.org/namespaces/inkscape"
   viewBox="0 0 1056 816"
   height="816"
   width="1056"
   xml:space="preserve"
   id="svg2"
   version="1.1"
   sodipodi:docname="dumpster.svg"
   inkscape:version="0.92.2pre0 (973e216, 2017-07-25)"><sodipodi:namedview
     pagecolor="#ffffff"
     bordercolor="#666666"
     borderopacity="1"
     objecttolerance="10"
     gridtolerance="10"
     guidetolerance="10"
     inkscape:pageopacity="0"
     inkscape:pageshadow="2"
     inkscape:window-width="1413"
     inkscape:window-height="994"
     id="namedview46"
     showgrid="false"
     inkscape:zoom="0.28921569"
     inkscape:cx="534.91525"
     inkscape:cy="408"
     inkscape:window-x="0"
     inkscape:window-y="0"
     inkscape:window-maximized="0"
     inkscape:current-layer="svg2" /><metadata
     id="metadata8"><rdf:RDF><cc:Work
         rdf:about=""><dc:format>image/svg+xml</dc:format><dc:type
           rdf:resource="http://purl.org/dc/dcmitype/StillImage" /><dc:title /></cc:Work></rdf:RDF></metadata><defs
     id="defs6"><clipPath
       id="clipPath18"
       clipPathUnits="userSpaceOnUse"><path
         id="path16"
         d="M 0,612 H 792 V 0 H 0 Z" /></clipPath></defs><g
     transform="matrix(-1.3333333,0,0,-1.3333333,406.49248,816)"
     id="g10"><g
       transform="translate(1.6207628,-234.03814)"
       id="g1026"><g
         id="g20"
         transform="translate(32.15223,295.07985)"><path
           d="m 0,0 c 0,-6.719 5.447,-12.165 12.166,-12.165 6.718,0 12.165,5.446 12.165,12.165 0,6.719 -5.447,12.165 -12.165,12.165 C 5.447,12.165 0,6.719 0,0"
           style="fill:#ffffff;fill-opacity:1;fill-rule:nonzero;stroke:none"
           id="path22"
           inkscape:connector-curvature="0" /></g><g
         id="g24"
         transform="translate(44.31773,303.22245)"><path
           d="m 0,0 c -4.49,0 -8.143,-3.652 -8.143,-8.143 0,-4.489 3.653,-8.142 8.143,-8.142 4.49,0 8.142,3.653 8.142,8.142 C 8.142,-3.652 4.49,0 0,0 m 0,-24.33 c -8.926,0 -16.188,7.262 -16.188,16.187 0,8.927 7.262,16.189 16.188,16.189 8.926,0 16.188,-7.262 16.188,-16.189 C 16.188,-17.068 8.926,-24.33 0,-24.33"
           style="fill:#231f20;fill-opacity:1;fill-rule:nonzero;stroke:none"
           id="path26"
           inkscape:connector-curvature="0" /></g><g
         id="g28"
         transform="translate(44.31773,301.29275)"><path
           d="m 0,0 c -3.426,0 -6.213,-2.787 -6.213,-6.213 0,-3.426 2.787,-6.213 6.213,-6.213 3.425,0 6.213,2.787 6.213,6.213 C 6.213,-2.787 3.425,0 0,0 m 0,-16.896 c -5.891,0 -10.683,4.792 -10.683,10.683 0,5.891 4.792,10.683 10.683,10.683 5.891,0 10.683,-4.792 10.683,-10.683 0,-5.891 -4.792,-10.683 -10.683,-10.683"
           style="fill:#30a287;fill-opacity:1;fill-rule:nonzero;stroke:none"
           id="path30"
           inkscape:connector-curvature="0" /></g><path
         d="m 36.38223,297.60855 h 7.194 v 18.337 h -7.194 z"
         style="fill:#30a287;fill-opacity:1;fill-rule:nonzero;stroke:none"
         id="path32"
         inkscape:connector-curvature="0" /><g
         id="g34"
         transform="translate(37.95693,295.04275)"><path
           d="m 0,0 4.337,-3.22 c 1.726,-1.282 4.188,-0.918 5.47,0.809 1.281,1.725 0.918,4.187 -0.809,5.469 L 4.661,6.278 C 2.935,7.56 0.473,7.196 -0.809,5.47 -2.09,3.743 -1.727,1.282 0,0"
           style="fill:#30a287;fill-opacity:1;fill-rule:nonzero;stroke:none"
           id="path36"
           inkscape:connector-curvature="0" /></g><g
         id="g38"
         transform="translate(42.45593,295.07985)"><path
           d="M 0,0 C 0,-1.028 0.833,-1.861 1.862,-1.861 2.89,-1.861 3.724,-1.028 3.724,0 3.724,1.028 2.89,1.862 1.862,1.862 0.833,1.862 0,1.028 0,0"
           style="fill:#231f20;fill-opacity:1;fill-rule:nonzero;stroke:none"
           id="path40"
           inkscape:connector-curvature="0" /></g><g
         id="g42"
         transform="translate(251.98423,295.07985)"><path
           d="m 0,0 c 0,-6.719 5.446,-12.165 12.165,-12.165 6.719,0 12.166,5.446 12.166,12.165 0,6.719 -5.447,12.165 -12.166,12.165 C 5.446,12.165 0,6.719 0,0"
           style="fill:#ffffff;fill-opacity:1;fill-rule:nonzero;stroke:none"
           id="path44"
           inkscape:connector-curvature="0" /></g><g
         id="g46"
         transform="translate(264.14933,303.22245)"><path
           d="m 0,0 c -4.489,0 -8.143,-3.652 -8.143,-8.143 0,-4.489 3.654,-8.142 8.143,-8.142 4.49,0 8.143,3.653 8.143,8.142 C 8.143,-3.652 4.49,0 0,0 m 0,-24.33 c -8.926,0 -16.187,7.262 -16.187,16.187 0,8.927 7.261,16.189 16.187,16.189 8.927,0 16.188,-7.262 16.188,-16.189 C 16.188,-17.068 8.927,-24.33 0,-24.33"
           style="fill:#231f20;fill-opacity:1;fill-rule:nonzero;stroke:none"
           id="path48"
           inkscape:connector-curvature="0" /></g><g
         id="g50"
         transform="translate(264.14933,301.29275)"><path
           d="m 0,0 c -3.426,0 -6.213,-2.787 -6.213,-6.213 0,-3.426 2.787,-6.213 6.213,-6.213 3.426,0 6.214,2.787 6.214,6.213 C 6.214,-2.787 3.426,0 0,0 m 0,-16.896 c -5.891,0 -10.683,4.792 -10.683,10.683 0,5.891 4.792,10.683 10.683,10.683 5.892,0 10.684,-4.792 10.684,-10.683 0,-5.891 -4.792,-10.683 -10.684,-10.683"
           style="fill:#30a287;fill-opacity:1;fill-rule:nonzero;stroke:none"
           id="path52"
           inkscape:connector-curvature="0" /></g><path
         d="m 256.21423,297.60855 h 7.193 v 18.337 h -7.193 z"
         style="fill:#30a287;fill-opacity:1;fill-rule:nonzero;stroke:none"
         id="path54"
         inkscape:connector-curvature="0" /><g
         id="g56"
         transform="translate(257.78893,295.04275)"><path
           d="m 0,0 4.337,-3.22 c 1.726,-1.282 4.187,-0.918 5.47,0.809 1.281,1.725 0.918,4.187 -0.809,5.469 L 4.661,6.278 C 2.935,7.56 0.473,7.196 -0.809,5.47 -2.091,3.743 -1.727,1.282 0,0"
           style="fill:#30a287;fill-opacity:1;fill-rule:nonzero;stroke:none"
           id="path58"
           inkscape:connector-curvature="0" /></g><g
         id="g60"
         transform="translate(262.28803,295.07985)"><path
           d="M 0,0 C 0,-1.028 0.834,-1.861 1.861,-1.861 2.89,-1.861 3.724,-1.028 3.724,0 3.724,1.028 2.89,1.862 1.861,1.862 0.834,1.862 0,1.028 0,0"
           style="fill:#231f20;fill-opacity:1;fill-rule:nonzero;stroke:none"
           id="path62"
           inkscape:connector-curvature="0" /></g><g
         id="g64"
         transform="translate(286.33583,587.13405)"><path
           d="M 0,0 -265.375,-63.544 V -271.4 H 0 Z"
           style="fill:#30a287;fill-opacity:1;fill-rule:nonzero;stroke:none"
           id="path66"
           inkscape:connector-curvature="0" /></g><g
         id="g68"
         transform="translate(29.59223,473.22635)"><path
           d="m 0,0 h -26 c -2.888,0 -5.25,2.363 -5.25,5.25 0,2.888 2.362,5.25 5.25,5.25 H 0 C 2.888,10.5 5.25,8.138 5.25,5.25 5.25,2.363 2.888,0 0,0"
           style="fill:#6bbda7;fill-opacity:1;fill-rule:nonzero;stroke:none"
           id="path70"
           inkscape:connector-curvature="0" /></g><g
         id="g72"
         transform="translate(3.59223,473.22635)"><path
           d="m 0,0 h 26 c 2.887,0 5.25,2.362 5.25,5.25 H -5.25 C -5.25,2.362 -2.888,0 0,0"
           style="fill:#317360;fill-opacity:1;fill-rule:nonzero;stroke:none"
           id="path74"
           inkscape:connector-curvature="0" /></g><g
         id="g987"
         transform="rotate(-80,160.6699,490.51644)"><g
           transform="translate(-181.01257,574.46831)"
           id="g76"><path
             id="path78"
             style="fill:#231f20;fill-opacity:1;fill-rule:nonzero;stroke:none"
             d="m 0,0 6.382,10.136 252.096,62.458 6.897,-9.05 z"
             inkscape:connector-curvature="0" /></g><g
           transform="translate(-174.63057,584.60431)"
           id="g80"><path
             id="path82"
             style="fill:#a8a9ad;fill-opacity:1;fill-rule:nonzero;stroke:none"
             d="m 0,0 -4.098,-6.51 259.556,62.151 -4.904,6.435 z m -10.559,-11.142 8.664,13.763 253.64,62.84 8.891,-11.665 z"
             inkscape:connector-curvature="0" /></g></g><path
         d="m 290.00823,405.22655 h -272.721 v 46.208 h 272.721 z"
         style="fill:#317360;fill-opacity:1;fill-rule:nonzero;stroke:none"
         id="path84"
         inkscape:connector-curvature="0" /><path
         d="m 18.78723,406.72655 h 269.722 v 43.208 h -269.722 z m 272.721,-3 h -275.722 v 49.208 h 275.722 z"
         style="fill:#30a287;fill-opacity:1;fill-rule:nonzero;stroke:none"
         id="path86"
         inkscape:connector-curvature="0" /><path
         id="path90"
         style="fill:#317360;fill-opacity:1;fill-rule:nonzero;stroke:none"
         d="m 293.34173,589.72635 -272.381,-66.136 h -9.619 v -20.98 h 9.619 l 272.381,62.814 z"
         inkscape:connector-curvature="0" /><path
         id="path94"
         style="fill:#30a287;fill-opacity:1;fill-rule:nonzero;stroke:none"
         d="m 12.84173,504.11015 h 7.948 l 271.052,62.508 v 21.2 l -270.701,-65.728 h -8.299 z m 8.29,-3 h -11.29 v 23.98 h 10.939 l 274.061,66.544 v -27.403 z"
         inkscape:connector-curvature="0" /></g></g></svg>