<?xml version="1.0" encoding="UTF-8" standalone="no"?>
<svg
   xmlns:dc="http://purl.org/dc/elements/1.1/"
   xmlns:cc="http://creativecommons.org/ns#"
   xmlns:rdf="http://www.w3.org/1999/02/22-rdf-syntax-ns#"
   xmlns:svg="http://www.w3.org/2000/svg"
   xmlns="http://www.w3.org/2000/svg"
   viewBox="0 0 71.25 40"
   height="40"
   width="71.25"
   xml:space="preserve"
   version="1.1"
   id="svg2"><metadata
     id="metadata8"><rdf:RDF><cc:Work
         rdf:about=""><dc:format>image/svg+xml</dc:format><dc:type
           rdf:resource="http://purl.org/dc/dcmitype/StillImage" /><dc:title></dc:title></cc:Work></rdf:RDF></metadata><defs
     id="defs6"><clipPath
       id="clipPath16"
       clipPathUnits="userSpaceOnUse"><path
         id="path18"
         d="M 0,32 57,32 57,0 0,0 0,32 Z" /></clipPath><clipPath
       id="clipPath56"
       clipPathUnits="userSpaceOnUse"><path
         id="path58"
         d="m 27.9185,23.25 22.1236,0 0,-14.5 -22.1236,0 0,14.5 z" /></clipPath></defs><g
     transform="matrix(1.25,0,0,-1.25,0,40)"
     id="g10"><g
       id="g12"><g
         clip-path="url(#clipPath16)"
         id="g14"><g
           transform="translate(7.1821,19.1393)"
           id="g20"><path
             id="path22"
             style="fill:#8b3c27;fill-opacity:1;fill-rule:nonzero;stroke:none"
             d="m 0,0 -0.496,-1.43 c -0.77,-2.223 -0.67,-4.655 0.282,-6.807 0.133,-0.303 0.411,-0.518 0.737,-0.573 l 8.816,-1.473 c 0.421,-0.071 0.849,-0.106 1.276,-0.106 l 10.121,0 10.779,0 c 0.415,0 0.828,0.045 1.235,0.133 l 7.056,1.534 1.223,0.744 c 1.525,0.929 2.202,2.792 1.629,4.483 L 41.472,0 0,0 Z" /></g><g
           transform="translate(48.6543,19.1393)"
           id="g24"><path
             id="path26"
             style="fill:#803426;fill-opacity:1;fill-rule:nonzero;stroke:none"
             d="m 0,0 c 0,-2.271 -9.283,-4.111 -20.736,-4.111 -11.452,0 -20.736,1.84 -20.736,4.111 0,2.271 9.284,4.111 20.736,4.111 C -9.283,4.111 0,2.271 0,0" /></g><g
           transform="translate(16.5918,19.2248)"
           id="g28"><path
             id="path30"
             style="fill:#783021;fill-opacity:1;fill-rule:nonzero;stroke:none"
             d="M 0,0 C 0.566,-1.342 0.849,-2.457 0.632,-2.491 0.415,-2.524 -0.22,-1.463 -0.786,-0.121 -1.352,1.221 -1.635,2.336 -1.417,2.369 -1.201,2.403 -0.566,1.342 0,0" /></g><g
           transform="translate(22.1089,19.6447)"
           id="g32"><path
             id="path34"
             style="fill:#783021;fill-opacity:1;fill-rule:nonzero;stroke:none"
             d="M 0,0 C 0.679,-1.609 1.039,-2.943 0.804,-2.979 0.569,-3.015 -0.171,-1.74 -0.85,-0.131 -1.528,1.478 -1.888,2.812 -1.653,2.848 -1.418,2.884 -0.678,1.609 0,0" /></g><g
           transform="translate(32.085,19.6247)"
           id="g36"><path
             id="path38"
             style="fill:#783021;fill-opacity:1;fill-rule:nonzero;stroke:none"
             d="M 0,0 C 0.454,-1.465 0.645,-2.672 0.424,-2.697 0.204,-2.723 -0.343,-1.555 -0.798,-0.091 -1.252,1.374 -1.442,2.582 -1.222,2.606 -1.002,2.631 -0.455,1.464 0,0" /></g><g
           transform="translate(27.1963,19.548)"
           id="g40"><path
             id="path42"
             style="fill:#783021;fill-opacity:1;fill-rule:nonzero;stroke:none"
             d="M 0,0 C 0.679,-1.609 1.039,-2.943 0.804,-2.979 0.569,-3.016 -0.171,-1.74 -0.85,-0.131 -1.528,1.478 -1.888,2.812 -1.653,2.848 -1.418,2.884 -0.678,1.609 0,0" /></g><g
           transform="translate(37.3037,19.5431)"
           id="g44"><path
             id="path46"
             style="fill:#783021;fill-opacity:1;fill-rule:nonzero;stroke:none"
             d="M 0,0 C 0.608,-1.444 0.927,-2.642 0.71,-2.675 0.492,-2.709 -0.177,-1.565 -0.786,-0.122 -1.395,1.323 -1.712,2.521 -1.495,2.554 -1.278,2.587 -0.609,1.444 0,0" /></g><g
           transform="translate(41.7441,19.5192)"
           id="g48"><path
             id="path50"
             style="fill:#783021;fill-opacity:1;fill-rule:nonzero;stroke:none"
             d="M 0,0 C 0.487,-1.155 0.775,-2.108 0.645,-2.128 0.514,-2.148 0.014,-1.229 -0.474,-0.073 -0.961,1.082 -1.249,2.034 -1.119,2.055 -0.988,2.075 -0.487,1.155 0,0" /></g><g
           id="g52"><g
             id="g54" /><g
             id="g60"><g
               style="opacity:0.19999701"
               id="g62"
               clip-path="url(#clipPath56)"><g
                 id="g64"
                 transform="translate(49.8398,15.6442)"><path
                   id="path66"
                   style="fill:#8b3c27;fill-opacity:1;fill-rule:nonzero;stroke:none"
                   d="m 0,0 -1.186,3.495 c 0,2.27 -9.283,4.111 -20.735,4.111 l 0,-14.5 10.778,0 c 0.415,0 0.829,0.044 1.235,0.132 l 7.056,1.534 1.223,0.745 C -0.104,-3.555 0.573,-1.691 0,0" /></g></g></g></g></g></g></g></svg>