<?xml version="1.0" encoding="UTF-8" standalone="no"?>
<svg
   xmlns:dc="http://purl.org/dc/elements/1.1/"
   xmlns:cc="http://creativecommons.org/ns#"
   xmlns:rdf="http://www.w3.org/1999/02/22-rdf-syntax-ns#"
   xmlns:svg="http://www.w3.org/2000/svg"
   xmlns="http://www.w3.org/2000/svg"
   id="svg6323"
   version="1.1"
   viewBox="0 0 210 297"
   height="297mm"
   width="210mm">
  <defs
     id="defs6317">
    <clipPath
       id="clipPath1100"
       clipPathUnits="userSpaceOnUse">
      <path
         id="path1098"
         d="m 176.336,76.9345 h 13.651 V 25.4444 h -13.651 z" />
    </clipPath>
  </defs>
  <metadata
     id="metadata6320">
    <rdf:RDF>
      <cc:Work
         rdf:about="">
        <dc:format>image/svg+xml</dc:format>
        <dc:type
           rdf:resource="http://purl.org/dc/dcmitype/StillImage" />
        <dc:title></dc:title>
      </cc:Work>
    </rdf:RDF>
  </metadata>
  <g
     id="layer1">
    <g
       transform="matrix(0.35277777,0,0,-0.35277777,7.3167181,18.249461)"
       id="g1066">
      <path
         id="path1068"
         style="fill:#bb7f4a;fill-opacity:1;fill-rule:nonzero;stroke:none"
         d="M 0,0 V 8.494 H -7.444 V 0 c 0,-2.053 1.666,-3.716 3.721,-3.716 C -1.667,-3.716 0,-2.053 0,0" />
    </g>
    <g
       transform="matrix(0.35277777,0,0,-0.35277777,5.4350011,15.705262)"
       id="g1070">
      <path
         id="path1072"
         style="fill:#9c6338;fill-opacity:1;fill-rule:nonzero;stroke:none"
         d="M 0,0 C 0,0.365 0.294,0.661 0.661,0.661 1.026,0.661 1.322,0.364 1.322,0 V -3.094 C 1.322,-3.459 1.029,-3.755 0.661,-3.755 0.296,-3.755 0,-3.459 0,-3.094 Z" />
    </g>
    <g
       transform="matrix(0.35277777,0,0,-0.35277777,5.6682241,17.735111)"
       id="g1074">
      <path
         id="path1076"
         style="fill:#9c6338;fill-opacity:1;fill-rule:nonzero;stroke:none"
         d="M 0,0 C 0.365,0 0.661,0.941 0.661,2.104 0.661,3.265 0.365,4.207 0,4.207 -0.365,4.207 -0.661,3.265 -0.661,2.104 -0.661,0.941 -0.365,0 0,0" />
    </g>
    <g
       transform="matrix(0.35277777,0,0,-0.35277777,5.5032291,15.832897)"
       id="g1078">
      <path
         id="path1080"
         style="fill:#f6f6f6;fill-opacity:1;fill-rule:nonzero;stroke:none"
         d="m 0,0 h 12.367 c 1.446,0 2.62,1.174 2.62,2.622 v 24.664 c 0,7.535 -6.118,13.643 -13.665,13.643 C 0.877,40.929 0.436,40.908 0,40.866 6.927,40.202 12.343,34.375 12.343,27.286 V 2.622 C 12.343,1.174 11.168,0 9.722,0 Z" />
    </g>
    <g
       transform="matrix(0.35277777,0,0,-0.35277777,10.819344,6.2067923)"
       id="g1082">
      <path
         id="path1084"
         style="fill:#90dbf8;fill-opacity:1;fill-rule:nonzero;stroke:none"
         d="m 0,0 v -24.64 c 0,-1.446 -1.173,-2.619 -2.617,-2.619 h -22.068 c -1.445,0 -2.617,1.171 -2.617,2.62 V 0 c -0.001,7.528 6.112,13.63 13.651,13.63 C -6.111,13.63 0,7.528 0,0" />
    </g>
    <g
       transform="matrix(0.35277777,0,0,-0.35277777,3.4540841,6.9039163)"
       id="g1086">
      <path
         id="path1088"
         style="fill:#86d3f0;fill-opacity:1;fill-rule:nonzero;stroke:none"
         d="m 0,0 c 0,1.239 1.005,2.244 2.239,2.243 1.238,0 2.24,-1.004 2.24,-2.243 v -13.017 c 0,-1.239 -1.004,-2.243 -2.239,-2.243 -1.237,0 -2.239,1.004 -2.24,2.243 z" />
    </g>
    <g
       transform="matrix(0.35277777,0,0,-0.35277777,6.8626591,7.0141593)"
       id="g1090">
      <path
         id="path1092"
         style="fill:#86d3f0;fill-opacity:1;fill-rule:nonzero;stroke:none"
         d="M 0,0 C 0,1.239 1.005,2.244 2.239,2.244 3.477,2.244 4.479,1.24 4.479,0 L 4.48,-13.017 c 0,-1.239 -1.005,-2.243 -2.24,-2.243 -1.236,0 -2.239,1.004 -2.239,2.243 z" />
    </g>
    <g
       id="g1094"
       transform="matrix(0.35277777,0,0,-0.35277777,-56.115762,28.570257)">
      <g
         id="g1096" />
      <g
         id="g1108">
        <g
           style="opacity:0.14999402"
           id="g1106"
           clip-path="url(#clipPath1100)">
          <g
             id="g1104"
             transform="translate(189.9873,63.2978)">
            <path
               id="path1102"
               style="fill:#656767;fill-opacity:1;fill-rule:nonzero;stroke:none"
               d="m 0,0 c 0,7.063 -5.383,12.871 -12.275,13.56 -0.453,0.049 -0.913,0.073 -1.376,0.077 v -51.491 c 2.055,10e-4 3.721,1.665 3.721,3.717 v 6.877 h 4.854 c -0.091,-0.009 -0.179,-0.027 -0.272,-0.027 h 2.645 c 0.363,0 0.709,0.075 1.023,0.208 0.981,0.379 1.68,1.325 1.68,2.439 z" />
          </g>
        </g>
      </g>
    </g>
  </g>
</svg>
