<?xml version="1.0" encoding="UTF-8" standalone="no"?>
<svg
   xmlns:dc="http://purl.org/dc/elements/1.1/"
   xmlns:cc="http://creativecommons.org/ns#"
   xmlns:rdf="http://www.w3.org/1999/02/22-rdf-syntax-ns#"
   xmlns:svg="http://www.w3.org/2000/svg"
   xmlns="http://www.w3.org/2000/svg"
   viewBox="0 0 71.25 40"
   height="40"
   width="71.25"
   xml:space="preserve"
   version="1.1"
   id="svg2"><metadata
     id="metadata8"><rdf:RDF><cc:Work
         rdf:about=""><dc:format>image/svg+xml</dc:format><dc:type
           rdf:resource="http://purl.org/dc/dcmitype/StillImage" /><dc:title></dc:title></cc:Work></rdf:RDF></metadata><defs
     id="defs6"><clipPath
       id="clipPath16"
       clipPathUnits="userSpaceOnUse"><path
         id="path18"
         d="M 0,32 57,32 57,0 0,0 0,32 Z" /></clipPath><clipPath
       id="clipPath112"
       clipPathUnits="userSpaceOnUse"><path
         id="path114"
         d="m 27.4926,24.416 27.5824,0 0,-15.90729 -27.5824,0 0,15.90729 z" /></clipPath></defs><g
     transform="matrix(1.25,0,0,-1.25,0,40)"
     id="g10"><g
       id="g12"><g
         clip-path="url(#clipPath16)"
         id="g14"><g
           transform="translate(55.0752,12.7646)"
           id="g20"><path
             id="path22"
             style="fill:#d29c33;fill-opacity:1;fill-rule:nonzero;stroke:none"
             d="m 0,0 c 0,-4.168 -6.131,-3.755 -15.052,-3.634 -3.622,0.05 -7.705,-0.622 -12.023,-0.622 -4.177,0 -8.134,0.68 -11.667,0.628 C -47.855,-3.765 -54.15,-4.223 -54.15,0 c 0,5.86 11.614,11.651 26.567,11.651 C -12.63,11.651 0,5.86 0,0" /></g><g
           transform="translate(17.2334,23.0224)"
           id="g24"><path
             id="path26"
             style="fill:#fcf695;fill-opacity:1;fill-rule:nonzero;stroke:none"
             d="m 0,0 c -0.433,-0.133 -0.67,-0.398 -0.567,-0.602 0.102,-0.204 0.506,-0.271 0.939,-0.137 0.433,0.134 0.919,0.71 0.919,0.71 0,0 -0.858,0.162 -1.291,0.029" /></g><g
           transform="translate(21.8667,23.2417)"
           id="g28"><path
             id="path30"
             style="fill:#fcf695;fill-opacity:1;fill-rule:nonzero;stroke:none"
             d="m 0,0 c -0.416,0.163 -0.826,0.124 -0.951,-0.073 -0.125,-0.196 0.082,-0.475 0.498,-0.638 0.416,-0.163 1.289,-0.06 1.289,-0.06 0,0 -0.419,0.608 -0.836,0.771" /></g><g
           transform="translate(28.2158,18.7246)"
           id="g32"><path
             id="path34"
             style="fill:#fcf695;fill-opacity:1;fill-rule:nonzero;stroke:none"
             d="m 0,0 c 0.312,0.271 0.374,0.59 0.166,0.737 -0.208,0.147 -0.608,0.065 -0.919,-0.205 -0.312,-0.27 -0.419,-0.956 -0.419,-0.956 0,0 0.86,0.153 1.172,0.424" /></g><g
           transform="translate(34.8369,22.5268)"
           id="g36"><path
             id="path38"
             style="fill:#fcf695;fill-opacity:1;fill-rule:nonzero;stroke:none"
             d="M 0,0 C 0.371,0.219 0.51,0.524 0.341,0.699 0.172,0.874 -0.24,0.854 -0.611,0.634 -0.982,0.415 -1.254,-0.243 -1.254,-0.243 c 0,0 0.882,0.024 1.254,0.243" /></g><g
           transform="translate(35.083,19.584)"
           id="g40"><path
             id="path42"
             style="fill:#fcf695;fill-opacity:1;fill-rule:nonzero;stroke:none"
             d="m 0,0 c -0.005,-0.364 0.219,-0.636 0.499,-0.639 0.28,-0.002 0.511,0.266 0.516,0.63 C 1.021,0.355 0.521,0.925 0.521,0.925 0.521,0.925 0.005,0.364 0,0" /></g><g
           transform="translate(25.4824,20.7759)"
           id="g44"><path
             id="path46"
             style="fill:#fcf695;fill-opacity:1;fill-rule:nonzero;stroke:none"
             d="M 0,0 C -0.208,-0.326 -0.158,-0.646 0.092,-0.744 0.343,-0.842 0.7,-0.68 0.908,-0.354 1.116,-0.029 0.984,0.655 0.984,0.655 0.984,0.655 0.208,0.326 0,0" /></g><g
           transform="translate(38.6445,21.4756)"
           id="g48"><path
             id="path50"
             style="fill:#fcf695;fill-opacity:1;fill-rule:nonzero;stroke:none"
             d="M 0,0 C 0.433,0.134 0.67,0.398 0.566,0.603 0.464,0.807 0.06,0.873 -0.373,0.739 -0.806,0.605 -1.291,0.028 -1.291,0.028 -1.291,0.028 -0.433,-0.134 0,0" /></g><g
           transform="translate(32.9492,20.1582)"
           id="g52"><path
             id="path54"
             style="fill:#fcf695;fill-opacity:1;fill-rule:nonzero;stroke:none"
             d="M 0,0 C 0.416,-0.162 0.826,-0.123 0.951,0.073 1.076,0.27 0.869,0.549 0.452,0.711 0.036,0.874 -0.837,0.77 -0.837,0.77 -0.837,0.77 -0.416,0.163 0,0" /></g><g
           transform="translate(29.7646,23.0058)"
           id="g56"><path
             id="path58"
             style="fill:#fcf695;fill-opacity:1;fill-rule:nonzero;stroke:none"
             d="m 0,0 c -0.311,-0.271 -0.373,-0.59 -0.164,-0.737 0.208,-0.147 0.607,-0.065 0.919,0.205 0.31,0.271 0.417,0.957 0.417,0.957 C 1.172,0.425 0.312,0.271 0,0" /></g><g
           transform="translate(21.3701,19.6084)"
           id="g60"><path
             id="path62"
             style="fill:#fcf695;fill-opacity:1;fill-rule:nonzero;stroke:none"
             d="m 0,0 c -0.371,-0.219 -0.509,-0.524 -0.34,-0.699 0.169,-0.175 0.581,-0.154 0.952,0.065 0.371,0.219 0.641,0.878 0.641,0.878 C 1.253,0.244 0.371,0.22 0,0" /></g><g
           transform="translate(25.9136,23.4355)"
           id="g64"><path
             id="path66"
             style="fill:#fcf695;fill-opacity:1;fill-rule:nonzero;stroke:none"
             d="m 0,0 c -0.457,0.069 -0.838,-0.054 -0.892,-0.27 -0.053,-0.215 0.243,-0.441 0.699,-0.51 0.457,-0.069 1.262,0.214 1.262,0.214 0,0 -0.612,0.497 -1.069,0.566" /></g><g
           transform="translate(30.5039,20.5361)"
           id="g68"><path
             id="path70"
             style="fill:#fcf695;fill-opacity:1;fill-rule:nonzero;stroke:none"
             d="M 0,0 C 0.207,0.326 0.157,0.646 -0.094,0.745 -0.344,0.842 -0.701,0.68 -0.908,0.354 -1.116,0.028 -0.984,-0.655 -0.984,-0.655 c 0,0 0.776,0.329 0.984,0.655" /></g><g
           transform="translate(18.9839,21.0127)"
           id="g72"><path
             id="path74"
             style="fill:#fcf695;fill-opacity:1;fill-rule:nonzero;stroke:none"
             d="m 0,0 c -0.208,0.326 -0.566,0.487 -0.816,0.389 -0.251,-0.098 -0.3,-0.42 -0.091,-0.745 0.208,-0.326 0.986,-0.653 0.986,-0.653 0,0 0.129,0.684 -0.079,1.009" /></g><g
           transform="translate(12.5625,18.9824)"
           id="g76"><path
             id="path78"
             style="fill:#fcf695;fill-opacity:1;fill-rule:nonzero;stroke:none"
             d="M 0,0 C 0.312,-0.27 0.712,-0.351 0.919,-0.204 1.127,-0.056 1.064,0.263 0.752,0.533 0.44,0.803 -0.421,0.956 -0.421,0.956 -0.421,0.956 -0.312,0.27 0,0" /></g><g
           transform="translate(13.7866,21.5068)"
           id="g80"><path
             id="path82"
             style="fill:#fcf695;fill-opacity:1;fill-rule:nonzero;stroke:none"
             d="M 0,0 C -0.249,-0.308 -0.24,-0.631 -0.003,-0.748 0.233,-0.865 0.61,-0.732 0.858,-0.424 1.106,-0.116 1.063,0.574 1.063,0.574 1.063,0.574 0.248,0.308 0,0" /></g><g
           transform="translate(24.1235,21.6323)"
           id="g84"><path
             id="path86"
             style="fill:#fcf695;fill-opacity:1;fill-rule:nonzero;stroke:none"
             d="M 0,0 C 0.331,0.256 0.417,0.572 0.22,0.728 0.023,0.884 -0.382,0.821 -0.713,0.565 -1.044,0.31 -1.202,-0.371 -1.202,-0.371 c 0,0 0.871,0.115 1.202,0.371" /></g><g
           transform="translate(39.1924,18.7334)"
           id="g88"><path
             id="path90"
             style="fill:#fcf695;fill-opacity:1;fill-rule:nonzero;stroke:none"
             d="M 0,0 C 0.207,0.326 0.158,0.646 -0.093,0.745 -0.344,0.842 -0.701,0.68 -0.908,0.354 -1.115,0.028 -0.983,-0.655 -0.983,-0.655 c 0,0 0.776,0.329 0.983,0.655" /></g><g
           transform="translate(9.6758,19.1011)"
           id="g92"><path
             id="path94"
             style="fill:#fcf695;fill-opacity:1;fill-rule:nonzero;stroke:none"
             d="M 0,0 C 0.331,0.256 0.417,0.572 0.22,0.728 0.022,0.884 -0.382,0.821 -0.713,0.565 -1.044,0.31 -1.202,-0.371 -1.202,-0.371 c 0,0 0.871,0.115 1.202,0.371" /></g><g
           transform="translate(44.8467,20.0556)"
           id="g96"><path
             id="path98"
             style="fill:#fcf695;fill-opacity:1;fill-rule:nonzero;stroke:none"
             d="m 0,0 c -0.278,0.292 -0.666,0.402 -0.891,0.271 -0.224,-0.131 -0.201,-0.454 0.077,-0.746 0.278,-0.292 1.117,-0.507 1.117,-0.507 0,0 -0.026,0.69 -0.303,0.982" /></g><g
           transform="translate(16.6636,18.4746)"
           id="g100"><path
             id="path102"
             style="fill:#fcf695;fill-opacity:1;fill-rule:nonzero;stroke:none"
             d="m 0,0 c 0.106,-0.354 0.407,-0.576 0.68,-0.526 0.273,0.05 0.414,0.354 0.308,0.708 C 0.881,0.537 0.221,0.996 0.221,0.996 0.221,0.996 -0.107,0.354 0,0" /></g><g
           transform="translate(41.2979,19.9111)"
           id="g104"><path
             id="path106"
             style="fill:#fcf695;fill-opacity:1;fill-rule:nonzero;stroke:none"
             d="M 0,0 C -0.208,-0.326 -0.158,-0.646 0.093,-0.745 0.343,-0.842 0.7,-0.681 0.908,-0.354 1.115,-0.029 0.984,0.654 0.984,0.654 0.984,0.654 0.208,0.326 0,0" /></g><g
           id="g108"><g
             id="g110" /><g
             id="g116"><g
               style="opacity:0.25"
               id="g118"
               clip-path="url(#clipPath112)"><g
                 id="g120"
                 transform="translate(55.0752,12.7646)"><path
                   id="path122"
                   style="fill:#b07f29;fill-opacity:1;fill-rule:nonzero;stroke:none"
                   d="m 0,0 c 0,-4.168 -6.131,-3.755 -15.052,-3.634 -3.622,0.05 -7.931,-0.622 -12.25,-0.622 l -0.281,15.907 C -12.63,11.651 0,5.86 0,0" /></g></g></g></g></g></g></g></svg>